<?xml version="1.0" encoding="UTF-8"?>
<svg version="1.1" xmlns="http://www.w3.org/2000/svg" width="512" height="339">
<path d="M0 0 C2.88668176 1.63762643 2.88668176 1.63762643 5.94921875 2.56640625 C7.95553149 1.89067896 7.95553149 1.89067896 10.0625 0.72265625 C10.8865332 0.30387207 11.71056641 -0.11491211 12.55957031 -0.54638672 C13.4512793 -1.00416504 14.34298828 -1.46194336 15.26171875 -1.93359375 C54.59853203 -21.26277296 100.86763351 -24.37042128 142.57421875 -10.68359375 C152.13559132 -7.37376889 161.11220006 -3.33797076 169.94921875 1.56640625 C171.1703117 2.22184106 172.39166567 2.87678981 173.61328125 3.53125 C181.49754787 7.82653718 189.1995698 12.60792494 195.94921875 18.56640625 C195.94921875 19.22640625 195.94921875 19.88640625 195.94921875 20.56640625 C196.53703125 20.83839844 197.12484375 21.11039063 197.73046875 21.390625 C212.23186792 29.07534534 223.15916728 46.24009639 231.94921875 59.56640625 C232.60664063 60.56027344 233.2640625 61.55414063 233.94140625 62.578125 C243.6018078 78.18167681 249.6478006 95.82305639 253.94921875 113.56640625 C254.12710937 114.25573242 254.305 114.94505859 254.48828125 115.65527344 C260.2542681 138.68489951 258.85266823 166.74711824 252.94921875 189.56640625 C252.76198242 190.32356934 252.57474609 191.08073242 252.38183594 191.86083984 C249.68165707 202.59859777 245.65627763 212.56594205 240.94921875 222.56640625 C240.47742188 223.6028125 240.005625 224.63921875 239.51953125 225.70703125 C228.01397227 250.01821237 208.28570121 272.67541794 185.94921875 287.56640625 C185.12164062 288.13875 184.2940625 288.71109375 183.44140625 289.30078125 C147.89684166 312.99715764 102.76414156 323.79479898 60.46484375 315.54296875 C58.95844376 315.2230078 57.45325628 314.89729451 55.94921875 314.56640625 C55.12486328 314.38948242 54.30050781 314.21255859 53.45117188 314.03027344 C40.77312918 311.25185303 28.62934963 307.6946361 17.125 301.55859375 C16.49770996 301.22714355 15.87041992 300.89569336 15.22412109 300.55419922 C13.49321857 299.62366087 11.78101098 298.6585856 10.0703125 297.69140625 C5.09482129 295.89798764 2.27231832 297.95306977 -2.3203125 300.08203125 C-3.48949219 300.654375 -4.65867188 301.22671875 -5.86328125 301.81640625 C-46.08138483 320.83801148 -93.06667381 323.18236628 -135.01171875 308.19140625 C-165.02654366 296.61336058 -193.00227916 277.69613764 -212.05078125 251.44140625 C-212.655271 250.61390869 -213.25976074 249.78641113 -213.88256836 248.93383789 C-218.82821672 242.06749788 -223.1255361 235.06180101 -227.05078125 227.56640625 C-227.50582031 226.73496094 -227.96085937 225.90351563 -228.4296875 225.046875 C-237.38512531 208.11857093 -243.10974484 188.57050692 -245.05078125 169.56640625 C-245.21707031 167.96925781 -245.21707031 167.96925781 -245.38671875 166.33984375 C-245.67999377 163.08211316 -245.8882156 159.83320163 -246.05078125 156.56640625 C-246.10492188 155.4990625 -246.1590625 154.43171875 -246.21484375 153.33203125 C-247.20001791 113.74594214 -234.43373097 72.55184709 -208.05078125 42.56640625 C-207.36757812 41.77492187 -206.684375 40.9834375 -205.98046875 40.16796875 C-196.54659253 29.44919183 -186.83119936 19.71291536 -175.05078125 11.56640625 C-173.53677734 10.49326172 -173.53677734 10.49326172 -171.9921875 9.3984375 C-121.85731945 -24.60660506 -53.49932652 -28.84005372 0 0 Z " fill="#FEDD2D" transform="translate(249.05078125,21.43359375)"/>
<path d="M0 0 C1.91796875 1.73046875 1.91796875 1.73046875 3 3 C2.03320312 3.6290625 1.06640625 4.258125 0.0703125 4.90625 C-7.59278942 9.92846837 -15.02050173 15.04275147 -22 21 C-23.21042969 22.02673828 -23.21042969 22.02673828 -24.4453125 23.07421875 C-56.74022659 51.26899485 -76.15882448 91.43466134 -80 134 C-80.34628031 140.1304002 -80.31144833 146.27177954 -80.31884766 152.40991211 C-80.32816964 154.20520976 -80.33834159 156.00050316 -80.34928894 157.79579163 C-80.37634739 162.62118682 -80.3916658 167.44655322 -80.40471697 172.27200389 C-80.42045443 177.33286346 -80.44721021 182.39366514 -80.4727478 187.45448303 C-80.51934907 197.01627269 -80.55618287 206.57807347 -80.58942068 216.13991791 C-80.62777465 227.03489496 -80.6771496 237.9298136 -80.72740483 248.82474124 C-80.83044694 271.21645075 -80.91979662 293.60819785 -81 316 C-83.22760473 316.0130465 -85.45523172 316.02232514 -87.68286133 316.0300293 C-89.54362053 316.03839058 -89.54362053 316.03839058 -91.44197083 316.04692078 C-95.93778197 315.98763319 -100.2558914 315.53292312 -104.6875 314.8125 C-105.52563232 314.68012939 -106.36376465 314.54775879 -107.22729492 314.41137695 C-149.25944263 307.40536338 -189.74340644 284.68640285 -215 249.875 C-215.60448975 249.04750244 -216.20897949 248.22000488 -216.83178711 247.36743164 C-221.77743547 240.50109163 -226.07475485 233.49539476 -230 226 C-230.45503906 225.16855469 -230.91007812 224.33710938 -231.37890625 223.48046875 C-240.33434406 206.55216468 -246.05896359 187.00410067 -248 168 C-248.16628906 166.40285156 -248.16628906 166.40285156 -248.3359375 164.7734375 C-248.62921252 161.51570691 -248.83743435 158.26679538 -249 155 C-249.05414063 153.93265625 -249.10828125 152.8653125 -249.1640625 151.765625 C-250.14923666 112.17953589 -237.38294972 70.98544084 -211 41 C-210.31679687 40.20851562 -209.63359375 39.41703125 -208.9296875 38.6015625 C-199.49581128 27.88278558 -189.78041811 18.14650911 -178 10 C-176.48599609 8.92685547 -176.48599609 8.92685547 -174.94140625 7.83203125 C-124.75006199 -26.2113175 -52.86091844 -31.57652214 0 0 Z " fill="#327DFE" transform="translate(252,23)"/>
<path d="M0 0 C1.03145519 0.00425617 1.03145519 0.00425617 2.08374786 0.00859833 C3.76084386 0.01593104 5.43792185 0.02720752 7.11499023 0.03930664 C7.23236312 23.9719778 7.32024052 47.90460513 7.37405109 71.83750725 C7.39971259 82.9527238 7.43462938 94.06776038 7.4921875 105.18286133 C7.54239498 114.88318998 7.57436854 124.58338816 7.58543271 134.28384316 C7.59188898 139.40895589 7.60680382 144.53369572 7.64364052 149.65868759 C8.00401081 201.90415969 -3.34277021 247.71056765 -40.88500977 286.03930664 C-41.64297852 286.84754883 -42.40094727 287.65579102 -43.18188477 288.48852539 C-51.9842023 297.6924085 -62.71521985 305.8949049 -73.88500977 312.03930664 C-74.54500977 312.03930664 -75.20500977 312.03930664 -75.88500977 312.03930664 C-76.21500977 313.02930664 -76.54500977 314.01930664 -76.88500977 315.03930664 C-78.47290039 316.11083984 -78.47290039 316.11083984 -80.54125977 317.09008789 C-81.690177 317.63874512 -81.690177 317.63874512 -82.86230469 318.19848633 C-83.69479736 318.57908203 -84.52729004 318.95967773 -85.38500977 319.35180664 C-86.24650635 319.74916016 -87.10800293 320.14651367 -87.99560547 320.5559082 C-108.42072709 329.82044781 -130.60645094 336.13839347 -153.17602539 336.06201172 C-154.43338501 336.05873367 -155.69074463 336.05545563 -156.98620605 336.05207825 C-158.42111389 336.0457563 -158.42111389 336.0457563 -159.88500977 336.03930664 C-159.95533464 312.65489013 -160.00811234 289.27049124 -160.04044628 265.88599014 C-160.05586375 255.02625222 -160.07685445 244.1665803 -160.11132812 233.30688477 C-160.14138823 223.83294748 -160.16062189 214.35905804 -160.16727525 204.88507438 C-160.17115959 199.87651118 -160.18017936 194.86808475 -160.20219994 189.85956573 C-160.22282866 185.12850144 -160.22879133 180.39762798 -160.22433281 175.66652298 C-160.22514639 173.94625174 -160.23095277 172.22597294 -160.24262619 170.50574112 C-160.48639844 132.67051672 -149.04588516 94.55584275 -124.88500977 65.03930664 C-124.45575195 64.50998535 -124.02649414 63.98066406 -123.58422852 63.43530273 C-110.91115453 47.86330873 -96.52049226 33.89913504 -78.76782227 24.18774414 C-76.85439416 23.13052995 -76.85439416 23.13052995 -75.49707031 21.59350586 C-62.60240968 9.16167039 -36.90443811 4.41340459 -19.94750977 1.60180664 C-18.96637207 1.43769287 -17.98523438 1.2735791 -16.97436523 1.10449219 C-11.29670554 0.25885309 -5.73636029 -0.04553686 0 0 Z " fill="#FE6446" transform="translate(330.885009765625,2.960693359375)"/>
</svg>
