<?xml version="1.0" encoding="UTF-8"?>
<svg version="1.1" xmlns="http://www.w3.org/2000/svg" width="373" height="135">
<path d="M0 0 C123.09 0 246.18 0 373 0 C373 44.55 373 89.1 373 135 C249.91 135 126.82 135 0 135 C0 90.45 0 45.9 0 0 Z " fill="#FEFEFE" transform="translate(0,0)"/>
<path d="M0 0 C15.18 0 30.36 0 46 0 C44.87563746 3.37308761 43.92657267 4.15123097 41.25 6.375 C37.98755705 9.10200384 34.98588699 11.97127389 32 15 C30.74434036 16.25736062 29.48775907 17.51380123 28.23046875 18.76953125 C27.33557739 19.66442261 27.33557739 19.66442261 26.42260742 20.57739258 C23.28173828 23.71826172 20.14086914 26.85913086 17 30 C31.85 30.495 31.85 30.495 47 31 C40.27113427 38.85034335 33.36353863 46.44620554 26.21020508 53.90893555 C24.61640045 55.58972513 23.04090542 57.2880748 21.48461914 59.00366211 C7.79093981 74.06309245 7.79093981 74.06309245 -0.41259766 75.09423828 C-5.04660398 75.26811986 -9.44011948 74.8055842 -14 74 C-10.35767102 69.65913471 -6.62361806 65.50230266 -2.6015625 61.50390625 C-2.1217392 61.02549789 -1.64191589 60.54708954 -1.14755249 60.05418396 C0.35759458 58.55455121 1.86621214 57.05846872 3.375 55.5625 C4.40778595 54.53474017 5.44033991 53.50674715 6.47265625 52.47851562 C8.97868799 49.98254019 11.48940274 47.49141613 14 45 C4.43 44.67 -5.14 44.34 -15 44 C-11.1819498 39.5456081 -7.51309612 35.39223603 -3.3828125 31.28515625 C-2.88079315 30.78455185 -2.3787738 30.28394745 -1.86154175 29.76817322 C-0.28506329 28.19721402 1.29488573 26.62980123 2.875 25.0625 C3.95596274 23.98656273 5.03669383 22.91039269 6.1171875 21.83398438 C8.74171106 19.21952417 11.37091775 16.60990742 14 14 C7.07 13.505 7.07 13.505 0 13 C0 8.71 0 4.42 0 0 Z " fill="#F10154" transform="translate(91,24)"/>
<path d="M0 0 C3.96 0 7.92 0 12 0 C12 20.13 12 40.26 12 61 C8.04 61 4.08 61 0 61 C-0.33 60.01 -0.66 59.02 -1 58 C-1.5775 58.474375 -2.155 58.94875 -2.75 59.4375 C-7.77798836 62.92915859 -14.09739421 62.60913519 -20 62 C-25.41622557 59.39218769 -29.42940788 55.1521674 -32.1171875 49.7578125 C-34.64037219 41.87565148 -34.00727381 31.55784794 -30.4453125 24.09765625 C-27.70028395 20.11365535 -24.49800316 17.74314712 -20 16 C-13.72834829 14.96630671 -8.39060711 15.40626193 -3 19 C-2.34 19.66 -1.68 20.32 -1 21 C-0.67 14.07 -0.34 7.14 0 0 Z " fill="#040404" transform="translate(176,32)"/>
<path d="M0 0 C5.69944896 2.43945286 8.66504203 7.08061423 11.5078125 12.421875 C12.5078125 15.421875 12.5078125 15.421875 12.5078125 25.421875 C1.9478125 25.421875 -8.6121875 25.421875 -19.4921875 25.421875 C-17.46602871 33.19464538 -17.46602871 33.19464538 -13.4921875 35.421875 C-11.34427821 35.73787689 -11.34427821 35.73787689 -9.0546875 35.671875 C-8.29285156 35.67703125 -7.53101563 35.6821875 -6.74609375 35.6875 C-4.20928941 35.38853519 -2.64288549 34.79174633 -0.4921875 33.421875 C0.1678125 32.431875 0.8278125 31.441875 1.5078125 30.421875 C3.890625 30.12890625 3.890625 30.12890625 6.6328125 30.234375 C7.99792969 30.27498047 7.99792969 30.27498047 9.390625 30.31640625 C10.08929688 30.35121094 10.78796875 30.38601562 11.5078125 30.421875 C11.18429362 35.75993657 8.2054967 38.87314964 4.5078125 42.421875 C-1.07789362 46.64521377 -7.80420783 46.00308254 -14.4921875 45.421875 C-20.14061634 44.40570709 -23.74696451 41.97135421 -27.23828125 37.43359375 C-31.21278502 31.05705344 -32.6747849 23.84722213 -31.4921875 16.421875 C-29.10493601 8.93960991 -25.17539984 4.41999982 -18.4921875 0.421875 C-13.36487138 -2.14178306 -5.45606933 -1.26567126 0 0 Z " fill="#060606" transform="translate(258.4921875,48.578125)"/>
<path d="M0 0 C0 3.63 0 7.26 0 11 C-2.3203125 11.0928125 -2.3203125 11.0928125 -4.6875 11.1875 C-8.62796569 11.57261634 -9.82100435 11.86118705 -13.0625 14.375 C-15.88781839 18.20285072 -16.15161362 21.12398335 -16.31640625 25.76171875 C-16.35830078 26.87998047 -16.40019531 27.99824219 -16.44335938 29.15039062 C-16.48267578 30.31763672 -16.52199219 31.48488281 -16.5625 32.6875 C-16.60568359 33.86634766 -16.64886719 35.04519531 -16.69335938 36.25976562 C-16.79951094 39.17303626 -16.90026629 42.0865026 -17 45 C-20.96 45 -24.92 45 -29 45 C-29 30.48 -29 15.96 -29 1 C-25.04 1 -21.08 1 -17 1 C-16.67 2.65 -16.34 4.3 -16 6 C-15.05125 5.195625 -14.1025 4.39125 -13.125 3.5625 C-8.61287946 -0.2629935 -5.83624335 -0.09413296 0 0 Z " fill="#050505" transform="translate(226,48)"/>
<path d="M0 0 C3.96 0 7.92 0 12 0 C12 14.52 12 29.04 12 44 C8.04 44 4.08 44 0 44 C0 29.48 0 14.96 0 0 Z " fill="#000000" transform="translate(279,49)"/>
<path d="M0 0 C2.75569447 2.18159145 4.43588747 3.87177494 6 7 C6.97354694 20.554769 6.97354694 20.554769 3 26 C-0.56913557 28.37942371 -2.5869766 28.53203299 -6.7734375 28.45703125 C-9.40365189 27.91714514 -10.27996743 27.214322 -12 25.1875 C-15.6591773 19.35568618 -15.6661482 13.73253782 -15 7 C-12.2101818 -0.06048776 -6.98785421 -1.11033262 0 0 Z " fill="#FAFAFA" transform="translate(170,57)"/>
<path d="M0 0 C2.44495319 1.80124727 3.37423149 3.32534857 5 6 C5 6.99 5 7.98 5 9 C-1.6 9 -8.2 9 -15 9 C-14 4 -14 4 -12 1.6875 C-7.94687257 -0.59238418 -4.54626712 -1.10984821 0 0 Z " fill="#F9F9F9" transform="translate(254,57)"/>
<path d="M0 0 C3.96 0 7.92 0 12 0 C12 3.3 12 6.6 12 10 C8.04 10 4.08 10 0 10 C0 6.7 0 3.4 0 0 Z " fill="#040404" transform="translate(279,32)"/>
<path d="M0 0 C0.66 0.66 1.32 1.32 2 2 C1.34 2 0.68 2 0 2 C-0.33 2.99 -0.66 3.98 -1 5 C-1.66 5 -2.32 5 -3 5 C-3 5.66 -3 6.32 -3 7 C-3.99 6.67 -4.98 6.34 -6 6 C-4.02 4.02 -2.04 2.04 0 0 Z " fill="#EF1157" transform="translate(91,83)"/>
</svg>
