<?xml version="1.0" encoding="UTF-8"?>
<svg version="1.1" xmlns="http://www.w3.org/2000/svg" width="1000" height="420">
<path d="M0 0 C330 0 660 0 1000 0 C1000 138.6 1000 277.2 1000 420 C670 420 340 420 0 420 C0 281.4 0 142.8 0 0 Z " fill="#FEFEFE" transform="translate(0,0)"/>
<path d="M0 0 C3.75358432 1.55413682 5.88805335 3.52806256 8 7 C9.28405403 12.45744751 8.96226639 18.19443617 8.84764481 23.76226425 C8.78826131 26.65623233 8.7775875 29.54689936 8.77890015 32.44143677 C8.77222295 38.58665574 8.69999682 44.73030077 8.625 50.875 C8.54692944 57.99236337 8.49602056 65.10885694 8.49006271 72.22665787 C8.47679993 75.06635083 8.42609583 77.903703 8.37295532 80.7428894 C8.11056625 92.31851155 8.11056625 92.31851155 13.21762085 102.43728638 C18.11884691 106.73447125 22.05394846 107.43178871 28.45874023 107.36889648 C29.29839325 107.37266296 30.13804626 107.37642944 31.00314331 107.38031006 C32.82118553 107.38673189 34.63926134 107.38642249 36.457304 107.38012505 C39.33700322 107.37100376 42.21605287 107.38125045 45.09571838 107.39674377 C53.28100595 107.43681575 61.46624198 107.43804576 69.65161133 107.43579102 C74.66308806 107.43573988 79.67421398 107.4549225 84.68559456 107.48512459 C87.51860913 107.49594109 90.35095179 107.48382481 93.1839447 107.47129822 C94.92659161 107.48020412 96.66923306 107.49027902 98.41186523 107.50170898 C99.58799629 107.48709373 99.58799629 107.48709373 100.78788757 107.47218323 C105.98155296 107.54003837 108.82371503 108.66573686 113 112 C113.61230469 112.47695312 114.22460938 112.95390625 114.85546875 113.4453125 C116.46272771 115.62855164 116.3655313 117.19080053 116.3125 119.875 C116.30863281 120.71804687 116.30476562 121.56109375 116.30078125 122.4296875 C115.65473082 127.95048204 113.42264388 130.97263919 109.5 134.8125 C108.7059375 135.60269531 107.911875 136.39289063 107.09375 137.20703125 C105 139 105 139 103 139 C102.773125 139.556875 102.54625 140.11375 102.3125 140.6875 C100.25194706 144.31799803 97.59352047 147.22600435 93.8125 149.0625 C91.46198896 150.27828157 91.12751731 151.66979756 90 154 C89.01 154.33 88.02 154.66 87 155 C87 155.66 87 156.32 87 157 C86.34 157 85.68 157 85 157 C84.67 157.99 84.34 158.98 84 160 C82.37897032 161.71108689 80.70496537 163.37253306 79 165 C78.13375 165.9075 77.2675 166.815 76.375 167.75 C74 170 74 170 71 171 C70.32053307 172.32685603 69.65629639 173.66153174 69 175 C67.56926326 176.56648027 66.08497557 178.08502371 64.5625 179.5625 C63.78003906 180.32691406 62.99757812 181.09132813 62.19140625 181.87890625 C61.46824219 182.57886719 60.74507812 183.27882813 60 184 C59.45214844 184.58652344 58.90429688 185.17304688 58.33984375 185.77734375 C57 187 57 187 55 187 C54.60361328 187.89332031 54.60361328 187.89332031 54.19921875 188.8046875 C51.67954007 193.4172589 47.56798024 196.32361637 42.8125 198.375 C33.92315499 199.83226967 26.68728617 200.04396088 19 195 C16.12663685 192.58663841 13.53200481 189.95774702 10.9375 187.25 C9.93493164 186.23292969 9.93493164 186.23292969 8.91210938 185.1953125 C5.76116421 181.97393804 2.71330933 178.69840264 -0.21484375 175.2734375 C-4.82456747 169.94774791 -9.8375589 165.01305184 -14.82470703 160.04492188 C-16.50018598 158.37481461 -18.17023611 156.69941208 -19.83984375 155.0234375 C-25.06155328 149.7992039 -30.33992916 144.75261383 -36 140 C-37.66666667 138 -39.33333333 136 -41 134 C-42.12783056 133.00015021 -43.27484229 132.021629 -44.4375 131.0625 C-46.87145791 129.04819 -48.93243236 127.0034519 -50.9375 124.5625 C-53.71024844 121.20406405 -56.80691843 118.44439267 -60.1171875 115.625 C-62.53866683 113.53509253 -64.76929011 111.29099935 -67 109 C-67.804375 108.21625 -68.60875 107.4325 -69.4375 106.625 C-76.12953335 99.76974632 -81.96667969 93.33752359 -82.01953125 83.28515625 C-81.95739979 81.87728375 -81.88818399 80.46970902 -81.8125 79.0625 C-81.78446289 78.00772461 -81.78446289 78.00772461 -81.75585938 76.93164062 C-81.49369741 72.02415267 -80.40661989 69.502491 -77 66 C-76.29875 65.236875 -75.5975 64.47375 -74.875 63.6875 C-71.45097796 60.48678374 -67.81485616 57.63634581 -64.109375 54.76953125 C-61.91970191 53.1709214 -61.91970191 53.1709214 -61 51 C-60.34 51 -59.68 51 -59 51 C-58.938125 50.443125 -58.87625 49.88625 -58.8125 49.3125 C-57.6569635 46.02366535 -55.50192092 44.42672657 -53 42 C-51.93344495 40.91546088 -50.86975803 39.82809553 -49.80859375 38.73828125 C-48.68495964 37.59629139 -47.56126084 36.45436516 -46.4375 35.3125 C-45.87353516 34.73177734 -45.30957031 34.15105469 -44.72851562 33.55273438 C-44.17744141 32.99521484 -43.62636719 32.43769531 -43.05859375 31.86328125 C-42.56673584 31.36094971 -42.07487793 30.85861816 -41.56811523 30.34106445 C-39.82758061 28.85254559 -38.05546624 27.99162822 -36 27 C-34.56210016 25.52235683 -34.56210016 25.52235683 -33.375 23.875 C-32.59125 22.92625 -31.8075 21.9775 -31 21 C-30.34 21 -29.68 21 -29 21 C-28.773125 20.443125 -28.54625 19.88625 -28.3125 19.3125 C-26.99285885 16.98741798 -25.48285204 15.3897796 -23.5546875 13.55859375 C-20.88963365 10.88684378 -18.49947399 7.96510435 -16.0625 5.0859375 C-11.18364725 0.15164325 -6.72185937 -1.25570283 0 0 Z " fill="#FBA355" transform="translate(117,107)"/>
<path d="M0 0 C0.84780029 -0.00554901 1.69560059 -0.01109802 2.5690918 -0.01681519 C5.36581326 -0.0286053 8.16091185 -0.00433932 10.95751953 0.02148438 C12.90658494 0.02319604 14.85565266 0.02312923 16.80471802 0.0213623 C20.88859095 0.02301531 24.97191482 0.04170665 29.05566406 0.07324219 C34.2800249 0.11286686 39.50366496 0.11729331 44.72814751 0.10977936 C48.75345413 0.10670316 52.77859996 0.11885419 56.80386734 0.13591003 C58.72950353 0.1429227 60.65515796 0.14606668 62.58080673 0.1452179 C65.2781614 0.14702418 67.97466783 0.16847827 70.671875 0.1953125 C71.85663925 0.1909166 71.85663925 0.1909166 73.06533813 0.18643188 C78.21827678 0.26516296 81.92291044 1.11063825 86.46533203 3.61523438 C87.74908774 7.46650151 87.64561994 11.12272035 87.67407227 15.13818359 C87.68385605 16.00841156 87.69363983 16.87863953 87.70372009 17.77523804 C87.73365032 20.65678376 87.75505008 23.53828328 87.77392578 26.41992188 C87.78049761 27.40386051 87.78706944 28.38779915 87.79384041 29.40155411 C87.82641982 34.60736911 87.85087703 39.81316372 87.87036133 45.01904297 C87.88819359 49.32989157 87.92304664 53.6400884 87.97290039 57.95068359 C88.03301244 63.1543084 88.06382412 68.35732761 88.07353401 73.56128311 C88.08210303 75.54447603 88.10095664 77.52765215 88.13027763 79.51064682 C88.16910816 82.28565127 88.17023845 85.05828538 88.16235352 87.83349609 C88.19235443 89.06181152 88.19235443 89.06181152 88.22296143 90.31494141 C88.16777354 94.6409265 87.82482435 96.18253204 84.96426392 99.62564087 C81.0927638 102.30365542 77.36660118 102.30704887 72.78540039 102.23046875 C71.93424149 102.23601776 71.08308258 102.24156677 70.20613098 102.24728394 C67.4052318 102.25905176 64.60596069 102.2348367 61.80517578 102.20898438 C59.85274835 102.20727258 57.90031862 102.20733965 55.94789124 102.20910645 C51.86160207 102.20745489 47.77586262 102.18878533 43.68969727 102.15722656 C38.4550798 102.11752332 33.2211811 102.11318543 27.98644161 102.12068939 C23.9569288 102.12376031 19.92757724 102.11163462 15.89810371 102.09455872 C13.96802342 102.08753416 12.03792485 102.08440352 10.10783195 102.08525085 C7.41017556 102.08345093 4.71337698 102.06205345 2.01586914 102.03515625 C1.2204068 102.03808685 0.42494446 102.04101746 -0.3946228 102.04403687 C-4.94451642 101.97412487 -7.93888825 101.47256294 -11.53466797 98.61523438 C-14.10518455 94.7594595 -13.83745191 91.56493705 -13.84106445 87.09228516 C-13.84938797 86.22205719 -13.85771149 85.35182922 -13.86628723 84.45523071 C-13.89041582 81.57362415 -13.89916276 78.6922438 -13.90576172 75.81054688 C-13.91472576 73.80898978 -13.92384757 71.80743338 -13.93312073 69.80587769 C-13.94962097 65.60771047 -13.95731275 61.40962311 -13.96020508 57.21142578 C-13.96559041 51.83199085 -14.00327239 46.45330629 -14.04894924 41.07408333 C-14.0786919 36.93908956 -14.08592803 32.80427709 -14.08693123 28.66918564 C-14.09113896 26.68602943 -14.10359535 24.70287296 -14.12444878 22.71982193 C-14.1513057 19.94497761 -14.14655498 17.17188058 -14.1340332 14.39697266 C-14.14886749 13.5780957 -14.16370178 12.75921875 -14.1789856 11.91552734 C-14.12740827 7.90175276 -13.80867535 6.02683899 -11.53062439 2.60482788 C-7.66625235 0.03852569 -4.48809549 -0.07498093 0 0 Z " fill="#FBA354" transform="translate(162.53466796875,89.384765625)"/>
<path d="M0 0 C0.8859082 0.0009668 1.77181641 0.00193359 2.68457031 0.00292969 C9.79691183 0.1950129 13.70875504 1.89660236 19.0625 6.5625 C20.51923268 7.33551226 21.99887259 8.06718629 23.5 8.75 C27.0625 10.5625 27.0625 10.5625 29.0625 13.5625 C29.92875 12.4178125 29.92875 12.4178125 30.8125 11.25 C34.93586801 6.32486599 37.6011485 5.1837838 44.0625 4.5625 C44.0625 3.9025 44.0625 3.2425 44.0625 2.5625 C55.42951946 0.31447701 69.12253117 -0.41088707 79.1953125 5.8984375 C85.28817974 10.50743301 88.02114311 16.31468522 90.0625 23.5625 C90.70087618 29.36516599 90.64940922 35.09221399 90.55078125 40.921875 C90.54143331 42.56381137 90.53432659 44.20576187 90.52934265 45.84771729 C90.51042818 50.12890447 90.46146634 54.40921721 90.40582275 58.69006348 C90.35429031 63.07450539 90.33175672 67.45909128 90.30664062 71.84375 C90.25332818 80.41710888 90.16552449 88.98959427 90.0625 97.5625 C83.4625 97.5625 76.8625 97.5625 70.0625 97.5625 C70.05839111 95.4786499 70.05428223 93.3947998 70.05004883 91.24780273 C70.0328165 84.34653169 69.98825698 77.44562931 69.93040943 70.54458523 C69.89618436 66.3622521 69.87103651 62.1802825 69.86694336 57.99780273 C69.86265066 53.95797039 69.83410881 49.91895747 69.78906822 45.87938118 C69.77612401 44.34174442 69.77177464 42.80400944 69.77634621 41.266325 C70.07728956 31.75791478 70.07728956 31.75791478 66.70581055 23.12524414 C64.26622423 20.38967475 64.26622423 20.38967475 61.0625 19.5625 C61.0625 18.9025 61.0625 18.2425 61.0625 17.5625 C48.50613 17.00731892 48.50613 17.00731892 37.21484375 21.828125 C33.35461807 25.4419533 32.70622128 28.78823592 32.42602539 33.97314453 C32.32271408 35.84163055 32.32271408 35.84163055 32.21731567 37.74786377 C31.98149211 43.5585229 31.83040125 49.36493397 31.74609375 55.1796875 C31.7149221 57.01444138 31.7149221 57.01444138 31.68312073 58.88626099 C31.61851296 62.73662516 31.5591597 66.58704867 31.5 70.4375 C31.45673003 73.07162035 31.41311327 75.70573503 31.36914062 78.33984375 C31.26292471 84.74733736 31.16141625 91.15488972 31.0625 97.5625 C24.1325 97.5625 17.2025 97.5625 10.0625 97.5625 C10.05839111 95.61553223 10.05428223 93.66856445 10.05004883 91.66259766 C10.03057484 85.19637623 9.98814588 78.73061618 9.93040943 72.26462746 C9.89626335 68.34805418 9.87104895 64.43186583 9.86694336 60.51513672 C9.8626335 56.72814018 9.83395202 52.9420101 9.78906822 49.15528488 C9.77617822 47.71781862 9.77175511 46.2802482 9.77634621 44.84273148 C9.7973543 36.25972631 9.34938007 28.70909704 4.0625 21.5625 C3.0725 20.9025 2.0825 20.2425 1.0625 19.5625 C1.0625 18.9025 1.0625 18.2425 1.0625 17.5625 C-4.8775 17.5625 -10.8175 17.5625 -16.9375 17.5625 C-16.9375 18.2225 -16.9375 18.8825 -16.9375 19.5625 C-21.32211538 22.5625 -21.32211538 22.5625 -23.9375 22.5625 C-28.86560827 38.02025734 -28.60304451 53.5362288 -28.6875 69.625 C-28.71356962 72.34184387 -28.7453882 75.05861042 -28.77734375 77.77539062 C-28.85059731 84.3710622 -28.90054243 90.96652929 -28.9375 97.5625 C-35.8675 97.5625 -42.7975 97.5625 -49.9375 97.5625 C-49.9375 66.2125 -49.9375 34.8625 -49.9375 2.5625 C-44.3275 2.5625 -38.7175 2.5625 -32.9375 2.5625 C-32.2775 6.1925 -31.6175 9.8225 -30.9375 13.5625 C-30.2775 12.840625 -29.6175 12.11875 -28.9375 11.375 C-20.90830373 3.39103864 -11.1527615 -0.02956052 0 0 Z " fill="#314153" transform="translate(519.9375,168.4375)"/>
<path d="M0 0 C4.56032465 3.29895825 7.6114257 5.97644608 9.703125 11.28125 C10.04472656 12.13332031 10.38632812 12.98539063 10.73828125 13.86328125 C12.44290882 18.78530113 12.76352095 23.26150035 12.75415039 28.4621582 C12.75429642 29.14563828 12.75444244 29.82911835 12.7545929 30.53330994 C12.75389962 32.77875001 12.74613474 35.02410577 12.73828125 37.26953125 C12.73641499 38.83180191 12.73499207 40.39407315 12.73399353 41.9563446 C12.73018472 46.05805084 12.72036846 50.15972139 12.70928955 54.26141357 C12.6990402 58.45096351 12.69448837 62.64051925 12.68945312 66.83007812 C12.67874467 75.04298691 12.66116117 83.2558599 12.640625 91.46875 C8.020625 91.46875 3.400625 91.46875 -1.359375 91.46875 C-4.359375 80.71875 -4.359375 80.71875 -4.359375 78.46875 C-9.0955193 81.11541887 -13.21259996 84.23940669 -16.984375 88.15625 C-22.72187271 93.63295236 -32.21394407 92.8247332 -39.5859375 92.73828125 C-47.61680353 92.16464796 -55.80287599 90.82692963 -61.546875 84.78125 C-67.86190365 76.07416504 -68.20898714 67.00161283 -67.359375 56.46875 C-66.25365975 50.83731653 -63.74890547 47.15994608 -59.359375 43.46875 C-58.5859375 42.78619141 -58.5859375 42.78619141 -57.796875 42.08984375 C-53.22589771 38.3759247 -49.17997467 37.61393503 -43.359375 37.46875 C-43.359375 36.80875 -43.359375 36.14875 -43.359375 35.46875 C-31.0348878 33.07647519 -18.86147296 33.25871217 -6.359375 33.46875 C-6.44698089 31.40548023 -6.55516773 29.3430784 -6.671875 27.28125 C-6.72988281 26.13269531 -6.78789063 24.98414063 -6.84765625 23.80078125 C-7.38488149 20.30266577 -8.42835089 18.3834057 -10.359375 15.46875 C-10.359375 14.80875 -10.359375 14.14875 -10.359375 13.46875 C-15.79330497 11.65744001 -20.58538325 11.13215088 -26.296875 11.15625 C-27.43672852 11.13208008 -27.43672852 11.13208008 -28.59960938 11.10742188 C-35.20472481 11.1017813 -40.06452343 12.9362609 -46.046875 15.71875 C-48.97832153 16.66948941 -50.44809335 16.45431649 -53.359375 15.46875 C-54.7578125 13.32421875 -54.7578125 13.32421875 -55.734375 10.65625 C-56.07210937 9.78355469 -56.40984375 8.91085938 -56.7578125 8.01171875 C-57.38582692 5.35693054 -57.26915947 4.0031496 -56.359375 1.46875 C-55.369375 1.46875 -54.379375 1.46875 -53.359375 1.46875 C-53.359375 0.80875 -53.359375 0.14875 -53.359375 -0.53125 C-50.059375 -0.86125 -46.759375 -1.19125 -43.359375 -1.53125 C-43.359375 -2.19125 -43.359375 -2.85125 -43.359375 -3.53125 C-29.24340398 -7.11035016 -12.63693046 -8.20145156 0 0 Z " fill="#354556" transform="translate(699.359375,174.53125)"/>
<path d="M0 0 C23.43 0 46.86 0 71 0 C71 5.61 71 11.22 71 17 C70 18 70 18 67.98155212 18.12025452 C67.09552811 18.11803391 66.20950409 18.11581329 65.29663086 18.11352539 C64.29566879 18.11344986 63.29470673 18.11337433 62.26341248 18.11329651 C61.1748848 18.10813522 60.08635712 18.10297394 58.96484375 18.09765625 C57.85645645 18.0962413 56.74806915 18.09482635 55.60609436 18.09336853 C52.04986931 18.08775033 48.49370617 18.07519475 44.9375 18.0625 C42.53320403 18.05748734 40.12890708 18.05292403 37.72460938 18.04882812 C31.81636294 18.0386239 25.90825115 18.01905205 20 18 C20 29.22 20 40.44 20 52 C35.51 52 51.02 52 67 52 C67 57.28 67 62.56 67 68 C51.49 68 35.98 68 20 68 C20 81.53 20 95.06 20 109 C36.83 109 53.66 109 71 109 C71 114.61 71 120.22 71 126 C47.57 126 24.14 126 0 126 C0 84.42 0 42.84 0 0 Z " fill="#344454" transform="translate(375,140)"/>
<path d="M0 0 C1.92948486 0.00314209 1.92948486 0.00314209 3.89794922 0.00634766 C14.91211864 0.1872247 26.77417636 1.22445091 36.1875 7.5 C35.21291328 13.30165739 34.17496845 18.33982722 31.1875 23.5 C26.7036866 23.0923806 23.12544848 22.10209188 18.9375 20.4375 C13.37352392 18.51961431 8.26786561 18.05938964 2.4375 18 C1.64569336 17.98187256 0.85388672 17.96374512 0.03808594 17.94506836 C-5.67818095 18.00304388 -10.0198145 19.34965429 -14.8125 22.5 C-17.7404076 25.61090183 -18.02646135 28.30623915 -18.1875 32.4375 C-18.03798444 36.81245523 -17.34696106 39.82940122 -14.8125 43.5 C-13.17595179 44.87013339 -11.51446405 46.2120272 -9.8125 47.5 C-9.8125 48.16 -9.8125 48.82 -9.8125 49.5 C-8.1728125 49.685625 -8.1728125 49.685625 -6.5 49.875 C-2.8125 50.5 -2.8125 50.5 0.1875 52.5 C0.1875 53.16 0.1875 53.82 0.1875 54.5 C0.73277344 54.67015625 1.27804687 54.8403125 1.83984375 55.015625 C7.47134978 56.82540814 12.82689569 59.00345378 18.1875 61.5 C18.1875 62.16 18.1875 62.82 18.1875 63.5 C18.90679688 63.58765625 19.62609375 63.6753125 20.3671875 63.765625 C23.7489961 64.64620674 25.60952249 66.05124765 28.3125 68.25 C29.16070313 68.92546875 30.00890625 69.6009375 30.8828125 70.296875 C37.3178408 76.44832578 38.21635765 84.21718008 38.57739258 92.69628906 C38.83575759 104.85931874 35.1234624 111.80936524 27.0546875 120.8828125 C25.1875 122.5 25.1875 122.5 22.1875 122.5 C22.1875 123.16 22.1875 123.82 22.1875 124.5 C17.2375 124.995 17.2375 124.995 12.1875 125.5 C12.1875 126.16 12.1875 126.82 12.1875 127.5 C6.23380086 130.13336693 0.31310532 129.75943379 -6.0625 129.6875 C-7.16335938 129.68685547 -8.26421875 129.68621094 -9.3984375 129.68554688 C-17.53132764 129.64058618 -17.53132764 129.64058618 -19.8125 128.5 C-21.31051377 128.37036419 -22.81118789 128.27064228 -24.3125 128.1875 C-29.60862765 127.71724704 -36.88670265 126.42579735 -40.8125 122.5 C-40.89901611 121.08429877 -40.91954904 119.664405 -40.91015625 118.24609375 C-40.90693359 117.39208984 -40.90371094 116.53808594 -40.90039062 115.65820312 C-40.89201172 114.76037109 -40.88363281 113.86253906 -40.875 112.9375 C-40.87048828 112.03580078 -40.86597656 111.13410156 -40.86132812 110.20507812 C-40.84950225 107.96998686 -40.8330222 105.73502563 -40.8125 103.5 C-39.39444169 103.78482368 -37.97809621 104.07818144 -36.5625 104.375 C-35.77359375 104.53742188 -34.9846875 104.69984375 -34.171875 104.8671875 C-31.83500777 105.49396315 -29.96059649 106.40680869 -27.8125 107.5 C-15.54224105 110.36087321 -1.96357408 112.89952682 10.1875 108.5 C12.63339125 106.95190613 14.87886193 105.25456493 17.1875 103.5 C17.8475 103.5 18.5075 103.5 19.1875 103.5 C19.10004425 101.10250616 18.99312925 98.70851779 18.875 96.3125 C18.84116211 95.30219727 18.84116211 95.30219727 18.80664062 94.27148438 C18.57198091 89.89828064 17.84566095 87.00035056 15.1875 83.5 C13.25419397 82.40833725 13.25419397 82.40833725 11.1875 81.5 C10.59453125 80.88125 10.0015625 80.2625 9.390625 79.625 C2.57376017 73.04986797 -7.58568414 70.39274807 -16.46484375 67.67578125 C-19.59028078 66.57804899 -22.12629981 65.43182139 -24.8125 63.5 C-24.8125 62.84 -24.8125 62.18 -24.8125 61.5 C-25.4725 61.5 -26.1325 61.5 -26.8125 61.5 C-28.18323786 59.86395804 -29.51305256 58.19321939 -30.8125 56.5 C-31.29460938 56.04238281 -31.77671875 55.58476562 -32.2734375 55.11328125 C-38.83859945 48.23152519 -39.52579598 39.38178315 -39.40332031 30.35620117 C-39.1163508 23.99525532 -37.95589671 19.46582973 -33.8125 14.5 C-33.25820313 13.75105469 -32.70390625 13.00210938 -32.1328125 12.23046875 C-29.35892453 8.71071312 -27.75361206 6.77377805 -23.375 5.5 C-22.529375 5.5 -21.68375 5.5 -20.8125 5.5 C-20.8125 4.84 -20.8125 4.18 -20.8125 3.5 C-14.10001135 -0.23910479 -7.55404864 -0.03594853 0 0 Z " fill="#324254" transform="translate(925.8125,138.5)"/>
<path d="M0 0 C6.6 0 13.2 0 20 0 C20.06954452 17.18559278 20.12303375 34.37112908 20.15543652 51.55683041 C20.17088378 59.53704059 20.19193218 67.51716155 20.22631836 75.49731445 C20.25628647 82.45548377 20.27559056 89.41358845 20.28226548 96.37182051 C20.28616524 100.05375236 20.29528511 103.73549934 20.31719017 107.41737175 C20.34148599 111.53475913 20.34196525 115.65182821 20.34057617 119.76928711 C20.351362 120.98057785 20.36214783 122.19186859 20.3732605 123.43986511 C20.34861654 130.20115566 19.65069333 135.76313612 17 142 C16.55914063 143.07894531 16.11828125 144.15789062 15.6640625 145.26953125 C11.49308816 152.11345393 2.98990339 157.57185477 -4.73046875 159.64453125 C-12.77738812 160.90489211 -20.95820518 159.83551115 -29 159 C-29 153.39 -29 147.78 -29 142 C-22.4 142 -15.8 142 -9 142 C-9 141.34 -9 140.68 -9 140 C-8.236875 139.814375 -7.47375 139.62875 -6.6875 139.4375 C-3.64274848 137.80891198 -2.85085473 136.45626369 -1.60188866 133.29485893 C-0.30748504 128.35960444 -0.56156347 123.24919158 -0.56762695 118.17993164 C-0.5574353 116.90119171 -0.54724365 115.62245178 -0.53674316 114.30496216 C-0.5092663 110.8157956 -0.49990144 107.32679202 -0.49388909 103.83753133 C-0.48448101 100.18462676 -0.45827574 96.53184277 -0.43388367 92.87901306 C-0.39028169 85.96961498 -0.36169613 79.06024038 -0.33856028 72.15074676 C-0.31147472 64.28125705 -0.26756535 56.41188901 -0.22227156 48.54248631 C-0.1295156 32.36171702 -0.0583903 16.18093022 0 0 Z " fill="#344454" transform="translate(840,141)"/>
<path d="M0 0 C6.93 0 13.86 0 21 0 C21 44.22 21 88.44 21 134 C14.07 134 7.14 134 0 134 C0 89.78 0 45.56 0 0 Z " fill="#3A4B5C" transform="translate(789,132)"/>
<path d="M0 0 C6.6 0 13.2 0 20 0 C20 31.35 20 62.7 20 95 C13.4 95 6.8 95 0 95 C0 63.65 0 32.3 0 0 Z " fill="#364556" transform="translate(740,171)"/>
<path d="M0 0 C0.82242188 0.00451172 1.64484375 0.00902344 2.4921875 0.01367188 C4.49482396 0.02531511 6.49742227 0.04324444 8.5 0.0625 C9.14388681 18.37750267 9.14388681 18.37750267 3.3125 25.875 C-4.44637298 31.90967898 -12.02681928 31.42173579 -21.5 31.0625 C-21.5 30.4025 -21.5 29.7425 -21.5 29.0625 C-22.221875 29.000625 -22.94375 28.93875 -23.6875 28.875 C-27.63389222 27.73493114 -29.10625391 26.41374453 -31.5 23.0625 C-32.46438398 18.074307 -32.08382108 14.23014217 -29.8125 9.6875 C-21.46268436 0.20933089 -11.88776401 -0.12584766 0 0 Z " fill="#F4F6F8" transform="translate(683.5,220.9375)"/>
<path d="M0 0 C0.86882813 0.07863281 1.73765625 0.15726563 2.6328125 0.23828125 C4.875 0.6875 4.875 0.6875 6.875 2.6875 C7.5 5.3125 7.5 5.3125 7.875 8.6875 C7.95234375 9.34621094 8.0296875 10.00492188 8.109375 10.68359375 C8.35936857 14.35711032 7.98298761 16.50237838 6.125 19.6875 C1.32447469 22.64166942 -3.62547216 22.78437969 -9.125 21.6875 C-12.06442964 19.25538309 -13.92119122 17.33252804 -14.3984375 13.48046875 C-14.6731294 6.43356502 -14.6731294 6.43356502 -11.875 2.625 C-7.78945727 -0.25345056 -4.91795241 -0.49179524 0 0 Z " fill="#384757" transform="translate(753.125,134.3125)"/>
<path d="M0 0 C2 2 2 2 2.22705078 4.98095703 C2.21657715 6.22731934 2.20610352 7.47368164 2.1953125 8.7578125 C2.19031738 9.97098145 2.18532227 11.18415039 2.18017578 12.43408203 C2.16196777 13.98208496 2.14375977 15.53008789 2.125 17.125 C2.08375 22.03375 2.0425 26.9425 2 32 C17.51 32 33.02 32 49 32 C49 38.27 49 44.54 49 51 C48 52 48 52 46.09544373 52.12025452 C45.26271439 52.11803391 44.42998505 52.11581329 43.57202148 52.11352539 C42.63112167 52.11344986 41.69022186 52.11337433 40.72080994 52.11329651 C39.69790359 52.10813522 38.67499725 52.10297394 37.62109375 52.09765625 C36.57929459 52.0962413 35.53749542 52.09482635 34.46412659 52.09336853 C31.12188906 52.0877508 27.77971743 52.0751953 24.4375 52.0625 C22.17773534 52.05748728 19.91796963 52.05292398 17.65820312 52.04882812 C12.10542266 52.03862456 6.55278548 52.01905264 1 52 C1 64.54 1 77.08 1 90 C16.84 90 32.68 90 49 90 C49 90.33 49 90.66 49 91 C32.83 91 16.66 91 0 91 C0 77.47 0 63.94 0 50 C15.51 50 31.02 50 47 50 C47 44.72 47 39.44 47 34 C31.49 34 15.98 34 0 34 C0 22.78 0 11.56 0 0 Z " fill="#AAB3BB" transform="translate(395,158)"/>
<path d="M0 0 C5.61 0 11.22 0 17 0 C17.33 2.97 17.66 5.94 18 9 C17.34 8.67 16.68 8.34 16 8 C16 5.69 16 3.38 16 1 C11.38 1 6.76 1 2 1 C2 31.69 2 62.38 2 94 C7.61 94 13.22 94 19 94 C18.98428955 92.25460937 18.9685791 90.50921875 18.95239258 88.7109375 C18.90385653 82.91952457 18.86947301 77.12811863 18.84456348 71.33656311 C18.82896209 67.82793736 18.80782636 64.31953334 18.77368164 60.81103516 C18.73460247 56.76983612 18.7202452 52.72886702 18.70703125 48.6875 C18.68380547 46.81360596 18.68380547 46.81360596 18.66011047 44.90185547 C18.6588238 38.19788045 19.13023278 33.0903941 22 27 C23.25063741 30.61295252 22.68312278 33.28912414 22 37 C21.89175665 39.00003304 21.82528709 41.00264498 21.79467773 43.00537109 C21.77473251 44.16612152 21.75478729 45.32687195 21.73423767 46.52279663 C21.71752518 47.76050812 21.70081268 48.9982196 21.68359375 50.2734375 C21.66281265 51.55231842 21.64203156 52.83119934 21.62062073 54.14883423 C21.5664478 57.53205204 21.51615774 60.91528165 21.46777344 64.29858398 C21.41734068 67.75770144 21.36176883 71.21673601 21.30664062 74.67578125 C21.19970861 81.45045657 21.09837353 88.22519521 21 95 C14.07 95 7.14 95 0 95 C0 63.65 0 32.3 0 0 Z " fill="#7A8791" transform="translate(470,171)"/>
<path d="M0 0 C0.80467712 0.00247742 1.60935425 0.00495483 2.43841553 0.00750732 C3.28577774 0.00239639 4.13313995 -0.00271454 5.00617981 -0.00798035 C7.81870515 -0.02192465 10.63098659 -0.02091522 13.44354248 -0.01861572 C15.39689729 -0.02250151 17.35025126 -0.02683594 19.30360413 -0.03160095 C23.40520968 -0.03907466 27.5067292 -0.03876468 31.6083374 -0.0335083 C36.85626356 -0.02772831 42.10383511 -0.04460346 47.35170269 -0.06785297 C51.38983713 -0.08261472 55.42788682 -0.08345841 59.46604347 -0.08034325 C61.40007031 -0.08085576 63.33410198 -0.08608046 65.26810265 -0.09615517 C67.98005228 -0.10854215 70.6913199 -0.10171312 73.40325928 -0.09014893 C74.19781525 -0.09779266 74.99237122 -0.1054364 75.81100464 -0.11331177 C80.98764846 -0.06471477 84.68355926 0.76046107 89.24432373 3.28216553 C90.53890945 7.16592268 90.37536154 10.8377667 90.35784912 14.88446045 C90.35799515 15.76271988 90.35814117 16.64097931 90.35829163 17.54585266 C90.35759445 20.45147158 90.34981112 23.35702655 90.34197998 26.26263428 C90.34011511 28.27616847 90.33869153 30.28970311 90.33769226 32.30323792 C90.33387253 37.60508475 90.32404685 42.90690422 90.31298828 48.20874023 C90.3027625 53.61797719 90.29819213 59.02721857 90.29315186 64.4364624 C90.28242412 75.0517088 90.26535419 85.66693489 90.24432373 96.28216553 C88.26432373 97.27216553 88.26432373 97.27216553 86.24432373 98.28216553 C86.73932373 96.79716553 86.73932373 96.79716553 87.24432373 95.28216553 C87.34583664 92.55516009 87.3911608 89.85363364 87.3895874 87.12640381 C87.39294601 86.29519012 87.39630463 85.46397644 87.39976501 84.60757446 C87.40927489 81.85586051 87.41121818 79.1042074 87.41229248 76.35247803 C87.41550514 74.44060236 87.41886922 72.52872695 87.42237854 70.61685181 C87.42836997 66.60700918 87.43021844 62.5971881 87.42962646 58.58734131 C87.42952487 53.45030677 87.44317468 48.31341053 87.46039867 43.17640877 C87.47151999 39.22672898 87.47354563 35.27708261 87.47301674 31.32738876 C87.47419675 29.43357746 87.4786197 27.53976529 87.48634911 25.64596939 C87.49615114 22.99612001 87.49327004 20.34657056 87.48724365 17.69671631 C87.49286316 16.91524231 87.49848267 16.13376831 87.50427246 15.32861328 C87.48066297 11.24130871 87.34300981 7.84976329 85.24432373 4.28216553 C81.67401536 1.3594865 77.00513512 2.01656248 72.62030029 2.05511475 C71.31732246 2.05467667 71.31732246 2.05467667 69.98802185 2.05422974 C67.12022878 2.05562175 64.25269635 2.07117699 61.38494873 2.08685303 C59.39526512 2.09058361 57.40557966 2.09343037 55.41589355 2.09542847 C50.18142619 2.10306134 44.94706997 2.12270693 39.71264648 2.14483643 C34.37035628 2.16530225 29.0280481 2.17443177 23.68572998 2.18450928 C13.20521242 2.20595309 2.72477732 2.24008493 -7.75567627 2.28216553 C-5.19205063 -0.28146011 -3.49556459 0.03378273 0 0 Z " fill="#F3AB6F" transform="translate(159.75567626953125,89.71783447265625)"/>
<path d="M0 0 C0.33 0 0.66 0 1 0 C1.00586624 1.11864441 1.01173248 2.23728882 1.01777649 3.38983154 C1.07495799 13.92548714 1.14769564 24.46093542 1.23571491 34.99637985 C1.28046663 40.41293606 1.31971221 45.82941621 1.34643555 51.24609375 C1.37242054 56.47225674 1.41278894 61.6981278 1.46318626 66.92411041 C1.4798875 68.91918561 1.49138145 70.91431135 1.49761391 72.90944672 C1.50721956 75.70133663 1.53523635 78.49247419 1.56762695 81.28417969 C1.56619186 82.11136505 1.56475677 82.93855042 1.5632782 83.790802 C1.61747146 87.08771126 1.75795887 89.55147934 3.33952332 92.48223877 C7.02709077 95.85286539 11.72590638 95.17206294 16.41870117 95.20532227 C17.27745346 95.21522186 18.13620575 95.22512146 19.02098083 95.23532104 C21.86161535 95.26692766 24.7022666 95.29169021 27.54296875 95.31640625 C29.51166724 95.3369765 31.48036132 95.35797299 33.4490509 95.37937927 C38.63248118 95.43459262 43.81595127 95.48400518 48.99945068 95.53222656 C54.28808132 95.58244694 59.57665409 95.63813021 64.86523438 95.69335938 C75.24344016 95.80093195 85.62169617 95.90237896 96 96 C96 96.66 96 97.32 96 98 C65.97 98 35.94 98 5 98 C4.67 97.01 4.34 96.02 4 95 C2.68 94.34 1.36 93.68 0 93 C0 62.31 0 31.62 0 0 Z " fill="#FEE7CB" transform="translate(148,95)"/>
<path d="M0 0 C4 0 4 0 5.68252563 1.63021851 C10.73642586 9.48435203 10.78450468 16.82991394 10.5859375 25.8515625 C10.57472339 27.36182964 10.56619369 28.87211885 10.56021118 30.38241577 C10.53748597 34.32519591 10.47870998 38.2666141 10.4119873 42.2088623 C10.35020763 46.24452295 10.32312072 50.28040733 10.29296875 54.31640625 C10.22894477 62.21162704 10.12355969 70.10548631 10 78 C15.94 78 21.88 78 28 78 C27.98952637 76.44684082 27.97905273 74.89368164 27.96826172 73.29345703 C27.93189429 67.49741954 27.90903875 61.70139202 27.89013672 55.90527344 C27.88011719 53.4029775 27.86649787 50.90069316 27.84912109 48.3984375 C27.82469439 44.78903327 27.81347606 41.17978469 27.8046875 37.5703125 C27.79436493 36.46261505 27.78404236 35.3549176 27.77340698 34.21365356 C27.77246027 27.56844486 28.40726999 21.45613803 30 15 C30.33 15 30.66 15 31 15 C30.67 36.12 30.34 57.24 30 79 C23.07 79 16.14 79 9 79 C8.99589111 77.05303223 8.99178223 75.10606445 8.98754883 73.10009766 C8.96807484 66.63387623 8.92564588 60.16811618 8.86790943 53.70212746 C8.83376335 49.78555418 8.80854895 45.86936583 8.80444336 41.95263672 C8.8001335 38.16564018 8.77145202 34.3795101 8.72656822 30.59278488 C8.71367822 29.15531862 8.70925511 27.7177482 8.71384621 26.28023148 C8.73685769 16.87872789 8.09874446 8.40126501 1.33479309 1.23599243 C0.89431137 0.82811493 0.45382965 0.42023743 0 0 Z " fill="#88929A" transform="translate(521,187)"/>
<path d="M0 0 C2 2 2 2 2.22705078 4.98095703 C2.21657715 6.22731934 2.20610352 7.47368164 2.1953125 8.7578125 C2.19031738 9.97098145 2.18532227 11.18415039 2.18017578 12.43408203 C2.16196777 13.98208496 2.14375977 15.53008789 2.125 17.125 C2.08375 22.03375 2.0425 26.9425 2 32 C17.51 32 33.02 32 49 32 C49 38.27 49 44.54 49 51 C48.67 51 48.34 51 48 51 C48 45.39 48 39.78 48 34 C32.16 34 16.32 34 0 34 C0 22.78 0 11.56 0 0 Z " fill="#D0D7DE" transform="translate(395,158)"/>
<path d="M0 0 C9 2 9 2 13 4 C15.65284901 4.61852522 18.2582669 5.16018352 20.9375 5.625 C21.69023193 5.75616211 22.44296387 5.88732422 23.21850586 6.02246094 C32.5501838 7.54462851 41.66593407 7.46416721 51 6 C51 6.66 51 7.32 51 8 C38.21870682 12.17348349 23.47038818 10.71852526 11 6 C11 5.34 11 4.68 11 4 C9.6078125 3.7834375 9.6078125 3.7834375 8.1875 3.5625 C5 3 5 3 2 2 C1.67 7.61 1.34 13.22 1 19 C0.67 19 0.34 19 0 19 C0 12.73 0 6.46 0 0 Z " fill="#7D8891" transform="translate(885,242)"/>
<path d="M0 0 C0.66 0.33 1.32 0.66 2 1 C-3.36873682 7.39391101 -9.16938393 13.32422605 -15.08007812 19.21044922 C-16.63268755 20.75766083 -18.1798296 22.31019727 -19.7265625 23.86328125 C-20.72624175 24.86230023 -21.72623088 25.86100924 -22.7265625 26.859375 C-23.61939941 27.75108398 -24.51223633 28.64279297 -25.43212891 29.56152344 C-27.85687582 31.86408782 -30.35633223 33.95524639 -33 36 C-33.66 35.67 -34.32 35.34 -35 35 C-32.33333333 32.33333333 -29.66666667 29.66666667 -27 27 C-26.30132812 26.30003906 -25.60265625 25.60007812 -24.8828125 24.87890625 C-23.47310429 23.47212274 -22.05189641 22.0768465 -20.625 20.6875 C-18.02317592 18.02372773 -15.67042361 15.24915217 -13.33203125 12.35546875 C-12.89246094 11.90816406 -12.45289063 11.46085937 -12 11 C-11.34 11 -10.68 11 -10 11 C-10 10.34 -10 9.68 -10 9 C-8.3203125 7.34375 -8.3203125 7.34375 -6.125 5.5 C-4.00964496 3.71066742 -1.95980876 1.95980876 0 0 Z " fill="#FDF4E5" transform="translate(214,253)"/>
<path d="M0 0 C0.33 0 0.66 0 1 0 C1.00586624 1.1164238 1.01173248 2.2328476 1.01777649 3.38310242 C1.07498644 13.90373017 1.14773914 24.42415089 1.23571491 34.94456768 C1.28044468 40.35324807 1.31969517 45.76185268 1.34643555 51.1706543 C1.37244234 56.3903377 1.41282642 61.60972989 1.46318626 66.82923317 C1.47987269 68.82069082 1.49137589 70.81219887 1.49761391 72.80371666 C1.50723559 75.59300652 1.53527189 78.38154835 1.56762695 81.1706543 C1.56619186 81.99424438 1.56475677 82.81783447 1.5632782 83.66638184 C1.63906139 88.2850477 2.11324149 91.18195961 5 95 C1.125 94.125 1.125 94.125 0 93 C-0.09523905 90.10856849 -0.12553027 87.24107936 -0.11352539 84.34936523 C-0.11367142 83.44213715 -0.11381744 82.53490906 -0.1139679 81.60018921 C-0.11326841 78.58630015 -0.10547434 75.57247207 -0.09765625 72.55859375 C-0.0957922 70.47494033 -0.09436824 68.39128646 -0.09336853 66.30763245 C-0.08954234 60.81176554 -0.0797112 55.31592487 -0.06866455 49.82006836 C-0.0584526 44.21663773 -0.05387137 38.61320287 -0.04882812 33.00976562 C-0.03808902 22.00649886 -0.02101139 11.00325161 0 0 Z " fill="#FBC89A" transform="translate(148,95)"/>
<path d="M0 0 C0.99 0.33 1.98 0.66 3 1 C4.29458572 4.88375716 4.13103781 8.55560117 4.11352539 12.60229492 C4.11367142 13.48055435 4.11381744 14.35881378 4.1139679 15.26368713 C4.11327072 18.16930605 4.10548739 21.07486102 4.09765625 23.98046875 C4.09579138 25.99400294 4.0943678 28.00753758 4.09336853 30.02107239 C4.08954879 35.32291922 4.07972312 40.62473869 4.06866455 45.92657471 C4.05843877 51.33581167 4.0538684 56.74505304 4.04882812 62.15429688 C4.03810039 72.76954327 4.02103046 83.38476936 4 94 C2.02 94.99 2.02 94.99 0 96 C0.33 95.01 0.66 94.02 1 93 C1.66 93 2.32 93 3 93 C2.91562025 81.6124647 2.8207459 70.22506984 2.71247292 58.83773518 C2.66252717 53.55013465 2.61619685 48.26255393 2.578125 42.97485352 C2.54125063 37.87193369 2.49488458 32.7691803 2.44193649 27.66640282 C2.42340403 25.71959541 2.40829183 23.77275234 2.39665604 21.82589149 C2.37977408 19.09900494 2.3507341 16.37249861 2.31884766 13.64575195 C2.31668747 12.84086334 2.31452728 12.03597473 2.31230164 11.20669556 C2.25009953 7.04268959 1.87368851 3.74641437 0 0 Z " fill="#FBC494" transform="translate(246,92)"/>
<path d="M0 0 C0.99 0.33 1.98 0.66 3 1 C1.02 1.99 1.02 1.99 -1 3 C-1 31.71 -1 60.42 -1 90 C-1.33 90 -1.66 90 -2 90 C-2.04626844 78.56078364 -2.08184119 67.12158941 -2.10362434 55.68229866 C-2.11407729 50.37101062 -2.12826397 45.05978644 -2.15087891 39.74853516 C-2.17255352 34.62627405 -2.18455723 29.5040745 -2.18975449 24.38177109 C-2.19345994 22.4240713 -2.20069541 20.46637502 -2.21146011 18.50870132 C-2.22590357 15.77411779 -2.22798096 13.0397911 -2.22705078 10.30517578 C-2.23424133 9.48950134 -2.24143188 8.6738269 -2.24884033 7.83343506 C-2.22810432 2.22810432 -2.22810432 2.22810432 0 0 Z " fill="#FFEAD5" transform="translate(149,92)"/>
<path d="M0 0 C0.81691315 0.16076523 1.63382629 0.32153046 2.47549438 0.48716736 C6.46168513 1.06717742 10.37372076 1.17504623 14.39208984 1.20532227 C15.21226593 1.21522186 16.03244202 1.22512146 16.87747192 1.23532104 C19.5719317 1.2667542 22.26640907 1.29162111 24.9609375 1.31640625 C26.83566734 1.3369915 28.7103927 1.35798838 30.58511353 1.37937927 C35.50710411 1.43443769 40.42913545 1.48391822 45.35119629 1.53222656 C50.37869878 1.58256045 55.40614247 1.63818433 60.43359375 1.69335938 C70.2890122 1.80074229 80.14448182 1.90223098 90 2 C90 2.33 90 2.66 90 3 C78.7084605 3.0694394 67.4169716 3.12278043 56.12526226 3.15543652 C50.88234109 3.17110796 45.63956575 3.19237325 40.39672852 3.22631836 C35.33929316 3.25885901 30.28199827 3.27684187 25.22446632 3.28463173 C23.2927002 3.29018476 21.36094196 3.30102819 19.42923546 3.31719017 C16.72828796 3.33889413 14.02792464 3.34196989 11.3269043 3.34057617 C10.12281166 3.35675491 10.12281166 3.35675491 8.89439392 3.3732605 C3.45526215 3.34279011 3.45526215 3.34279011 0.97956848 1.47871399 C0.65631088 0.99073837 0.33305328 0.50276276 0 0 Z " fill="#FFEFCF" transform="translate(134,212)"/>
<path d="M0 0 C0.578125 1.890625 0.578125 1.890625 1 4 C-0.25 5.75 -0.25 5.75 -2 7 C-2.99 7 -3.98 7 -5 7 C-5.20625 7.70125 -5.4125 8.4025 -5.625 9.125 C-7.3834378 12.80173359 -9.80428141 15.47295079 -13 18 C-13.66 18 -14.32 18 -15 18 C-15 18.66 -15 19.32 -15 20 C-16.32 19.67 -17.64 19.34 -19 19 C-18.319375 18.505 -17.63875 18.01 -16.9375 17.5 C-13.89175082 14.90787304 -11.43681237 12.1384802 -8.84765625 9.10546875 C-6.04984898 5.91726976 -3.03935191 2.95620854 0 0 Z " fill="#F4B986" transform="translate(77,136)"/>
<path d="M0 0 C-0.845625 0.495 -1.69125 0.99 -2.5625 1.5 C-6.21426547 3.89403152 -8.7532985 7.01983689 -11.484375 10.390625 C-11.98453125 10.92171875 -12.4846875 11.4528125 -13 12 C-13.66 12 -14.32 12 -15 12 C-15.226875 12.556875 -15.45375 13.11375 -15.6875 13.6875 C-17.36716718 16.64691361 -19.56751852 18.62408786 -22 21 C-22.88535441 22.07488775 -23.76049728 23.15827148 -24.625 24.25 C-27 27 -27 27 -30 28 C-29.67587628 24.97484531 -29.10171348 24.08758661 -26.75 22.0625 C-25.8425 21.381875 -24.935 20.70125 -24 20 C-22.31237149 18.3545622 -20.6459651 16.68711423 -19 15 C-16.45637707 12.45637707 -13.91606831 9.91997211 -11.3125 7.4375 C-8.95691522 5.21847511 -8.95691522 5.21847511 -8 2.8125 C-7 1 -7 1 -4.5 -0.3125 C-2 -1 -2 -1 0 0 Z " fill="#FDDFC0" transform="translate(108,108)"/>
<path d="M0 0 C6.93 0.33 13.86 0.66 21 1 C21 1.66 21 2.32 21 3 C27.27 2.67 33.54 2.34 40 2 C38 4 38 4 35.6015625 4.24291992 C34.61929688 4.23881104 33.63703125 4.23470215 32.625 4.23046875 C31.55765625 4.22853516 30.4903125 4.22660156 29.390625 4.22460938 C28.27171875 4.21236328 27.1528125 4.20011719 26 4.1875 C24.32164062 4.1865332 24.32164062 4.1865332 22.609375 4.18554688 C14.28056319 4.14028159 14.28056319 4.14028159 12 3 C9.44014782 2.7275833 6.88070064 2.55435019 4.3125 2.37890625 C2 2 2 2 0 0 Z " fill="#7C8691" transform="translate(894,264)"/>
<path d="M0 0 C0.94423828 -0.00773438 1.88847656 -0.01546875 2.86132812 -0.0234375 C3.76173828 -0.02085937 4.66214844 -0.01828125 5.58984375 -0.015625 C6.40187256 -0.01336914 7.21390137 -0.01111328 8.05053711 -0.00878906 C10.0625 0.25 10.0625 0.25 12.0625 2.25 C-9.46941489 3.44148936 -9.46941489 3.44148936 -19.9375 3.25 C-19.9375 2.92 -19.9375 2.59 -19.9375 2.25 C-13.16598133 0.50340562 -6.97951171 -0.05885744 0 0 Z " fill="#646D77" transform="translate(675.9375,168.75)"/>
<path d="M0 0 C1.98 0.66 3.96 1.32 6 2 C5.01 2.495 5.01 2.495 4 3 C4 3.66 4 4.32 4 5 C3.34 5 2.68 5 2 5 C2 9.62 2 14.24 2 19 C3.32 19.33 4.64 19.66 6 20 C5.34 20.33 4.68 20.66 4 21 C2.68 20.34 1.36 19.68 0 19 C0 12.73 0 6.46 0 0 Z " fill="#475260" transform="translate(886,243)"/>
<path d="M0 0 C2.69865632 3.07495411 3.3719284 4.95476032 3.328125 9.02734375 C3.32296875 9.98447266 3.3178125 10.94160156 3.3125 11.92773438 C3.291875 12.92095703 3.27125 13.91417969 3.25 14.9375 C3.24484375 15.92685547 3.2396875 16.91621094 3.234375 17.93554688 C3.13709103 26.97687589 3.13709103 26.97687589 2 31 C-0.5625 32.8125 -0.5625 32.8125 -3 34 C-1.18404075 28.29269949 -1.18404075 28.29269949 0.05859375 26.31640625 C1.47176092 22.83919408 1.24812289 19.37911467 1.1875 15.6875 C1.18685547 14.95337891 1.18621094 14.21925781 1.18554688 13.46289062 C1.14898033 8.88394634 0.74594843 4.51746367 0 0 Z " fill="#99A0A9" transform="translate(962,218)"/>
<path d="M0 0 C2.5625 2 2.5625 2 4 4 C1.525 3.505 1.525 3.505 -1 3 C-1 2.34 -1 1.68 -1 1 C-4.79547921 1.96776098 -4.79547921 1.96776098 -8 4 C-9.66617115 4.04063832 -11.33388095 4.042721 -13 4 C-13.33 5.65 -13.66 7.3 -14 9 C-15.65 9.33 -17.3 9.66 -19 10 C-13.97972232 2.39786523 -9.59310358 -1.70027022 0 0 Z " fill="#F4B276" transform="translate(117,107)"/>
<path d="M0 0 C0.66 0.33 1.32 0.66 2 1 C0.625 2.5 0.625 2.5 -1 4 C-1.66 4 -2.32 4 -3 4 C-3.268125 4.598125 -3.53625 5.19625 -3.8125 5.8125 C-5.02300334 8.04237457 -5.991379 9.45490692 -8 11 C-9.32 11 -10.64 11 -12 11 C-15 5.375 -15 5.375 -15 2 C-11.73539027 3.80412643 -10.11070205 4.83394693 -8 8 C-7.13375 6.8553125 -7.13375 6.8553125 -6.25 5.6875 C-4.28296907 3.33799083 -2.51523256 1.70676495 0 0 Z " fill="#86939E" transform="translate(557,174)"/>
<path d="M0 0 C0.33 0 0.66 0 1 0 C1.01417969 1.02738281 1.02835938 2.05476562 1.04296875 3.11328125 C1.28234056 11.29346657 2.02662398 17.62327368 6.0390625 24.9609375 C6.35617187 25.63382813 6.67328125 26.30671875 7 27 C6.67 27.66 6.34 28.32 6 29 C1.81497141 25.17837725 0.21717877 20.50694356 -0.12890625 14.91845703 C-0.2562629 9.94199595 -0.15421222 4.97477208 0 0 Z " fill="#BDC2C7" transform="translate(886,165)"/>
<path d="M0 0 C0.65355469 0.16371094 1.30710938 0.32742188 1.98046875 0.49609375 C5.76991774 1.12848563 9.48490951 1.10696709 13.3125 1.0625 C14.42334961 1.05573242 14.42334961 1.05573242 15.55664062 1.04882812 C17.37112899 1.03712175 19.18557534 1.01918898 21 1 C21 1.66 21 2.32 21 3 C15.42516056 4.20537069 9.67298573 4.68146631 4 4 C1.3125 2 1.3125 2 0 0 Z " fill="#FCE5CC" transform="translate(139,304)"/>
<path d="M0 0 C0.33 0 0.66 0 1 0 C1.01458252 0.70084717 1.02916504 1.40169434 1.04418945 2.1237793 C1.11885487 5.31223009 1.21545475 8.49965513 1.3125 11.6875 C1.33505859 12.79029297 1.35761719 13.89308594 1.38085938 15.02929688 C1.41630859 16.09599609 1.45175781 17.16269531 1.48828125 18.26171875 C1.51446533 19.24100342 1.54064941 20.22028809 1.56762695 21.22924805 C2.06337051 24.40609367 3.19525506 26.36746751 5 29 C1.125 28.125 1.125 28.125 0 27 C-0.08758003 25.00035018 -0.10696576 22.9976389 -0.09765625 20.99609375 C-0.09443359 19.78115234 -0.09121094 18.56621094 -0.08789062 17.31445312 C-0.07951172 16.03505859 -0.07113281 14.75566406 -0.0625 13.4375 C-0.05798828 12.15423828 -0.05347656 10.87097656 -0.04882812 9.54882812 C-0.03699545 6.36583978 -0.02051068 3.18294238 0 0 Z " fill="#FCD1A8" transform="translate(148,161)"/>
<path d="M0 0 C4.23322844 0.62045463 7.52290295 2.10523559 11.3125 4.0625 C12.38113281 4.61035156 13.44976563 5.15820312 14.55078125 5.72265625 C15.35902344 6.14417969 16.16726563 6.56570312 17 7 C14.36749612 8.31625194 13.19820944 7.74813658 10.375 7.0625 C9.55773437 6.86785156 8.74046875 6.67320312 7.8984375 6.47265625 C6.95871094 6.23869141 6.95871094 6.23869141 6 6 C6 5.01 6 4.02 6 3 C4.02 2.34 2.04 1.68 0 1 C0 0.67 0 0.34 0 0 Z " fill="#A9B1BB" transform="translate(917,209)"/>
<path d="M0 0 C0.33 0.66 0.66 1.32 1 2 C0.34 2 -0.32 2 -1 2 C-1.24492188 2.60328125 -1.48984375 3.2065625 -1.7421875 3.828125 C-3.22565933 6.38964779 -4.58473931 7.27500992 -7.125 8.75 C-7.84945312 9.17796875 -8.57390625 9.6059375 -9.3203125 10.046875 C-9.87460937 10.36140625 -10.42890625 10.6759375 -11 11 C-11 10.01 -11 9.02 -11 8 C-10.01 8 -9.02 8 -8 8 C-7.67 6.68 -7.34 5.36 -7 4 C-6.01 4.33 -5.02 4.66 -4 5 C-4 3.68 -4 2.36 -4 1 C-2.68 0.67 -1.36 0.34 0 0 Z " fill="#FDE5CA" transform="translate(57,156)"/>
<path d="M0 0 C0 1.65 0 3.3 0 5 C-5.94 4.01 -5.94 4.01 -12 3 C-11.67 2.34 -11.34 1.68 -11 1 C-8.75 0.5859375 -8.75 0.5859375 -6 0.375 C-5.0925 0.30023438 -4.185 0.22546875 -3.25 0.1484375 C-1 0 -1 0 0 0 Z " fill="#FEEAD7" transform="translate(120,104)"/>
<path d="M0 0 C0.33 0.66 0.66 1.32 1 2 C-0.92333011 6.06036357 -3.40069448 8.37347975 -7 11 C-7 7 -7 7 -4.625 4.375 C-3.75875 3.59125 -2.8925 2.8075 -2 2 C-1.34 1.34 -0.68 0.68 0 0 Z " fill="#F4AA67" transform="translate(86,128)"/>
<path d="M0 0 C1.48828125 1.01953125 1.48828125 1.01953125 3 3 C3.2172101 5.64996326 3.28351554 8.05076558 3.1875 10.6875 C3.17396484 11.38939453 3.16042969 12.09128906 3.14648438 12.81445312 C3.11120182 14.54329829 3.05739583 16.27174765 3 18 C2.01 18.33 1.02 18.66 0 19 C0.495 17.515 0.495 17.515 1 16 C1.09419337 14.21032596 1.12990998 12.41714437 1.125 10.625 C1.12886719 9.22121094 1.12886719 9.22121094 1.1328125 7.7890625 C1.00441441 5.09270253 0.60188709 2.62728491 0 0 Z " fill="#A2ABB4" transform="translate(942,224)"/>
<path d="M0 0 C0.66 0.33 1.32 0.66 2 1 C0.1663305 3.24331907 -1.65564056 5.28397113 -4 7 C-7.375 6.875 -7.375 6.875 -10 6 C-8.75 4.5 -8.75 4.5 -7 3 C-5.68 3 -4.36 3 -3 3 C-3 2.34 -3 1.68 -3 1 C-2.01 0.67 -1.02 0.34 0 0 Z " fill="#5F6A76" transform="translate(908,141)"/>
<path d="M0 0 C0 2.08427062 -0.06745323 4.16918939 -0.1875 6.25 C0.03105056 10.62101122 1.09371611 13.10800373 3 17 C0 16 0 16 -1.171875 14.2578125 C-2.12251996 11.66595974 -2.26645315 9.63090193 -2.25 6.875 C-2.25773438 5.57175781 -2.25773438 5.57175781 -2.265625 4.2421875 C-2 2 -2 2 0 0 Z " fill="#9AA2A9" transform="translate(741,138)"/>
<path d="M0 0 C0.66 0.33 1.32 0.66 2 1 C-1.33333333 4.33333333 -4.66666667 7.66666667 -8 11 C-8.33 10.34 -8.66 9.68 -9 9 C-6 6 -3 3 0 0 Z " fill="#FCD7B2" transform="translate(87,125)"/>
<path d="M0 0 C0 3.99476331 -1.28869085 5.1421336 -4 8 C-6.75 9.3125 -6.75 9.3125 -9 10 C-6.43571997 5.82117329 -3.98069267 2.87494471 0 0 Z " fill="#FAC79A" transform="translate(197,268)"/>
<path d="M0 0 C2.82956479 2.70654023 3.96750313 3.9886975 4.09765625 8.0390625 C4.08605469 9.22242188 4.07445312 10.40578125 4.0625 11.625 C4.05347656 12.81351563 4.04445313 14.00203125 4.03515625 15.2265625 C4.02355469 16.14179688 4.01195312 17.05703125 4 18 C3.67 18 3.34 18 3 18 C3 14.37 3 10.74 3 7 C2.34 7 1.68 7 1 7 C0.67 4.69 0.34 2.38 0 0 Z " fill="#98A4AE" transform="translate(689,190)"/>
<path d="M0 0 C2.64 0 5.28 0 8 0 C8 0.66 8 1.32 8 2 C9.093125 1.95875 10.18625 1.9175 11.3125 1.875 C15 2 15 2 18 4 C5.33029613 3.22095672 5.33029613 3.22095672 0 1 C0 0.67 0 0.34 0 0 Z " fill="#64717C" transform="translate(896,247)"/>
<path d="M0 0 C1.07174763 3.65188082 0.76411467 6.26432828 0 10 C-0.66 10 -1.32 10 -2 10 C-2 11.98 -2 13.96 -2 16 C-2.33 16 -2.66 16 -3 16 C-3.33266291 9.79029227 -2.45029331 5.71735105 0 0 Z " fill="#6A7581" transform="translate(492,198)"/>
<path d="M0 0 C0 3.97054597 -1.3139381 5.16471244 -4 8 C-6.25 8.8125 -6.25 8.8125 -8 9 C-5.68462045 5.27885429 -3.71420527 2.38770339 0 0 Z " fill="#F5B57E" transform="translate(50,164)"/>
<path d="M0 0 C0.66 0.33 1.32 0.66 2 1 C0.37660195 2.70884005 -1.29319053 4.37446717 -3 6 C-3.66 6 -4.32 6 -5 6 C-5 6.66 -5 7.32 -5 8 C-6.32 7.67 -7.64 7.34 -9 7 C-6.03716687 4.61327331 -3.05729491 2.2646629 0 0 Z " fill="#F7AF75" transform="translate(67,148)"/>
<path d="M0 0 C4.21422242 2.88341534 5.76075855 5.04303419 7 10 C6.34 10 5.68 10 5 10 C4.71125 9.360625 4.4225 8.72125 4.125 8.0625 C3.17176549 5.84793921 3.17176549 5.84793921 1 5 C0.375 2.4375 0.375 2.4375 0 0 Z " fill="#5F6770" transform="translate(955,208)"/>
<path d="M0 0 C1.31611677 0.95336021 2.62778961 1.91285774 3.9375 2.875 C4.66839844 3.40867187 5.39929688 3.94234375 6.15234375 4.4921875 C8 6 8 6 9 8 C6.1875 7.8125 6.1875 7.8125 3 7 C1.14766715 4.59196729 0 3.07258075 0 0 Z " fill="#FEF1DA" transform="translate(113,280)"/>
<path d="M0 0 C0.33 1.98 0.66 3.96 1 6 C0.01 4.68 -0.98 3.36 -2 2 C-2.33 2.99 -2.66 3.98 -3 5 C-4.32 4.67 -5.64 4.34 -7 4 C-3.375 0 -3.375 0 0 0 Z " fill="#AFB7C0" transform="translate(695,253)"/>
<path d="M0 0 C7.425 0.99 7.425 0.99 15 2 C15 2.33 15 2.66 15 3 C10.38 3 5.76 3 1 3 C0.67 2.01 0.34 1.02 0 0 Z " fill="#46535D" transform="translate(938,140)"/>
<path d="M0 0 C0.99 0.33 1.98 0.66 3 1 C0.03 3.475 0.03 3.475 -3 6 C-3.33 5.01 -3.66 4.02 -4 3 C-2.1875 1.4375 -2.1875 1.4375 0 0 Z " fill="#3D4C56" transform="translate(956,251)"/>
<path d="M0 0 C0.6875 1.625 0.6875 1.625 1 4 C-0.4375 7.25 -0.4375 7.25 -2 10 C-2.33 10 -2.66 10 -3 10 C-3.36923077 4.58461538 -3.36923077 4.58461538 -1.5 1.625 C-1.005 1.08875 -0.51 0.5525 0 0 Z " fill="#9CA5B0" transform="translate(555,192)"/>
<path d="M0 0 C0 0.99 0 1.98 0 3 C-0.99 3.33 -1.98 3.66 -3 4 C-4.66710346 5.49985609 -4.66710346 5.49985609 -6 7 C-6.33 6.34 -6.66 5.68 -7 5 C-2.25 0 -2.25 0 0 0 Z " fill="#BEC6CD" transform="translate(502,188)"/>
<path d="M0 0 C0.66 0.33 1.32 0.66 2 1 C0.75023244 4.65316671 0.32901247 5.78065836 -3 8 C-2.67 6.02 -2.34 4.04 -2 2 C-1.34 2 -0.68 2 0 2 C0 1.34 0 0.68 0 0 Z " fill="#6D7E89" transform="translate(854,283)"/>
<path d="M0 0 C2.4375 0.6875 2.4375 0.6875 5 2 C5.8125 4.625 5.8125 4.625 6 7 C1.125 2.25 1.125 2.25 0 0 Z " fill="#F5AD6E" transform="translate(79,243)"/>
<path d="M0 0 C0.66 0.33 1.32 0.66 2 1 C0.35 3.64 -1.3 6.28 -3 9 C-3.33 7.68 -3.66 6.36 -4 5 C-2.0625 2.25 -2.0625 2.25 0 0 Z " fill="#FACA9C" transform="translate(40,173)"/>
<path d="M0 0 C2.64 0 5.28 0 8 0 C8 0.66 8 1.32 8 2 C8.99 2.33 9.98 2.66 11 3 C9 4 9 4 6.8359375 3.44140625 C6.02382813 3.15136719 5.21171875 2.86132812 4.375 2.5625 C3.55773437 2.27503906 2.74046875 1.98757812 1.8984375 1.69140625 C1.27195312 1.46324219 0.64546875 1.23507813 0 1 C0 0.67 0 0.34 0 0 Z " fill="#C2CAD2" transform="translate(588,170)"/>
</svg>
