<?xml version="1.0" encoding="UTF-8"?>
<svg version="1.1" xmlns="http://www.w3.org/2000/svg" width="200" height="200">
<path d="M0 0 C3.57783588 1.66643074 6.89770601 3.67293024 10.25 5.75 C11.61511719 6.55824219 11.61511719 6.55824219 13.0078125 7.3828125 C20.60719111 12.0055799 20.60719111 12.0055799 22 16 C22.57615998 20.27689445 22.60033219 24.56372732 22.6875 28.875 C22.75388672 30.04675781 22.82027344 31.21851563 22.88867188 32.42578125 C23.03622022 40.81223886 23.03622022 40.81223886 20.29052734 43.95947266 C17.93631536 45.55702902 15.57027453 46.78300015 13 48 C11.41579661 48.91929157 9.8376345 49.84907128 8.265625 50.7890625 C6.59560281 51.7376444 4.92365001 52.68283368 3.25 53.625 C1.39318978 54.67831599 -0.46357989 55.73170345 -2.3203125 56.78515625 C-3.26165039 57.3177002 -4.20298828 57.85024414 -5.17285156 58.39892578 C-9.66342479 60.94203279 -14.14445787 63.50177295 -18.625 66.0625 C-19.49398926 66.55886963 -20.36297852 67.05523926 -21.25830078 67.56665039 C-27.05711162 70.88157053 -32.84508387 74.21475344 -38.625 77.5625 C-39.3888501 78.0044873 -40.1527002 78.44647461 -40.93969727 78.90185547 C-45.08031165 81.29999588 -49.21345655 83.71026722 -53.33984375 86.1328125 C-54.21366699 86.64384521 -55.08749023 87.15487793 -55.98779297 87.68139648 C-57.6725188 88.6668956 -59.35522509 89.65585732 -61.03564453 90.64868164 C-61.7882959 91.08817139 -62.54094727 91.52766113 -63.31640625 91.98046875 C-63.98099854 92.37129639 -64.64559082 92.76212402 -65.33032227 93.16479492 C-67 94 -67 94 -69 94 C-69.75611186 85.87179751 -70.08135575 77.86693887 -69.9375 69.703125 C-69.68679683 67.08301219 -69.68679683 67.08301219 -71 66 C-71 75.24 -71 84.48 -71 94 C-75.92607683 93.01478463 -78.2924652 91.79071143 -82.4375 89.125 C-86.54314632 86.49777413 -90.62681194 84.14937135 -95 82 C-95.05802751 77.41671978 -95.09360593 72.83353396 -95.125 68.25 C-95.14175781 66.94804688 -95.15851563 65.64609375 -95.17578125 64.3046875 C-95.18222656 63.05429687 -95.18867187 61.80390625 -95.1953125 60.515625 C-95.20578613 59.36352539 -95.21625977 58.21142578 -95.22705078 57.02441406 C-95.00289207 54.03852364 -94.69023037 52.44052269 -93 50 C-90.53705965 48.42685864 -88.14144563 47.03826376 -85.5625 45.6875 C-84.10020003 44.89574035 -82.63926472 44.10145526 -81.1796875 43.3046875 C-80.46393555 42.91506836 -79.74818359 42.52544922 -79.01074219 42.12402344 C-76.33136719 40.62622809 -73.75812444 38.9889942 -71.1875 37.3125 C-67.81375885 35.11530004 -64.41007907 33.08427116 -60.86328125 31.1796875 C-55.20635026 28.11913184 -49.59707292 24.98097467 -44 21.8125 C-43.01322266 21.2544165 -42.02644531 20.69633301 -41.00976562 20.12133789 C-32.98822065 15.57669733 -25.00115966 10.97432472 -17.03125 6.33984375 C-16.00837891 5.75178955 -16.00837891 5.75178955 -14.96484375 5.15185547 C-13.67172793 4.39378882 -12.39223804 3.61190148 -11.12890625 2.80517578 C-7.17751577 0.33987991 -4.62169055 -0.87924845 0 0 Z M-4 27 C-4.33 27.66 -4.66 28.32 -5 29 C-3.68 28.34 -2.36 27.68 -1 27 C-1.99 27 -2.98 27 -4 27 Z M-49 53 C-49.33 53.66 -49.66 54.32 -50 55 C-49.01 54.67 -48.02 54.34 -47 54 C-47.66 53.67 -48.32 53.34 -49 53 Z M-85 58 C-84.67 58.66 -84.34 59.32 -84 60 C-83.34 59.67 -82.68 59.34 -82 59 C-82.99 58.67 -83.98 58.34 -85 58 Z M-80 61 C-79.67 61.66 -79.34 62.32 -79 63 C-78.34 62.67 -77.68 62.34 -77 62 C-77.99 61.67 -78.98 61.34 -80 61 Z M-77 63 C-75.02 63.99 -75.02 63.99 -73 65 C-73.33 64.34 -73.66 63.68 -74 63 C-74.99 63 -75.98 63 -77 63 Z " fill="#0051CB" transform="translate(124,0)"/>
<path d="M0 0 C-0.00785522 1.21901001 -0.00785522 1.21901001 -0.01586914 2.46264648 C-0.03656994 6.12092322 -0.04963803 9.77918767 -0.0625 13.4375 C-0.07506836 15.3565918 -0.07506836 15.3565918 -0.08789062 17.31445312 C-0.09272461 19.13686523 -0.09272461 19.13686523 -0.09765625 20.99609375 C-0.10551147 22.68496704 -0.10551147 22.68496704 -0.11352539 24.40795898 C-0.29545448 26.92970871 -0.29545448 26.92970871 1 28 C1 18.76 1 9.52 1 0 C2.98 0.66 4.96 1.32 7 2 C7.80034668 2.26675537 8.60069336 2.53351074 9.42529297 2.80834961 C15.64101327 5.07260094 21.90604463 7.61375218 26 13 C28.40832135 21.71788098 27.15890426 31.14447005 26 40 C25.01 40.495 25.01 40.495 24 41 C23.67 41.99 23.34 42.98 23 44 C21.38378906 45.15991211 21.38378906 45.15991211 19.265625 46.27734375 C18.47454346 46.70217041 17.68346191 47.12699707 16.8684082 47.56469727 C15.57229614 48.24423462 15.57229614 48.24423462 14.25 48.9375 C12.41450865 49.92288647 10.57990062 50.90991974 8.74609375 51.8984375 C7.79589355 52.40858398 6.84569336 52.91873047 5.86669922 53.44433594 C1.31032528 55.9169313 -3.19059197 58.4837281 -7.6875 61.0625 C-8.56124268 61.56289795 -9.43498535 62.0632959 -10.33520508 62.57885742 C-16.59483047 66.17304874 -22.8224424 69.8198102 -29.03759766 73.49023438 C-34.47520886 76.69965639 -39.93717532 79.86069416 -45.43359375 82.96875 C-48.06901409 84.45979404 -50.67947187 85.98886139 -53.28515625 87.53125 C-54.73170606 88.37511105 -56.17831948 89.21886306 -57.625 90.0625 C-58.30054932 90.46927979 -58.97609863 90.87605957 -59.67211914 91.29516602 C-64.47580936 94.07113125 -64.47580936 94.07113125 -66.94848633 93.7355957 C-70.88233295 92.32506614 -74.42656516 90.16389595 -78.0625 88.125 C-78.87783203 87.67769531 -79.69316406 87.23039062 -80.53320312 86.76953125 C-81.31759766 86.33253906 -82.10199219 85.89554687 -82.91015625 85.4453125 C-83.62308838 85.04844238 -84.33602051 84.65157227 -85.07055664 84.24267578 C-86.99988654 83.00007307 -88.44438492 81.6779603 -90 80 C-90.33 79.67 -90.66 79.34 -91 79 C-91.33831995 74.40355942 -91.32509341 69.79478596 -91.375 65.1875 C-91.41238281 63.89005859 -91.44976562 62.59261719 -91.48828125 61.25585938 C-91.49988281 60.00998047 -91.51148438 58.76410156 -91.5234375 57.48046875 C-91.54325684 56.33473389 -91.56307617 55.18899902 -91.58349609 54.00854492 C-91 51 -91 51 -88.61743164 48.68383789 C-86.13864137 47.08919033 -83.67310391 45.61765074 -81.0625 44.25 C-69.3037817 37.96624049 -57.83862082 31.16193233 -46.33081055 24.43359375 C-38.62441321 19.93322635 -30.88925491 15.48580431 -23.12670898 11.08300781 C-18.07707467 8.21276505 -13.09080785 5.25820678 -8.14208984 2.21679688 C-5.29167047 0.59763912 -3.29181334 0 0 0 Z M5 30 C5.99 30.99 6.98 31.98 8 33 C8.66 32.67 9.32 32.34 10 32 C7.525 31.01 7.525 31.01 5 30 Z M-78 71 C-78.33 71.66 -78.66 72.32 -79 73 C-78.01 72.67 -77.02 72.34 -76 72 C-76.66 71.67 -77.32 71.34 -78 71 Z " fill="#0051CB" transform="translate(146,105)"/>
<path d="M0 0 C0.99 0.33 1.98 0.66 3 1 C3.05783842 5.29161047 3.0935412 9.58312145 3.125 13.875 C3.14175781 15.09832031 3.15851563 16.32164063 3.17578125 17.58203125 C3.18222656 18.74863281 3.18867188 19.91523437 3.1953125 21.1171875 C3.20578613 22.19597168 3.21625977 23.27475586 3.22705078 24.38623047 C3 27 3 27 1 29 C1.66 29.33 2.32 29.66 3 30 C4.49813764 38.87550518 5.84690682 48.29700714 3 57 C-2.37575836 63.37789211 -10.46969487 66.4461868 -17.98242188 69.66113281 C-21.99364196 71.44086833 -25.6212566 73.64389775 -29.3125 76 C-34.39855662 79.09875696 -39.56981833 82.01213066 -44.828125 84.80859375 C-47.18333502 86.05999828 -47.18333502 86.05999828 -50 88 C-50.99 88 -51.98 88 -53 88 C-53 78.76 -53 69.52 -53 60 C-55.475 61.464375 -57.95 62.92875 -60.5 64.4375 C-66.62169138 68.04226321 -72.76059893 71.61559138 -78.9375 75.125 C-79.95650391 75.70979126 -79.95650391 75.70979126 -80.99609375 76.30639648 C-85.76625847 79 -85.76625847 79 -88 79 C-88 69.76 -88 60.52 -88 51 C-84.885625 49.22625 -81.77125 47.4525 -78.5625 45.625 C-71.70244575 41.71122372 -64.8627983 37.76673179 -58.0625 33.75 C-56.03515604 32.55538787 -54.00760813 31.36112272 -51.97998047 30.16699219 C-50.63980159 29.37709638 -49.30030208 28.58604698 -47.96142578 27.79394531 C-46.01968851 26.64777118 -44.07308547 25.51034187 -42.125 24.375 C-41.01382813 23.72273438 -39.90265625 23.07046875 -38.7578125 22.3984375 C-36 21 -36 21 -33 21 C-33 29.91 -33 38.82 -33 48 C-32.67 47.67 -32.34 47.34 -32 47 C-32.08428562 45.02866353 -32.22750781 43.05980563 -32.39453125 41.09375 C-33.60345267 21.83526152 -33.60345267 21.83526152 -30.80761719 16.89160156 C-27.7064062 13.77854635 -23.95404602 12.16986996 -19.86425781 10.69873047 C-17.09279643 9.65997687 -14.61699807 8.17110125 -12.0625 6.6875 C-11.18722656 6.22601563 -10.31195313 5.76453125 -9.41015625 5.2890625 C-7.2201324 4.11773694 -5.11579922 2.8611325 -3 1.5625 C-2.01 1.046875 -1.02 0.53125 0 0 Z M-19 39 C-19.33 39.66 -19.66 40.32 -20 41 C-18.68 40.34 -17.36 39.68 -16 39 C-16.99 39 -17.98 39 -19 39 Z " fill="#0051CB" transform="translate(143,45)"/>
<path d="M0 0 C1.49071839 9.19085225 2.90534247 18.98928414 0 28 C-5.37907352 34.42161314 -13.32355497 37.60854896 -20.92480469 40.72607422 C-25.40319528 42.58128557 -29.69299126 44.78136584 -34 47 C-34.20343412 42.43815761 -34.32768948 37.87748017 -34.4375 33.3125 C-34.49615234 32.01892578 -34.55480469 30.72535156 -34.61523438 29.39257812 C-34.78400895 20.06175507 -34.78400895 20.06175507 -32.58862305 17.08862305 C-30.77735364 15.77274356 -29.05847791 14.86990524 -27 14 C-25.71416016 13.24783203 -25.71416016 13.24783203 -24.40234375 12.48046875 C-23.58894531 12.05378906 -22.77554688 11.62710938 -21.9375 11.1875 C-18.67776315 9.45350109 -15.4434116 7.69264035 -12.25 5.83984375 C-11.61715088 5.47286377 -10.98430176 5.10588379 -10.33227539 4.7277832 C-9.08476523 4.00171654 -7.83910245 3.27246493 -6.59545898 2.53979492 C-2.21913024 0 -2.21913024 0 0 0 Z " fill="#0051CB" transform="translate(89,107)"/>
<path d="M0 0 C4.66801176 1.47721891 8.41788465 3.30980408 12.5625 5.9375 C13.65691406 6.62714844 14.75132812 7.31679688 15.87890625 8.02734375 C17.42384766 9.00380859 17.42384766 9.00380859 19 10 C19.93714844 10.55816406 20.87429687 11.11632813 21.83984375 11.69140625 C24 13 24 13 25 14 C25.08758003 15.99964982 25.10696576 18.0023611 25.09765625 20.00390625 C25.09443359 21.21884766 25.09121094 22.43378906 25.08789062 23.68554688 C25.07951172 24.96494141 25.07113281 26.24433594 25.0625 27.5625 C25.05798828 28.84576172 25.05347656 30.12902344 25.04882812 31.45117188 C25.03699545 34.63416022 25.02051068 37.81705762 25 41 C20.58530706 42.47156431 18.04440627 40.78872677 13.91064453 38.9362793 C8.54367709 36.23164913 3.78603312 33.7809287 0 29 C-2.75177003 19.72861157 -1.34202842 9.44018451 0 0 Z " fill="#0051CB" transform="translate(147,44)"/>
<path d="M0 0 C1.98 0.66 3.96 1.32 6 2 C6.77005371 2.25628174 7.54010742 2.51256348 8.33349609 2.77661133 C14.37548826 4.99874423 20.25674521 7.57337507 24 13 C26.30021896 22.35041725 25.08754352 32.52907616 24 42 C19.80894673 42 17.13206953 39.8466325 13.6875 37.6875 C12.38023359 36.87676208 11.07165493 36.06813592 9.76171875 35.26171875 C9.18381592 34.90037842 8.60591309 34.53903809 8.01049805 34.16674805 C5.40730081 32.65604014 2.69204372 31.34602186 0 30 C0 20.1 0 10.2 0 0 Z " fill="#0051CC" transform="translate(29,113)"/>
<path d="M0 0 C8.45779993 1.94852847 18.82627099 7.82627099 25 14 C25.08748207 15.92667507 25.10697334 17.85651861 25.09765625 19.78515625 C25.09443359 20.95498047 25.09121094 22.12480469 25.08789062 23.33007812 C25.07951172 24.56177734 25.07113281 25.79347656 25.0625 27.0625 C25.05798828 28.29806641 25.05347656 29.53363281 25.04882812 30.80664062 C25.03699608 33.87114117 25.02051173 36.93554721 25 40 C15.96010885 38.64573059 5.67062239 35.66418834 0 28 C-2.42196098 18.94844544 -1.15618721 9.18677334 0 0 Z " fill="#0051CB" transform="translate(147,75)"/>
<path d="M0 0 C2.50264945 1.22398996 5.00203266 2.4540179 7.5 3.6875 C8.54414062 4.19700195 8.54414062 4.19700195 9.609375 4.71679688 C11.03093653 5.42099634 12.44182136 6.14711845 13.84179688 6.89331055 C15.98775932 8.04243646 15.98775932 8.04243646 18.29882812 8.88208008 C20.80425754 10.01224661 22.25396012 10.86155058 24 13 C24.99608641 17.79929017 24.75258996 22.4379996 24.5 27.3125 C24.46390625 28.62541016 24.4278125 29.93832031 24.390625 31.29101562 C24.29639122 34.53030187 24.16494088 37.76366962 24 41 C20.77410427 40.35087845 18.32294435 39.1878983 15.48828125 37.53125 C14.64845703 37.04269531 13.80863281 36.55414063 12.94335938 36.05078125 C12.07517578 35.53902344 11.20699219 35.02726562 10.3125 34.5 C8.99282227 33.73236328 8.99282227 33.73236328 7.64648438 32.94921875 C1.15603258 29.15603258 1.15603258 29.15603258 0 28 C-0.08767112 25.92737924 -0.10695873 23.85179706 -0.09765625 21.77734375 C-0.09443359 20.51728516 -0.09121094 19.25722656 -0.08789062 17.95898438 C-0.07953403 16.61848891 -0.07106907 15.27799412 -0.0625 13.9375 C-0.0574866 12.59310058 -0.05292342 11.2486994 -0.04882812 9.90429688 C-0.03699488 6.60282059 -0.02050971 3.30143197 0 0 Z " fill="#0051CC" transform="translate(29,83)"/>
</svg>
