<?xml version="1.0" standalone="no"?>
<!DOCTYPE svg PUBLIC "-//W3C//DTD SVG 20010904//EN"
 "http://www.w3.org/TR/2001/REC-SVG-20010904/DTD/svg10.dtd">
<svg version="1.0" xmlns="http://www.w3.org/2000/svg"
 width="840.000000pt" height="732.000000pt" viewBox="0 0 840.000000 732.000000"
 preserveAspectRatio="xMidYMid meet">
<metadata>
Created by potrace 1.16, written by Peter Selinger 2001-2019
</metadata>
<g transform="translate(0.000000,732.000000) scale(0.100000,-0.100000)"
fill="#000000" stroke="none">
<path d="M3905 6909 c-612 -37 -1170 -181 -1680 -432 -451 -223 -782 -461
-1115 -804 -514 -528 -809 -1121 -892 -1793 -17 -136 -17 -544 0 -680 88 -714
409 -1328 984 -1885 392 -380 837 -657 1383 -860 217 -81 351 -119 420 -119
77 0 146 32 180 82 l25 37 0 332 c0 211 -4 334 -10 338 -6 3 -55 -1 -111 -11
-140 -23 -519 -15 -659 15 -163 34 -274 81 -387 165 -85 62 -143 139 -212 281
-61 127 -138 232 -233 322 -52 48 -157 123 -175 123 -4 0 -39 24 -77 53 -131
98 -104 156 74 157 110 0 180 -18 305 -79 141 -70 229 -139 317 -249 145 -183
227 -257 354 -320 107 -54 173 -67 334 -65 158 1 284 19 409 58 l76 24 18 78
c25 114 84 227 161 309 l64 70 -131 11 c-246 22 -462 76 -749 189 -257 101
-376 172 -503 299 -182 181 -327 467 -391 769 -35 165 -45 466 -20 601 45 243
146 440 319 621 l70 75 -26 77 c-40 118 -51 187 -51 312 1 127 19 231 63 363
38 110 56 143 83 151 40 10 143 7 220 -8 177 -34 531 -168 731 -276 l128 -70
82 19 c280 65 561 94 907 95 354 1 647 -29 924 -94 l88 -20 161 84 c89 46 203
101 252 122 262 108 512 167 631 149 46 -6 46 -7 80 -79 119 -258 133 -561 35
-780 l-19 -44 40 -38 c118 -114 234 -289 291 -439 63 -162 72 -229 72 -510 -1
-235 -2 -257 -27 -361 -30 -126 -60 -207 -128 -344 -110 -221 -247 -383 -420
-499 -117 -78 -188 -114 -366 -184 -239 -95 -473 -151 -746 -178 l-127 -12 68
-73 c88 -92 144 -201 171 -334 18 -87 20 -139 20 -625 0 -338 4 -544 11 -568
15 -57 68 -103 133 -118 70 -15 124 -5 327 62 645 212 1177 540 1624 1001 552
568 848 1197 905 1917 56 725 -110 1340 -515 1903 -171 236 -452 538 -665 714
-685 564 -1480 886 -2380 964 -172 15 -555 20 -725 9z"/>
</g>
</svg>
