<?xml version="1.0" encoding="UTF-8"?>
<svg version="1.1" xmlns="http://www.w3.org/2000/svg" width="1024" height="1024">
<path d="M0 0 C6.6942395 3.93475841 13.43030209 7.79457079 20.17578125 11.640625 C21.35587773 12.31387982 22.53597213 12.98713829 23.71606445 13.66040039 C26.09462163 15.01707163 28.47347884 16.37321503 30.85253906 17.72900391 C36.75379814 21.09214551 42.65270475 24.45940567 48.55078125 27.828125 C49.13114136 28.15955505 49.71150146 28.49098511 50.30944824 28.8324585 C59.76919684 34.23572748 69.20860947 39.67371206 78.64160156 45.12353516 C86.5163481 49.67050477 94.40439982 54.19386191 102.30078125 58.703125 C102.8811615 59.03456512 103.46154175 59.36600525 104.05950928 59.70748901 C108.18115103 62.06098776 112.30339676 64.41342753 116.42578125 66.765625 C121.13453035 69.45239711 125.84301043 72.13963905 130.55078125 74.828125 C131.42159332 75.32540604 131.42159332 75.32540604 132.30999756 75.83273315 C141.76955838 81.23591829 151.2087867 86.67381445 160.64160156 92.12353516 C168.5163481 96.67050477 176.40439982 101.19386191 184.30078125 105.703125 C184.8811615 106.03456512 185.46154175 106.36600525 186.05950928 106.70748901 C190.18115103 109.06098776 194.30339676 111.41342753 198.42578125 113.765625 C203.13453035 116.45239711 207.84301043 119.13963905 212.55078125 121.828125 C213.13132263 122.15964569 213.71186401 122.49116638 214.30999756 122.83273315 C223.76955838 128.23591829 233.2087867 133.67381445 242.64160156 139.12353516 C250.5163481 143.67050477 258.40439982 148.19386191 266.30078125 152.703125 C266.8811615 153.03456512 267.46154175 153.36600525 268.05950928 153.70748901 C272.18115103 156.06098776 276.30339676 158.41342753 280.42578125 160.765625 C285.13453035 163.45239711 289.84301043 166.13963905 294.55078125 168.828125 C295.13132263 169.15964569 295.71186401 169.49116638 296.30999756 169.83273315 C305.76955838 175.23591829 315.2087867 180.67381445 324.64160156 186.12353516 C332.5163481 190.67050477 340.40439982 195.19386191 348.30078125 199.703125 C348.8811615 200.03456512 349.46154175 200.36600525 350.05950928 200.70748901 C354.18115103 203.06098776 358.30339676 205.41342753 362.42578125 207.765625 C364.78520572 209.1118925 367.14459063 210.45822924 369.50390625 211.8046875 C370.37862328 212.30388702 370.37862328 212.30388702 371.27101135 212.81317139 C376.50126272 215.79868143 381.72799302 218.79032308 386.95458984 221.78222656 C389.29190854 223.11774331 391.63030335 224.45105494 393.97119141 225.78027344 C440.7794177 252.35974413 440.7794177 252.35974413 449.125 280.05078125 C450.61187563 285.80678094 450.88750095 291.27977052 450.80078125 297.203125 C450.7855542 298.71579956 450.7855542 298.71579956 450.77001953 300.2590332 C450.43504243 316.33144207 445.06673802 329.64675756 434.42578125 341.765625 C433.55179688 342.78076172 433.55179688 342.78076172 432.66015625 343.81640625 C428.98134264 347.79663526 425.10235109 350.7343224 420.46875 353.54296875 C419.90072159 353.88779297 419.33269318 354.23261719 418.74745178 354.58789062 C412.67995781 358.25218233 406.52852589 361.7689655 400.36328125 365.265625 C399.14781019 365.95735667 397.9324816 366.64933875 396.71728516 367.34155273 C394.20417809 368.77280536 391.69047739 370.20300622 389.17626953 371.63232422 C383.21326721 375.02302834 377.25687182 378.42529918 371.30078125 381.828125 C370.72141815 382.15901123 370.14205505 382.48989746 369.5451355 382.83081055 C360.10228948 388.22437859 350.67692881 393.64781016 341.26489258 399.0949707 C335.4180422 402.47551003 329.55771974 405.83034786 323.6796875 409.15625 C322.38341945 409.89119827 321.0871951 410.62622364 319.79101562 411.36132812 C317.9055264 412.43061322 316.0192078 413.49824227 314.12963867 414.56030273 C312.39390107 415.53590778 310.66171346 416.51782063 308.9296875 417.5 C307.93783447 418.05913086 306.94598145 418.61826172 305.92407227 419.19433594 C303.74559502 420.56447954 302.12892146 421.85638144 300.42578125 423.765625 C301.50508911 424.17506348 301.50508911 424.17506348 302.60620117 424.59277344 C305.37916145 425.74623271 307.92057495 427.06301187 310.5390625 428.53125 C311.52712891 429.08425781 312.51519531 429.63726563 313.53320312 430.20703125 C314.59087891 430.80386719 315.64855469 431.40070313 316.73828125 432.015625 C317.84623047 432.63824219 318.95417969 433.26085937 320.09570312 433.90234375 C328.57640253 438.68386117 336.99079992 443.57437751 345.38623047 448.50390625 C352.66214543 452.76576897 359.99661408 456.91287573 367.36328125 461.015625 C374.89856743 465.21338795 382.40464761 469.44341186 389.81054688 473.8659668 C394.13632965 476.44315115 398.50060249 478.9389029 402.89453125 481.3984375 C404.64035352 482.3835145 406.38617285 483.36859725 408.13137817 484.35476685 C409.80518249 485.29547254 411.48634077 486.22305616 413.16772461 487.15014648 C430.381414 496.89530943 443.33863209 510.88018347 449.09765625 529.97265625 C450.62860177 535.87261885 450.92511072 541.50362463 450.86328125 547.578125 C450.85570801 548.62766357 450.84813477 549.67720215 450.84033203 550.75854492 C450.46907615 568.31461216 443.72723277 583.16542395 431.42578125 595.765625 C424.74797137 601.69324032 417.64148321 606.17153028 409.80078125 610.390625 C407.57448778 611.61270327 405.34925258 612.83671111 403.125 614.0625 C402.00528809 614.67802734 400.88557617 615.29355469 399.73193359 615.92773438 C394.64670245 618.75461519 389.62878414 621.6923056 384.61328125 624.640625 C375.99730471 629.69347559 367.35148485 634.69115461 358.67578125 639.640625 C358.09212799 639.97365631 357.50847473 640.30668762 356.90713501 640.64981079 C353.93818621 642.34361547 350.96876102 644.03658262 347.99902344 645.72900391 C342.09776436 649.09214551 336.19885775 652.45940567 330.30078125 655.828125 C329.72042114 656.15955505 329.14006104 656.49098511 328.54211426 656.8324585 C320.15736863 661.62170163 311.78682005 666.43511291 303.42578125 671.265625 C294.4801915 676.43385594 285.52223281 681.57993841 276.55078125 686.703125 C275.970401 687.03456512 275.39002075 687.36600525 274.79205322 687.70748901 C270.08026715 690.39796608 265.36766443 693.08701152 260.6550293 695.77600098 C256.5365654 698.12604157 252.418424 700.4766459 248.30078125 702.828125 C247.42996918 703.32540604 247.42996918 703.32540604 246.54156494 703.83273315 C238.15700594 708.62189044 229.78664282 713.4352153 221.42578125 718.265625 C212.4801915 723.43385594 203.52223281 728.57993841 194.55078125 733.703125 C193.970401 734.03456512 193.39002075 734.36600525 192.79205322 734.70748901 C188.08026715 737.39796608 183.36766443 740.08701152 178.6550293 742.77600098 C174.5365654 745.12604157 170.418424 747.4766459 166.30078125 749.828125 C165.42996918 750.32540604 165.42996918 750.32540604 164.54156494 750.83273315 C156.15700594 755.62189044 147.78664282 760.4352153 139.42578125 765.265625 C130.4801915 770.43385594 121.52223281 775.57993841 112.55078125 780.703125 C111.970401 781.03456512 111.39002075 781.36600525 110.79205322 781.70748901 C106.08026715 784.39796608 101.36766443 787.08701152 96.6550293 789.77600098 C92.5365654 792.12604157 88.418424 794.4766459 84.30078125 796.828125 C83.42996918 797.32540604 83.42996918 797.32540604 82.54156494 797.83273315 C74.15700594 802.62189044 65.78664282 807.4352153 57.42578125 812.265625 C45.55529083 819.12368999 33.65682264 825.93207976 21.74977112 832.72636414 C16.98124667 835.44761141 12.21521924 838.1732061 7.45027161 840.90071106 C4.50435853 842.58665291 1.55734755 844.27060994 -1.39233398 845.94995117 C-6.94189688 849.110767 -12.47913435 852.28871169 -17.98828125 855.51953125 C-36.86999223 866.52383093 -55.46760216 873.57830018 -77.57421875 868.265625 C-92.66884974 864.24782705 -105.90522249 855.33183178 -119.2265625 847.4765625 C-125.45832185 843.81330504 -131.75622222 840.27748747 -138.07421875 836.765625 C-147.23174509 831.66785487 -156.31116275 826.45253723 -165.35253906 821.15185547 C-172.98220851 816.68283668 -180.6440653 812.27213615 -188.32421875 807.890625 C-188.90787201 807.55759369 -189.49152527 807.22456238 -190.09286499 806.88143921 C-193.06181379 805.18763453 -196.03123898 803.49466738 -199.00097656 801.80224609 C-204.90223564 798.43910449 -210.80114225 795.07184433 -216.69921875 791.703125 C-217.56975891 791.20597992 -217.56975891 791.20597992 -218.45788574 790.6987915 C-227.91763434 785.29552252 -237.35704697 779.85753794 -246.79003906 774.40771484 C-254.6647856 769.86074523 -262.55283732 765.33738809 -270.44921875 760.828125 C-271.029599 760.49668488 -271.60997925 760.16524475 -272.20794678 759.82376099 C-276.32958853 757.47026224 -280.45183426 755.11782247 -284.57421875 752.765625 C-289.28296785 750.07885289 -293.99144793 747.39161095 -298.69921875 744.703125 C-299.27976013 744.37160431 -299.86030151 744.04008362 -300.45843506 743.69851685 C-309.91799588 738.29533171 -319.3572242 732.85743555 -328.79003906 727.40771484 C-336.6647856 722.86074523 -344.55283732 718.33738809 -352.44921875 713.828125 C-353.029599 713.49668488 -353.60997925 713.16524475 -354.20794678 712.82376099 C-358.32958853 710.47026224 -362.45183426 708.11782247 -366.57421875 705.765625 C-371.28296785 703.07885289 -375.99144793 700.39161095 -380.69921875 697.703125 C-381.57003082 697.20584396 -381.57003082 697.20584396 -382.45843506 696.69851685 C-391.91799588 691.29533171 -401.3572242 685.85743555 -410.79003906 680.40771484 C-418.6647856 675.86074523 -426.55283732 671.33738809 -434.44921875 666.828125 C-435.029599 666.49668488 -435.60997925 666.16524475 -436.20794678 665.82376099 C-440.32958853 663.47026224 -444.45183426 661.11782247 -448.57421875 658.765625 C-453.28296785 656.07885289 -457.99144793 653.39161095 -462.69921875 650.703125 C-463.27976013 650.37160431 -463.86030151 650.04008362 -464.45843506 649.69851685 C-473.90860504 644.30069564 -483.33945667 638.86989535 -492.76147461 633.4230957 C-499.69395199 629.41833276 -506.64151712 625.44108747 -513.59814453 621.47851562 C-519.26287159 618.25141299 -524.92022066 615.01148992 -530.57421875 611.765625 C-531.40679199 611.28834961 -532.23936523 610.81107422 -533.09716797 610.31933594 C-551.93066497 599.47342574 -565.82545873 586.90243031 -572.2421875 565.5546875 C-573.75887972 559.7003055 -574.11251162 554.10777874 -574.07421875 548.078125 C-574.06672607 546.51263916 -574.06672607 546.51263916 -574.05908203 544.91552734 C-573.62328748 525.40695891 -565.24357629 511.07946448 -551.39453125 497.65234375 C-548.01212443 494.56988622 -545.07353902 492.03105882 -540.57421875 490.765625 C-540.57421875 490.105625 -540.57421875 489.445625 -540.57421875 488.765625 C-539.94257812 488.41483887 -539.3109375 488.06405273 -538.66015625 487.70263672 C-526.89992839 481.16376363 -515.17783751 474.57922041 -503.57421875 467.765625 C-494.5226006 462.45316957 -485.40328268 457.27775854 -476.23510742 452.16943359 C-464.75661188 445.76794773 -453.35446806 439.2352586 -441.95166016 432.70019531 C-436.16191902 429.3838798 -430.36796574 426.07493564 -424.57421875 422.765625 C-427.48363858 420.49612547 -430.46882562 418.59005456 -433.66796875 416.75390625 C-434.68358887 416.16939697 -435.69920898 415.5848877 -436.74560547 414.98266602 C-437.84404785 414.35416748 -438.94249023 413.72566895 -440.07421875 413.078125 C-441.23725437 412.41027064 -442.40017529 411.74221651 -443.56298828 411.07397461 C-447.23117898 408.96730802 -450.90252619 406.86618039 -454.57421875 404.765625 C-455.74448051 404.09572821 -456.91472815 403.42580677 -458.08496094 402.75585938 C-466.24440497 398.08606152 -474.40870525 393.42479743 -482.57421875 388.765625 C-490.75456915 384.09798676 -498.93329023 379.42754706 -507.10742188 374.74902344 C-509.43881431 373.41520427 -511.77071482 372.08232573 -514.10351562 370.75097656 C-521.6167206 366.46165405 -529.11345415 362.14564299 -536.57421875 357.765625 C-537.34024414 357.31606445 -538.10626953 356.86650391 -538.89550781 356.40332031 C-556.29556554 346.07538458 -566.76237395 333.21849397 -572.57421875 313.765625 C-576.72129244 295.60147945 -573.65317098 276.77147336 -563.82421875 261.0859375 C-556.91100914 250.62547785 -548.28372597 243.93987372 -537.57421875 237.765625 C-536.11483887 236.92088623 -536.11483887 236.92088623 -534.62597656 236.05908203 C-528.12203434 232.30486097 -521.59714746 228.58874912 -515.0640564 224.88560486 C-508.88173036 221.37853161 -502.72669016 217.82477737 -496.57421875 214.265625 C-487.62895077 209.09684004 -478.67066776 203.95131013 -469.69921875 198.828125 C-468.82864838 198.33096481 -468.82864838 198.33096481 -467.94049072 197.82376099 C-463.22870465 195.13328392 -458.51610193 192.44423848 -453.8034668 189.75524902 C-449.6850029 187.40520843 -445.5668615 185.0546041 -441.44921875 182.703125 C-440.86867737 182.37160431 -440.28813599 182.04008362 -439.69000244 181.69851685 C-431.30544344 176.90935956 -422.93508032 172.0960347 -414.57421875 167.265625 C-405.628629 162.09739406 -396.67067031 156.95131159 -387.69921875 151.828125 C-387.1188385 151.49668488 -386.53845825 151.16524475 -385.94049072 150.82376099 C-381.22870465 148.13328392 -376.51610193 145.44423848 -371.8034668 142.75524902 C-367.6850029 140.40520843 -363.5668615 138.0546041 -359.44921875 135.703125 C-358.86867737 135.37160431 -358.28813599 135.04008362 -357.69000244 134.69851685 C-349.30544344 129.90935956 -340.93508032 125.0960347 -332.57421875 120.265625 C-323.628629 115.09739406 -314.67067031 109.95131159 -305.69921875 104.828125 C-304.82864838 104.33096481 -304.82864838 104.33096481 -303.94049072 103.82376099 C-299.22870465 101.13328392 -294.51610193 98.44423848 -289.8034668 95.75524902 C-285.6850029 93.40520843 -281.5668615 91.0546041 -277.44921875 88.703125 C-276.86867737 88.37160431 -276.28813599 88.04008362 -275.69000244 87.69851685 C-267.30544344 82.90935956 -258.93508032 78.0960347 -250.57421875 73.265625 C-241.628629 68.09739406 -232.67067031 62.95131159 -223.69921875 57.828125 C-222.82864838 57.33096481 -222.82864838 57.33096481 -221.94049072 56.82376099 C-217.22870465 54.13328392 -212.51610193 51.44423848 -207.8034668 48.75524902 C-203.6850029 46.40520843 -199.5668615 44.0546041 -195.44921875 41.703125 C-194.86867737 41.37160431 -194.28813599 41.04008362 -193.69000244 40.69851685 C-185.30544344 35.90935956 -176.93508032 31.0960347 -168.57421875 26.265625 C-158.46669818 20.42609937 -148.34291195 14.61555771 -138.20214844 8.83398438 C-137.03188401 8.16669653 -135.86163666 7.49937875 -134.69140625 6.83203125 C-133.81947632 6.33481064 -133.81947632 6.33481064 -132.92993164 5.82754517 C-128.66088702 3.39100251 -124.40145119 0.93811946 -120.14453125 -1.51953125 C-72.75301063 -28.85883866 -47.01489466 -27.67105296 0 0 Z M-67.39453125 120.3359375 C-68.39226562 120.89539063 -69.39 121.45484375 -70.41796875 122.03125 C-72.0421875 122.95164063 -72.0421875 122.95164063 -73.69921875 123.890625 C-74.82070313 124.52226562 -75.9421875 125.15390625 -77.09765625 125.8046875 C-85.62703928 130.61772868 -94.08854636 135.54472126 -102.53393555 140.50341797 C-109.81003975 144.76553616 -117.14476943 148.91278206 -124.51171875 153.015625 C-132.01452999 157.19470972 -139.47349896 161.42648384 -146.85791016 165.81103516 C-153.493763 169.74158653 -160.18781569 173.56879672 -166.88671875 177.390625 C-167.48277924 177.73074615 -168.07883972 178.07086731 -168.69296265 178.42129517 C-171.75762276 180.16977286 -174.82275268 181.91742483 -177.88818359 183.66455078 C-183.82693272 187.04936559 -189.76353732 190.43793394 -195.69921875 193.828125 C-196.56880722 194.32472626 -196.56880722 194.32472626 -197.45596313 194.83135986 C-205.84134961 199.62096929 -214.2125408 204.43474364 -222.57421875 209.265625 C-231.5198085 214.43385594 -240.47776719 219.57993841 -249.44921875 224.703125 C-250.31978912 225.20028519 -250.31978912 225.20028519 -251.20794678 225.70748901 C-255.91973285 228.39796608 -260.63233557 231.08701152 -265.3449707 233.77600098 C-269.4634346 236.12604157 -273.581576 238.4766459 -277.69921875 240.828125 C-278.27976013 241.15964569 -278.86030151 241.49116638 -279.45843506 241.83273315 C-287.84299406 246.62189044 -296.21335718 251.4352153 -304.57421875 256.265625 C-313.51981266 261.43385835 -322.47819239 266.57918966 -331.44921875 271.703125 C-333.1650415 272.68369873 -333.1650415 272.68369873 -334.91552734 273.68408203 C-340.43956223 276.83995356 -345.96672165 279.99017695 -351.50033569 283.12922668 C-354.10649952 284.60809325 -356.71130734 286.08933859 -359.315979 287.5708313 C-360.5631379 288.27929273 -361.8109733 288.98656468 -363.05950928 289.69259644 C-364.78741354 290.66976192 -366.51290741 291.65118598 -368.23828125 292.6328125 C-369.2226416 293.19081543 -370.20700195 293.74881836 -371.22119141 294.32373047 C-373.65092978 295.68669728 -373.65092978 295.68669728 -375.57421875 297.765625 C-374.85169922 298.17699707 -374.12917969 298.58836914 -373.38476562 299.01220703 C-369.94719094 300.97040853 -366.51040824 302.92999414 -363.07421875 304.890625 C-362.44164154 305.25154236 -361.80906433 305.61245972 -361.15731812 305.98431396 C-352.53809933 310.90434096 -343.9474008 315.86921323 -335.38671875 320.890625 C-324.09782008 327.50655494 -312.74981138 334.04359761 -301.22485352 340.24145508 C-298.57421875 341.765625 -298.57421875 341.765625 -296.29663086 343.4987793 C-293.98785223 345.17027552 -292.36937964 346.17521945 -289.57421875 346.765625 C-284.93285689 345.47022214 -281.05801265 342.99745575 -277.01171875 340.453125 C-275.81586399 339.73980273 -274.61782276 339.03013442 -273.41772461 338.32397461 C-270.96369545 336.87252825 -268.52342325 335.401393 -266.09277344 333.91113281 C-261.946976 331.37258395 -257.74280259 328.93867758 -253.53442383 326.50561523 C-250.58895235 324.80047289 -247.65324551 323.07942174 -244.71875 321.35546875 C-238.11454275 317.48602455 -231.47279911 313.68309193 -224.82421875 309.890625 C-224.24038422 309.55750305 -223.65654968 309.2243811 -223.05502319 308.88116455 C-220.08625504 307.18745572 -217.11702245 305.4945635 -214.14746094 303.80224609 C-208.24620186 300.43910449 -202.34729525 297.07184433 -196.44921875 293.703125 C-195.57867859 293.20597992 -195.57867859 293.20597992 -194.69055176 292.6987915 C-186.30580613 287.90954837 -177.93525755 283.09613709 -169.57421875 278.265625 C-157.71604689 271.41467694 -145.8299473 264.61338992 -133.9344635 257.82754517 C-129.65542126 255.3854858 -125.38159915 252.93443257 -121.109375 250.48046875 C-114.27540179 246.55590999 -107.42915567 242.65348279 -100.57421875 238.765625 C-99.74986328 238.29560059 -98.92550781 237.82557617 -98.07617188 237.34130859 C-90.47541913 233.02759529 -83.22257974 229.4404328 -74.57421875 227.765625 C-73.43984375 227.53875 -72.30546875 227.311875 -71.13671875 227.078125 C-53.53511761 225.5341249 -39.77334194 229.34737527 -24.57421875 237.765625 C-22.51695748 238.88807654 -20.45966334 240.01046784 -18.40234375 241.1328125 C-6.32988295 247.75695893 5.61894264 254.57776758 17.49047852 261.55615234 C24.73008705 265.80359726 32.03007895 269.93214429 39.36328125 274.015625 C46.86611942 278.19465959 54.3250628 282.42648464 61.70947266 286.81103516 C68.3453255 290.74158653 75.03937819 294.56879672 81.73828125 298.390625 C82.33434174 298.73074615 82.93040222 299.07086731 83.54452515 299.42129517 C86.60918526 301.16977286 89.67431518 302.91742483 92.73974609 304.66455078 C98.67849534 308.04936566 104.61504098 311.43803677 110.55078125 314.828125 C111.12651886 315.15686615 111.70225647 315.4856073 112.29544067 315.8243103 C119.81606126 320.11922908 127.32728771 324.42995732 134.82250977 328.76904297 C137.02925648 330.04183856 139.24059 331.30671999 141.45678711 332.56298828 C146.12566302 335.21679971 150.69123596 337.88251473 155.078125 340.984375 C158.81726976 343.56637511 162.02263206 345.52557418 166.42578125 346.765625 C171.4264443 345.68073539 175.07653669 343.20867403 179.17578125 340.30175781 C183.59021278 337.28791198 188.29212365 334.73642394 192.92578125 332.078125 C195.01012305 330.85718875 197.09344804 329.63451505 199.17578125 328.41015625 C205.05827599 324.96685581 210.98344296 321.60431658 216.92578125 318.265625 C228.83894015 311.56868854 240.6397055 304.68323275 252.42578125 297.765625 C249.39034449 295.38377475 246.24867399 293.43892638 242.89453125 291.53515625 C241.23526611 290.59047485 241.23526611 290.59047485 239.54248047 289.62670898 C238.33692049 288.94383631 237.1313539 288.26097531 235.92578125 287.578125 C234.6692667 286.86365606 233.41292191 286.1488885 232.15673828 285.43383789 C229.54559925 283.9478606 226.93373489 282.46317079 224.32128906 280.97949219 C218.30882827 277.56388927 212.30468233 274.13374461 206.30078125 270.703125 C205.72223389 270.37269196 205.14368652 270.04225891 204.54760742 269.70181274 C195.08601381 264.29755956 185.64476303 258.85858365 176.20996094 253.40771484 C168.33521366 248.8607448 160.44708756 244.33752044 152.55078125 239.828125 C151.97106567 239.49701721 151.3913501 239.16590942 150.79406738 238.82476807 C144.88561487 235.45041436 138.97565036 232.07872038 133.06410217 228.70979309 C130.10087627 227.02086289 127.13819813 225.33097378 124.17578125 223.640625 C123.59301422 223.30815765 123.01024719 222.97569031 122.40982056 222.63314819 C114.32368432 218.01793257 106.27023046 213.3495106 98.23828125 208.640625 C90.1856394 203.9203409 82.08101703 199.30627835 73.92578125 194.765625 C64.76864577 189.66713624 55.68885363 184.45254684 46.64746094 179.15185547 C39.01779315 174.68283765 31.35600639 170.27200869 23.67578125 165.890625 C22.79930435 165.39057953 22.79930435 165.39057953 21.90512085 164.88043213 C18.93386145 163.1855901 15.96214853 161.49154516 12.99023438 159.79785156 C7.71356577 156.79018652 2.44087339 153.77556398 -2.83209229 150.76141357 C-5.72774056 149.10627916 -8.62364881 147.45159967 -11.51953125 145.796875 C-12.68392053 145.13151261 -13.84830854 144.46614802 -15.01269531 143.80078125 C-15.59555298 143.46771973 -16.17841064 143.1346582 -16.77893066 142.79150391 C-24.54142253 138.35579427 -32.30391439 133.92008464 -40.06640625 129.484375 C-41.11795898 128.88496094 -42.16951172 128.28554687 -43.25292969 127.66796875 C-45.652218 126.29372187 -48.04546462 124.91123176 -50.43457031 123.51953125 C-51.07459991 123.1486438 -51.71462952 122.77775635 -52.37405396 122.39562988 C-53.61426648 121.67671356 -54.85253474 120.95443001 -56.08859253 120.22839355 C-61.13288448 117.31261365 -62.3986247 117.52522791 -67.39453125 120.3359375 Z M-63.8347168 368.6015625 C-64.66011963 369.10945313 -65.48552246 369.61734375 -66.3359375 370.140625 C-67.74782349 370.98971436 -67.74782349 370.98971436 -69.18823242 371.85595703 C-70.20248291 372.48614746 -71.2167334 373.11633789 -72.26171875 373.765625 C-74.4375031 375.07767737 -76.61462884 376.3875074 -78.79296875 377.6953125 C-79.91445313 378.37303711 -81.0359375 379.05076172 -82.19140625 379.74902344 C-87.48731496 382.90608218 -92.87071397 385.89982291 -98.26171875 388.890625 C-100.3584044 390.05930132 -102.45476205 391.22856632 -104.55078125 392.3984375 C-105.56301758 392.96336914 -106.57525391 393.52830078 -107.61816406 394.11035156 C-123.71950218 403.1264626 -139.64950259 412.44241998 -155.57421875 421.765625 C-154.27792067 425.65451925 -152.97386265 425.932337 -149.4140625 427.84765625 C-148.32295166 428.44247803 -147.23184082 429.0372998 -146.10766602 429.65014648 C-145.52252228 429.96378143 -144.93737854 430.27741638 -144.33450317 430.60055542 C-141.22400195 432.26873479 -138.1307573 433.96844317 -135.03515625 435.6640625 C-134.40333939 436.00910324 -133.77152252 436.35414398 -133.12055969 436.7096405 C-127.22961225 439.93414664 -121.42427815 443.29671325 -115.63671875 446.703125 C-105.58965874 452.60540291 -95.4894258 458.40807131 -85.36352539 464.17358398 C-84.26258545 464.80079346 -83.16164551 465.42800293 -82.02734375 466.07421875 C-80.41956055 466.98276611 -80.41956055 466.98276611 -78.77929688 467.90966797 C-76.59277619 469.17581135 -74.4303922 470.48434409 -72.29101562 471.82861328 C-71.24494141 472.47942871 -70.19886719 473.13024414 -69.12109375 473.80078125 C-68.19651367 474.39383057 -67.27193359 474.98687988 -66.31933594 475.59790039 C-62.86578797 477.066979 -61.15202346 476.79140022 -57.57421875 475.765625 C-55.09423017 474.65333682 -55.09423017 474.65333682 -52.72265625 473.16796875 C-51.80387695 472.62221191 -50.88509766 472.07645508 -49.93847656 471.51416016 C-48.95202148 470.91651855 -47.96556641 470.31887695 -46.94921875 469.703125 C-44.7859345 468.41665916 -42.62183923 467.13155636 -40.45703125 465.84765625 C-39.32813477 465.17557129 -38.19923828 464.50348633 -37.03613281 463.81103516 C-31.33963557 460.43357082 -25.57931361 457.16682383 -19.82421875 453.890625 C-18.65682609 453.22482216 -17.48950869 452.55888734 -16.32226562 451.89282227 C-12.74029934 449.84916609 -9.15730369 447.80731904 -5.57421875 445.765625 C-1.13874554 443.23802071 3.2961815 440.7094644 7.73010254 438.17913818 C9.49109902 437.17466768 11.2528605 436.17153872 13.01464844 435.16845703 C16.15656269 433.37580539 19.29318418 431.57450319 22.42578125 429.765625 C23.4115918 429.1974707 24.39740234 428.62931641 25.41308594 428.04394531 C26.77675293 427.2448877 26.77675293 427.2448877 28.16796875 426.4296875 C28.96831543 425.96256348 29.76866211 425.49543945 30.59326172 425.01416016 C32.56849216 423.88634019 32.56849216 423.88634019 33.42578125 421.765625 C32.40484375 421.20617187 31.38390625 420.64671875 30.33203125 420.0703125 C21.4362927 415.1728109 12.62107378 410.15588142 3.86328125 405.015625 C-5.41650207 399.57079367 -14.76880115 394.27327453 -24.17089844 389.04296875 C-32.83454414 384.21074332 -41.4108532 379.23713167 -49.9609375 374.20703125 C-50.90195312 373.65402344 -51.84296875 373.10101563 -52.8125 372.53125 C-53.63790283 372.04430664 -54.46330566 371.55736328 -55.3137207 371.05566406 C-56.05968506 370.62995117 -56.80564941 370.20423828 -57.57421875 369.765625 C-58.56421875 369.11158691 -58.56421875 369.11158691 -59.57421875 368.44433594 C-61.62444576 367.51444998 -61.62444576 367.51444998 -63.8347168 368.6015625 Z M-295.91015625 501.703125 C-297.02277832 502.34258057 -298.13540039 502.98203613 -299.28173828 503.64086914 C-300.50425832 504.34907526 -301.72675106 505.05732853 -302.94921875 505.765625 C-304.21442333 506.49450667 -305.47988965 507.22293419 -306.74560547 507.95092773 C-309.38023118 509.46669808 -312.01370959 510.98443522 -314.64648438 512.50341797 C-318.34076733 514.63320639 -322.04182082 516.75092487 -325.74609375 518.86328125 C-326.32381531 519.19274246 -326.90153687 519.52220367 -327.49676514 519.86164856 C-328.07178772 520.18952866 -328.6468103 520.51740875 -329.23925781 520.85522461 C-341.04121592 527.58480572 -352.8193874 534.3545432 -364.57861328 541.15844727 C-365.60067871 541.74940186 -366.62274414 542.34035645 -367.67578125 542.94921875 C-369.02663818 543.73123657 -369.02663818 543.73123657 -370.40478516 544.52905273 C-371.77497283 545.31005662 -373.1635788 546.06030503 -374.57421875 546.765625 C-374.57421875 547.425625 -374.57421875 548.085625 -374.57421875 548.765625 C-356.60580262 559.15460366 -338.60161057 569.47934883 -320.57421875 579.765625 C-315.86546965 582.45239711 -311.15698957 585.13963905 -306.44921875 587.828125 C-305.86867737 588.15964569 -305.28813599 588.49116638 -304.69000244 588.83273315 C-295.23044162 594.23591829 -285.7912133 599.67381445 -276.35839844 605.12353516 C-264.96275975 611.70350857 -253.53532518 618.22753872 -242.10644531 624.74951172 C-238.59241196 626.75498314 -235.07926906 628.76201031 -231.56640625 630.76953125 C-230.70062454 631.2642971 -230.70062454 631.2642971 -229.81735229 631.76905823 C-226.9059779 633.43287859 -223.99470587 635.09687794 -221.08349609 636.76098633 C-215.79768047 639.78223753 -210.51123755 642.80236305 -205.22160339 645.81692505 C-202.25538481 647.50741575 -199.28966755 649.19878435 -196.32421875 650.890625 C-195.74127045 651.22318298 -195.15832214 651.55574097 -194.55770874 651.89837646 C-186.47175906 656.51350547 -178.41849104 661.18184312 -170.38671875 665.890625 C-162.3340769 670.6109091 -154.22945453 675.22497165 -146.07421875 679.765625 C-136.92368445 684.86043837 -127.8497498 690.07014388 -118.81567383 695.3684082 C-109.8157885 700.641417 -100.7698215 705.83136245 -91.69580078 710.97558594 C-86.3402016 714.01548188 -81.01011165 717.08327413 -75.75390625 720.29296875 C-74.88032471 720.82059814 -74.00674316 721.34822754 -73.10668945 721.8918457 C-71.50991073 722.86077173 -69.92174409 723.84409971 -68.34448242 724.84448242 C-67.64814697 725.2644751 -66.95181152 725.68446777 -66.234375 726.1171875 C-65.34697632 726.67140381 -65.34697632 726.67140381 -64.44165039 727.23681641 C-60.18490104 728.4422183 -55.65022226 724.79548261 -52.0234375 722.78125 C-50.94521729 722.18320557 -49.86699707 721.58516113 -48.75610352 720.96899414 C-47.59116436 720.31812918 -46.4263733 719.66699909 -45.26171875 719.015625 C-44.66430878 718.68271454 -44.0668988 718.34980408 -43.4513855 718.00680542 C-34.13613109 712.8148257 -24.89660417 707.50196451 -15.69897461 702.10400391 C-8.10345678 697.64761834 -0.47355743 693.25377473 7.17578125 688.890625 C7.76028046 688.55717072 8.34477966 688.22371643 8.94699097 687.88015747 C11.91806972 686.18541129 14.88959003 684.49144128 17.86132812 682.79785156 C23.13689172 679.79081637 28.40849185 676.77684563 33.68035889 673.76333618 C36.59278756 672.09854564 39.5053535 670.43399535 42.41796875 668.76953125 C43.28362961 668.27482582 43.28362961 668.27482582 44.16677856 667.77012634 C47.68628504 665.75901047 51.20644937 663.74905122 54.72711182 661.73995972 C66.6415427 654.94084542 78.54766929 648.12809327 90.42578125 641.265625 C99.37137184 636.09739357 108.32941506 630.95146194 117.30078125 625.828125 C117.88049683 625.49701721 118.4602124 625.16590942 119.05749512 624.82476807 C124.96594763 621.45041436 130.87591214 618.07872038 136.78746033 614.70979309 C139.75068623 613.02086289 142.71336437 611.33097378 145.67578125 609.640625 C146.25854828 609.30815765 146.84131531 608.97569031 147.44174194 608.63314819 C155.52787818 604.01793257 163.58133204 599.3495106 171.61328125 594.640625 C179.66592341 589.92034073 187.77054803 585.30628388 195.92578125 580.765625 C206.26133401 575.01094004 216.49979679 569.10552682 226.69921875 563.11328125 C230.50019251 560.88216261 234.31693247 558.68309265 238.15234375 556.51171875 C239.0438916 556.00471436 239.93543945 555.49770996 240.85400391 554.9753418 C242.52992524 554.02410451 244.20914875 553.07865451 245.89208984 552.13989258 C247.76946037 551.07079424 249.60345714 549.92606724 251.42578125 548.765625 C251.42578125 548.105625 251.42578125 547.445625 251.42578125 546.765625 C250.79414062 546.41483887 250.1625 546.06405273 249.51171875 545.70263672 C236.75530558 538.6098688 224.06768499 531.42858422 211.48193359 524.03662109 C203.04331407 519.09386236 194.52503187 514.30147211 185.97265625 509.55859375 C185.00070312 509.01847656 184.02875 508.47835937 183.02734375 507.921875 C182.09051758 507.40496094 181.15369141 506.88804687 180.18847656 506.35546875 C178.31243386 505.27586552 176.467764 504.14022918 174.65527344 502.95703125 C173.78290039 502.38855469 172.91052734 501.82007813 172.01171875 501.234375 C171.24649902 500.71294922 170.4812793 500.19152344 169.69287109 499.65429688 C167.42052464 498.50329881 167.42052464 498.50329881 164.95874023 499.43847656 C164.12286377 499.87643555 163.2869873 500.31439453 162.42578125 500.765625 C161.60682373 501.19133789 160.78786621 501.61705078 159.9440918 502.05566406 C159.0756665 502.54260742 158.20724121 503.02955078 157.3125 503.53125 C156.32467529 504.08409668 155.33685059 504.63694336 154.3190918 505.20654297 C153.26117432 505.80354004 152.20325684 506.40053711 151.11328125 507.015625 C150.00315674 507.63969238 148.89303223 508.26375977 147.74926758 508.90673828 C139.33704578 513.6509336 130.98383227 518.49241676 122.65209961 523.37646484 C115.02108858 527.84680823 107.35759355 532.25833588 99.67578125 536.640625 C98.79930435 537.14067047 98.79930435 537.14067047 97.90512085 537.65081787 C94.93386145 539.3456599 91.96214853 541.03970484 88.99023438 542.73339844 C83.71467078 545.74043363 78.44307065 548.75440437 73.17120361 551.76791382 C70.25877494 553.43270436 67.346209 555.09725465 64.43359375 556.76171875 C63.85648651 557.09152237 63.27937927 557.42132599 62.68478394 557.76112366 C59.16527746 559.77223953 55.64511313 561.78219878 52.12445068 563.79129028 C40.21001656 570.59040643 28.30425167 577.40377262 16.42578125 584.265625 C13.21444394 586.11892552 10.00284056 587.97176343 6.79101562 589.82421875 C4.4585466 591.16982189 2.12651641 592.51616527 -0.20507812 593.86328125 C-3.30781936 595.65535542 -6.41315186 597.44287336 -9.52001953 599.2277832 C-11.25188637 600.22401676 -12.9814636 601.22422741 -14.7109375 602.22460938 C-35.98665141 614.4309494 -56.45900546 622.79535753 -81.38671875 616.203125 C-93.77434609 611.67737388 -105.21341982 604.39877253 -116.57421875 597.765625 C-117.37472656 597.29962891 -118.17523438 596.83363281 -119 596.35351562 C-121.65824951 594.80245909 -124.3118669 593.24408462 -126.95751953 591.67163086 C-133.55618239 587.75035285 -140.21951035 583.94384554 -146.88671875 580.140625 C-147.48296051 579.80041321 -148.07920227 579.46020142 -148.69351196 579.10968018 C-151.75799142 577.3612983 -154.82292875 575.61372129 -157.88818359 573.86669922 C-163.82693272 570.48188441 -169.76353732 567.09331606 -175.69921875 563.703125 C-176.2789444 563.3720575 -176.85867004 563.04098999 -177.45596313 562.69989014 C-186.91635257 557.29625483 -196.35640782 551.8579072 -205.79003906 546.40771484 C-213.66478633 541.86074481 -221.55291113 537.33751815 -229.44921875 532.828125 C-230.02660797 532.49834656 -230.60399719 532.16856812 -231.19888306 531.82879639 C-237.16946466 528.41896954 -243.14162173 525.01191296 -249.11520386 521.60734558 C-251.56437802 520.21125945 -254.01316646 518.81449808 -256.46179199 517.41744995 C-257.65397524 516.73733144 -258.84627516 516.05741741 -260.03869629 515.37771606 C-268.00228309 510.83710612 -275.93698846 506.25284591 -283.7800293 501.50634766 C-289.27121521 498.2204082 -290.44417889 498.5464761 -295.91015625 501.703125 Z " fill="#F99D00" transform="translate(573.57421875,89.234375)"/>
</svg>
