<?xml version="1.0" encoding="UTF-8"?>
<svg version="1.1" xmlns="http://www.w3.org/2000/svg" width="1280" height="468">
<path d="M0 0 C30.68401742 26.60933409 48.56467093 64.75911985 51.62866211 105.06030273 C52.11618387 116.43556506 52.0355628 127.82549807 51.99870706 139.20878506 C51.98720605 143.60584382 51.99151399 148.00289384 51.99345398 152.39996338 C51.9943308 159.77262225 51.98338305 167.1451881 51.96484375 174.51782227 C51.94365412 182.99194076 51.94017673 191.4659236 51.94640571 199.94006324 C51.95213586 208.16267894 51.946413 216.38524781 51.93523216 224.60785675 C51.93063743 228.07626478 51.92968966 231.54464369 51.93181801 235.01305389 C51.94978401 284.76275471 43.26437067 328.16804592 7.62866211 365.06030273 C6.7662793 365.98584961 5.90389648 366.91139648 5.01538086 367.86499023 C-19.85704071 393.87970079 -57.43507237 410.37102525 -93.37915039 411.29858398 C-134.9433112 411.87062668 -173.38527084 401.02501765 -204.28540039 371.97045898 C-206.2327488 370.18721297 -208.23181442 368.60443845 -210.37133789 367.06030273 C-208.94289585 363.8164136 -207.1994462 361.62208126 -204.71948242 359.10205078 C-203.5978923 357.95647957 -203.5978923 357.95647957 -202.4536438 356.7877655 C-201.64531097 355.97406998 -200.83697815 355.16037445 -200.00415039 354.32202148 C-199.17301727 353.48185989 -198.34188416 352.6416983 -197.48556519 351.77607727 C-195.72806566 350.00407944 -193.96774849 348.2348724 -192.20483398 346.46826172 C-189.50138964 343.7528768 -186.81715315 341.01940611 -184.13305664 338.28491211 C-182.42457267 336.56696936 -180.71497462 334.85013368 -179.00415039 333.13452148 C-178.19986603 332.3107048 -177.39558167 331.48688812 -176.56692505 330.6381073 C-175.81289398 329.89015396 -175.05886292 329.14220062 -174.28198242 328.37158203 C-173.62183136 327.70636032 -172.9616803 327.04113861 -172.28152466 326.35575867 C-170.37133789 325.06030273 -170.37133789 325.06030273 -168.27096558 325.24177551 C-165.56237067 326.40887719 -163.70075841 328.16964595 -161.49633789 330.12280273 C-144.88020978 343.98791626 -122.10628598 353.24793398 -100.16430664 352.34155273 C-73.38540983 349.64493655 -48.28564526 340.0792809 -30.37133789 319.06030273 C-17.56521759 303.0221616 -8.29842664 284.03331291 -8.22416687 263.11320496 C-8.22049018 262.43811978 -8.21681349 261.76303461 -8.21302539 261.06749231 C-8.20206183 258.8179362 -8.19815716 256.56842639 -8.19433594 254.31884766 C-8.18806542 252.70024471 -8.1814181 251.08164319 -8.17442322 249.46304321 C-8.15343879 244.15562938 -8.14302154 238.84821548 -8.13305664 233.54077148 C-8.12900606 231.70671385 -8.12488905 229.87265636 -8.12070656 228.03859901 C-8.101662 219.41391948 -8.08743315 210.78924842 -8.07909459 202.16455191 C-8.06934462 192.24634212 -8.04308075 182.32835684 -8.0025937 172.41022605 C-7.97229792 164.72157846 -7.95761277 157.0329947 -7.95431358 149.34428865 C-7.95197714 144.76343796 -7.94320289 140.18282727 -7.9178524 135.60204124 C-7.89433175 131.28205015 -7.89043322 126.96245296 -7.90061378 122.64241409 C-7.90110359 121.07084265 -7.89495044 119.49925021 -7.88105774 117.9277401 C-7.65245341 90.49722265 -17.96418343 66.68859525 -36.99633789 46.99780273 C-55.43674215 28.59251191 -80.2080831 20.80092225 -105.82055664 20.81152344 C-128.4104207 21.07076973 -149.27286626 29.39577724 -166.37133789 44.06030273 C-166.97204102 44.51663086 -167.57274414 44.97295898 -168.19165039 45.44311523 C-185.71136212 59.05144946 -195.33805691 82.79357353 -198.37133789 104.06030273 C-199.87644556 122.58875391 -197.60147351 140.28810216 -189.37133789 157.06030273 C-188.91887695 157.99229492 -188.46641602 158.92428711 -188.00024414 159.88452148 C-184.53323137 166.62123735 -180.25383691 172.29278862 -175.37133789 178.06030273 C-174.9137207 178.66358398 -174.45610352 179.26686523 -173.98461914 179.88842773 C-160.50587476 197.21245955 -136.52656286 207.21589104 -115.37133789 210.06030273 C-110.3483406 210.37112947 -105.32818376 210.43182615 -100.29711914 210.47436523 C-98.87793407 210.49312145 -97.45875963 210.512698 -96.03959656 210.53305054 C-92.34248179 210.5839083 -88.64533105 210.62377877 -84.94805908 210.66119385 C-80.49154665 210.70864573 -76.03520617 210.77004066 -71.57883453 210.82904053 C-64.84307353 210.91668609 -58.10733593 210.98685426 -51.37133789 211.06030273 C-51.37133789 230.53030273 -51.37133789 250.00030273 -51.37133789 270.06030273 C-59.34630525 270.12372663 -67.32032558 270.18376693 -75.29532623 270.21555328 C-79.01145037 270.2312042 -82.72735939 270.25200676 -86.44335938 270.28662109 C-134.58888778 270.72302283 -176.95433847 260.24067508 -212.37133789 226.06030273 C-213.21180664 225.28299805 -214.05227539 224.50569336 -214.91821289 223.70483398 C-240.71045407 199.18577668 -256.61060802 162.74721133 -258.57836914 127.33447266 C-258.67382747 123.5114163 -258.70059702 119.69699728 -258.68383789 115.87280273 C-258.68060516 114.86024918 -258.68060516 114.86024918 -258.67730713 113.82723999 C-258.45856677 70.92694438 -240.84572873 32.85359219 -210.55639648 2.82568359 C-152.45954893 -53.14600287 -59.91360785 -51.22669936 0 0 Z " fill="#F55036" transform="translate(284.371337890625,47.939697265625)"/>
<path d="M0 0 C2.50675933 2.21826758 4.95411493 4.48595329 7.38671875 6.78515625 C8.1859375 7.51992188 8.98515625 8.2546875 9.80859375 9.01171875 C30.04660526 28.28294627 43.58261238 54.32304503 50.26171875 81.28515625 C50.45290283 82.04159424 50.64408691 82.79803223 50.84106445 83.57739258 C54.96827697 101.71801847 54.67562469 120.47809196 54.61884999 138.96210766 C54.61008073 142.55551772 54.61314501 146.14892231 54.61465454 149.74234009 C54.61569502 155.94403074 54.60950701 162.14567877 54.59817886 168.3473587 C54.58181178 177.31355349 54.5767045 186.27972802 54.57420288 195.24593613 C54.5698432 209.79873467 54.55658137 224.35151059 54.53759766 238.90429688 C54.51919387 253.02734261 54.50505949 267.15038217 54.49658203 281.2734375 C54.49605658 282.14635973 54.49553114 283.01928196 54.49498977 283.91865638 C54.49237939 288.2985606 54.48985204 292.67846487 54.48736596 297.05836916 C54.46668732 333.30065163 54.42984692 369.54289218 54.38671875 405.78515625 C34.91671875 405.78515625 15.44671875 405.78515625 -4.61328125 405.78515625 C-4.62262695 396.75599854 -4.63197266 387.72684082 -4.64160156 378.42407227 C-4.67435414 349.48814307 -4.72667097 320.55227857 -4.7912022 291.61640349 C-4.80121888 287.11690929 -4.81106314 282.61741473 -4.82080078 278.11791992 C-4.82274215 277.22220415 -4.82468353 276.32648838 -4.82668373 275.40362971 C-4.8576501 260.92686548 -4.87466937 246.45011707 -4.88647547 231.97332598 C-4.89891488 217.10336575 -4.92647901 202.23348818 -4.96789432 187.36358017 C-4.99295008 178.19835545 -5.00640434 169.03326794 -5.00471082 159.86800849 C-5.00468092 153.57113204 -5.01942784 147.27439468 -5.04544553 140.97757251 C-5.05999972 137.35217738 -5.06837437 133.72706741 -5.05908394 130.10164833 C-4.9868009 98.30051965 -11.209157 72.92313921 -33.7890625 49.5078125 C-38.06439933 45.38622222 -42.64520814 42.01950297 -47.61328125 38.78515625 C-48.38929688 38.2540625 -49.1653125 37.72296875 -49.96484375 37.17578125 C-69.92338152 24.22609454 -95.64781913 20.582389 -118.82446289 24.8659668 C-137.70435274 28.95084701 -153.85988067 38.25833558 -167.61328125 51.78515625 C-168.38542969 52.54441406 -169.15757813 53.30367188 -169.953125 54.0859375 C-184.42727248 69.20338043 -193.46634438 90.96651436 -194.61328125 111.78515625 C-194.66613281 112.71199219 -194.71898437 113.63882813 -194.7734375 114.59375 C-195.55597703 141.84653961 -184.77433373 166.66329599 -166.36328125 186.47265625 C-149.03144146 202.75652434 -125.97249797 212.64913474 -102.12719727 212.99047852 C-100.88643936 213.01042374 -99.64568146 213.03036896 -98.36732483 213.05091858 C-97.03394694 213.06789608 -95.7005678 213.08477513 -94.3671875 213.1015625 C-92.98713098 213.12216457 -91.60708031 213.14316182 -90.22703552 213.16453552 C-86.61533377 213.21942067 -83.00357828 213.2689762 -79.39178467 213.31738281 C-75.69799085 213.36784475 -72.00427299 213.42335243 -68.31054688 213.47851562 C-61.07818421 213.5861582 -53.84577493 213.68544161 -46.61328125 213.78515625 C-46.61328125 233.25515625 -46.61328125 252.72515625 -46.61328125 272.78515625 C-60.31859375 272.84703125 -60.31859375 272.84703125 -74.30078125 272.91015625 C-77.13760498 272.92836426 -79.97442871 272.94657227 -82.8972168 272.96533203 C-100.78349048 273.03312965 -118.9929364 273.07637739 -136.42578125 268.53515625 C-137.28993652 268.31754639 -138.1540918 268.09993652 -139.04443359 267.87573242 C-165.40041158 261.01285583 -188.10382809 247.63011849 -207.61328125 228.78515625 C-208.53882813 227.92277344 -209.464375 227.06039063 -210.41796875 226.171875 C-235.06947341 202.60280185 -252.29267603 166.28913599 -253.77441406 132.06323242 C-254.15212268 96.21824508 -254.15212268 96.21824508 -250.61328125 82.78515625 C-250.30729004 81.595271 -250.30729004 81.595271 -249.99511719 80.38134766 C-243.85783971 57.09632038 -233.706191 35.87880613 -217.61328125 17.78515625 C-216.90816406 16.96015625 -216.20304688 16.13515625 -215.4765625 15.28515625 C-160.90358898 -47.41987617 -62.90773474 -53.31642092 0 0 Z " fill="#F55036" transform="translate(1201.61328125,46.21484375)"/>
<path d="M0 0 C0.98033203 0.87011719 0.98033203 0.87011719 1.98046875 1.7578125 C29.38451582 27.66472635 45.87458315 67.66551936 47 105 C47.03996094 105.99386719 47.07992188 106.98773438 47.12109375 108.01171875 C48.03395661 150.80887773 31.08949819 190.11562499 1.97265625 220.98828125 C-21.67030386 245.36836848 -54.5098397 260.56885066 -88 265 C-88.84304688 265.11214844 -89.68609375 265.22429687 -90.5546875 265.33984375 C-129.72058177 269.68499615 -171.28170038 258.84622567 -202.35595703 234.34912109 C-206.9589684 230.57183556 -211.29872883 226.5203499 -215.57177734 222.37695312 C-216.83919726 221.15503033 -218.13086299 219.95836774 -219.42578125 218.765625 C-245.08191152 194.52217686 -260.17010087 157.35662865 -262.20507812 122.48583984 C-262.30204401 118.94609019 -262.32931278 115.41601209 -262.3125 111.875 C-262.30686035 110.61308838 -262.3012207 109.35117676 -262.29541016 108.05102539 C-261.82377213 71.36365718 -248.42677653 37.99938264 -225 10 C-224.27554688 9.13246094 -223.55109375 8.26492187 -222.8046875 7.37109375 C-218.55289708 2.44401896 -214.02996824 -1.87926316 -209 -6 C-208.02675781 -6.82242188 -207.05351563 -7.64484375 -206.05078125 -8.4921875 C-144.41221539 -59.58489491 -57.90859403 -51.42090922 0 0 Z M-178.390625 46.1015625 C-181.87094733 50.20699127 -184.97224496 54.55433923 -188 59 C-188.80630859 60.17175781 -188.80630859 60.17175781 -189.62890625 61.3671875 C-202.63919053 81.54501743 -206.59896682 107.82248923 -201.81713867 131.19946289 C-195.82362898 156.2956537 -180.40072542 179.34971898 -158.30004883 193.02832031 C-134.66090835 206.95404172 -107.8473779 210.52851628 -81.38671875 203.69775391 C-66.46605786 199.33571945 -53.62679237 191.15094566 -42 181 C-41.37351562 180.45859375 -40.74703125 179.9171875 -40.1015625 179.359375 C-22.59902647 163.08941193 -13.17445526 139.03349645 -11.796875 115.53515625 C-11.42286523 87.82726572 -21.28360762 62.8488607 -40.625 42.875 C-58.65075806 25.01724675 -82.47444392 15.71484475 -107.6875 15.5625 C-134.32103005 15.8556329 -159.93467669 26.6405873 -178.390625 46.1015625 Z " fill="#F55036" transform="translate(870,53)"/>
<path d="M0 0 C0.82846436 0.38051514 1.65692871 0.76103027 2.51049805 1.15307617 C3.65192261 1.70185425 3.65192261 1.70185425 4.81640625 2.26171875 C5.4926001 2.58487061 6.16879395 2.90802246 6.86547852 3.2409668 C8.4375 4.3125 8.4375 4.3125 9.4375 7.3125 C8.48803711 9.56713867 8.48803711 9.56713867 6.96484375 12.23046875 C6.40104004 13.22699463 5.83723633 14.22352051 5.25634766 15.25024414 C4.63550293 16.32266357 4.0146582 17.39508301 3.375 18.5 C2.74899902 19.59884521 2.12299805 20.69769043 1.47802734 21.82983398 C-0.52264423 25.33163273 -2.53946667 28.82359977 -4.5625 32.3125 C-4.90025452 32.89592163 -5.23800903 33.47934326 -5.58599854 34.08044434 C-9.88520727 41.50656123 -14.21062785 48.91711597 -18.5625 56.3125 C-22.84919584 55.5294459 -26.62829205 54.13311979 -30.625 52.4375 C-57.27332564 41.4594631 -86.21758762 43.3773386 -112.5625 54.3125 C-131.82147333 63.02696757 -148.5056803 79.11398987 -156.0390625 99.05859375 C-160.08535738 110.52907235 -161.85933255 121.06991392 -161.86547852 133.20898438 C-161.87813751 135.08972153 -161.87813751 135.08972153 -161.89105225 137.00845337 C-161.90793014 139.72132869 -161.92132998 142.43394425 -161.92859077 145.14683533 C-161.94022623 149.47528225 -161.96576105 153.80358457 -161.99290466 158.13195801 C-162.03447538 165.01845927 -162.06689105 171.90496822 -162.09537882 178.7915349 C-162.14611636 191.01767332 -162.21004859 203.24374008 -162.28071922 215.46977854 C-162.30497211 219.73163184 -162.32458286 223.99347079 -162.34021968 228.25536394 C-162.41735025 248.29396056 -162.91466007 268.28396543 -163.5625 288.3125 C-182.7025 288.3125 -201.8425 288.3125 -221.5625 288.3125 C-222.28589761 267.56265868 -222.73542597 246.85695737 -222.76268864 226.09517121 C-222.76568705 223.91184594 -222.76980075 221.72852515 -222.77419281 219.54520226 C-222.78771857 212.64841782 -222.79746697 205.75164445 -222.8013947 198.85484773 C-222.80589536 191.00848349 -222.82359914 183.16229167 -222.8523953 175.31597978 C-222.87418047 169.15879067 -222.88410719 163.00164966 -222.88543582 156.84442252 C-222.88646815 153.20507397 -222.89203539 149.56589079 -222.91025543 145.92658424 C-223.1044591 104.76651929 -215.66453654 69.43151658 -188.5625 37.3125 C-187.54929687 36.09626953 -187.54929687 36.09626953 -186.515625 34.85546875 C-141.41799173 -17.40182527 -60.794471 -28.12094153 0 0 Z " fill="#F55036" transform="translate(600.5625,24.6875)"/>
</svg>
