<?xml version="1.0" standalone="no"?>
<!DOCTYPE svg PUBLIC "-//W3C//DTD SVG 20010904//EN"
 "http://www.w3.org/TR/2001/REC-SVG-20010904/DTD/svg10.dtd">
<svg version="1.0" xmlns="http://www.w3.org/2000/svg"
 width="800.000000pt" height="800.000000pt" viewBox="0 0 800.000000 800.000000"
 preserveAspectRatio="xMidYMid meet">
<metadata>
Created by potrace 1.16, written by Peter Selinger 2001-2019
</metadata>
<g transform="translate(0.000000,800.000000) scale(0.100000,-0.100000)"
fill="#000000" stroke="none">
<path d="M4567 7064 c4 -21 7 -84 7 -139 -2 -216 -89 -418 -253 -588 -36 -38
-165 -146 -286 -240 -286 -222 -421 -336 -522 -438 -111 -114 -140 -151 -182
-239 -46 -97 -49 -183 -8 -272 35 -77 127 -210 233 -337 108 -129 421 -447
370 -376 -221 309 -342 545 -361 705 -17 148 104 337 383 597 70 65 177 163
237 218 260 234 319 297 378 405 105 192 124 474 46 667 -11 29 -28 58 -36 65
-13 10 -14 7 -6 -28z"/>
<path d="M5145 6075 c-5 -2 -68 -22 -140 -45 -410 -132 -740 -329 -881 -526
-89 -125 -124 -275 -94 -405 20 -88 83 -206 180 -334 126 -169 145 -205 145
-285 0 -74 -27 -137 -97 -230 -21 -28 -38 -54 -36 -56 2 -2 29 13 59 34 149
100 246 196 296 296 66 131 33 245 -150 514 -77 113 -117 200 -117 253 0 43
33 130 69 183 98 143 337 332 675 535 106 63 125 77 91 66z"/>
<path d="M5440 4370 c-25 -4 -61 -15 -80 -23 -35 -15 -35 -15 55 -16 89 -1
169 -16 214 -41 86 -45 151 -151 151 -244 0 -181 -182 -390 -530 -605 l-35
-22 30 7 c46 10 212 73 291 110 183 86 349 230 408 353 41 88 43 190 4 266
-82 160 -297 251 -508 215z"/>
<path d="M3090 4299 c-310 -55 -640 -181 -640 -245 0 -39 159 -81 410 -109
531 -57 1063 -44 1770 45 257 32 275 36 373 92 48 28 87 51 87 53 0 1 -42 -4
-92 -11 -353 -51 -748 -88 -1125 -106 -408 -19 -905 9 -1005 56 -52 25 -54 42
-11 85 43 42 146 89 293 132 109 32 90 35 -60 8z"/>
<path d="M3075 3726 c-89 -28 -154 -73 -179 -123 -23 -45 -20 -65 12 -95 85
-81 404 -132 907 -145 338 -8 580 18 910 97 66 16 131 33 145 38 24 9 23 10
-20 29 -25 11 -66 36 -93 56 l-47 37 -173 -24 c-505 -72 -1142 -83 -1359 -25
-86 23 -121 87 -77 143 11 14 19 26 17 25 -2 0 -21 -6 -43 -13z"/>
<path d="M3209 3175 c-102 -37 -169 -93 -169 -140 0 -128 374 -226 865 -227
223 0 368 16 580 63 154 34 325 81 325 89 0 3 -26 16 -58 30 -31 13 -90 43
-131 66 l-73 41 -87 -18 c-173 -35 -298 -43 -681 -44 -330 0 -383 2 -440 18
-94 26 -129 63 -105 110 8 15 13 27 12 26 -1 0 -18 -6 -38 -14z"/>
<path d="M2660 2809 c-410 -47 -707 -191 -620 -302 57 -72 309 -127 760 -164
312 -26 1351 -26 1690 0 618 47 1048 152 1205 295 40 37 45 68 16 103 l-18 23
5 -32 c17 -118 -290 -200 -938 -251 -522 -42 -1136 -57 -1491 -36 -480 27
-823 83 -903 146 -30 24 -32 40 -9 75 31 47 183 107 341 134 39 6 72 14 72 16
0 5 -12 4 -110 -7z"/>
<path d="M5930 2479 c-32 -25 -176 -98 -260 -132 -138 -55 -358 -110 -584
-146 -481 -78 -1254 -92 -2010 -35 -109 8 -201 12 -204 9 -3 -3 -1 -5 4 -5 6
0 61 -11 124 -24 478 -101 1190 -119 1860 -45 423 46 646 98 855 199 116 56
220 133 245 181 14 24 2 24 -30 -2z"/>
<path d="M2508 1348 l-3 -633 -29 -62 c-29 -64 -103 -144 -144 -157 -12 -4
-22 -10 -22 -14 0 -13 82 -102 93 -102 7 0 40 13 74 29 78 37 143 101 183 180
59 118 60 128 60 789 l0 602 -105 0 -104 0 -3 -632z"/>
<path d="M5085 1658 c-80 -6 -222 -38 -270 -60 -28 -13 -30 -24 -13 -80 10
-33 15 -39 32 -35 164 38 211 47 267 47 75 0 124 -13 157 -44 34 -30 43 -50
52 -117 14 -97 16 -95 -121 -103 -232 -14 -360 -70 -423 -187 -25 -45 -29 -63
-28 -127 2 -173 97 -255 297 -255 101 -1 179 25 258 83 l42 31 7 -23 c3 -13 9
-36 12 -51 7 -28 7 -28 79 -25 l72 3 0 375 c0 374 0 375 -23 419 -64 118 -191
167 -397 149z m225 -622 l0 -114 -49 -30 c-59 -37 -130 -62 -174 -62 -49 0
-117 39 -139 80 -15 26 -18 47 -14 84 12 112 88 154 279 155 l97 1 0 -114z"/>
<path d="M3122 1645 c-82 -18 -163 -42 -180 -53 -19 -13 9 -119 29 -113 131
39 162 44 264 45 88 1 117 -3 142 -17 47 -25 75 -86 77 -166 l1 -65 -142 -12
c-166 -14 -246 -37 -326 -94 -74 -53 -107 -118 -107 -211 0 -156 70 -235 231
-260 112 -17 204 4 308 71 l60 39 13 -47 14 -47 72 -3 72 -3 0 364 c0 399 -2
419 -60 489 -17 20 -56 49 -88 65 -52 25 -68 28 -187 30 -85 1 -152 -3 -193
-12z m338 -605 l0 -109 -47 -32 c-98 -68 -185 -84 -258 -49 -51 25 -78 69 -78
129 0 121 79 169 281 170 l102 1 0 -110z"/>
<path d="M3784 1623 c3 -10 73 -218 154 -463 l148 -445 122 -3 c142 -3 128
-13 193 137 72 168 148 409 204 646 15 61 29 118 31 128 5 15 -4 17 -99 17
l-105 0 -7 -57 c-24 -205 -204 -779 -205 -655 0 24 -47 176 -142 465 l-82 247
-109 0 c-99 0 -108 -2 -103 -17z"/>
</g>
</svg>
