<?xml version="1.0" encoding="UTF-8"?>
<svg version="1.1" xmlns="http://www.w3.org/2000/svg" width="256" height="256">
<path d="M0 0 C0.66 0.99 1.32 1.98 2 3 C1.390625 5.1640625 1.390625 5.1640625 0.25 7.625 C-6.43737735 22.17710986 -6.16032539 41.28612527 -1.39453125 56.375 C5.28011099 74.97381259 5.28011099 74.97381259 19 88 C19.3721042 89.32303717 19.70630173 90.65737935 20 92 C22.75218991 93.96095916 22.75218991 93.96095916 25 94.875 C27.38987146 96.2193027 28.36798899 97.82398532 30 100 C31.31495201 100.70222749 32.65106425 101.3654966 34 102 C35.24331072 102.68891697 36.48154022 103.38707432 37.71484375 104.09375 C38.40126953 104.48433594 39.08769531 104.87492187 39.79492188 105.27734375 C41.22036159 106.09076696 42.64484673 106.90586531 44.06835938 107.72265625 C47.6414324 109.7519742 51.11982475 111.60283318 55 113 C55 113.66 55 114.32 55 115 C57.97 115.33 60.94 115.66 64 116 C64 116.66 64 117.32 64 118 C77.1762135 120.88755317 89.53551696 121.81318018 102.875 119.625 C103.71546875 119.49867188 104.5559375 119.37234375 105.421875 119.2421875 C106.63230469 119.04882812 106.63230469 119.04882812 107.8671875 118.8515625 C108.59019043 118.73635254 109.31319336 118.62114258 110.05810547 118.50244141 C112.30360715 118.03491497 112.30360715 118.03491497 115 116 C118.06535908 113.95642728 121.19053248 112.23957851 124.4375 110.5 C125.57058594 109.8915625 126.70367187 109.283125 127.87109375 108.65625 C129.6420175 107.71883218 131.42728529 106.80490272 133.25 105.97265625 C136.16117486 104.35461487 137.89390504 101.53811444 140 99 C140.99 98.67 141.98 98.34 143 98 C143.33 97.01 143.66 96.02 144 95 C144.66 95.33 145.32 95.66 146 96 C144.66590983 100.4849564 142.86281314 104.19256875 140.4375 108.1875 C137.86936682 112.43173628 137.86936682 112.43173628 136 117 C134.67791376 117.68870183 133.34302714 118.353084 132 119 C130.33257763 120.60081787 130.33257763 120.60081787 128.875 122.4375 C128.37742188 123.03433594 127.87984375 123.63117188 127.3671875 124.24609375 C126.17334505 125.77762306 125.0771532 127.3842702 124 129 C123.01 129.33 122.02 129.66 121 130 C120.401875 130.61875 119.80375 131.2375 119.1875 131.875 C115.05099055 135.89332347 110.64700983 137.32773692 105 138 C105 138.66 105 139.32 105 140 C99.35783117 141.15525212 93.68550367 142.08612457 88 143 C86.7625 143.20625 85.525 143.4125 84.25 143.625 C70.79822035 145.18786237 56.29681672 144.21613612 43 142 C43 141.34 43 140.68 43 140 C41.35 140 39.7 140 38 140 C38 139.34 38 138.68 38 138 C36.741875 137.814375 35.48375 137.62875 34.1875 137.4375 C26.17171009 135.67453355 19.66643956 130.75248094 14 125 C13.34 124.71125 12.68 124.4225 12 124.125 C9.0451149 122.46287713 7.86679732 119.80019598 6 117 C3.56647486 114.64173852 1.04671498 112.52335749 -2 111 C-2.12117188 110.44828125 -2.24234375 109.8965625 -2.3671875 109.328125 C-3.2631929 106.03171008 -5.21386868 103.53096618 -7.125 100.75 C-19.4791958 82.06780403 -24.36992525 61.87399927 -21.56640625 39.546875 C-19.61453337 30.47854635 -15.35173243 20.80649836 -9.30859375 13.7265625 C-6.89463739 11.28266142 -6.89463739 11.28266142 -6.4375 8.75 C-6.293125 8.1725 -6.14875 7.595 -6 7 C-5.360625 6.690625 -4.72125 6.38125 -4.0625 6.0625 C-1.73547609 5.12720697 -1.73547609 5.12720697 -0.75 2.375 C-0.5025 1.59125 -0.255 0.8075 0 0 Z " fill="#0868AB" transform="translate(64,24)"/>
<path d="M0 0 C0.66 0.66 1.32 1.32 2 2 C1.73445313 2.59425781 1.46890625 3.18851563 1.1953125 3.80078125 C-4.7868467 17.83920595 -5.60661779 31.66520528 -0.21484375 46.1328125 C3.86509672 55.76199677 9.16193951 63.98972148 17 71 C18.32237884 71.37443702 19.65505075 71.71715659 21 72 C21.99 73.485 21.99 73.485 23 75 C24.63939834 75.73116024 26.31246156 76.38808804 28 77 C30.0511933 77.98031057 32.09261812 78.98126222 34.125 80 C35.67574219 80.7734375 35.67574219 80.7734375 37.2578125 81.5625 C40 83 40 83 43 85 C51.96331869 90.17410456 64.11915017 89.59742553 74 88 C76.21326473 87.05843278 76.21326473 87.05843278 78 86 C79.32860925 85.64830932 80.66158328 85.31229724 82 85 C84.04223279 84.05567049 84.04223279 84.05567049 85.8125 82.625 C91.66057106 78.28071864 91.66057106 78.28071864 94.95703125 77.58984375 C97.36986486 76.89321301 98.43604914 75.96596552 100.1875 74.1875 C100.69667969 73.68605469 101.20585937 73.18460937 101.73046875 72.66796875 C103.15664221 70.79419623 103.58610657 69.29885388 104 67 C104.66 67.33 105.32 67.66 106 68 C104.65026877 77.34560735 98.45763602 85.22432288 91.6015625 91.37890625 C89.74969097 93.01461923 89.74969097 93.01461923 89 96 C87.29296875 97.3515625 87.29296875 97.3515625 85.1875 98.625 C84.50042969 99.05039063 83.81335938 99.47578125 83.10546875 99.9140625 C81.04458448 100.97700467 79.25637939 101.51485555 77 102 C75.515 102.495 75.515 102.495 74 103 C62.08087656 105.46434282 51.04313119 106.36512631 38.92529297 105.18505859 C37.1935397 105.01860298 35.45810522 104.89157117 33.72265625 104.76953125 C27.27960016 104.27960016 27.27960016 104.27960016 25 102 C24.40058594 101.85046875 23.80117187 101.7009375 23.18359375 101.546875 C16.58151221 99.89340198 10.40652844 95.01854628 6 90 C5.54367188 89.48824219 5.08734375 88.97648437 4.6171875 88.44921875 C3.04490397 86.65879117 1.52137388 84.83383209 0 83 C-0.55816406 82.35417969 -1.11632812 81.70835938 -1.69140625 81.04296875 C-12.19980471 68.37176792 -17.54361539 53.90430558 -17 37.375 C-15.81419604 25.28989153 -10.70752015 15.89900151 -4 6 C-3.67 5.34 -3.34 4.68 -3 4 C-2.01268258 2.65724831 -1.01405257 1.32267727 0 0 Z " fill="#0868AC" transform="translate(108,9)"/>
<path d="M0 0 C4.64474974 -0.32405231 7.29105728 0.11526677 11 3 C12.0625 4.8125 12.0625 4.8125 13 7 C13.680625 8.010625 14.36125 9.02125 15.0625 10.0625 C18.25214564 14.89841436 18.63490132 19.33536097 18 25 C17.09300605 28.19626251 16.03346214 31.28507049 14.875 34.3984375 C13.84060585 37.01645161 13.84060585 37.01645161 14 40 C14.99 40.33 15.98 40.66 17 41 C16.85892253 42.45880109 16.71197585 43.91703551 16.5625 45.375 C16.48128906 46.18710938 16.40007812 46.99921875 16.31640625 47.8359375 C16 50 16 50 15 52 C9.53756862 52.19809361 4.07723481 52.34307407 -1.38793945 52.43945312 C-3.2457318 52.47963212 -5.10327196 52.53418925 -6.96020508 52.60351562 C-9.6342581 52.70083198 -12.30496552 52.7459756 -14.98046875 52.78125 C-15.80773972 52.82254028 -16.63501068 52.86383057 -17.48735046 52.90637207 C-19.9043927 52.90824346 -21.72223794 52.81787146 -24 52 C-28.42340962 47.3146369 -30.95096203 40.91690781 -31.03125 34.50390625 C-30.54962473 26.01526086 -27.83620904 18.52612198 -24 11 C-23.731875 10.34 -23.46375 9.68 -23.1875 9 C-21.51726715 6.18697625 -19.74972725 4.77204645 -17 3 C-13.8125 2.3125 -13.8125 2.3125 -10 2 C-8.18729531 1.81448929 -6.37480022 1.62692121 -4.5625 1.4375 C-3.04180897 1.29019014 -1.52102323 1.14383922 0 1 C0 0.67 0 0.34 0 0 Z M-7 13 C-7 13.33 -7 13.66 -7 14 C-4.69 14 -2.38 14 0 14 C0 13.67 0 13.34 0 13 C-2.31 13 -4.62 13 -7 13 Z M-13.359375 17.3671875 C-16.97431793 23.16831021 -16.49147301 30.48013226 -15 37 C-11.36804504 39.42130331 -9.61650652 39.21022785 -5.3125 39.125 C-4.13300781 39.10695313 -2.95351562 39.08890625 -1.73828125 39.0703125 C-0.83464844 39.04710937 0.06898437 39.02390625 1 39 C1.67848208 36.81613582 2.3422551 34.62769916 3 32.4375 C3.37125 31.21933594 3.7425 30.00117188 4.125 28.74609375 C5.68535334 22.27151597 5.68535334 22.27151597 3.90234375 16.09375 C1.10059082 14.48288589 -1.22551543 14.52916672 -4.4375 14.5 C-6.13712891 14.45359375 -6.13712891 14.45359375 -7.87109375 14.40625 C-11.17256037 14.72790504 -11.17256037 14.72790504 -13.359375 17.3671875 Z M-17 26 C-17 29.63 -17 33.26 -17 37 C-16.67 37 -16.34 37 -16 37 C-16 33.37 -16 29.74 -16 26 C-16.33 26 -16.66 26 -17 26 Z M-12 40 C-12 40.33 -12 40.66 -12 41 C-8.7 41 -5.4 41 -2 41 C-2 40.67 -2 40.34 -2 40 C-5.3 40 -8.6 40 -12 40 Z " fill="#0867AC" transform="translate(74,180)"/>
<path d="M0 0 C4.62 0 9.24 0 14 0 C12.87575962 6.74544227 12.87575962 6.74544227 10.015625 10.2421875 C9.40976563 10.99886719 8.80390625 11.75554687 8.1796875 12.53515625 C7.22449219 13.69337891 7.22449219 13.69337891 6.25 14.875 C-1.61517897 24.19387441 -1.61517897 24.19387441 -7 35 C-7.99 35.495 -7.99 35.495 -9 36 C-10.05021103 37.84971696 -10.05021103 37.84971696 -11 40 C-12.33333333 42.66666667 -13.66666667 45.33333333 -15 48 C-18.96 48 -22.92 48 -27 48 C-26.7525 46.47375 -26.505 44.9475 -26.25 43.375 C-25.5383067 36.09674988 -27.67687682 29.82978275 -30 23 C-30.66 23 -31.32 23 -32 23 C-32 22.34 -32 21.68 -32 21 C-34.64 21 -37.28 21 -40 21 C-40.33 21.99 -40.66 22.98 -41 24 C-41.495 21.525 -41.495 21.525 -42 19 C-42.0825 20.27875 -42.165 21.5575 -42.25 22.875 C-42.77231608 28.1980154 -43.84365785 33.34865424 -45 38.5625 C-45.17821289 39.37251465 -45.35642578 40.1825293 -45.54003906 41.01708984 C-46.86995268 46.86995268 -46.86995268 46.86995268 -48 48 C-49.85287502 48.07226502 -51.70833878 48.0838122 -53.5625 48.0625 C-54.57441406 48.05347656 -55.58632812 48.04445312 -56.62890625 48.03515625 C-57.41136719 48.02355469 -58.19382813 48.01195312 -59 48 C-58.39507454 42.662117 -57.54899929 37.46258039 -56.37109375 32.21875 C-56.21713638 31.51979614 -56.06317902 30.82084229 -55.90455627 30.10070801 C-55.41893635 27.89970371 -54.92831403 25.69985119 -54.4375 23.5 C-54.10448412 21.99486544 -53.77179888 20.48965768 -53.43945312 18.984375 C-52.63072594 15.32190974 -51.81522196 11.661049 -51 8 C-41.1 7.67 -31.2 7.34 -21 7 C-18.16143216 12.67713567 -18 13.40192566 -18 19 C-17.05167966 20.69660435 -16.056461 22.3685381 -15 24 C-13.34698491 21.58797799 -11.70250054 19.17084663 -10.0625 16.75 C-9.35963867 15.72712891 -9.35963867 15.72712891 -8.64257812 14.68359375 C-8.19462891 14.01972656 -7.74667969 13.35585937 -7.28515625 12.671875 C-6.87144775 12.0644043 -6.45773926 11.45693359 -6.03149414 10.83105469 C-4.89915226 9.01714576 -4.89915226 9.01714576 -4.48217773 6.83300781 C-4.32305908 6.22811523 -4.16394043 5.62322266 -4 5 C-3.34 4.67 -2.68 4.34 -2 4 C-1.34 2.68 -0.68 1.36 0 0 Z " fill="#0867AC" transform="translate(230,184)"/>
<path d="M0 0 C0.68191406 -0.02964844 1.36382812 -0.05929688 2.06640625 -0.08984375 C4.1875 -0.0625 4.1875 -0.0625 8 1 C11.62850892 5.74653687 12.63989029 11.13433896 12 17 C11.34 19.64 10.68 22.28 10 25 C2.41 25 -5.18 25 -13 25 C-13 25.99 -13 26.98 -13 28 C-6.4 28 0.2 28 7 28 C8.12847307 33.64236535 7.6852074 35.67829241 6 41 C1.66269988 43.16865006 -4.11095765 42.27428576 -8.875 42.3125 C-10.67130859 42.35600586 -10.67130859 42.35600586 -12.50390625 42.40039062 C-14.23060547 42.41295898 -14.23060547 42.41295898 -15.9921875 42.42578125 C-17.04776855 42.44036377 -18.10334961 42.45494629 -19.19091797 42.4699707 C-22.7027199 41.88243214 -23.81759868 40.75475751 -26 38 C-29.72741319 29.61332033 -27.75719113 21.40008653 -25 13 C-23.84417577 10.69293815 -22.6303334 9.03791675 -21 7 C-20.1646875 5.88625 -20.1646875 5.88625 -19.3125 4.75 C-18.879375 4.1725 -18.44625 3.595 -18 3 C-17.67 2.34 -17.34 1.68 -17 1 C-11.48544409 -0.11981404 -5.60305991 -0.20752074 0 0 Z M-9 11 C-9 11.33 -9 11.66 -9 12 C-6.69 12 -4.38 12 -2 12 C-2 11.67 -2 11.34 -2 11 C-4.31 11 -6.62 11 -9 11 Z M-2 12 C-1 14 -1 14 -1 14 Z M-9 13 C-9 13.33 -9 13.66 -9 14 C-7.02 14 -5.04 14 -3 14 C-3 13.67 -3 13.34 -3 13 C-4.98 13 -6.96 13 -9 13 Z M-13 14 C-12 16 -12 16 -12 16 Z M-11 15 C-11 15.33 -11 15.66 -11 16 C-8.36 16 -5.72 16 -3 16 C-3 15.67 -3 15.34 -3 15 C-5.64 15 -8.28 15 -11 15 Z M-15 25 C-14 29 -14 29 -14 29 Z M-12 29 C-12 29.33 -12 29.66 -12 30 C-6.06 30 -0.12 30 6 30 C6 29.67 6 29.34 6 29 C0.06 29 -5.88 29 -12 29 Z " fill="#0866A9" transform="translate(160,191)"/>
<path d="M0 0 C0.66 0.33 1.32 0.66 2 1 C1.47731534 3.76276177 0.89130413 6.3260876 0 9 C-0.97636549 20.25609925 0.13697587 29.32658272 6.97265625 38.70703125 C11.13817079 43.72086666 11.13817079 43.72086666 17 46 C19.10157503 46.98273133 21.18399347 48.00704014 23.25 49.0625 C24.32765625 49.61035156 25.4053125 50.15820312 26.515625 50.72265625 C27.33546875 51.14417969 28.1553125 51.56570312 29 52 C29 52.66 29 53.32 29 54 C32.33426756 53.91818026 35.66682969 53.80542926 39 53.6875 C39.93457031 53.66494141 40.86914062 53.64238281 41.83203125 53.61914062 C47.86467795 53.38711575 52.46771756 52.42895922 58 50 C59.175625 49.505 59.175625 49.505 60.375 49 C62.33538439 47.94965449 62.33538439 47.94965449 64 45 C64.66 45 65.32 45 66 45 C65.38998481 48.3327659 64.20748126 50.34768555 62.125 53 C61.61195313 53.66 61.09890625 54.32 60.5703125 55 C60.05210937 55.66 59.53390625 56.32 59 57 C58.48050781 57.69867188 57.96101563 58.39734375 57.42578125 59.1171875 C54.75176855 62.64834948 52.13964789 65.34217998 48 67 C43.32601842 67.51204711 38.63654841 67.46272445 33.9375 67.5 C32.66455078 67.54125 31.39160156 67.5825 30.08007812 67.625 C18.92259643 67.71668963 11.12606303 64.39534158 2.875 56.875 C1.78832031 55.91207031 1.78832031 55.91207031 0.6796875 54.9296875 C-1.16023084 52.81592085 -1.43041694 51.68803232 -2 49 C-2.96001896 47.14541792 -3.96389949 45.3131759 -5 43.5 C-9.56541985 35.51051525 -10.27334043 27.08229554 -9 18 C-7.47251535 13.65923667 -5.37784181 9.92257117 -3 6 C-1.98509595 4.0075217 -0.98109959 2.0093391 0 0 Z M34 55 C34 55.33 34 55.66 34 56 C39.61 56 45.22 56 51 56 C51 55.67 51 55.34 51 55 C45.39 55 39.78 55 34 55 Z " fill="#0867AB" transform="translate(143,1)"/>
<path d="M0 0 C3.63 0 7.26 0 11 0 C12.31321039 2.62642078 11.79295777 3.79701453 11.1875 6.6484375 C10.99929687 7.57140625 10.81109375 8.494375 10.6171875 9.4453125 C10.20730493 11.39095763 9.79585848 13.33627398 9.3828125 15.28125 C9.19460937 16.20679688 9.00640625 17.13234375 8.8125 18.0859375 C8.63332031 18.9320459 8.45414063 19.7781543 8.26953125 20.64990234 C7.99124501 23.07633652 8.24991727 24.69455956 9 27 C11.31 27 13.62 27 16 27 C16.33 26.34 16.66 25.68 17 25 C17.33 25 17.66 25 18 25 C18.14622803 24.31373535 18.29245605 23.6274707 18.44311523 22.92041016 C19.10510257 19.82133259 19.77124803 16.72316341 20.4375 13.625 C20.66759766 12.54476562 20.89769531 11.46453125 21.13476562 10.3515625 C21.35712891 9.3203125 21.57949219 8.2890625 21.80859375 7.2265625 C22.11494751 5.79691162 22.11494751 5.79691162 22.42749023 4.33837891 C23 2 23 2 24 0 C27.63 0 31.26 0 35 0 C34.32256441 8.53950492 32.36853593 16.74090346 30.4375 25.0625 C30.10435818 26.51486863 29.77167217 27.96734189 29.43945312 29.41992188 C28.6323876 32.94806619 27.81601722 36.47386816 27 40 C13.635 40.495 13.635 40.495 0 41 C-6.53866017 30.10223305 -5.35337572 23.16074465 -2.5 10.9375 C-2.26152344 9.88111328 -2.02304688 8.82472656 -1.77734375 7.73632812 C-1.19346808 5.15559768 -0.59793111 2.57751019 0 0 Z M10 28 C10 28.33 10 28.66 10 29 C11.98 29 13.96 29 16 29 C16 28.67 16 28.34 16 28 C14.02 28 12.04 28 10 28 Z " fill="#0768AD" transform="translate(99,192)"/>
<path d="M0 0 C1.51400391 0.01740234 1.51400391 0.01740234 3.05859375 0.03515625 C4.07050781 0.04417969 5.08242188 0.05320313 6.125 0.0625 C7.29869141 0.07990234 7.29869141 0.07990234 8.49609375 0.09765625 C10.22047106 3.54641087 8.56554445 7.34385283 7.765625 10.98046875 C7.47808601 12.31282059 7.47808601 12.31282059 7.18473816 13.67208862 C6.77537068 15.55755299 6.36236518 17.44223052 5.94604492 19.32617188 C5.3163366 22.18747387 4.70535444 25.05233573 4.09570312 27.91796875 C3.69515371 29.75155221 3.2934951 31.58489379 2.890625 33.41796875 C2.71126907 34.26722931 2.53191315 35.11648987 2.34712219 35.9914856 C1.25885873 40.82796605 -0.2052222 44.95699355 -2.61543274 49.29733276 C-3.59490395 51.09074519 -3.59490395 51.09074519 -3.93595886 53.20046997 C-4.50390625 55.09765625 -4.50390625 55.09765625 -7.50390625 57.09765625 C-10.12134283 57.08049273 -12.5961323 56.96497875 -15.19140625 56.72265625 C-16.24424805 56.63757813 -16.24424805 56.63757813 -17.31835938 56.55078125 C-19.0477091 56.40960984 -20.77594713 56.25493666 -22.50390625 56.09765625 C-22.36282878 54.63885516 -22.2158821 53.18062074 -22.06640625 51.72265625 C-21.98519531 50.91054687 -21.90398438 50.0984375 -21.8203125 49.26171875 C-21.50390625 47.09765625 -21.50390625 47.09765625 -20.50390625 45.09765625 C-19.55515625 45.05640625 -18.60640625 45.01515625 -17.62890625 44.97265625 C-16.59765625 44.68390625 -15.56640625 44.39515625 -14.50390625 44.09765625 C-11.57817729 37.76106471 -10.27777558 31.09385049 -8.87890625 24.28515625 C-8.45060205 22.23668945 -8.02097505 20.18849866 -7.58984375 18.140625 C-7.40470215 17.2436792 -7.21956055 16.3467334 -7.02880859 15.42260742 C-6.50390625 13.09765625 -6.50390625 13.09765625 -5.50390625 10.09765625 C-4.97810871 7.75621406 -4.49060738 5.40844763 -4.00390625 3.05859375 C-3.26247518 0.15079376 -3.07306779 0.11985444 0 0 Z " fill="#0869AD" transform="translate(34.50390625,191.90234375)"/>
<path d="M0 0 C1.93166016 0.01740234 1.93166016 0.01740234 3.90234375 0.03515625 C5.19269531 0.04417969 6.48304688 0.05320313 7.8125 0.0625 C8.81152344 0.07410156 9.81054688 0.08570313 10.83984375 0.09765625 C9.79057626 7.25621013 9.79057626 7.25621013 6.83984375 10.09765625 C5.51984375 10.09765625 4.19984375 10.09765625 2.83984375 10.09765625 C2.83984375 9.43765625 2.83984375 8.77765625 2.83984375 8.09765625 C1.89109375 8.11828125 0.94234375 8.13890625 -0.03515625 8.16015625 C-3.16015625 8.09765625 -3.16015625 8.09765625 -5.16015625 7.09765625 C-4.12203006 0.12738041 -4.12203006 0.12738041 0 0 Z " fill="#0869AB" transform="translate(233.16015625,183.90234375)"/>
<path d="M0 0 C2 3 2 3 1.85986328 5.26831055 C1.68181152 6.13238525 1.50375977 6.99645996 1.3203125 7.88671875 C1.13339844 8.82451172 0.94648437 9.76230469 0.75390625 10.72851562 C0.54636719 11.70498047 0.33882812 12.68144531 0.125 13.6875 C-0.07480469 14.67556641 -0.27460937 15.66363281 -0.48046875 16.68164062 C-0.97593534 19.12358313 -1.48282734 21.56257853 -2 24 C-2.66 23.67 -3.32 23.34 -4 23 C-3.48400816 15.1177798 -1.9078547 7.65541695 0 0 Z " fill="#0A4D9C" transform="translate(44,194)"/>
<path d="M0 0 C11.22 0 22.44 0 34 0 C34 0.33 34 0.66 34 1 C22.78 1 11.56 1 0 1 C0 0.67 0 0.34 0 0 Z " fill="#155E8E" transform="translate(55,233)"/>
<path d="M0 0 C1.67542976 0.28604898 3.34385343 0.61781233 5 1 C4.979375 1.94875 4.95875 2.8975 4.9375 3.875 C4.77448174 6.90666283 4.77448174 6.90666283 6 9 C2.63408134 7.55746343 0.48952921 5.66735273 -2 3 C-1 1 -1 1 0 0 Z " fill="#0C52BE" transform="translate(144,51)"/>
<path d="M0 0 C9.24 0 18.48 0 28 0 C28 0.33 28 0.66 28 1 C18.76 1 9.52 1 0 1 C0 0.67 0 0.34 0 0 Z " fill="#124E8D" transform="translate(179,190)"/>
<path d="M0 0 C1.93166016 0.01740234 1.93166016 0.01740234 3.90234375 0.03515625 C5.19269531 0.04417969 6.48304688 0.05320313 7.8125 0.0625 C8.81152344 0.07410156 9.81054688 0.08570313 10.83984375 0.09765625 C10.83984375 0.42765625 10.83984375 0.75765625 10.83984375 1.09765625 C6.54984375 1.09765625 2.25984375 1.09765625 -2.16015625 1.09765625 C-2.16015625 3.07765625 -2.16015625 5.05765625 -2.16015625 7.09765625 C-3.15015625 7.09765625 -4.14015625 7.09765625 -5.16015625 7.09765625 C-4.12203006 0.12738041 -4.12203006 0.12738041 0 0 Z " fill="#219BCF" transform="translate(233.16015625,183.90234375)"/>
<path d="M0 0 C8.25 0.33 16.5 0.66 25 1 C25 1.33 25 1.66 25 2 C22.33326258 2.02727345 19.66681131 2.04696948 17 2.0625 C15.88431641 2.07506836 15.88431641 2.07506836 14.74609375 2.08789062 C9.73851156 2.10966272 4.95720968 1.71541549 0 1 C0 0.67 0 0.34 0 0 Z " fill="#12559B" transform="translate(119,168)"/>
<path d="M0 0 C7.92 0 15.84 0 24 0 C24 0.33 24 0.66 24 1 C16.08 1 8.16 1 0 1 C0 0.67 0 0.34 0 0 Z " fill="#1C76AB" transform="translate(102,233)"/>
<path d="M0 0 C-1 1 -1 1 -2.94946289 1.11352539 C-3.7821167 1.10828857 -4.61477051 1.10305176 -5.47265625 1.09765625 C-6.37177734 1.09443359 -7.27089844 1.09121094 -8.19726562 1.08789062 C-9.14279297 1.07951172 -10.08832031 1.07113281 -11.0625 1.0625 C-12.01189453 1.05798828 -12.96128906 1.05347656 -13.93945312 1.04882812 C-16.29303065 1.0370011 -18.64648477 1.02052025 -21 1 C-21 0.67 -21 0.34 -21 0 C-17.87549468 -0.19645093 -14.75038555 -0.38063489 -11.625 -0.5625 C-10.29082031 -0.64661133 -10.29082031 -0.64661133 -8.9296875 -0.73242188 C-7.65351563 -0.80493164 -7.65351563 -0.80493164 -6.3515625 -0.87890625 C-5.56604004 -0.9260376 -4.78051758 -0.97316895 -3.97119141 -1.02172852 C-2 -1 -2 -1 0 0 Z " fill="#061B4C" transform="translate(166,234)"/>
<path d="M0 0 C0.33 0 0.66 0 1 0 C1 7.26 1 14.52 1 22 C0.67 22 0.34 22 0 22 C0 14.74 0 7.48 0 0 Z " fill="#054494" transform="translate(60,46)"/>
<path d="M0 0 C0.66 1.32 1.32 2.64 2 4 C1.01 5.485 1.01 5.485 0 7 C-0.99 7 -1.98 7 -3 7 C-2.38722388 4.03824877 -1.74627478 2.61941217 0 0 Z " fill="#056CB4" transform="translate(201,130)"/>
<path d="M0 0 C0.66 0 1.32 0 2 0 C2 1.32 2 2.64 2 4 C2.66 4 3.32 4 4 4 C4 4.66 4 5.32 4 6 C2.35 6 0.7 6 -1 6 C-1.042721 4.33388095 -1.04063832 2.66617115 -1 1 C-0.67 0.67 -0.34 0.34 0 0 Z " fill="#1069B9" transform="translate(28,208)"/>
<path d="M0 0 C0.33 0 0.66 0 1 0 C1 6.6 1 13.2 1 20 C0.67 20 0.34 20 0 20 C0 13.4 0 6.8 0 0 Z " fill="#165B8C" transform="translate(40,67)"/>
<path d="M0 0 C0.33 0 0.66 0 1 0 C0.88623383 2.12563103 0.75864369 4.2505261 0.625 6.375 C0.52058594 8.15003906 0.52058594 8.15003906 0.4140625 9.9609375 C0 13 0 13 -2 15 C-1.03644647 4.44191344 -1.03644647 4.44191344 0 0 Z " fill="#06549B" transform="translate(131,210)"/>
<path d="M0 0 C0.66 0.33 1.32 0.66 2 1 C1.67 4.3 1.34 7.6 1 11 C-1.78637633 6.8204355 -0.79562512 4.85331323 0 0 Z " fill="#1867A4" transform="translate(172,208)"/>
<path d="M0 0 C0.99 0.33 1.98 0.66 3 1 C3.33 2.98 3.66 4.96 4 7 C3.01 7.495 3.01 7.495 2 8 C0.23537317 4.91190305 0 3.76687864 0 0 Z " fill="#0C7CBD" transform="translate(166,192)"/>
<path d="M0 0 C0.66 0.66 1.32 1.32 2 2 C1.01 3.98 0.02 5.96 -1 8 C-1.99 7.34 -2.98 6.68 -4 6 C-2.89131683 3.78263366 -1.50559539 1.96382007 0 0 Z " fill="#085F99" transform="translate(108,9)"/>
<path d="M0 0 C0.33 0 0.66 0 1 0 C1 5.28 1 10.56 1 16 C0.67 16 0.34 16 0 16 C0 10.72 0 5.44 0 0 Z " fill="#1B6199" transform="translate(132,19)"/>
<path d="M0 0 C0.33 0 0.66 0 1 0 C1.33 4.29 1.66 8.58 2 13 C1.34 12.67 0.68 12.34 0 12 C0 8.04 0 4.08 0 0 Z " fill="#0E53A6" transform="translate(92,214)"/>
<path d="M0 0 C4.29 0.33 8.58 0.66 13 1 C13 1.33 13 1.66 13 2 C11.58376784 2.05447047 10.16691809 2.09300508 8.75 2.125 C7.96109375 2.14820312 7.1721875 2.17140625 6.359375 2.1953125 C4 2 4 2 0 0 Z " fill="#105186" transform="translate(155,95)"/>
<path d="M0 0 C4.62 0 9.24 0 14 0 C14 0.33 14 0.66 14 1 C9.38 1 4.76 1 0 1 C0 0.67 0 0.34 0 0 Z " fill="#154C82" transform="translate(170,69)"/>
<path d="M0 0 C0.33 0 0.66 0 1 0 C1 4.62 1 9.24 1 14 C0.67 14 0.34 14 0 14 C0 9.38 0 4.76 0 0 Z " fill="#113EA7" transform="translate(143,10)"/>
<path d="M0 0 C3.96 0 7.92 0 12 0 C12 0.33 12 0.66 12 1 C8.04 1 4.08 1 0 1 C0 0.67 0 0.34 0 0 Z " fill="#19779A" transform="translate(12,249)"/>
<path d="M0 0 C3.96 0 7.92 0 12 0 C12 0.33 12 0.66 12 1 C8.04 1 4.08 1 0 1 C0 0.67 0 0.34 0 0 Z " fill="#1B72A4" transform="translate(203,233)"/>
<path d="M0 0 C0.66 0.33 1.32 0.66 2 1 C1.34 3.64 0.68 6.28 0 9 C-0.95904856 5.16380575 -0.91892116 3.67568464 0 0 Z " fill="#0C73B6" transform="translate(133,201)"/>
<path d="M0 0 C3.63 0 7.26 0 11 0 C11 0.33 11 0.66 11 1 C7.37 1 3.74 1 0 1 C0 0.67 0 0.34 0 0 Z " fill="#146697" transform="translate(171,233)"/>
<path d="M0 0 C1.42944945 2.35438733 2.08661261 3.48032433 1.625 6.25 C1.41875 6.8275 1.2125 7.405 1 8 C0 7 0 7 -0.0625 3.4375 C-0.041875 2.303125 -0.02125 1.16875 0 0 Z " fill="#1549A5" transform="translate(173,201)"/>
<path d="M0 0 C3.63 0 7.26 0 11 0 C11 0.33 11 0.66 11 1 C7.37 1 3.74 1 0 1 C0 0.67 0 0.34 0 0 Z " fill="#1F7DA1" transform="translate(123,190)"/>
<path d="M0 0 C3.63 0 7.26 0 11 0 C11 0.33 11 0.66 11 1 C7.37 1 3.74 1 0 1 C0 0.67 0 0.34 0 0 Z " fill="#176990" transform="translate(99,190)"/>
<path d="M0 0 C3.63 0 7.26 0 11 0 C11 0.33 11 0.66 11 1 C7.37 1 3.74 1 0 1 C0 0.67 0 0.34 0 0 Z " fill="#16577D" transform="translate(32,190)"/>
<path d="M0 0 C3.63 0 7.26 0 11 0 C11 0.33 11 0.66 11 1 C7.37 1 3.74 1 0 1 C0 0.67 0 0.34 0 0 Z " fill="#0D508F" transform="translate(138,143)"/>
<path d="M0 0 C0.33 0 0.66 0 1 0 C1 3.3 1 6.6 1 10 C0.67 10 0.34 10 0 10 C0 6.7 0 3.4 0 0 Z " fill="#0F5086" transform="translate(93,195)"/>
<path d="M0 0 C3.3 0 6.6 0 10 0 C10 0.33 10 0.66 10 1 C6.7 1 3.4 1 0 1 C0 0.67 0 0.34 0 0 Z " fill="#0B4997" transform="translate(156,143)"/>
<path d="M0 0 C-3.13498292 1.85776765 -5.37471432 2.20140476 -9 2 C-5.86501708 0.14223235 -3.62528568 -0.20140476 0 0 Z " fill="#1965AE" transform="translate(176,141)"/>
<path d="M0 0 C3.3 0 6.6 0 10 0 C10 0.33 10 0.66 10 1 C6.7 1 3.4 1 0 1 C0 0.67 0 0.34 0 0 Z " fill="#00044B" transform="translate(154,116)"/>
<path d="M0 0 C2.97 0 5.94 0 9 0 C9 0.33 9 0.66 9 1 C6.03 1 3.06 1 0 1 C0 0.67 0 0.34 0 0 Z " fill="#1B6F94" transform="translate(145,115)"/>
<path d="M0 0 C2.97 0 5.94 0 9 0 C9 0.33 9 0.66 9 1 C6.03 1 3.06 1 0 1 C0 0.67 0 0.34 0 0 Z " fill="#1B4791" transform="translate(173,96)"/>
<path d="M0 0 C0.33 0 0.66 0 1 0 C1 2.97 1 5.94 1 9 C0.67 9 0.34 9 0 9 C0 6.03 0 3.06 0 0 Z " fill="#0B2F63" transform="translate(105,36)"/>
<path d="M0 0 C0.99 1.485 0.99 1.485 2 3 C1.67 3.99 1.34 4.98 1 6 C0 5 0 5 -0.0625 2.4375 C-0.041875 1.633125 -0.02125 0.82875 0 0 Z " fill="#155CA4" transform="translate(168,225)"/>
<path d="M0 0 C0.99 0.495 0.99 0.495 2 1 C2 2.65 2 4.3 2 6 C0 3 0 3 0 0 Z " fill="#1552B8" transform="translate(169,222)"/>
<path d="M0 0 C2.64 0 5.28 0 8 0 C8 0.33 8 0.66 8 1 C5.36 1 2.72 1 0 1 C0 0.67 0 0.34 0 0 Z " fill="#000D8A" transform="translate(152,189)"/>
<path d="M0 0 C2.64 0 5.28 0 8 0 C8 0.33 8 0.66 8 1 C5.36 1 2.72 1 0 1 C0 0.67 0 0.34 0 0 Z " fill="#1069AB" transform="translate(144,168)"/>
<path d="M0 0 C2.64 0 5.28 0 8 0 C8 0.33 8 0.66 8 1 C5.36 1 2.72 1 0 1 C0 0.67 0 0.34 0 0 Z " fill="#1E58AD" transform="translate(164,115)"/>
<path d="M0 0 C0.33 0 0.66 0 1 0 C1 2.64 1 5.28 1 8 C0.67 8 0.34 8 0 8 C0 5.36 0 2.72 0 0 Z " fill="#010655" transform="translate(89,46)"/>
<path d="M0 0 C0.33 0 0.66 0 1 0 C1 2.64 1 5.28 1 8 C0.67 8 0.34 8 0 8 C0 5.36 0 2.72 0 0 Z " fill="#113670" transform="translate(105,25)"/>
<path d="M0 0 C0.33 0.66 0.66 1.32 1 2 C-0.98 2 -2.96 2 -5 2 C-5 1.67 -5 1.34 -5 1 C-3.35 0.67 -1.7 0.34 0 0 Z " fill="#0B5D9F" transform="translate(19,234)"/>
<path d="M0 0 C0.33 0 0.66 0 1 0 C1 2.31 1 4.62 1 7 C0.67 7 0.34 7 0 7 C0 4.69 0 2.38 0 0 Z " fill="#146FB4" transform="translate(77,198)"/>
<path d="M0 0 C1.0625 1.875 1.0625 1.875 2 4 C1.67 4.66 1.34 5.32 1 6 C0 5 0 5 -0.0625 2.4375 C-0.041875 1.633125 -0.02125 0.82875 0 0 Z " fill="#064C97" transform="translate(134,196)"/>
<path d="M0 0 C2.31 0 4.62 0 7 0 C7 0.33 7 0.66 7 1 C4.69 1 2.38 1 0 1 C0 0.67 0 0.34 0 0 Z " fill="#2D83B9" transform="translate(149,144)"/>
<path d="M0 0 C0.33 0 0.66 0 1 0 C1 2.31 1 4.62 1 7 C0.67 7 0.34 7 0 7 C0 4.69 0 2.38 0 0 Z " fill="#10428E" transform="translate(90,39)"/>
<path d="M0 0 C0.33 0 0.66 0 1 0 C1 1.98 1 3.96 1 6 C0.67 6 0.34 6 0 6 C0 4.02 0 2.04 0 0 Z " fill="#28668B" transform="translate(213,197)"/>
<path d="M0 0 C1.98 0 3.96 0 6 0 C6 0.33 6 0.66 6 1 C4.02 1 2.04 1 0 1 C0 0.67 0 0.34 0 0 Z " fill="#1F6685" transform="translate(132,142)"/>
<path d="M0 0 C0.33 0 0.66 0 1 0 C1 1.98 1 3.96 1 6 C0.67 6 0.34 6 0 6 C0 4.02 0 2.04 0 0 Z " fill="#175D8C" transform="translate(61,68)"/>
<path d="M0 0 C0.33 0 0.66 0 1 0 C1 1.98 1 3.96 1 6 C0.67 6 0.34 6 0 6 C0 4.02 0 2.04 0 0 Z " fill="#1B5D98" transform="translate(90,55)"/>
<path d="M0 0 C0.33 0 0.66 0 1 0 C1 1.65 1 3.3 1 5 C0.67 5 0.34 5 0 5 C0 3.35 0 1.7 0 0 Z " fill="#0E51A4" transform="translate(37,226)"/>
<path d="M0 0 C0.33 0 0.66 0 1 0 C1 1.65 1 3.3 1 5 C0.67 5 0.34 5 0 5 C0 3.35 0 1.7 0 0 Z " fill="#114481" transform="translate(185,223)"/>
<path d="M0 0 C0.33 0 0.66 0 1 0 C1 1.65 1 3.3 1 5 C0.67 5 0.34 5 0 5 C0 3.35 0 1.7 0 0 Z " fill="#134879" transform="translate(22,223)"/>
<path d="M0 0 C0.33 0 0.66 0 1 0 C1 1.65 1 3.3 1 5 C0.67 5 0.34 5 0 5 C0 3.35 0 1.7 0 0 Z " fill="#175BA8" transform="translate(38,221)"/>
<path d="M0 0 C0.33 0 0.66 0 1 0 C1 1.65 1 3.3 1 5 C0.67 5 0.34 5 0 5 C0 3.35 0 1.7 0 0 Z " fill="#064AA0" transform="translate(186,218)"/>
<path d="M0 0 C0.33 0 0.66 0 1 0 C1 1.65 1 3.3 1 5 C0.67 5 0.34 5 0 5 C0 3.35 0 1.7 0 0 Z " fill="#176B9A" transform="translate(23,218)"/>
<path d="M0 0 C0.33 0 0.66 0 1 0 C1 1.65 1 3.3 1 5 C0.67 5 0.34 5 0 5 C0 3.35 0 1.7 0 0 Z " fill="#0D4979" transform="translate(187,213)"/>
<path d="M0 0 C0.33 0 0.66 0 1 0 C1 1.65 1 3.3 1 5 C0.67 5 0.34 5 0 5 C0 3.35 0 1.7 0 0 Z " fill="#0B49AB" transform="translate(93,209)"/>
<path d="M0 0 C0.33 0 0.66 0 1 0 C1 1.65 1 3.3 1 5 C0.67 5 0.34 5 0 5 C0 3.35 0 1.7 0 0 Z " fill="#2380B2" transform="translate(25,209)"/>
<path d="M0 0 C0.33 0 0.66 0 1 0 C1 1.65 1 3.3 1 5 C0.67 5 0.34 5 0 5 C0 3.35 0 1.7 0 0 Z " fill="#0D3F90" transform="translate(108,209)"/>
<path d="M0 0 C0.33 0 0.66 0 1 0 C1 1.65 1 3.3 1 5 C0.67 5 0.34 5 0 5 C0 3.35 0 1.7 0 0 Z " fill="#0B4984" transform="translate(188,208)"/>
<path d="M0 0 C0.33 0 0.66 0 1 0 C1 1.65 1 3.3 1 5 C0.67 5 0.34 5 0 5 C0 3.35 0 1.7 0 0 Z " fill="#186DA1" transform="translate(117,207)"/>
<path d="M0 0 C0.33 0 0.66 0 1 0 C1 1.65 1 3.3 1 5 C0.67 5 0.34 5 0 5 C0 3.35 0 1.7 0 0 Z " fill="#134D90" transform="translate(109,204)"/>
<path d="M0 0 C0.33 0 0.66 0 1 0 C1 1.65 1 3.3 1 5 C0.67 5 0.34 5 0 5 C0 3.35 0 1.7 0 0 Z " fill="#195AAC" transform="translate(175,200)"/>
<path d="M0 0 C0.33 0 0.66 0 1 0 C1 1.65 1 3.3 1 5 C0.67 5 0.34 5 0 5 C0 3.35 0 1.7 0 0 Z " fill="#094695" transform="translate(119,198)"/>
<path d="M0 0 C0.33 0 0.66 0 1 0 C1 1.65 1 3.3 1 5 C0.67 5 0.34 5 0 5 C0 3.35 0 1.7 0 0 Z " fill="#0C4891" transform="translate(95,200)"/>
<path d="M0 0 C0.33 0 0.66 0 1 0 C1 1.65 1 3.3 1 5 C0.67 5 0.34 5 0 5 C0 3.35 0 1.7 0 0 Z " fill="#0A4397" transform="translate(110,199)"/>
<path d="M0 0 C0.33 0 0.66 0 1 0 C1 1.65 1 3.3 1 5 C0.67 5 0.34 5 0 5 C0 3.35 0 1.7 0 0 Z " fill="#0E4986" transform="translate(176,195)"/>
<path d="M0 0 C0.66 0.33 1.32 0.66 2 1 C1.01 1.66 0.02 2.32 -1 3 C-0.67 2.01 -0.34 1.02 0 0 Z " fill="#0A3761" transform="translate(140,194)"/>
<path d="M0 0 C0.33 0 0.66 0 1 0 C1 1.65 1 3.3 1 5 C0.67 5 0.34 5 0 5 C0 3.35 0 1.7 0 0 Z " fill="#28699C" transform="translate(96,195)"/>
<path d="M0 0 C1.65 0 3.3 0 5 0 C5 0.33 5 0.66 5 1 C3.35 1 1.7 1 0 1 C0 0.67 0 0.34 0 0 Z " fill="#134379" transform="translate(64,180)"/>
<path d="M0 0 C1.65 0 3.3 0 5 0 C5 0.33 5 0.66 5 1 C3.35 1 1.7 1 0 1 C0 0.67 0 0.34 0 0 Z " fill="#000111" transform="translate(69,179)"/>
<path d="M0 0 C1.65 0 3.3 0 5 0 C5 0.33 5 0.66 5 1 C3.35 1 1.7 1 0 1 C0 0.67 0 0.34 0 0 Z " fill="#196294" transform="translate(152,167)"/>
<path d="M0 0 C1.65 0 3.3 0 5 0 C5 0.33 5 0.66 5 1 C3.35 1 1.7 1 0 1 C0 0.67 0 0.34 0 0 Z " fill="#1B71A9" transform="translate(114,167)"/>
<path d="M0 0 C0.33 0 0.66 0 1 0 C1 1.65 1 3.3 1 5 C0.67 5 0.34 5 0 5 C0 3.35 0 1.7 0 0 Z " fill="#0B56A6" transform="translate(41,88)"/>
<path d="M0 0 C1.65 0 3.3 0 5 0 C5 0.33 5 0.66 5 1 C3.35 1 1.7 1 0 1 C0 0.67 0 0.34 0 0 Z " fill="#1A75A1" transform="translate(165,68)"/>
<path d="M0 0 C0.33 0 0.66 0 1 0 C1 1.65 1 3.3 1 5 C0.67 5 0.34 5 0 5 C0 3.35 0 1.7 0 0 Z " fill="#0B6195" transform="translate(41,62)"/>
<path d="M0 0 C0 0.99 0 1.98 0 3 C-0.66 2.67 -1.32 2.34 -2 2 C-1.34 1.34 -0.68 0.68 0 0 Z " fill="#145888" transform="translate(201,59)"/>
<path d="M0 0 C1.65 0 3.3 0 5 0 C5 0.33 5 0.66 5 1 C3.35 1 1.7 1 0 1 C0 0.67 0 0.34 0 0 Z " fill="#17577F" transform="translate(172,54)"/>
<path d="M0 0 C0.33 0 0.66 0 1 0 C1 1.65 1 3.3 1 5 C0.67 5 0.34 5 0 5 C0 3.35 0 1.7 0 0 Z " fill="#104374" transform="translate(61,41)"/>
<path d="M0 0 C1 4 1 4 1 4 Z " fill="#0F377B" transform="translate(10,243)"/>
<path d="M0 0 C1 4 1 4 1 4 Z " fill="#1A578F" transform="translate(11,239)"/>
<path d="M0 0 C4 1 4 1 4 1 Z " fill="#176C9A" transform="translate(141,233)"/>
<path d="M0 0 C1 4 1 4 1 4 Z " fill="#0C507E" transform="translate(36,231)"/>
<path d="M0 0 C1 4 1 4 1 4 Z " fill="#05579E" transform="translate(201,228)"/>
<path d="M0 0 C1 4 1 4 1 4 Z " fill="#085799" transform="translate(21,228)"/>
<path d="M0 0 C1 4 1 4 1 4 Z " fill="#10528A" transform="translate(91,226)"/>
<path d="M0 0 C1 4 1 4 1 4 Z " fill="#1043A6" transform="translate(128,225)"/>
<path d="M0 0 C1 4 1 4 1 4 Z " fill="#187ED9" transform="translate(218,224)"/>
<path d="M0 0 C1 4 1 4 1 4 Z " fill="#064299" transform="translate(171,219)"/>
<path d="M0 0 C1.485 0.99 1.485 0.99 3 2 C2.01 2 1.02 2 0 2 C0 1.34 0 0.68 0 0 Z " fill="#096BA2" transform="translate(88,218)"/>
<path d="M0 0 C1 4 1 4 1 4 Z " fill="#1758B2" transform="translate(42,218)"/>
<path d="M0 0 C1 4 1 4 1 4 Z " fill="#0D598C" transform="translate(202,217)"/>
<path d="M0 0 C1 4 1 4 1 4 Z " fill="#184290" transform="translate(39,217)"/>
<path d="M0 0 C1 4 1 4 1 4 Z " fill="#145A88" transform="translate(24,214)"/>
<path d="M0 0 C1 4 1 4 1 4 Z " fill="#0B5B89" transform="translate(116,212)"/>
<path d="M0 0 C1 4 1 4 1 4 Z " fill="#19436C" transform="translate(74,212)"/>
<path d="M0 0 C1 4 1 4 1 4 Z " fill="#175B6A" transform="translate(200,210)"/>
<path d="M0 0 C1 4 1 4 1 4 Z " fill="#074A90" transform="translate(94,205)"/>
<path d="M0 0 C0.99 0.495 0.99 0.495 2 1 C1.67 1.66 1.34 2.32 1 3 C0.67 2.01 0.34 1.02 0 0 Z " fill="#0471A8" transform="translate(214,204)"/>
<path d="M0 0 C1 4 1 4 1 4 Z " fill="#105B79" transform="translate(92,205)"/>
<path d="M0 0 C1 4 1 4 1 4 Z " fill="#143F6A" transform="translate(26,205)"/>
<path d="M0 0 C1 4 1 4 1 4 Z " fill="#13529B" transform="translate(118,203)"/>
<path d="M0 0 C1 4 1 4 1 4 Z " fill="#286977" transform="translate(28,196)"/>
<path d="M0 0 C1 4 1 4 1 4 Z " fill="#16599A" transform="translate(120,194)"/>
<path d="M0 0 C1 4 1 4 1 4 Z " fill="#16407B" transform="translate(111,195)"/>
<path d="M0 0 C1 4 1 4 1 4 Z " fill="#114A91" transform="translate(135,192)"/>
<path d="M0 0 C4 1 4 1 4 1 Z " fill="#2A70A1" transform="translate(160,190)"/>
<path d="M0 0 C4 1 4 1 4 1 Z " fill="#10477E" transform="translate(148,190)"/>
<path d="M0 0 C4 1 4 1 4 1 Z " fill="#2474A6" transform="translate(157,166)"/>
<path d="M0 0 C4 1 4 1 4 1 Z " fill="#0F6C83" transform="translate(128,141)"/>
<path d="M0 0 C4 1 4 1 4 1 Z " fill="#024D9A" transform="translate(172,114)"/>
<path d="M0 0 C4 1 4 1 4 1 Z " fill="#166BC0" transform="translate(141,114)"/>
<path d="M0 0 C4 1 4 1 4 1 Z " fill="#256994" transform="translate(176,113)"/>
<path d="M0 0 C1 4 1 4 1 4 Z " fill="#084190" transform="translate(43,97)"/>
<path d="M0 0 C4 1 4 1 4 1 Z " fill="#0110C4" transform="translate(169,97)"/>
<path d="M0 0 C1 4 1 4 1 4 Z " fill="#2263BD" transform="translate(42,93)"/>
<path d="M0 0 C4 1 4 1 4 1 Z " fill="#22758A" transform="translate(182,95)"/>
<path d="M0 0 C4 1 4 1 4 1 Z " fill="#165688" transform="translate(151,94)"/>
<path d="M0 0 C1 4 1 4 1 4 Z " fill="#0A639F" transform="translate(62,74)"/>
<path d="M0 0 C4 1 4 1 4 1 Z " fill="#0A4C95" transform="translate(184,68)"/>
<path d="M0 0 C1 4 1 4 1 4 Z " fill="#1C6BAA" transform="translate(91,62)"/>
<path d="M0 0 C1 4 1 4 1 4 Z " fill="#19536E" transform="translate(42,58)"/>
<path d="M0 0 C1 4 1 4 1 4 Z " fill="#03418E" transform="translate(106,45)"/>
<path d="M0 0 C1 4 1 4 1 4 Z " fill="#0B4E76" transform="translate(62,37)"/>
<path d="M0 0 C1 4 1 4 1 4 Z " fill="#226FA3" transform="translate(133,35)"/>
<path d="M0 0 C1 4 1 4 1 4 Z " fill="#0C4170" transform="translate(91,35)"/>
<path d="M0 0 C1 4 1 4 1 4 Z " fill="#033186" transform="translate(144,24)"/>
<path d="M0 0 C1 4 1 4 1 4 Z " fill="#03327B" transform="translate(106,21)"/>
<path d="" fill="#11398D" transform="translate(0,0)"/>
<path d="" fill="#0D3A80" transform="translate(0,0)"/>
<path d="" fill="#157793" transform="translate(0,0)"/>
<path d="" fill="#0B6F95" transform="translate(0,0)"/>
<path d="" fill="#134899" transform="translate(0,0)"/>
<path d="" fill="#0D619F" transform="translate(0,0)"/>
<path d="" fill="#0F55A8" transform="translate(0,0)"/>
<path d="" fill="#003EB3" transform="translate(0,0)"/>
<path d="" fill="#043683" transform="translate(0,0)"/>
<path d="" fill="#0342AF" transform="translate(0,0)"/>
<path d="" fill="#1586BA" transform="translate(0,0)"/>
<path d="" fill="#0A4196" transform="translate(0,0)"/>
<path d="" fill="#115FBC" transform="translate(0,0)"/>
<path d="" fill="#103EA7" transform="translate(0,0)"/>
<path d="" fill="#0D4C70" transform="translate(0,0)"/>
<path d="" fill="#2590AF" transform="translate(0,0)"/>
<path d="" fill="#0874A9" transform="translate(0,0)"/>
<path d="M0 0 C3 1 3 1 3 1 Z " fill="#084C78" transform="translate(145,191)"/>
<path d="M0 0 C0.66 0 1.32 0 2 0 C1.67 0.66 1.34 1.32 1 2 C0.67 1.34 0.34 0.68 0 0 Z " fill="#105095" transform="translate(85,184)"/>
<path d="M0 0 C3 1 3 1 3 1 Z " fill="#2199E6" transform="translate(61,181)"/>
<path d="M0 0 C3 1 3 1 3 1 Z " fill="#1B4075" transform="translate(161,165)"/>
<path d="M0 0 C3 1 3 1 3 1 Z " fill="#1868B6" transform="translate(176,140)"/>
<path d="M0 0 C3 1 3 1 3 1 Z " fill="#185CB0" transform="translate(138,113)"/>
<path d="" fill="#0E3B63" transform="translate(0,0)"/>
<path d="" fill="#094A8A" transform="translate(0,0)"/>
<path d="" fill="#124A8B" transform="translate(0,0)"/>
<path d="" fill="#104397" transform="translate(0,0)"/>
<path d="" fill="#043085" transform="translate(0,0)"/>
<path d="" fill="#103A7F" transform="translate(0,0)"/>
<path d="" fill="#043CA9" transform="translate(0,0)"/>
<path d="" fill="#022EAD" transform="translate(0,0)"/>
<path d="" fill="#287FCD" transform="translate(0,0)"/>
<path d="" fill="#0E4A90" transform="translate(0,0)"/>
<path d="" fill="#023387" transform="translate(0,0)"/>
<path d="" fill="#003895" transform="translate(0,0)"/>
<path d="" fill="#074D91" transform="translate(0,0)"/>
<path d="" fill="#0E3D59" transform="translate(0,0)"/>
<path d="" fill="#0B4393" transform="translate(0,0)"/>
<path d="" fill="#105868" transform="translate(0,0)"/>
<path d="" fill="#001E9D" transform="translate(0,0)"/>
<path d="" fill="#106A7A" transform="translate(0,0)"/>
<path d="" fill="#16659B" transform="translate(0,0)"/>
<path d="" fill="#156177" transform="translate(0,0)"/>
<path d="" fill="#135099" transform="translate(0,0)"/>
<path d="M0 0 C2 1 2 1 2 1 Z " fill="#07509B" transform="translate(53,232)"/>
<path d="" fill="#1261B3" transform="translate(0,0)"/>
<path d="" fill="#083B96" transform="translate(0,0)"/>
<path d="" fill="#3368E6" transform="translate(0,0)"/>
<path d="" fill="#06397B" transform="translate(0,0)"/>
<path d="" fill="#0E63A2" transform="translate(0,0)"/>
<path d="M0 0 C2 1 2 1 2 1 Z " fill="#469DAD" transform="translate(168,217)"/>
<path d="" fill="#17697C" transform="translate(0,0)"/>
<path d="" fill="#13619F" transform="translate(0,0)"/>
<path d="" fill="#145F9F" transform="translate(0,0)"/>
<path d="" fill="#12589F" transform="translate(0,0)"/>
<path d="" fill="#3296BE" transform="translate(0,0)"/>
<path d="" fill="#0B3996" transform="translate(0,0)"/>
<path d="" fill="#0532C1" transform="translate(0,0)"/>
<path d="" fill="#195C85" transform="translate(0,0)"/>
<path d="" fill="#053F99" transform="translate(0,0)"/>
<path d="" fill="#003898" transform="translate(0,0)"/>
<path d="" fill="#134BBF" transform="translate(0,0)"/>
<path d="" fill="#15A7D0" transform="translate(0,0)"/>
<path d="" fill="#2F96D8" transform="translate(0,0)"/>
<path d="" fill="#1E5673" transform="translate(0,0)"/>
<path d="" fill="#005A98" transform="translate(0,0)"/>
<path d="" fill="#00168A" transform="translate(0,0)"/>
<path d="" fill="#177ABA" transform="translate(0,0)"/>
<path d="" fill="#1475B6" transform="translate(0,0)"/>
<path d="" fill="#002FB6" transform="translate(0,0)"/>
<path d="" fill="#09348B" transform="translate(0,0)"/>
<path d="M0 0 C2 1 2 1 2 1 Z " fill="#065E98" transform="translate(164,191)"/>
<path d="" fill="#06496C" transform="translate(0,0)"/>
<path d="" fill="#0018B8" transform="translate(0,0)"/>
<path d="M0 0 C2 1 2 1 2 1 Z " fill="#1C7CBC" transform="translate(59,182)"/>
<path d="M0 0 C2 1 2 1 2 1 Z " fill="#035497" transform="translate(105,164)"/>
<path d="M0 0 C2 1 2 1 2 1 Z " fill="#0058AF" transform="translate(169,162)"/>
<path d="M0 0 C2 1 2 1 2 1 Z " fill="#085491" transform="translate(100,162)"/>
<path d="M0 0 C2 1 2 1 2 1 Z " fill="#0F83BA" transform="translate(171,161)"/>
<path d="M0 0 C2 1 2 1 2 1 Z " fill="#2888BF" transform="translate(98,161)"/>
<path d="M0 0 C2 1 2 1 2 1 Z " fill="#075686" transform="translate(119,138)"/>
<path d="" fill="#27A5E0" transform="translate(0,0)"/>
<path d="" fill="#2774A0" transform="translate(0,0)"/>
<path d="" fill="#083D97" transform="translate(0,0)"/>
<path d="" fill="#0D3687" transform="translate(0,0)"/>
<path d="" fill="#0B76B5" transform="translate(0,0)"/>
<path d="" fill="#4797CC" transform="translate(0,0)"/>
<path d="" fill="#166DA5" transform="translate(0,0)"/>
<path d="" fill="#0F4D8F" transform="translate(0,0)"/>
<path d="" fill="#217386" transform="translate(0,0)"/>
<path d="" fill="#094889" transform="translate(0,0)"/>
<path d="" fill="#0377A1" transform="translate(0,0)"/>
<path d="" fill="#0E5290" transform="translate(0,0)"/>
<path d="" fill="#013DBA" transform="translate(0,0)"/>
<path d="M0 0 C2 1 2 1 2 1 Z " fill="#045283" transform="translate(180,112)"/>
<path d="" fill="#1B63CB" transform="translate(0,0)"/>
<path d="M0 0 C2 1 2 1 2 1 Z " fill="#1267C9" transform="translate(185,110)"/>
<path d="M0 0 C2 1 2 1 2 1 Z " fill="#026CD1" transform="translate(131,110)"/>
<path d="" fill="#0A67A5" transform="translate(0,0)"/>
<path d="" fill="#093681" transform="translate(0,0)"/>
<path d="" fill="#104CB3" transform="translate(0,0)"/>
<path d="" fill="#146393" transform="translate(0,0)"/>
<path d="" fill="#107BB2" transform="translate(0,0)"/>
<path d="" fill="#32A0C9" transform="translate(0,0)"/>
<path d="" fill="#02467A" transform="translate(0,0)"/>
<path d="" fill="#073060" transform="translate(0,0)"/>
<path d="" fill="#04419F" transform="translate(0,0)"/>
<path d="M0 0 C2 1 2 1 2 1 Z " fill="#05579B" transform="translate(190,93)"/>
<path d="" fill="#0A306A" transform="translate(0,0)"/>
<path d="" fill="#176A9B" transform="translate(0,0)"/>
<path d="" fill="#09428C" transform="translate(0,0)"/>
<path d="" fill="#0429CB" transform="translate(0,0)"/>
<path d="" fill="#08659F" transform="translate(0,0)"/>
<path d="" fill="#0D3D98" transform="translate(0,0)"/>
<path d="" fill="#09717F" transform="translate(0,0)"/>
<path d="" fill="#2FABEC" transform="translate(0,0)"/>
<path d="" fill="#1A74A1" transform="translate(0,0)"/>
<path d="" fill="#0FAFDC" transform="translate(0,0)"/>
<path d="" fill="#1D71A6" transform="translate(0,0)"/>
<path d="" fill="#07346E" transform="translate(0,0)"/>
<path d="" fill="#083687" transform="translate(0,0)"/>
<path d="" fill="#09389D" transform="translate(0,0)"/>
<path d="" fill="#1A4FD6" transform="translate(0,0)"/>
<path d="" fill="#0C5F8C" transform="translate(0,0)"/>
<path d="" fill="#1D6895" transform="translate(0,0)"/>
<path d="" fill="#3AABB4" transform="translate(0,0)"/>
<path d="" fill="#00428D" transform="translate(0,0)"/>
<path d="" fill="#093392" transform="translate(0,0)"/>
<path d="" fill="#083BA7" transform="translate(0,0)"/>
<path d="" fill="#125E91" transform="translate(0,0)"/>
<path d="" fill="#037191" transform="translate(0,0)"/>
<path d="" fill="#096199" transform="translate(0,0)"/>
<path d="" fill="#013EA0" transform="translate(0,0)"/>
<path d="" fill="#30AAEB" transform="translate(0,0)"/>
<path d="" fill="#15368E" transform="translate(0,0)"/>
<path d="" fill="#033591" transform="translate(0,0)"/>
<path d="" fill="#15B3DC" transform="translate(0,0)"/>
<path d="" fill="#399BCF" transform="translate(0,0)"/>
<path d="" fill="#35A8F5" transform="translate(0,0)"/>
<path d="" fill="#038DEB" transform="translate(0,0)"/>
<path d="" fill="#003467" transform="translate(0,0)"/>
<path d="" fill="#368DC5" transform="translate(0,0)"/>
<path d="" fill="#0E7AB3" transform="translate(0,0)"/>
<path d="" fill="#33AAE1" transform="translate(0,0)"/>
<path d="" fill="#1277B6" transform="translate(0,0)"/>
<path d="" fill="#3388C1" transform="translate(0,0)"/>
<path d="" fill="#1C579D" transform="translate(0,0)"/>
<path d="" fill="#006A95" transform="translate(0,0)"/>
<path d="" fill="#1C679A" transform="translate(0,0)"/>
<path d="" fill="#0D3B94" transform="translate(0,0)"/>
<path d="" fill="#0649CE" transform="translate(0,0)"/>
<path d="" fill="#063A9E" transform="translate(0,0)"/>
<path d="" fill="#339DC1" transform="translate(0,0)"/>
<path d="" fill="#076D8A" transform="translate(0,0)"/>
<path d="" fill="#0131C8" transform="translate(0,0)"/>
<path d="" fill="#0565B9" transform="translate(0,0)"/>
<path d="" fill="#1B668B" transform="translate(0,0)"/>
<path d="" fill="#0D4791" transform="translate(0,0)"/>
<path d="" fill="#086F8B" transform="translate(0,0)"/>
<path d="" fill="#36A4E3" transform="translate(0,0)"/>
<path d="" fill="#4096D2" transform="translate(0,0)"/>
<path d="" fill="#19466E" transform="translate(0,0)"/>
<path d="" fill="#0C2C70" transform="translate(0,0)"/>
<path d="" fill="#0568A4" transform="translate(0,0)"/>
<path d="" fill="#00082C" transform="translate(0,0)"/>
<path d="" fill="#217CED" transform="translate(0,0)"/>
<path d="" fill="#0059B9" transform="translate(0,0)"/>
<path d="" fill="#026ED5" transform="translate(0,0)"/>
<path d="" fill="#0562A7" transform="translate(0,0)"/>
<path d="" fill="#2A77DC" transform="translate(0,0)"/>
<path d="" fill="#2385AD" transform="translate(0,0)"/>
<path d="" fill="#00589F" transform="translate(0,0)"/>
<path d="" fill="#027388" transform="translate(0,0)"/>
<path d="" fill="#2E92BE" transform="translate(0,0)"/>
<path d="" fill="#2191A7" transform="translate(0,0)"/>
<path d="" fill="#006F88" transform="translate(0,0)"/>
<path d="" fill="#0869A5" transform="translate(0,0)"/>
<path d="" fill="#0059A2" transform="translate(0,0)"/>
<path d="" fill="#146599" transform="translate(0,0)"/>
<path d="" fill="#15629A" transform="translate(0,0)"/>
<path d="" fill="#00599F" transform="translate(0,0)"/>
<path d="" fill="#0F1C70" transform="translate(0,0)"/>
<path d="" fill="#1572B7" transform="translate(0,0)"/>
<path d="" fill="#0255B2" transform="translate(0,0)"/>
<path d="" fill="#16538C" transform="translate(0,0)"/>
<path d="" fill="#217498" transform="translate(0,0)"/>
<path d="" fill="#05549D" transform="translate(0,0)"/>
<path d="" fill="#156B8D" transform="translate(0,0)"/>
<path d="" fill="#1750C1" transform="translate(0,0)"/>
<path d="" fill="#175599" transform="translate(0,0)"/>
<path d="" fill="#1157A1" transform="translate(0,0)"/>
<path d="" fill="#0B5F87" transform="translate(0,0)"/>
<path d="" fill="#126596" transform="translate(0,0)"/>
<path d="" fill="#085C8B" transform="translate(0,0)"/>
<path d="" fill="#1163A9" transform="translate(0,0)"/>
<path d="" fill="#085988" transform="translate(0,0)"/>
<path d="" fill="#0B73F8" transform="translate(0,0)"/>
<path d="" fill="#0256AC" transform="translate(0,0)"/>
<path d="" fill="#008096" transform="translate(0,0)"/>
<path d="" fill="#0B7CD5" transform="translate(0,0)"/>
<path d="" fill="#007C88" transform="translate(0,0)"/>
<path d="" fill="#000650" transform="translate(0,0)"/>
<path d="" fill="#237496" transform="translate(0,0)"/>
<path d="" fill="#0022B8" transform="translate(0,0)"/>
<path d="" fill="#1453BB" transform="translate(0,0)"/>
<path d="" fill="#1B6D9A" transform="translate(0,0)"/>
<path d="" fill="#165188" transform="translate(0,0)"/>
<path d="" fill="#1055A6" transform="translate(0,0)"/>
<path d="" fill="#0D5C8A" transform="translate(0,0)"/>
<path d="" fill="#0C62C7" transform="translate(0,0)"/>
<path d="" fill="#006285" transform="translate(0,0)"/>
<path d="" fill="#275AB6" transform="translate(0,0)"/>
<path d="" fill="#11A1BC" transform="translate(0,0)"/>
<path d="" fill="#0B74A9" transform="translate(0,0)"/>
<path d="" fill="#3A91E3" transform="translate(0,0)"/>
<path d="" fill="#0C60B3" transform="translate(0,0)"/>
<path d="" fill="#1570C3" transform="translate(0,0)"/>
<path d="" fill="#0F9EBF" transform="translate(0,0)"/>
<path d="" fill="#1576A7" transform="translate(0,0)"/>
<path d="" fill="#07688C" transform="translate(0,0)"/>
<path d="" fill="#1A79A6" transform="translate(0,0)"/>
<path d="" fill="#1675A7" transform="translate(0,0)"/>
<path d="" fill="#18698B" transform="translate(0,0)"/>
<path d="" fill="#08609E" transform="translate(0,0)"/>
<path d="" fill="#135A80" transform="translate(0,0)"/>
<path d="" fill="#025E9A" transform="translate(0,0)"/>
<path d="" fill="#13588A" transform="translate(0,0)"/>
<path d="" fill="#289CB0" transform="translate(0,0)"/>
<path d="" fill="#2897AA" transform="translate(0,0)"/>
<path d="" fill="#0B538F" transform="translate(0,0)"/>
<path d="" fill="#12549B" transform="translate(0,0)"/>
<path d="" fill="#297DC7" transform="translate(0,0)"/>
<path d="" fill="#0455A5" transform="translate(0,0)"/>
<path d="" fill="#005DA8" transform="translate(0,0)"/>
<path d="" fill="#1E74C0" transform="translate(0,0)"/>
<path d="" fill="#004F6D" transform="translate(0,0)"/>
<path d="" fill="#036D80" transform="translate(0,0)"/>
<path d="" fill="#13708C" transform="translate(0,0)"/>
<path d="" fill="#0450A1" transform="translate(0,0)"/>
<path d="" fill="#034D7F" transform="translate(0,0)"/>
<path d="" fill="#2D9BAF" transform="translate(0,0)"/>
<path d="" fill="#004C86" transform="translate(0,0)"/>
<path d="" fill="#0F5A85" transform="translate(0,0)"/>
<path d="" fill="#116EA5" transform="translate(0,0)"/>
<path d="" fill="#1E7FB0" transform="translate(0,0)"/>
<path d="" fill="#0D788F" transform="translate(0,0)"/>
<path d="" fill="#075097" transform="translate(0,0)"/>
<path d="" fill="#0579BF" transform="translate(0,0)"/>
<path d="" fill="#0D72A6" transform="translate(0,0)"/>
<path d="" fill="#056A9A" transform="translate(0,0)"/>
<path d="" fill="#186CA8" transform="translate(0,0)"/>
<path d="" fill="#1265A5" transform="translate(0,0)"/>
<path d="" fill="#1668AC" transform="translate(0,0)"/>
<path d="" fill="#0673F0" transform="translate(0,0)"/>
<path d="" fill="#218FD2" transform="translate(0,0)"/>
<path d="" fill="#0062AC" transform="translate(0,0)"/>
<path d="" fill="#1875AE" transform="translate(0,0)"/>
<path d="" fill="#004B7E" transform="translate(0,0)"/>
<path d="" fill="#0C6D98" transform="translate(0,0)"/>
<path d="" fill="#1973BF" transform="translate(0,0)"/>
<path d="" fill="#004FBB" transform="translate(0,0)"/>
<path d="" fill="#0058A9" transform="translate(0,0)"/>
<path d="" fill="#1973BD" transform="translate(0,0)"/>
<path d="" fill="#1A71B1" transform="translate(0,0)"/>
<path d="" fill="#0865AE" transform="translate(0,0)"/>
<path d="" fill="#1478B1" transform="translate(0,0)"/>
<path d="" fill="#2982B8" transform="translate(0,0)"/>
<path d="" fill="#1068A6" transform="translate(0,0)"/>
<path d="" fill="#0F6FA7" transform="translate(0,0)"/>
<path d="" fill="#056DB5" transform="translate(0,0)"/>
<path d="" fill="#1B548E" transform="translate(0,0)"/>
<path d="" fill="#046EAA" transform="translate(0,0)"/>
<path d="" fill="#0070B2" transform="translate(0,0)"/>
<path d="" fill="#0F6296" transform="translate(0,0)"/>
<path d="" fill="#015EA5" transform="translate(0,0)"/>
<path d="" fill="#0059A6" transform="translate(0,0)"/>
<path d="" fill="#1B62B5" transform="translate(0,0)"/>
<path d="" fill="#045BB9" transform="translate(0,0)"/>
<path d="" fill="#1268A2" transform="translate(0,0)"/>
<path d="" fill="#094CA5" transform="translate(0,0)"/>
<path d="" fill="#1B58AA" transform="translate(0,0)"/>
<path d="" fill="#1256AD" transform="translate(0,0)"/>
<path d="" fill="#0A6AAC" transform="translate(0,0)"/>
<path d="" fill="#05709E" transform="translate(0,0)"/>
<path d="" fill="#0074A8" transform="translate(0,0)"/>
<path d="" fill="#1068A8" transform="translate(0,0)"/>
<path d="" fill="#0C60A8" transform="translate(0,0)"/>
<path d="" fill="#3995DA" transform="translate(0,0)"/>
<path d="" fill="#0F559F" transform="translate(0,0)"/>
<path d="" fill="#00060D" transform="translate(0,0)"/>
<path d="" fill="#026377" transform="translate(0,0)"/>
<path d="" fill="#117197" transform="translate(0,0)"/>
<path d="" fill="#127097" transform="translate(0,0)"/>
<path d="" fill="#16749B" transform="translate(0,0)"/>
<path d="" fill="#16749B" transform="translate(0,0)"/>
<path d="" fill="#127097" transform="translate(0,0)"/>
<path d="" fill="#117197" transform="translate(0,0)"/>
<path d="" fill="#00447B" transform="translate(0,0)"/>
<path d="" fill="#0B539F" transform="translate(0,0)"/>
<path d="" fill="#067391" transform="translate(0,0)"/>
<path d="" fill="#0B4C78" transform="translate(0,0)"/>
<path d="" fill="#005492" transform="translate(0,0)"/>
<path d="" fill="#035D9E" transform="translate(0,0)"/>
<path d="" fill="#005A9D" transform="translate(0,0)"/>
<path d="" fill="#056899" transform="translate(0,0)"/>
<path d="" fill="#17608C" transform="translate(0,0)"/>
<path d="" fill="#146D83" transform="translate(0,0)"/>
<path d="" fill="#1E5BB1" transform="translate(0,0)"/>
<path d="" fill="#185EB3" transform="translate(0,0)"/>
<path d="" fill="#167086" transform="translate(0,0)"/>
<path d="" fill="#076F8E" transform="translate(0,0)"/>
<path d="" fill="#006BA4" transform="translate(0,0)"/>
<path d="" fill="#087FC2" transform="translate(0,0)"/>
<path d="" fill="#00598F" transform="translate(0,0)"/>
<path d="" fill="#0F68AC" transform="translate(0,0)"/>
<path d="" fill="#055FAC" transform="translate(0,0)"/>
<path d="" fill="#036399" transform="translate(0,0)"/>
<path d="" fill="#026EAE" transform="translate(0,0)"/>
<path d="" fill="#0B6CAB" transform="translate(0,0)"/>
<path d="" fill="#276786" transform="translate(0,0)"/>
<path d="" fill="#23949C" transform="translate(0,0)"/>
<path d="" fill="#1F96A0" transform="translate(0,0)"/>
<path d="" fill="#0451A6" transform="translate(0,0)"/>
<path d="" fill="#000912" transform="translate(0,0)"/>
<path d="" fill="#0059B4" transform="translate(0,0)"/>
<path d="" fill="#2175BB" transform="translate(0,0)"/>
<path d="" fill="#176696" transform="translate(0,0)"/>
<path d="" fill="#0A75A0" transform="translate(0,0)"/>
<path d="" fill="#0E7388" transform="translate(0,0)"/>
<path d="" fill="#002C85" transform="translate(0,0)"/>
<path d="" fill="#08538E" transform="translate(0,0)"/>
<path d="" fill="#086D91" transform="translate(0,0)"/>
<path d="" fill="#185CA9" transform="translate(0,0)"/>
<path d="" fill="#01609B" transform="translate(0,0)"/>
<path d="" fill="#09A7A1" transform="translate(0,0)"/>
<path d="" fill="#091BB7" transform="translate(0,0)"/>
<path d="" fill="#1D7BBB" transform="translate(0,0)"/>
<path d="" fill="#0061AE" transform="translate(0,0)"/>
<path d="" fill="#004E80" transform="translate(0,0)"/>
<path d="" fill="#001BB1" transform="translate(0,0)"/>
<path d="" fill="#0019CC" transform="translate(0,0)"/>
</svg>
