<?xml version="1.0" encoding="UTF-8"?>
<svg version="1.1" xmlns="http://www.w3.org/2000/svg" width="4992" height="1024">
<path d="M0 0 C0.68900391 0.31163086 1.37800781 0.62326172 2.08789062 0.94433594 C18.59889852 8.48196998 33.69175559 18.66880626 47 31 C47.5667041 31.52287598 48.1334082 32.04575195 48.71728516 32.58447266 C82.89434039 64.50001886 100.63516664 109.82412131 104 156 C104.12197348 159.97239813 104.11733881 163.94010463 104.09765625 167.9140625 C104.09553383 169.55754166 104.09553383 169.55754166 104.09336853 171.23422241 C104.08781771 174.69784395 104.07527459 178.16139834 104.0625 181.625 C104.05747864 183.98828031 104.05291685 186.35156164 104.04882812 188.71484375 C104.03786444 194.47658501 104.02117606 200.2382877 104 206 C104.58370361 206.12162506 105.16740723 206.24325012 105.76879883 206.36856079 C112.45125833 207.79994005 118.62904178 209.90520758 125 212.375 C126.12776855 212.81126709 127.25553711 213.24753418 128.41748047 213.69702148 C158.84214804 225.69473726 194.52278394 242.52278394 218 266 C218.495 128.39 218.495 128.39 219 -12 C258.6 -12 298.2 -12 339 -12 C339 174.78 339 361.56 339 554 C299.4 554 259.8 554 219 554 C218.67 544.76 218.34 535.52 218 526 C212.84457827 475.47686703 197.78743815 424.09689271 164 385 C163.30648437 384.19691406 162.61296875 383.39382813 161.8984375 382.56640625 C159.6374529 380.00582122 157.33195601 377.49607076 155 375 C153.80310547 373.70449219 153.80310547 373.70449219 152.58203125 372.3828125 C141.37075243 360.67966214 128.13110107 350.89925996 114 343 C113.26894043 342.58540527 112.53788086 342.17081055 111.78466797 341.74365234 C82.77637963 325.43492621 51.74234831 316.93765945 19 312 C17.40454346 311.75008301 17.40454346 311.75008301 15.77685547 311.49511719 C-22.73007194 305.73963338 -64.46376823 306.71138375 -103 312 C-104.05864258 312.13921875 -105.11728516 312.2784375 -106.20800781 312.421875 C-145.85526153 317.79608699 -192.25268071 329.52881094 -218.72265625 362.12109375 C-228.13247429 374.71577328 -236.1468529 391.9347862 -234 408 C-232.2522515 416.15615966 -229.77120216 422.90442113 -224 429 C-223.45988281 429.59167969 -222.91976562 430.18335938 -222.36328125 430.79296875 C-204.95258806 447.90152409 -174.96424424 449.38656263 -152.04125977 449.23217773 C-114.85324435 448.5545461 -76.07505115 440.59855699 -47 416 C-46.13375 415.29488281 -45.2675 414.58976562 -44.375 413.86328125 C-30.42570613 402.01913996 -19.1649453 384.43936171 -17 366 C-16.4397146 358.34276619 -16.1780204 350.6745481 -16 343 C24.33307375 341.93235981 64.98847525 349.46683541 99 372 C99.87729358 372.55356548 100.75458715 373.10713097 101.65846539 373.67747116 C104 376 104 376 104.61523914 379.27208328 C104.61063018 380.58102932 104.60602121 381.88997536 104.60127258 383.23858643 C104.60554471 383.96887645 104.60981683 384.69916646 104.61421841 385.45158648 C104.62245712 387.89966266 104.59495153 390.34602694 104.56762695 392.79394531 C104.56621666 394.54820719 104.56700809 396.30247202 104.56983948 398.05673218 C104.57127578 402.82106409 104.54185142 407.58476834 104.50696969 412.3489542 C104.47574183 417.32706596 104.47277827 422.30519164 104.46684265 427.28338623 C104.45129371 436.7111225 104.41025098 446.13856934 104.3600952 455.56617808 C104.29379221 468.3050815 104.26677571 481.0440639 104.23758411 493.78309631 C104.19054989 513.8556144 104.09094458 533.92752166 104 554 C70.01 554 36.02 554 1 554 C0.14669682 549.73348412 -0.19191862 546.05196785 -0.31640625 541.73046875 C-0.33718735 541.04946609 -0.35796844 540.36846344 -0.37937927 539.66682434 C-0.44437878 537.50714492 -0.50352712 535.34735154 -0.5625 533.1875 C-0.6057325 531.71678544 -0.64934825 530.24608209 -0.69335938 528.77539062 C-0.80000859 525.18371283 -0.90141349 521.59190918 -1 518 C-1.91450928 518.64428955 -2.82901855 519.2885791 -3.77124023 519.95239258 C-58.65259928 558.39968159 -133.17771158 571.68904086 -199 562 C-200.35158203 561.80664062 -200.35158203 561.80664062 -201.73046875 561.609375 C-249.70769474 554.54042492 -297.87121784 534.35094865 -327.55078125 494.421875 C-348.15382016 466.02722927 -359.39422594 430.16764663 -357 395 C-356.95987793 394.26265625 -356.91975586 393.5253125 -356.87841797 392.765625 C-354.92402897 359.30302372 -342.9205689 324.04077225 -323 297 C-321.97519531 295.56914063 -321.97519531 295.56914063 -320.9296875 294.109375 C-309.64678794 278.66110392 -297.03990342 264.86302542 -282 253 C-281.03578125 252.21882813 -280.0715625 251.43765625 -279.078125 250.6328125 C-224.9527764 207.63475638 -154.54009099 192.05025584 -87 187 C-85.69708008 186.90211182 -84.39416016 186.80422363 -83.05175781 186.70336914 C-69.17031528 185.75548977 -55.28157086 185.88783368 -41.375 185.9375 C-38.90364675 185.94252835 -36.4322925 185.94708888 -33.9609375 185.95117188 C-27.97393614 185.96206404 -21.9869729 185.97869491 -16 186 C-16.28893312 182.52012707 -16.58887116 179.04128276 -16.890625 175.5625 C-16.97135254 174.58861328 -17.05208008 173.61472656 -17.13525391 172.61132812 C-18.7936773 153.721096 -23.99623997 137.00470004 -36 122 C-36.763125 120.948125 -37.52625 119.89625 -38.3125 118.8125 C-56.3964667 99.88741857 -84.00696546 93.53745981 -109.2265625 92.78125 C-143.4772342 92.13431473 -179.91453012 98.00288652 -206 122 C-206.49097168 122.44859375 -206.98194336 122.8971875 -207.48779297 123.359375 C-228.12883219 142.42271347 -238.46606671 167.99395036 -248.1875 193.8125 C-249.05154815 196.07792675 -249.91677726 198.34290343 -250.78320312 200.60742188 C-252.86904104 206.06652828 -254.9405025 211.53090561 -257 217 C-260.46475599 217 -261.09286939 216.45779868 -263.78125 214.4296875 C-264.90563477 213.59050781 -264.90563477 213.59050781 -266.05273438 212.734375 C-266.86033203 212.12078125 -267.66792969 211.5071875 -268.5 210.875 C-270.22902637 209.58054175 -271.95819699 208.28627616 -273.6875 206.9921875 C-274.57179688 206.32670898 -275.45609375 205.66123047 -276.3671875 204.97558594 C-280.39118142 201.95609792 -284.44587575 198.97883378 -288.5 196 C-290.08350544 194.83356694 -291.6668382 193.66689943 -293.25 192.5 C-294.03375 191.9225 -294.8175 191.345 -295.625 190.75 C-298 189 -300.375 187.25 -302.75 185.5 C-303.5339917 184.92233887 -304.3179834 184.34467773 -305.12573242 183.74951172 C-306.70668983 182.58456151 -308.28758192 181.41952266 -309.8684082 180.25439453 C-313.86255828 177.3107302 -317.8578843 174.36868654 -321.85546875 171.4296875 C-323.46623571 170.24491385 -325.07691354 169.06001902 -326.6875 167.875 C-327.46665771 167.30177002 -328.24581543 166.72854004 -329.04858398 166.13793945 C-335.0977065 161.68065798 -341.11314595 157.17964975 -347.10229492 152.64208984 C-350.41227939 150.10450161 -350.41227939 150.10450161 -354 148 C-353.43719531 143.02888815 -352.35397848 138.76215841 -350.55859375 134.09765625 C-350.1937941 133.14499878 -350.1937941 133.14499878 -349.82162476 132.1730957 C-349.03602004 130.13256074 -348.23806495 128.09720813 -347.4375 126.0625 C-347.16577972 125.36647675 -346.89405945 124.67045349 -346.61410522 123.95333862 C-342.59397088 113.67436216 -338.33074015 103.67350199 -333 94 C-332.28720646 92.66305561 -331.57498795 91.32580452 -330.86328125 89.98828125 C-303.85826828 39.92861466 -256.40397373 5.74338544 -202.62109375 -10.80859375 C-190.57080545 -14.37614367 -178.39056432 -16.94196007 -166 -19 C-164.97100586 -19.17644043 -163.94201172 -19.35288086 -162.88183594 -19.53466797 C-109.47562517 -28.2626995 -49.31288712 -22.69091661 0 0 Z " fill="#FFFFFF" transform="translate(3964,257)"/>
<path d="M0 0 C0.96405762 0.17692383 1.92811523 0.35384766 2.92138672 0.53613281 C41.96905667 7.94271787 76.07729531 23.55676374 108 47 C107.97679688 46.20722656 107.95359375 45.41445313 107.9296875 44.59765625 C107.7322446 31.83438304 108.96410954 19.94863073 110 7 C146.63 7 183.26 7 221 7 C221.04014514 68.42608459 221.04014514 68.42608459 221.05130005 87.67433167 C221.05169472 88.35444808 221.05208938 89.0345645 221.05249601 89.73529051 C221.06575541 112.64680391 221.07625288 135.55831771 221.08468628 158.46983337 C221.08496239 159.21804817 221.08523851 159.96626297 221.08552299 160.73715094 C221.09150991 177.00098298 221.09705012 193.26481514 221.10213066 209.52864749 C221.10462516 217.5053451 221.10721829 225.48204267 221.10986328 233.45874023 C221.1101248 234.25248393 221.11038632 235.04622763 221.11065576 235.86402417 C221.11916636 261.55472838 221.13417991 287.24542376 221.15259444 312.93612262 C221.17149577 339.35418007 221.18377925 365.77223264 221.18782998 392.19029674 C221.18840622 395.92846909 221.18905749 399.66664143 221.18975449 403.40481377 C221.18988933 404.14048224 221.19002418 404.87615072 221.19016311 405.63411218 C221.19251924 417.43845771 221.20177553 429.24278805 221.21366407 441.04712741 C221.22549002 452.93741038 221.22992315 464.82767841 221.22700275 476.71796704 C221.22572639 483.15105527 221.22763273 489.58409921 221.23841095 496.01717949 C221.24823097 501.92187231 221.24857887 507.82649159 221.24179779 513.73118799 C221.24096121 515.8527152 221.24342356 517.97424723 221.24976636 520.09576512 C221.30420841 539.45138346 220.09759341 558.65573395 216.8125 577.75 C216.59819336 579.00312988 216.38388672 580.25625977 216.16308594 581.54736328 C208.77199371 623.10788258 193.5845239 662.87301094 167 696 C165.77603516 697.52947266 165.77603516 697.52947266 164.52734375 699.08984375 C153.95604918 712.04897 142.17901171 723.79376813 128.71630859 733.73242188 C127.01432411 734.98942094 125.32955002 736.2672632 123.64453125 737.546875 C89.1092783 763.38088256 46.24309139 776.94022398 4 783 C2.57324951 783.22429687 2.57324951 783.22429687 1.11767578 783.453125 C-35.21117645 789.01911061 -75.73122834 789.01088474 -112 783 C-113.09425293 782.82307617 -114.18850586 782.64615234 -115.31591797 782.46386719 C-164.45361745 774.28954511 -207.66058239 756.22934162 -245 723 C-246.01707031 722.09507812 -246.01707031 722.09507812 -247.0546875 721.171875 C-270.91700398 698.56546991 -287.10776367 665.0248213 -293 633 C-293 632.01 -293 631.02 -293 630 C-275.4341577 623.96989692 -257.68612382 618.56974933 -239.91290283 613.19256592 C-235.36451965 611.81573508 -230.81742677 610.43464942 -226.27012253 609.05426025 C-222.59736853 607.93956317 -218.92427024 606.82603161 -215.25030518 605.71533203 C-208.77877306 603.75825459 -202.31081828 601.79202131 -195.85449219 599.78515625 C-194.78379486 599.4538269 -193.71309753 599.12249756 -192.60995483 598.78112793 C-190.66059251 598.17686909 -188.71257979 597.56823043 -186.76626587 596.95422363 C-185.92091278 596.69282593 -185.07555969 596.43142822 -184.20458984 596.16210938 C-183.48234222 595.93567749 -182.7600946 595.70924561 -182.01596069 595.47595215 C-180 595 -180 595 -176 595 C-175.84966309 595.57331055 -175.69932617 596.14662109 -175.54443359 596.73730469 C-171.54448464 611.81194225 -167.51344145 625.07462942 -157 637 C-156.35546875 637.73863281 -155.7109375 638.47726562 -155.046875 639.23828125 C-133.28483025 662.57202923 -97.51053821 669.22152739 -67 671 C-61.56183203 671.18163601 -56.12848022 671.24552807 -50.6875 671.25 C-49.5710762 671.25101212 -49.5710762 671.25101212 -48.43209839 671.25204468 C-28.70397446 671.22381453 -9.86922836 668.9279059 9 663 C10.02915527 662.67757324 10.02915527 662.67757324 11.07910156 662.34863281 C26.98285114 657.21120719 41.56003173 649.18199395 54 638 C54.81339844 637.34 55.62679687 636.68 56.46484375 636 C85.18755075 612.04172307 95.6965017 573.69528869 99 538 C99 537.01 99 536.02 99 535 C98.20722656 535.57105469 97.41445312 536.14210938 96.59765625 536.73046875 C54.42595749 566.35003155 4.00422169 578.25458667 -46.9375 578.1875 C-48.31184708 578.18609512 -48.31184708 578.18609512 -49.71395874 578.18466187 C-62.90692193 578.15539511 -75.93504717 578.00549947 -89 576 C-90.04800781 575.84402344 -91.09601563 575.68804688 -92.17578125 575.52734375 C-108.8657681 572.97564701 -124.95946347 569.26603418 -141 564 C-142.07967041 563.65098633 -142.07967041 563.65098633 -143.18115234 563.29492188 C-170.43920029 554.31832216 -195.3568578 539.69409116 -217 521 C-217.91007812 520.22011719 -218.82015625 519.44023438 -219.7578125 518.63671875 C-222.22066132 516.47083724 -224.61995399 514.25655306 -227 512 C-227.49564453 511.53158691 -227.99128906 511.06317383 -228.50195312 510.58056641 C-236.8451442 502.64034233 -244.14419288 494.24581051 -251 485 C-251.4237793 484.43700195 -251.84755859 483.87400391 -252.28417969 483.29394531 C-306.70297865 410.80526076 -316.96482494 311.37357409 -304.56640625 223.94238281 C-299.7868177 192.1665784 -291.27919412 160.862445 -277 132 C-276.56929199 131.12617676 -276.13858398 130.25235352 -275.69482422 129.35205078 C-265.85064527 109.56791169 -254.08142283 91.5223503 -239.06640625 75.25390625 C-237.23259442 73.2536994 -235.48962633 71.20656762 -233.75 69.125 C-219.24804005 52.6033607 -200.92807347 39.89677755 -182 29 C-181.39043457 28.64099609 -180.78086914 28.28199219 -180.15283203 27.91210938 C-154.96362638 13.14724016 -125.70503469 4.58516361 -97 0 C-96.08847168 -0.14953125 -95.17694336 -0.2990625 -94.23779297 -0.453125 C-63.85746499 -5.20341049 -30.28557613 -5.60101694 0 0 Z M-147.57421875 154.203125 C-172.74016397 181.34493795 -182.88690271 219.15272045 -187 255 C-187.09571289 255.77754639 -187.19142578 256.55509277 -187.29003906 257.35620117 C-188.32631461 266.89160758 -188.24376936 276.48241521 -188.25 286.0625 C-188.25067474 286.99518707 -188.25134949 287.92787415 -188.25204468 288.88882446 C-188.23459402 304.11280818 -187.6087814 318.96612689 -185 334 C-184.83371094 334.96276855 -184.66742187 335.92553711 -184.49609375 336.91748047 C-177.25367254 377.05256468 -159.57278839 416.35347653 -125.21826172 440.23876953 C-91.32951815 462.68243057 -48.29199719 468.96478341 -8.73046875 461.1875 C23.03074218 454.4900979 51.4597652 436.83011108 69.6640625 409.64453125 C93.55096954 372.77993326 100.22363096 330.64212562 100.25 287.375 C100.25067474 286.37822235 100.25134949 285.3814447 100.25204468 284.35446167 C100.20270348 238.3560108 91.84120564 190.92429324 61 155 C60.26265625 154.11699219 59.5253125 153.23398437 58.765625 152.32421875 C37.8857187 128.20315053 7.2657078 114.95415473 -24.0625 111.3125 C-70.87646941 107.96864504 -114.48445026 119.88545141 -147.57421875 154.203125 Z " fill="#FFFFFF" transform="translate(2067,238)"/>
<path d="M0 0 C1.47452097 1.36467127 2.93604389 2.74334617 4.39697266 4.12255859 C6.4547442 6.05551973 8.54105752 7.87912497 10.72119141 9.66943359 C13.82558681 12.29507886 16.42872172 15.22220118 19.05322266 18.32177734 C20.28835697 19.75973371 21.55719314 21.16942341 22.85791016 22.54833984 C34.14320217 34.54287387 43.74438446 48.24930542 51.82568359 62.57763672 C52.95657083 64.56612195 54.12219018 66.53145586 55.29150391 68.49755859 C66.2666939 87.23013855 73.71725958 107.57411804 81.09619141 127.91943359 C81.38853668 128.72322449 81.68088196 129.52701538 81.98208618 130.35516357 C82.81160768 132.6439052 83.63331114 134.9352702 84.45166016 137.22802734 C84.82579544 138.26220543 84.82579544 138.26220543 85.20748901 139.317276 C86.21964645 142.18285254 86.90869141 144.41712062 86.90869141 147.48193359 C71.69526794 154.88265115 56.45259395 162.20045738 41.09204102 169.29199219 C28.41326505 175.15404184 15.79674179 181.1465976 3.17845154 187.13748169 C0.92442849 188.20718499 -1.33023722 189.27552453 -3.58496094 190.34375 C-6.7082658 191.82380411 -9.82760963 193.31189554 -12.9453125 194.80371094 C-14.50044341 195.54420232 -16.05561762 196.28460278 -17.61083984 197.02490234 C-18.33430099 197.3729744 -19.05776215 197.72104645 -19.80314636 198.07966614 C-24.86485246 200.48193359 -24.86485246 200.48193359 -27.09130859 200.48193359 C-27.70220337 198.60211792 -27.70220337 198.60211792 -28.32543945 196.68432617 C-29.87572358 191.9227947 -31.43894537 187.16558646 -33.00561523 182.40942383 C-33.67502871 180.3714743 -34.34117786 178.33244889 -35.00366211 176.29223633 C-49.86538286 130.55605243 -71.41583124 89.33686442 -115.91601562 66.56005859 C-145.49659085 51.89924824 -179.4588057 48.02123317 -212.09130859 48.48193359 C-212.8839209 48.49264893 -213.6765332 48.50336426 -214.49316406 48.5144043 C-260.85005254 49.50105785 -305.97766952 64.94607265 -341.09130859 95.48193359 C-342.05423828 96.31080078 -343.01716797 97.13966797 -344.00927734 97.99365234 C-362.28058918 114.02705496 -375.95525472 134.01658352 -387.09130859 155.48193359 C-387.46320312 156.17851074 -387.83509766 156.87508789 -388.21826172 157.59277344 C-405.80441711 190.75678871 -413.23165783 228.49317741 -417.09130859 265.48193359 C-417.19588379 266.45372559 -417.30045898 267.42551758 -417.40820312 268.42675781 C-418.46816521 279.86638442 -418.33517485 291.37861224 -418.34130859 302.85693359 C-418.34198334 303.99131866 -418.34265808 305.12570374 -418.34335327 306.29446411 C-418.32615551 324.53357738 -417.7267578 342.40660881 -415.09130859 360.48193359 C-414.91970215 361.66110352 -414.7480957 362.84027344 -414.57128906 364.05517578 C-406.94785115 414.37395363 -388.6101279 468.21380087 -350.52490234 503.92333984 C-349.09130859 505.48193359 -349.09130859 505.48193359 -349.09130859 507.48193359 C-348.52927734 507.72041016 -347.96724609 507.95888672 -347.38818359 508.20458984 C-344.58888308 509.7613437 -342.64076463 511.68781866 -340.34130859 513.91943359 C-303.4662036 548.42530834 -250.20583555 560.86692936 -201.04052734 559.58691406 C-151.78700648 557.83368443 -103.47160114 541.2315969 -69.34130859 504.60693359 C-59.26666485 492.85003227 -51.11176931 480.26608258 -44.09130859 466.48193359 C-43.75035156 465.82016113 -43.40939453 465.15838867 -43.05810547 464.4765625 C-36.31359814 451.13168989 -32.08898957 436.77366041 -27.60693359 422.55615234 C-27.39080917 421.87261688 -27.17468475 421.18908142 -26.95201111 420.48483276 C-25.91816362 417.19494828 -24.91695729 413.90089403 -23.97998047 410.58203125 C-23.6403125 409.40044434 -23.30064453 408.21885742 -22.95068359 407.00146484 C-22.5170752 405.43489136 -22.5170752 405.43489136 -22.07470703 403.83666992 C-21.75018555 403.05960693 -21.42566406 402.28254395 -21.09130859 401.48193359 C-16.73162093 400.02870437 -13.64543327 401.92416464 -9.55615234 403.54833984 C-8.67404587 403.88976517 -7.79193939 404.23119049 -6.88310242 404.58296204 C-3.92835541 405.72844392 -0.97873779 406.88660714 1.97119141 408.04443359 C5.11877758 409.26817212 8.26768156 410.48847594 11.41668701 411.70855713 C13.65801418 412.57711111 15.89892997 413.44672728 18.13946533 414.31732178 C26.94802805 417.73642583 35.77681308 421.09936275 44.61572266 424.43896484 C45.59697333 424.80988723 45.59697333 424.80988723 46.59804726 425.18830299 C52.43756314 427.39561598 58.27778518 429.60105292 64.11941528 431.80276489 C67.74553432 433.16961595 71.37008671 434.54059398 74.99462891 435.91162109 C76.60438347 436.5168737 76.60438347 436.5168737 78.24665833 437.13435364 C84.22564527 439.39866771 90.10182849 441.80563375 95.90869141 444.48193359 C95.30380053 449.97296844 93.95882731 454.83257256 92.13525391 460.03662109 C91.85586472 460.84710907 91.57647552 461.65759705 91.28862 462.49264526 C90.3792261 465.11728575 89.4580801 467.73753897 88.53369141 470.35693359 C88.21878754 471.25287231 87.90388367 472.14881104 87.57943726 473.07189941 C67.71029209 529.42710438 35.92964047 579.07937909 -12.09130859 615.48193359 C-12.91840332 616.11035156 -12.91840332 616.11035156 -13.76220703 616.75146484 C-24.03136329 624.48555743 -34.96550944 631.06204365 -46.09130859 637.48193359 C-46.74180176 637.86091797 -47.39229492 638.23990234 -48.0625 638.63037109 C-83.39697057 659.04626938 -124.01890081 668.95375275 -164.09130859 674.48193359 C-165.04134766 674.61615723 -165.99138672 674.75038086 -166.97021484 674.88867188 C-248.1543989 685.77139338 -340.42158797 667.26437622 -406.47241211 617.54296875 C-409.04301233 615.56045487 -411.56973372 613.52627081 -414.09130859 611.48193359 C-415.02072266 610.74458984 -415.95013672 610.00724609 -416.90771484 609.24755859 C-433.02060902 596.32057095 -448.4029339 581.808717 -461.09130859 565.48193359 C-461.91501953 564.47517578 -462.73873047 563.46841797 -463.58740234 562.43115234 C-519.04378685 494.36872424 -541.29120868 403.82672592 -543.09130859 317.48193359 C-543.11322266 316.52351563 -543.13513672 315.56509766 -543.15771484 314.57763672 C-544.62953505 239.56386682 -531.48367234 163.19932735 -496.09130859 96.48193359 C-495.71006836 95.76199219 -495.32882813 95.04205078 -494.93603516 94.30029297 C-480.57279912 67.37935259 -462.17088499 43.48695481 -441.09130859 21.48193359 C-440.58776855 20.9550293 -440.08422852 20.428125 -439.56542969 19.88525391 C-433.1342866 13.19300334 -426.35704041 7.24309709 -419.09130859 1.48193359 C-417.98134632 0.561029 -416.87336291 -0.36226452 -415.76708984 -1.28759766 C-400.50607529 -13.94804291 -383.67328212 -24.39530932 -366.09130859 -33.51806641 C-365.30771973 -33.92621582 -364.52413086 -34.33436523 -363.71679688 -34.75488281 C-276.42350916 -79.63606564 -160.68578255 -80.3520817 0 0 Z " fill="#FFFFFF" transform="translate(2907.09130859375,144.51806640625)"/>
<path d="M0 0 C39.6 0 79.2 0 120 0 C120.33 86.13 120.66 172.26 121 261 C129.415 255.555 129.415 255.555 138 250 C141.65621601 247.8721216 145.2547086 245.81785012 149 243.875 C149.95221436 243.38056396 150.90442871 242.88612793 151.88549805 242.37670898 C162.86821362 236.83844706 174.31177726 232.77190469 186 229 C186.78084961 228.74138184 187.56169922 228.48276367 188.36621094 228.21630859 C212.97179211 220.17967355 239.26279666 217.76676802 265 217.75 C265.93174042 217.74932526 266.86348083 217.74865051 267.82345581 217.74795532 C283.40401824 217.76581815 298.59197724 218.50668827 314 221 C315.02722168 221.16097168 316.05444336 221.32194336 317.11279297 221.48779297 C360.0294393 228.44996047 399.41668669 247.14512673 431 277 C431.80824219 277.75539063 432.61648438 278.51078125 433.44921875 279.2890625 C463.32413205 308.08528976 480.99722422 348.04989999 488.25 388.4375 C488.40114258 389.26878418 488.55228516 390.10006836 488.70800781 390.95654297 C492.2961272 412.53790662 492.28484388 434.20169399 492.23213124 456.00343585 C492.2233854 460.55251184 492.22642466 465.10158324 492.22793579 469.65066528 C492.2289777 477.50677237 492.22277437 485.3628459 492.21146011 493.21894455 C492.19511296 504.57713588 492.18998775 515.9353112 492.18748413 527.29351301 C492.18312138 545.72742279 492.16985108 564.16131473 492.15087891 582.59521484 C492.13248317 600.48779207 492.1183448 618.38036443 492.10986328 636.27294922 C492.10933783 637.37833166 492.10881239 638.4837141 492.10827102 639.62259297 C492.10566069 645.16871349 492.10313333 650.71483404 492.10064721 656.26095462 C492.07995899 702.17398559 492.0431133 748.08698353 492 794 C452.07 794 412.14 794 371 794 C370.97812622 777.67043823 370.97812622 777.67043823 370.95581055 761.01098633 C370.90698302 726.12069961 370.84355456 691.23045296 370.77101372 656.3402078 C370.75974647 650.91454957 370.74860787 645.48889108 370.73754883 640.06323242 C370.7342433 638.44310546 370.7342433 638.44310546 370.730871 636.79024865 C370.69556383 619.33512176 370.67066262 601.8799949 370.64965298 584.42484561 C370.62783839 566.49480902 370.59473456 548.56481849 370.55129844 530.63482112 C370.52487893 519.58407189 370.50711226 508.53337999 370.50065396 497.48260077 C370.49537025 489.88966189 370.47905411 482.29679495 370.45433434 474.70389471 C370.44042081 470.33275799 370.43111006 465.96174973 370.43499184 461.59058952 C370.60376932 430.25800679 370.60376932 430.25800679 364.3125 399.6875 C363.93339478 398.47151123 363.93339478 398.47151123 363.54663086 397.23095703 C359.60692162 385.14065606 353.77977812 374.06339458 346 364 C345.236875 362.96875 344.47375 361.9375 343.6875 360.875 C327.63474366 343.70228391 305.70405907 336.08867403 283 333 C281.57494141 332.80277344 281.57494141 332.80277344 280.12109375 332.6015625 C242.31202725 328.33000384 202.94536758 338.34574082 172.80859375 361.71875 C143.25133919 385.72631142 126.01375578 419.46857625 121.74828392 457.22829467 C120.98872656 464.7553812 120.84772593 472.21355645 120.84178162 479.77494812 C120.83720557 481.13737769 120.83220405 482.49980589 120.82681805 483.86223251 C120.81334617 487.57709288 120.80585069 491.29194419 120.79939139 495.00682247 C120.79133882 499.02371893 120.777658 503.04059684 120.76467896 507.05747986 C120.74298466 514.00741172 120.72481464 520.95734552 120.70907402 527.90729332 C120.68631089 537.95561154 120.6581772 548.00390916 120.62875474 558.05220983 C120.58115755 574.35698167 120.53787218 590.66176197 120.49731445 606.96655273 C120.45791937 622.80021828 120.4164836 638.63387632 120.37231445 654.4675293 C120.36959018 655.44437389 120.36686591 656.42121848 120.36405908 657.42766442 C120.35037894 662.32846291 120.3366588 667.22926128 120.32291877 672.1300596 C120.20907776 712.75335832 120.10303846 753.37667216 120 794 C80.4 794 40.8 794 0 794 C0 531.98 0 269.96 0 0 Z " fill="#FFFFFF" transform="translate(3055,17)"/>
<path d="M0 0 C0.75941895 0.25394531 1.51883789 0.50789062 2.30126953 0.76953125 C46.41213106 15.82539455 84.11134915 46.27543004 105.10498047 88.20703125 C121.00495319 121.0866489 126.19457943 156.26894504 126.12025452 192.49583435 C126.12069171 194.10507809 126.12156932 195.71432177 126.12284368 197.32356507 C126.12505966 201.70209317 126.12110749 206.0805964 126.11606562 210.45912135 C126.11171928 215.19714325 126.1132105 219.93516392 126.1139679 224.67318726 C126.11449049 232.86771917 126.11137137 241.06224309 126.10573006 249.25677299 C126.09757915 261.10447126 126.09499616 272.95216568 126.09374207 284.79986645 C126.09155718 304.02518985 126.08491238 323.25050899 126.07543945 342.47583008 C126.06625075 361.14379861 126.05917706 379.81176599 126.05493164 398.47973633 C126.05453756 400.20777598 126.05453756 400.20777598 126.05413551 401.97072553 C126.05283041 407.75050158 126.05156671 413.53027764 126.05032361 419.31005371 C126.03996853 467.20670625 126.02153969 515.10335092 126 563 C91.68 563 57.36 563 22 563 C21.67 550.79 21.34 538.58 21 526 C16.05 529.3 11.1 532.6 6 536 C3.09214154 537.77062668 0.22714974 539.4913845 -2.75 541.125 C-3.86930908 541.73964111 -3.86930908 541.73964111 -5.01123047 542.36669922 C-67.81954778 576.13616171 -150.08357213 582.29872617 -218.01123047 561.96289062 C-261.46422208 547.96365856 -298.25341018 521.49855972 -319.80322266 480.76611328 C-338.02498193 444.55902919 -339.90494367 399.29697816 -327.72265625 360.96484375 C-321.44180809 342.36846509 -312.0032936 325.72688452 -299 311 C-298.16984375 310.03707031 -297.3396875 309.07414062 -296.484375 308.08203125 C-253.05621802 258.5073924 -182.5762425 239.40049883 -120.15234375 227.82421875 C-119.12579556 227.63277346 -118.09924736 227.44132816 -117.04159164 227.2440815 C-93.34303426 222.82536208 -69.60352388 218.64267518 -45.85516357 214.50146484 C-41.44268637 213.73107599 -37.03083121 212.95715545 -32.61896706 212.18326473 C-28.34033114 211.43305754 -24.06139764 210.68455997 -19.78236008 209.93664742 C-17.75760681 209.58262099 -15.73292975 209.22815841 -13.70833206 208.87324333 C-10.92905646 208.3863783 -8.14940549 207.90171989 -5.36962891 207.41772461 C-4.54520798 207.27290146 -3.72078705 207.12807831 -2.87138367 206.97886658 C2.77108621 206 2.77108621 206 5 206 C4.56175897 166.06731816 4.56175897 166.06731816 -13.55859375 131.20703125 C-14.68635807 130.11760453 -15.83975534 129.05476787 -17 128 C-17 127.34 -17 126.68 -17 126 C-17.57363281 125.74476563 -18.14726563 125.48953125 -18.73828125 125.2265625 C-21.23751821 123.87119047 -23.0630513 122.26256327 -25.1875 120.375 C-41.27798492 107.45100993 -63.72500186 101.92305603 -84.07421875 101.796875 C-84.83165375 101.78981537 -85.58908875 101.78275574 -86.36947632 101.77548218 C-109.85582109 101.47489384 -109.85582109 101.47489384 -133 105 C-133.82161621 105.19867676 -134.64323242 105.39735352 -135.48974609 105.60205078 C-164.231274 112.85123645 -188.35079455 128.70841146 -204.55859375 153.78125 C-205.38315405 155.181219 -206.19509731 156.58863734 -207 158 C-207.58579834 159.01682861 -208.17159668 160.03365723 -208.77514648 161.08129883 C-214.65259629 171.5404671 -218.94203021 182.48752706 -223.1875 193.6875 C-224.21895547 196.38237437 -225.25317018 199.07617666 -226.28787231 201.76980591 C-226.94967896 203.4929145 -227.61041263 205.21643564 -228.26998901 206.94039917 C-230.72689864 213.34623898 -233.29675914 219.69351231 -236 226 C-239.21844791 224.81247754 -241.8449087 223.57495357 -244.5390625 221.453125 C-245.19181152 220.94531494 -245.84456055 220.43750488 -246.51708984 219.91430664 C-247.2127002 219.36508545 -247.90831055 218.81586426 -248.625 218.25 C-250.14990371 217.0649405 -251.67598844 215.88139948 -253.203125 214.69921875 C-254.38745117 213.78148682 -254.38745117 213.78148682 -255.59570312 212.84521484 C-259.48182609 209.86274964 -263.42551443 206.96026036 -267.375 204.0625 C-268.16535645 203.48209961 -268.95571289 202.90169922 -269.77001953 202.30371094 C-271.377283 201.124074 -272.98486808 199.94487514 -274.59277344 198.76611328 C-278.56665159 195.85059253 -282.53291335 192.92475088 -286.5 190 C-288.08201493 188.83461327 -289.66404619 187.6692487 -291.24609375 186.50390625 C-294.42750611 184.15987983 -297.60700616 181.81329118 -300.78515625 179.46484375 C-311.47238616 171.57169647 -322.21260216 163.75569648 -333 156 C-325.82387201 130.65490089 -315.43264441 104.50490752 -300 83 C-299.31768311 82.0402124 -299.31768311 82.0402124 -298.62158203 81.06103516 C-291.98471745 71.7898254 -284.92738908 63.19573511 -277 55 C-276.53126465 54.5054834 -276.0625293 54.0109668 -275.57958984 53.50146484 C-236.29502645 12.08981849 -178.95222271 -8.41735106 -123 -13 C-121.76507812 -13.11085937 -120.53015625 -13.22171875 -119.2578125 -13.3359375 C-79.23479084 -16.41463147 -38.13306123 -12.76688769 0 0 Z M-5.79467773 320.55712891 C-6.7074498 320.72305542 -7.62022186 320.88898193 -8.56065369 321.05993652 C-11.6020031 321.61347358 -14.64283216 322.1698059 -17.68359375 322.7265625 C-19.81323597 323.11576158 -21.94287975 323.50495212 -24.07252502 323.89413452 C-28.56121668 324.71499572 -33.04960442 325.53749863 -37.5378418 326.36083984 C-42.09228178 327.19604446 -46.64728481 328.02805823 -51.20288086 328.85693359 C-133.13356555 340.16817831 -133.13356555 340.16817831 -202 381 C-202.49113281 381.50917969 -202.98226562 382.01835938 -203.48828125 382.54296875 C-212.13253093 391.91650997 -213.46830833 402.11499138 -213.28515625 414.42578125 C-212.84888334 425.1002175 -207.7585065 433.91079779 -200.15625 441.20703125 C-181.66720392 456.581075 -156.06152594 458.61678992 -133 458.4375 C-131.74089813 458.43293793 -131.74089813 458.43293793 -130.45635986 458.42828369 C-88.27017358 458.20397923 -47.01365986 447.37698577 -16.25 417.3125 C-4.85930996 405.36616654 5.14991688 389.16109787 5.11352539 372.12988281 C5.11344986 370.94896057 5.11337433 369.76803833 5.11329651 368.55133057 C5.10813522 367.28142273 5.10297394 366.01151489 5.09765625 364.703125 C5.0962413 363.39921814 5.09482635 362.09531128 5.09336853 360.75189209 C5.08955867 357.29296945 5.07974151 353.83408909 5.06866455 350.37518311 C5.05841746 346.84257581 5.05386385 343.30996164 5.04882812 339.77734375 C5.03811782 332.85154518 5.02105984 325.92577462 5 319 C1.36012271 319 -2.22177273 319.90217727 -5.79467773 320.55712891 Z " fill="#FFFFFF" transform="translate(983,246)"/>
<path d="M0 0 C0.97453125 0.1556543 1.9490625 0.31130859 2.953125 0.47167969 C46.43213581 7.67504755 85.13003945 26.70918164 117 57 C117.94746094 57.86818359 117.94746094 57.86818359 118.9140625 58.75390625 C125.00172154 64.50977345 129.96049483 71.33604612 135 78 C135.64195312 78.84691406 136.28390625 79.69382812 136.9453125 80.56640625 C158.00193663 109.50702221 168.89305315 144.39380658 173.75 179.5 C173.86577393 180.3154126 173.98154785 181.1308252 174.10083008 181.97094727 C176.7964936 203.46860763 176.14321643 225.394388 176.11606562 247.02044261 C176.11168622 251.40930901 176.11321277 255.79817426 176.1139679 260.18704224 C176.11448845 267.76374099 176.11139103 275.34043104 176.10573006 282.91712761 C176.09755096 293.87132341 176.09499332 304.82551506 176.09374207 315.77971358 C176.09156154 333.55862979 176.08492874 351.33754137 176.07543945 369.11645508 C176.06623935 386.37166318 176.05917127 403.62687002 176.05493164 420.88208008 C176.05453756 422.48151324 176.05453756 422.48151324 176.05413551 424.11325818 C176.05283033 429.46331516 176.05156666 434.81337215 176.05032361 440.16342914 C176.03998215 484.44229021 176.02156077 528.7211427 176 573 C136.07 573 96.14 573 55 573 C54.98541748 562.27556396 54.97083496 551.55112793 54.95581055 540.50170898 C54.90696891 506.11886169 54.8435366 471.73605499 54.77101372 437.35324981 C54.75974665 432.0052755 54.74860802 426.65730092 54.73754883 421.30932617 C54.7342433 419.71241575 54.7342433 419.71241575 54.730871 418.08324451 C54.69557698 400.88489664 54.67066839 383.68654881 54.64965298 366.48817825 C54.62782784 348.81803447 54.5947142 331.14793736 54.55129844 313.47783333 C54.52489693 302.58984997 54.50711707 291.70192466 54.50065396 280.81391091 C54.49536466 273.32981877 54.47903029 265.84579943 54.45433434 258.36174642 C54.44043955 254.05517002 54.4311028 249.74872358 54.43499184 245.44212341 C54.46129661 208.72075963 52.71998771 169.96619976 27 141 C26.40832031 140.31421875 25.81664062 139.6284375 25.20703125 138.921875 C7.89602985 120.17136602 -19.96930366 113.06067609 -44.60644531 111.87451172 C-82.83518093 110.53657321 -119.74448079 120.75208616 -149 146 C-149.7940625 146.6496875 -150.588125 147.299375 -151.40625 147.96875 C-177.15438806 169.80577848 -191.21940125 204.26465114 -194.79006767 237.28370762 C-195.2118696 242.74135861 -195.12907373 248.20884016 -195.11352539 253.67956543 C-195.11324499 255.05605394 -195.1134091 256.43254259 -195.11397648 257.80903101 C-195.11427067 261.5721018 -195.10835675 265.3351407 -195.10140657 269.09820414 C-195.09501189 273.1635409 -195.09446186 277.22887895 -195.0932312 281.29421997 C-195.09034943 288.33150236 -195.08391857 295.36877421 -195.07516479 302.40605164 C-195.0625996 312.58177617 -195.05653169 322.75749682 -195.05223143 332.93322784 C-195.04517039 349.44539717 -195.03437148 365.95756159 -195.02050781 382.46972656 C-195.01968 383.45725884 -195.01885219 384.44479112 -195.01799929 385.46224862 C-195.01209671 392.4748325 -195.00606133 399.48741626 -195 406.5 C-194.99306775 414.52441398 -194.98620228 422.54882802 -194.97949219 430.57324219 C-194.97866406 431.5619948 -194.97783593 432.55074742 -194.97698271 433.56946224 C-194.96331719 450.03064121 -194.95354814 466.49182027 -194.94658184 482.95300341 C-194.94209241 493.10999312 -194.93403549 503.26696837 -194.92143703 513.42395133 C-194.91303825 520.37279645 -194.90812681 527.32163822 -194.90601182 534.27048808 C-194.90466142 538.28476102 -194.90161829 542.29901523 -194.89425278 546.31328201 C-194.88754672 549.98175423 -194.88535864 553.65019924 -194.88688838 557.31867701 C-194.88648474 559.28692272 -194.88109689 561.25516543 -194.87558079 563.22340345 C-194.87695514 564.37633154 -194.87832949 565.52925963 -194.87974548 566.71712494 C-194.87882369 567.72040376 -194.8779019 568.72368258 -194.87695217 569.7573638 C-195 572 -195 572 -196 573 C-235.93 573 -275.86 573 -317 573 C-317 386.22 -317 199.44 -317 7 C-279.05 7 -241.1 7 -202 7 C-201.67 15.91 -201.34 24.82 -201 34 C-200.505 38.455 -200.505 38.455 -200 43 C-198.90945313 42.24976563 -197.81890625 41.49953125 -196.6953125 40.7265625 C-166.26603382 19.98335773 -133.40952091 6.23297525 -97 0 C-96.16742676 -0.14953125 -95.33485352 -0.2990625 -94.47705078 -0.453125 C-64.02996856 -5.70008736 -30.4184494 -5.05960208 0 0 Z " fill="#FFFFFF" transform="translate(1514,238)"/>
<path d="M0 0 C1.00243744 -0.00067474 2.00487488 -0.00134949 3.03768921 -0.00204468 C19.04761192 0.0150468 34.67464985 0.61771676 50.5 3.25 C51.47453125 3.4056543 52.4490625 3.56130859 53.453125 3.72167969 C105.84002556 12.40085865 155.09621433 39.02444207 186.51171875 82.48071289 C208.36338742 113.40724181 219.71252094 148.93154249 224.5 186.25 C224.62559057 187.21207353 224.62559057 187.21207353 224.75371832 188.19358289 C225.6684295 196.08102802 225.63665561 203.95175958 225.62025452 211.8788147 C225.62069115 213.45486957 225.62156774 215.03092436 225.62284368 216.60697877 C225.62507059 220.91699269 225.62109214 225.22698158 225.61606562 229.53699231 C225.61173532 234.19262008 225.61320937 238.84824651 225.6139679 243.50387573 C225.6144915 251.56317096 225.61136181 259.62245807 225.60573006 267.68175125 C225.59759287 279.33404588 225.59499756 290.98633661 225.59374207 302.63863377 C225.59155504 321.54506146 225.5849044 340.45148482 225.57543945 359.35791016 C225.56625632 377.72054015 225.55917989 396.08316896 225.55493164 414.44580078 C225.55453756 416.14444741 225.55453756 416.14444741 225.55413551 417.87741013 C225.55283044 423.55865085 225.55156674 429.23989159 225.55032361 434.92113233 C225.53996186 482.03075872 225.52152939 529.14037712 225.5 576.25 C185.9 576.25 146.3 576.25 105.5 576.25 C105.47812622 560.26208008 105.47812622 560.26208008 105.45581055 543.95117188 C105.4069619 509.77364676 105.34352769 475.59616246 105.27101372 441.41867968 C105.25974674 436.10203669 105.2486081 430.78539343 105.23754883 425.46875 C105.2342433 423.88120489 105.2342433 423.88120489 105.230871 422.26158816 C105.1955835 405.16738032 105.17067125 388.07317252 105.14965298 370.97894186 C105.12782261 353.41388426 105.0947041 335.84887356 105.05129844 318.28385592 C105.02490585 307.46190077 105.00711946 296.64000396 105.00065396 285.81801826 C104.99536189 278.37783714 104.97901848 270.93772917 104.95433434 263.49758738 C104.94044883 259.21721539 104.93109919 254.93697393 104.93499184 250.65657806 C104.96221227 212.79686988 103.39673961 171.83548644 75.92578125 142.65625 C60.19530111 127.05242428 40.27668823 119.18082189 18.5 116.25 C17.72785156 116.13914062 16.95570312 116.02828125 16.16015625 115.9140625 C-22.40695091 111.40542754 -63.50876015 120.85722452 -94.22265625 145.1328125 C-120.84305936 166.93759042 -137.07477572 196.51305035 -142.875 230.375 C-143.0306543 231.27863281 -143.18630859 232.18226563 -143.34667969 233.11328125 C-146.24119747 251.89784057 -145.66588961 271.13840264 -145.70060861 290.08628857 C-145.7087259 293.93808057 -145.72238329 297.7898538 -145.73532104 301.64163208 C-145.75692576 308.29294422 -145.77512742 314.94425841 -145.79092598 321.59558678 C-145.81377227 331.21193908 -145.84189339 340.82827047 -145.87124526 350.44460485 C-145.91874193 366.05168365 -145.96205384 381.65877107 -146.00268555 397.26586914 C-146.04213226 412.41431345 -146.08358 427.56275014 -146.12768555 442.71118164 C-146.13040982 443.6470935 -146.13313409 444.58300536 -146.13594092 445.54727819 C-146.1496219 450.24311867 -146.16334188 454.93895905 -146.17708123 459.63479936 C-146.29076393 498.50651786 -146.39685497 537.37825184 -146.5 576.25 C-186.1 576.25 -225.7 576.25 -266.5 576.25 C-266.5 389.47 -266.5 202.69 -266.5 10.25 C-228.88 10.25 -191.26 10.25 -152.5 10.25 C-150.9725361 13.3049278 -151.26008168 16.5263314 -151.18359375 19.8828125 C-151.16281265 20.63464813 -151.14203156 21.38648376 -151.12062073 22.16110229 C-151.05517295 24.56564085 -150.99626262 26.97028967 -150.9375 29.375 C-150.89431023 31.00391771 -150.85069579 32.63282422 -150.80664062 34.26171875 C-150.69949649 38.25769915 -150.59821567 42.25379059 -150.5 46.25 C-143.08463184 41.55820695 -143.08463184 41.55820695 -135.734375 36.765625 C-104.93178246 16.55593767 -68.89096587 5.6012574 -32.5 1.25 C-31.74944336 1.15428711 -30.99888672 1.05857422 -30.22558594 0.95996094 C-20.19621837 -0.14735744 -10.07720784 0.00608708 0 0 Z " fill="#FFFFFF" transform="translate(4668.5,234.75)"/>
<path d="M0 0 C39.6 0 79.2 0 120 0 C120 200.97 120 401.94 120 609 C249.69 609 379.38 609 513 609 C513 647.28 513 685.56 513 725 C343.71 725 174.42 725 0 725 C0 485.75 0 246.5 0 0 Z " fill="#FFFFFF" transform="translate(85,86)"/>
<path d="M0 0 C14.85431161 12.59079746 24.68438584 29.185185 27.125 48.6875 C28.42097872 72.21950873 25.55140901 94.23184628 9.8125 112.81640625 C9.255625 113.43386719 8.69875 114.05132812 8.125 114.6875 C7.63 115.27402344 7.135 115.86054688 6.625 116.46484375 C-6.5836167 131.02734366 -25.86590648 136.99685566 -44.875 138.6875 C-66.45996209 139.57650546 -86.83495542 133.19560991 -103.3125 119.08203125 C-118.27701282 105.09842399 -125.83556215 85.22889886 -127.1015625 65.08203125 C-127.6037347 43.42014875 -121.23191112 22.98704158 -106.203125 7.0625 C-105.43484375 6.27875 -104.6665625 5.495 -103.875 4.6875 C-103.20984375 3.98625 -102.5446875 3.285 -101.859375 2.5625 C-75.19580659 -23.49045234 -28.63582224 -20.97271488 0 0 Z " fill="#FFFFFF" transform="translate(4293.875,15.3125)"/>
</svg>
