<?xml version="1.0" encoding="UTF-8"?>
<svg version="1.1" xmlns="http://www.w3.org/2000/svg" width="400" height="400">
<path d="M0 0 C132 0 264 0 400 0 C400 132 400 264 400 400 C268 400 136 400 0 400 C0 268 0 136 0 0 Z " fill="#EFA0AC" transform="translate(0,0)"/>
<path d="M0 0 C2.52798423 0.92724706 5.02623602 1.90772378 7.52099609 2.92089844 C8.32529053 3.24711182 9.12958496 3.5733252 9.95825195 3.90942383 C15.4322538 6.28309602 19.41132323 9.15931912 23.77099609 13.23339844 C23.12778767 17.03040303 22.02431345 20.35382635 20.58349609 23.92089844 C10.57822515 49.59156502 3.5969366 76.34062553 -2.22900391 103.23339844 C-2.46248535 104.30203125 -2.6959668 105.37066406 -2.93652344 106.47167969 C-5.44593013 118.00902135 -7.84475457 129.4982697 -9.22900391 141.23339844 C-7.90900391 137.93339844 -6.58900391 134.63339844 -5.22900391 131.23339844 C-4.56900391 131.23339844 -3.90900391 131.23339844 -3.22900391 131.23339844 C-3.09558594 129.98623047 -3.09558594 129.98623047 -2.95947266 128.71386719 C-2.08781648 124.56068189 -0.49416294 121.28444936 1.45849609 117.54589844 C1.82007813 116.84037842 2.18166016 116.1348584 2.55419922 115.40795898 C3.61661979 113.34446559 4.69142019 111.28795824 5.77099609 109.23339844 C6.55410156 107.73292969 6.55410156 107.73292969 7.35302734 106.20214844 C10.60252764 100.11493026 14.19233682 94.26999652 17.83740234 88.41308594 C19.54930845 85.59795145 21.15329711 82.76201094 22.70849609 79.85839844 C27.93305823 70.13333034 33.5836265 60.66061291 40.02490234 51.69042969 C42.00111148 48.90958954 43.88783564 46.07801894 45.77099609 43.23339844 C51.29248047 34.94042969 51.29248047 34.94042969 53.64599609 31.48339844 C54.20029297 30.66355469 54.75458984 29.84371094 55.32568359 28.99902344 C55.80263672 28.41636719 56.27958984 27.83371094 56.77099609 27.23339844 C57.43099609 27.23339844 58.09099609 27.23339844 58.77099609 27.23339844 C58.99658203 26.71132812 59.22216797 26.18925781 59.45458984 25.65136719 C61.24839519 22.35651405 63.51611098 19.4813583 65.83349609 16.54589844 C66.32011719 15.92811523 66.80673828 15.31033203 67.30810547 14.67382812 C80.11179233 -1.34330036 80.11179233 -1.34330036 86.81005859 -2.11816406 C92.00277148 -1.65727239 96.31888834 -0.03796532 101.14599609 1.85839844 C102.04060547 2.1896875 102.93521484 2.52097656 103.85693359 2.86230469 C110.07581983 5.25766058 115.38346448 8.32014086 120.77099609 12.23339844 C120.05276009 16.15989206 118.92957996 19.21442388 117.14599609 22.79589844 C106.31348061 45.9121755 101.19129199 70.83403496 96.68676758 95.81054688 C96.56561584 96.48089462 96.44446411 97.15124237 96.31964111 97.84190369 C95.99024996 99.67281506 95.6650334 101.50447604 95.34008789 103.33618164 C94.77099609 106.23339844 94.77099609 106.23339844 93.77099609 109.23339844 C93.42282644 111.80663553 93.11207344 114.37131706 92.83349609 116.95214844 C92.74872513 117.71716171 92.66395416 118.48217499 92.57661438 119.27037048 C92.30323092 121.75754838 92.03613897 124.24532912 91.77099609 126.73339844 C91.68006683 127.58394806 91.58913757 128.43449768 91.49545288 129.31082153 C91.22354688 131.86933759 90.95525394 134.42819824 90.68896484 136.98730469 C90.60714966 137.76928223 90.52533447 138.55125977 90.44104004 139.35693359 C89.55925282 147.97753388 88.9971181 156.5709143 88.77099609 165.23339844 C88.72505989 166.80794636 88.67899827 168.38249063 88.6328125 169.95703125 C88.58740722 171.57518635 88.54233144 173.19335072 88.49755859 174.81152344 C88.47367569 175.67066849 88.44979279 176.52981354 88.42518616 177.41499329 C88.18817533 186.02066954 87.9760538 194.62690888 87.77099609 203.23339844 C78.44266124 203.45044328 69.64197783 202.78938555 61.77099609 197.23339844 C60.91513916 196.91371094 60.05928223 196.59402344 59.17749023 196.26464844 C56.77099609 194.23339844 56.77099609 194.23339844 56.30490112 192.27050781 C56.12082239 189.57962879 56.10558357 186.93048212 56.14208984 184.23339844 C56.13818237 183.22136353 56.1342749 182.20932861 56.13024902 181.16662598 C56.12810446 177.8547829 56.16611123 174.54495028 56.20849609 171.23339844 C56.21487091 170.11280029 56.22124573 168.99220215 56.22781372 167.83764648 C56.52144762 117.73249538 56.52144762 117.73249538 61.77099609 107.23339844 C62.07524172 105.22071086 62.34364675 103.20256525 62.59521484 101.18261719 C63.76884596 92.68110645 65.63120986 84.39753966 67.58349609 76.04589844 C67.94187403 74.4920763 68.30002656 72.93820216 68.65795898 71.38427734 C70.70475118 62.54542132 72.81431954 53.7268922 75.3112793 45.00219727 C76.68342956 40.09817733 77.3340188 35.28891203 77.77099609 30.23339844 C75.68254208 31.9566748 73.60031025 33.68665248 71.52099609 35.42089844 C70.93447266 35.90365234 70.34794922 36.38640625 69.74365234 36.88378906 C66.30443971 39.76268054 63.57597008 42.7143141 60.77099609 46.23339844 C60.11099609 46.23339844 59.45099609 46.23339844 58.77099609 46.23339844 C58.43068359 47.28527344 58.43068359 47.28527344 58.08349609 48.35839844 C56.48955852 51.84988075 54.25116831 54.31919608 51.77099609 57.23339844 C50.49247323 59.44927192 50.49247323 59.44927192 49.77099609 61.23339844 C49.11099609 61.23339844 48.45099609 61.23339844 47.77099609 61.23339844 C47.38427734 62.29880859 47.38427734 62.29880859 46.98974609 63.38574219 C45.68438701 66.4357639 44.09055094 69.02416129 42.27099609 71.79589844 C40.25175446 74.8803756 38.34180199 77.89543591 36.77099609 81.23339844 C36.11099609 81.23339844 35.45099609 81.23339844 34.77099609 81.23339844 C34.63371094 82.26013672 34.63371094 82.26013672 34.49365234 83.30761719 C33.60891089 86.88962446 31.99409464 89.85300611 30.20849609 93.04589844 C29.47649054 94.39011478 28.74607027 95.73519539 28.01708984 97.08105469 C27.64310059 97.7695752 27.26911133 98.4580957 26.88378906 99.16748047 C20.40403472 111.19724818 14.84411455 123.5506023 9.77099609 136.23339844 C9.46806641 136.98427734 9.16513672 137.73515625 8.85302734 138.50878906 C1.31783492 157.37967489 -4.01735095 177.17291996 -7.22900391 197.23339844 C-7.56233724 199.23339844 -7.89567057 201.23339844 -8.22900391 203.23339844 C-19.51852039 204.38800808 -28.38606515 200.93893077 -38.41479492 196.20068359 C-41.39048473 192.9739162 -40.77879123 189.38174759 -40.72509766 185.15136719 C-40.72786713 184.2381369 -40.7306366 183.32490662 -40.73348999 182.38400269 C-40.73415252 179.395721 -40.70253529 176.4089487 -40.66650391 173.42089844 C-40.65968597 172.4013205 -40.65286804 171.38174255 -40.64584351 170.33126831 C-40.37957941 132.00166601 -35.19946376 93.61145113 -24.20556641 56.83105469 C-22.73748663 51.42264878 -21.63355626 45.94537381 -20.53540039 40.45141602 C-19.32242179 34.42023421 -19.32242179 34.42023421 -18.22900391 32.23339844 C-28.80863786 40.62618068 -36.61873655 51.35501424 -44.06835938 62.50195312 C-45.2790343 64.30803359 -46.50499243 66.10306636 -47.73291016 67.89746094 C-54.58920848 77.9744789 -60.8443841 88.28302482 -66.22900391 99.23339844 C-66.88900391 99.23339844 -67.54900391 99.23339844 -68.22900391 99.23339844 C-68.31150391 99.91402344 -68.39400391 100.59464844 -68.47900391 101.29589844 C-69.24405735 104.29235776 -70.46025396 106.5794123 -72.09619141 109.19433594 C-73.33091399 111.41683658 -74.29933898 113.70910325 -75.28271484 116.05126953 C-76.42382044 118.68264254 -77.64188543 121.27227301 -78.86572266 123.86621094 C-91.10260281 149.85201108 -101.25063957 175.65199148 -105.22900391 204.23339844 C-112.7346017 203.30717573 -119.38269693 201.21400226 -125.22900391 196.23339844 C-128.47799107 189.82623431 -127.64300894 184.08603987 -125.72900391 177.42089844 C-120.92309841 162.80011553 -114.34651713 148.85308741 -107.22900391 135.23339844 C-106.66947021 134.1614624 -106.66947021 134.1614624 -106.09863281 133.06787109 C-101.56537398 124.40689066 -96.92239047 115.80856952 -92.22900391 107.23339844 C-91.62942871 106.13761475 -91.02985352 105.04183105 -90.41210938 103.9128418 C-74.3977852 74.68374362 -74.3977852 74.68374362 -67.31347656 63.02001953 C-66.50638039 61.69036401 -65.71101585 60.35357337 -64.921875 59.01318359 C-64.48053223 58.2776123 -64.03918945 57.54204102 -63.58447266 56.78417969 C-63.18252686 56.10653564 -62.78058105 55.4288916 -62.36645508 54.73071289 C-61.99109619 54.23659912 -61.6157373 53.74248535 -61.22900391 53.23339844 C-60.56900391 53.23339844 -59.90900391 53.23339844 -59.22900391 53.23339844 C-59.04337891 52.44964844 -58.85775391 51.66589844 -58.66650391 50.85839844 C-56.63026525 45.72353574 -53.50102226 41.65656665 -50.22900391 37.23339844 C-49.54451172 36.29109375 -48.86001953 35.34878906 -48.15478516 34.37792969 C-40.67490254 24.21227235 -32.75255542 13.57428669 -23.22900391 5.23339844 C-22.48263672 4.57082031 -21.73626953 3.90824219 -20.96728516 3.22558594 C-13.67431431 -2.61337031 -8.73390514 -3.0037746 0 0 Z " fill="#FDFCFC" transform="translate(202.22900390625,98.7666015625)"/>
<path d="M0 0 C0.33 0 0.66 0 1 0 C1 62.37 1 124.74 1 189 C-61.04 189 -123.08 189 -187 189 C-187 188.67 -187 188.34 -187 188 C-185.35644531 187.90525391 -185.35644531 187.90525391 -183.6796875 187.80859375 C-152.23771121 185.5549923 -121.90728589 176.03065407 -95.3125 159.0625 C-92 157 -92 157 -90.10546875 156.68359375 C-86.93429204 155.65399092 -85.32211628 153.37429867 -83 151 C-79.49692794 148.16315637 -75.85364614 145.50763642 -72.23828125 142.81640625 C-68.17651092 139.76109228 -64.52026466 136.66315363 -61 133 C-60.21625 132.4225 -59.4325 131.845 -58.625 131.25 C-55.56895636 128.63053402 -53.36361534 125.7503411 -50.9453125 122.546875 C-48.90116619 119.87060312 -46.77493113 117.27940303 -44.625 114.6875 C-35.31107182 103.50583918 -35.31107182 103.50583918 -28 91 C-27.34 91 -26.68 91 -26 91 C-25.89429688 90.27554688 -25.78859375 89.55109375 -25.6796875 88.8046875 C-24.9403917 85.75403013 -23.81565924 83.75771813 -22.125 81.125 C-19.63453198 77.23286153 -17.71612179 73.27976318 -16 69 C-15.70673828 68.27361328 -15.41347656 67.54722656 -15.11132812 66.79882812 C-6.53561991 45.15537405 -1.43085409 23.23904401 0 0 Z " fill="#FEFEFD" transform="translate(399,211)"/>
<path d="M0 0 C62.04 0 124.08 0 188 0 C188 62.04 188 124.08 188 188 C187.67 188 187.34 188 187 188 C186.94054199 187.37359619 186.88108398 186.74719238 186.81982422 186.10180664 C183.44167016 151.80701061 174.61760857 118.21538728 154 90 C153.29686933 88.8006948 152.60921973 87.59217636 151.9375 86.375 C150.15886706 83.27673616 148.25052654 80.75992216 146 78 C145.43023437 77.25363281 144.86046875 76.50726563 144.2734375 75.73828125 C132.76211699 61.02937171 117.95132282 44.47566141 101 36 C101 35.34 101 34.68 101 34 C100.3503125 33.76796875 99.700625 33.5359375 99.03125 33.296875 C95.00923434 31.57611572 91.29734958 29.41392642 87.5 27.25 C80.14487899 23.12643983 72.79288011 19.24703338 65 16 C64.34580078 15.72591309 63.69160156 15.45182617 63.01757812 15.16943359 C42.87209879 6.86797919 21.70388425 2.42079603 0 1 C0 0.67 0 0.34 0 0 Z " fill="#FEFDFD" transform="translate(212,0)"/>
<path d="M0 0 C0.33 0 0.66 0 1 0 C1.04487549 0.55236328 1.08975098 1.10472656 1.13598633 1.67382812 C4.3010325 39.73321268 15.926607 77.65239552 40 108 C40.94505758 109.22054407 41.88898934 110.44196037 42.83203125 111.6640625 C47.55859239 117.9597126 47.55859239 117.9597126 52.82421875 123.78125 C54 125 54 125 54 127 C54.54527344 127.2165625 55.09054688 127.433125 55.65234375 127.65625 C58.78859824 129.45137736 61.08601348 131.9132246 63.5625 134.5 C66.24911113 137.28371756 68.75839833 139.83893222 72 142 C72 142.66 72 143.32 72 144 C73.09054688 144.37705078 73.09054688 144.37705078 74.203125 144.76171875 C77.21698063 146.09606545 79.24994921 147.67601869 81.75 149.8125 C85.64763798 153.0236883 89.50073451 155.59908388 93.9921875 157.89453125 C96 159 96 159 97.7890625 160.39453125 C100.8325458 162.60455181 104.13717859 164.21659515 107.5 165.875 C108.21269043 166.22796143 108.92538086 166.58092285 109.65966797 166.94458008 C120.14518764 172.08617829 130.93309654 176.27838645 142 180 C143.0415625 180.350625 144.083125 180.70125 145.15625 181.0625 C156.51598851 184.59173915 168.26666597 186.20110087 180 188 C180 188.33 180 188.66 180 189 C120.6 189 61.2 189 0 189 C0 126.63 0 64.26 0 0 Z " fill="#FEFDFD" transform="translate(0,211)"/>
<path d="M0 0 C63.36 0 126.72 0 192 0 C192 0.33 192 0.66 192 1 C191.37246826 1.03963867 190.74493652 1.07927734 190.09838867 1.12011719 C150.23879864 3.74862098 110.95455444 15.70953842 79.36987305 41.09960938 C77.82796936 42.33605506 76.27683889 43.56111058 74.71533203 44.77270508 C68.56744625 49.57758176 62.93378126 54.71600744 57.4375 60.25 C56.60758545 61.08337891 55.7776709 61.91675781 54.92260742 62.77539062 C48.96941381 68.83477602 43.80445798 74.98671283 39 82 C37.60541716 83.85510739 36.20958544 85.70927659 34.8125 87.5625 C31.02251131 92.82678685 27.89923386 98.20153228 25 104 C24.62584961 104.74572266 24.25169922 105.49144531 23.86621094 106.25976562 C10.79998407 132.47394712 3.8915503 157.83243157 1 187 C0.67 187 0.34 187 0 187 C0 125.29 0 63.58 0 0 Z " fill="#FEFDFE" transform="translate(0,0)"/>
<path d="M0 0 C-3 2 -3 2 -5 2 C-5 2.66 -5 3.32 -5 4 C-6.32 4 -7.64 4 -9 4 C-9 3.34 -9 2.68 -9 2 C-10.32 2.33 -11.64 2.66 -13 3 C-13 4.32 -13 5.64 -13 7 C-16.37462715 6.45276317 -18.08235 5.9451 -21 4 C-25.01736919 4.31716073 -27.62091462 5.92056285 -31 8 C-32.33106622 8.34227417 -33.66400079 8.67751743 -35 9 C-35.66 9.66 -36.32 10.32 -37 11 C-37.33 10.34 -37.66 9.68 -38 9 C-37.67 8.34 -37.34 7.68 -37 7 C-38.8871875 7.4640625 -38.8871875 7.4640625 -40.8125 7.9375 C-41.52019531 8.11152344 -42.22789062 8.28554687 -42.95703125 8.46484375 C-44.65683202 8.91010705 -46.33301954 9.44433985 -48 10 C-50.1875 9.5625 -50.1875 9.5625 -52 9 C-52.33 10.98 -52.66 12.96 -53 15 C-54.0725 14.835 -55.145 14.67 -56.25 14.5 C-60.03028752 13.91189085 -60.03028752 13.91189085 -64 14 C-65.1446875 14.928125 -65.1446875 14.928125 -66.3125 15.875 C-69.46007594 18.36378098 -72.15177768 18.96922616 -76 20 C-77.68029994 20.97691857 -79.34928604 21.97388051 -81 23 C-82.32395229 23.36883494 -83.65906015 23.6987207 -85 24 C-85.70640625 24.17660156 -86.4128125 24.35320313 -87.140625 24.53515625 C-87.83671875 24.70917969 -88.5328125 24.88320313 -89.25 25.0625 C-90.4875 25.371875 -91.725 25.68125 -93 26 C-93 27.65 -93 29.3 -93 31 C-94.485 30.505 -94.485 30.505 -96 30 C-98.62843884 31.00499132 -99.72403685 31.44807371 -101 34 C-101.33 34.33 -101.66 34.66 -102 35 C-101.67 35.99 -101.34 36.98 -101 38 C-102.32 38.99 -103.64 39.98 -105 41 C-105 40.34 -105 39.68 -105 39 C-110.7083955 39.61586525 -110.7083955 39.61586525 -115.53515625 42.3984375 C-116.6955302 43.92819094 -117.84796667 45.46395556 -119 47 C-121.6875 48.1875 -121.6875 48.1875 -124 49 C-126.30671915 51.71549154 -126.30671915 51.71549154 -125.625 54.1875 C-125.41875 54.785625 -125.2125 55.38375 -125 56 C-126.98 56 -128.96 56 -131 56 C-131.37125 56.8971875 -131.37125 56.8971875 -131.75 57.8125 C-133.19192497 60.33586869 -134.52549626 61.50030076 -137 63 C-137.99 63 -138.98 63 -140 63 C-141.87543354 66.86763446 -141.87543354 66.86763446 -141 71 C-141.9075 71.185625 -142.815 71.37125 -143.75 71.5625 C-147.66541446 73.29431793 -148.18246366 74.65901652 -149.99609375 78.32421875 C-151.46194266 80.77110272 -153.52219222 81.69589064 -156 83 C-158.33391203 85.78114056 -158.33391203 85.78114056 -157.625 88.6875 C-157.41875 89.450625 -157.2125 90.21375 -157 91 C-157.99 91.33 -158.98 91.66 -160 92 C-159.34 93.32 -158.68 94.64 -158 96 C-158.928125 95.896875 -159.85625 95.79375 -160.8125 95.6875 C-161.864375 95.790625 -162.91625 95.89375 -164 96 C-165.9354148 98.39056942 -165.9354148 98.39056942 -167 101 C-166.34 101 -165.68 101 -165 101 C-165 101.66 -165 102.32 -165 103 C-165.5775 103.185625 -166.155 103.37125 -166.75 103.5625 C-170.55040581 105.99053705 -172.44263814 109.85690439 -173.5546875 114.1328125 C-173.70164063 114.83148438 -173.84859375 115.53015625 -174 116.25 C-175 120 -175 120 -176.9375 121.4375 C-180.35519572 124.02666342 -180.88284531 127.98627057 -182 132 C-183.35221377 136.77251918 -184.83043857 141.28638702 -186.79296875 145.83984375 C-188.67827946 150.45133146 -189.09883714 153.9593058 -189 159 C-189.66 159.99 -190.32 160.98 -191 162 C-191 162.99 -191 163.98 -191 165 C-191.16242188 165.60714844 -191.32484375 166.21429688 -191.4921875 166.83984375 C-192.10881094 169.46286498 -192.13232727 171.86972709 -192.125 174.5625 C-192.12757813 175.51253906 -192.13015625 176.46257812 -192.1328125 177.44140625 C-192.10770994 180.1212438 -192.10770994 180.1212438 -191 183 C-193.475 184.98 -193.475 184.98 -196 187 C-198.03568398 153.44891216 -182.38226294 114.78619307 -163 88 C-162.27425781 86.9378125 -161.54851562 85.875625 -160.80078125 84.78125 C-155.15429337 76.57249982 -148.9417319 69.14760346 -142 62 C-141.41524902 61.38946777 -140.83049805 60.77893555 -140.22802734 60.14990234 C-133.45071872 53.08983769 -126.78626282 46.3184904 -118.66015625 40.80859375 C-116.45275728 39.30782176 -114.35603658 37.74725194 -112.2421875 36.12109375 C-108.03088766 32.94745346 -103.63442213 30.2446728 -99.0625 27.625 C-97.82632935 26.91500854 -97.82632935 26.91500854 -96.56518555 26.19067383 C-88.57875691 21.66556627 -80.4345273 17.61914944 -72 14 C-71.35530762 13.72317383 -70.71061523 13.44634766 -70.04638672 13.16113281 C-48.12203262 3.94211707 -23.74194653 -0.27341973 0 0 Z " fill="#AA86E8" transform="translate(197,0)"/>
<path d="M0 0 C0.99 0 1.98 0 3 0 C3 3.63 3 7.26 3 11 C1.68 11.33 0.36 11.66 -1 12 C-1.09087891 13.60681641 -1.09087891 13.60681641 -1.18359375 15.24609375 C-1.26798537 16.64324391 -1.35263406 18.04037857 -1.4375 19.4375 C-1.47681641 20.14455078 -1.51613281 20.85160156 -1.55664062 21.58007812 C-1.88671875 26.88671875 -1.88671875 26.88671875 -3 28 C-3.0979057 29.49738124 -3.12974864 30.99942892 -3.125 32.5 C-3.12757813 33.3146875 -3.13015625 34.129375 -3.1328125 34.96875 C-3.2245178 36.99530377 -3.2245178 36.99530377 -2 38 C-1.76760231 40.78877225 -1.82792884 42.62359434 -3 45.1875 C-4.2981829 48.8386394 -4.10338333 52.04838559 -3.97265625 55.890625 C-4 58 -4 58 -5 59 C-6.13861853 65.73331206 -6.10235981 72.62691859 -6.125 79.4375 C-6.12959229 80.21859131 -6.13418457 80.99968262 -6.13891602 81.80444336 C-6.12922301 85.38426468 -5.90370245 88.55108509 -5 92 C-4.98183912 93.37503789 -5.00242693 94.75115494 -5.0625 96.125 C-5.44913022 100.01461069 -5.44913022 100.01461069 -3 102 C-3.1875 104.0625 -3.1875 104.0625 -4 106 C-8.63190197 107.54396732 -13.06332146 106.68348455 -17.875 106.25 C-18.86886719 106.17523438 -19.86273438 106.10046875 -20.88671875 106.0234375 C-25.99297396 105.57228242 -29.80580857 105.1879075 -34 102 C-35.22776579 101.33075692 -36.45676512 100.66376713 -37.6875 100 C-41 98 -41 98 -43 95 C-43.20927429 92.69203186 -43.20927429 92.69203186 -43.15112305 89.94946289 C-43.13417892 88.92152115 -43.1172348 87.89357941 -43.09977722 86.83448792 C-43.05618828 85.17038124 -43.05618828 85.17038124 -43.01171875 83.47265625 C-42.98906448 82.33219345 -42.96641022 81.19173065 -42.94306946 80.01670837 C-42.89308264 77.60323741 -42.83811332 75.1898653 -42.77856445 72.77661133 C-42.68795471 69.08104573 -42.6131669 65.38542051 -42.54101562 61.68945312 C-42.49051689 59.34633386 -42.43911469 57.00323386 -42.38671875 54.66015625 C-42.36373215 53.55277603 -42.34074554 52.44539581 -42.31706238 51.30445862 C-42.29066177 50.27336472 -42.26426117 49.24227081 -42.23706055 48.17993164 C-42.21548386 47.27408829 -42.19390717 46.36824493 -42.17167664 45.43495178 C-42.0118625 43.16825006 -41.63030208 41.17762163 -41 39 C-41.66 39 -42.32 39 -43 39 C-42.67 38.505 -42.34 38.01 -42 37.5 C-40.56363642 33.90909106 -40.87148538 30.85543873 -41 27 C-40.67 27 -40.34 27 -40 27 C-39.87882812 26.02160156 -39.75765625 25.04320312 -39.6328125 24.03515625 C-38.73279307 16.9373169 -37.70876554 9.95711683 -36 3 C-35.67 3 -35.34 3 -35 3 C-35.31726833 10.14400763 -35.71023631 17.23532795 -36.734375 24.31640625 C-40.05651139 48.10195251 -39.28180946 72.03810173 -39 96 C-37.74267096 96.63377254 -36.48473947 97.26634996 -35.2265625 97.8984375 C-34.52611816 98.25083496 -33.82567383 98.60323242 -33.10400391 98.96630859 C-27.25101373 101.84186678 -22.18068063 103.20889706 -15.7265625 104.0859375 C-13.83671631 104.34576416 -13.83671631 104.34576416 -11.90869141 104.61083984 C-10.94882324 104.7392627 -9.98895508 104.86768555 -9 105 C-9.00523682 103.9483667 -9.01047363 102.8967334 -9.01586914 101.81323242 C-9.05391743 93.40147475 -9.07005805 84.98995751 -9.05078125 76.578125 C-9.04965836 75.76590988 -9.04853546 74.95369476 -9.04737854 74.11686707 C-9.00225395 58.89648834 -7.65252185 43.93788272 -6.0625 28.8125 C-5.97713989 27.99192108 -5.89177979 27.17134216 -5.80383301 26.32589722 C-5.55434458 23.9521582 -5.29621824 21.57952252 -5.03515625 19.20703125 C-4.9611409 18.49936615 -4.88712555 17.79170105 -4.81086731 17.06259155 C-4.26628442 12.23879593 -3.25788294 7.68972644 -2 3 C-1.34 3 -0.68 3 0 3 C0 2.01 0 1.02 0 0 Z " fill="#F2C394" transform="translate(299,197)"/>
<path d="M0 0 C3.01439114 0.32044207 5.90506391 0.625 8.9375 0.625 C9.4325 2.11 9.4325 2.11 9.9375 3.625 C10.9275 3.625 11.9175 3.625 12.9375 3.625 C12.9375 2.965 12.9375 2.305 12.9375 1.625 C15.9075 1.625 18.8775 1.625 21.9375 1.625 C21.9375 3.935 21.9375 6.245 21.9375 8.625 C24.5775 8.625 27.2175 8.625 29.9375 8.625 C29.6075 9.945 29.2775 11.265 28.9375 12.625 C25.15316265 11.86067571 21.82897606 10.31720995 18.3125 8.75 C7.04745095 3.66885211 7.04745095 3.66885211 -5.0625 2.625 C-21.83406509 11.61064144 -33.27445154 29.54625044 -44.0625 44.625 C-44.5678125 45.30433594 -45.073125 45.98367187 -45.59375 46.68359375 C-47.9551268 49.87557112 -49.80305206 52.84665618 -51.0625 56.625 C-51.7225 56.625 -52.3825 56.625 -53.0625 56.625 C-53.31644531 57.32367188 -53.57039063 58.02234375 -53.83203125 58.7421875 C-55.20828101 61.96654407 -56.90061381 64.76984626 -58.75 67.75 C-63.95761021 76.25900108 -68.75764788 84.99261541 -73.5690918 93.72900391 C-75.39121122 97.03278588 -77.22333112 100.3306807 -79.0625 103.625 C-79.38279175 104.20187561 -79.7030835 104.77875122 -80.03308105 105.37310791 C-80.98002868 107.07232851 -81.93903994 108.76480881 -82.8984375 110.45703125 C-83.45837402 111.45065674 -84.01831055 112.44428223 -84.59521484 113.46801758 C-85.321521 114.53572388 -85.321521 114.53572388 -86.0625 115.625 C-86.7225 115.625 -87.3825 115.625 -88.0625 115.625 C-88.45503254 111.17629785 -87.21555957 108.48256507 -85.0625 104.625 C-84.0725 104.625 -83.0825 104.625 -82.0625 104.625 C-81.4025 101.985 -80.7425 99.345 -80.0625 96.625 C-79.0725 96.625 -78.0825 96.625 -77.0625 96.625 C-77.124375 95.84125 -77.18625 95.0575 -77.25 94.25 C-77.188125 93.38375 -77.12625 92.5175 -77.0625 91.625 C-75.5775 90.635 -75.5775 90.635 -74.0625 89.625 C-73.23309388 87.60803198 -73.23309388 87.60803198 -72.6875 85.3125 C-71.36734938 80.93774555 -69.49678215 78.69777876 -66.0625 75.625 C-64.81030561 72.80386478 -64.81030561 72.80386478 -65.625 70.625 C-65.769375 69.965 -65.91375 69.305 -66.0625 68.625 C-64.0625 65.625 -64.0625 65.625 -61.625 64.8125 C-58.80059609 63.77874409 -58.80059609 63.77874409 -57.1875 60.75 C-56.07670331 57.66445364 -55.81458421 56.57461915 -57.0625 53.625 C-55.4125 52.965 -53.7625 52.305 -52.0625 51.625 C-52.0625 50.635 -52.0625 49.645 -52.0625 48.625 C-51.0725 48.295 -50.0825 47.965 -49.0625 47.625 C-49.0625 45.315 -49.0625 43.005 -49.0625 40.625 C-47.4125 40.625 -45.7625 40.625 -44.0625 40.625 C-42.7425 37.655 -41.4225 34.685 -40.0625 31.625 C-39.4025 31.625 -38.7425 31.625 -38.0625 31.625 C-38.0625 30.965 -38.0625 30.305 -38.0625 29.625 C-36.7425 29.295 -35.4225 28.965 -34.0625 28.625 C-34.0625 26.975 -34.0625 25.325 -34.0625 23.625 C-33.0725 23.625 -32.0825 23.625 -31.0625 23.625 C-30.629375 22.7278125 -30.629375 22.7278125 -30.1875 21.8125 C-29.0625 19.625 -29.0625 19.625 -27.0625 16.625 C-26.67750109 14.96950469 -26.33456865 13.3027567 -26.0625 11.625 C-24.6703125 11.4703125 -24.6703125 11.4703125 -23.25 11.3125 C-20.03335535 10.6187139 -18.90234081 10.28254784 -17.0625 7.625 C-17.0625 6.635 -17.0625 5.645 -17.0625 4.625 C-15.39583333 4.625 -13.72916667 4.625 -12.0625 4.625 C-11.4025 3.635 -10.7425 2.645 -10.0625 1.625 C-6.66202202 -0.73327332 -4.02126013 -0.44846767 0 0 Z " fill="#EC96BF" transform="translate(194.0625,95.375)"/>
<path d="M0 0 C7.00029881 24.05196371 -8.66136442 62.03268465 -20 83 C-21.28868683 85.10114342 -22.60924087 87.16564307 -23.984375 89.2109375 C-25.07090884 91.12490865 -25.56459788 92.85138517 -26 95 C-26.66 95 -27.32 95 -28 95 C-28.23460937 95.86109375 -28.46921875 96.7221875 -28.7109375 97.609375 C-30.1384951 101.36428408 -32.13008736 104.16344735 -34.625 107.25 C-35.07085449 107.81501221 -35.51670898 108.38002441 -35.97607422 108.9621582 C-37.30940426 110.64798053 -38.65359116 112.32461589 -40 114 C-40.7115625 114.89589844 -41.423125 115.79179687 -42.15625 116.71484375 C-43.44746776 118.33655176 -44.74416985 119.95391146 -46.046875 121.56640625 C-47.44776358 123.31191343 -48.83122836 125.07145925 -50.203125 126.83984375 C-50.91984375 127.75894531 -51.6365625 128.67804688 -52.375 129.625 C-53.02210938 130.46289062 -53.66921875 131.30078125 -54.3359375 132.1640625 C-55.15964844 133.07285156 -55.15964844 133.07285156 -56 134 C-56.66 134 -57.32 134 -58 134 C-58.33 134.99 -58.66 135.98 -59 137 C-59.9590625 137.2165625 -59.9590625 137.2165625 -60.9375 137.4375 C-61.618125 137.623125 -62.29875 137.80875 -63 138 C-63.26941406 138.58265625 -63.53882813 139.1653125 -63.81640625 139.765625 C-65.38111584 142.71946621 -67.39424232 144.22863413 -70 146.3125 C-70.97839844 147.09496094 -71.95679688 147.87742187 -72.96484375 148.68359375 C-76.55686772 151.42499686 -80.23733005 153.99720743 -84.00390625 156.4921875 C-86.24822781 158.01529815 -86.24822781 158.01529815 -88 161 C-89.58190824 161.70681007 -91.1692651 162.40383116 -92.78125 163.0390625 C-97.35262515 165.01891864 -101.65475544 167.5720062 -106 170 C-106.33 169.34 -106.66 168.68 -107 168 C-105.700625 167.27683594 -105.700625 167.27683594 -104.375 166.5390625 C-103.26125 165.90742188 -102.1475 165.27578125 -101 164.625 C-99.88625 163.99851562 -98.7725 163.37203125 -97.625 162.7265625 C-96.325625 161.87191406 -96.325625 161.87191406 -95 161 C-95 160.34 -95 159.68 -95 159 C-94.278125 158.938125 -93.55625 158.87625 -92.8125 158.8125 C-89.7647514 158.17737996 -89.7647514 158.17737996 -87.4375 155.4375 C-86.2309375 154.2309375 -86.2309375 154.2309375 -85 153 C-83.68 153 -82.36 153 -81 153 C-80.76539063 152.41476562 -80.53078125 151.82953125 -80.2890625 151.2265625 C-78.70902767 148.49741143 -76.92435104 147.21215139 -74.375 145.375 C-72.88198574 144.29645027 -71.41350645 143.18083049 -70 142 C-70 141.34 -70 140.68 -70 140 C-69.030625 139.566875 -68.06125 139.13375 -67.0625 138.6875 C-63.72268235 137.2985139 -63.72268235 137.2985139 -63 134 C-61 132.66666667 -59 131.33333333 -57 130 C-55.6072711 128.38263741 -54.28062485 126.7074998 -53 125 C-51.84184569 123.65926607 -50.67441407 122.32651441 -49.5 121 C-47.47355903 118.70886332 -45.55719544 116.42555084 -43.6875 114 C-42.8521875 113.01 -42.8521875 113.01 -42 112 C-41.34 112 -40.68 112 -40 112 C-39.896875 111.443125 -39.79375 110.88625 -39.6875 110.3125 C-38.85821592 107.5230899 -37.65700944 105.3860936 -36 103 C-35.34 103 -34.68 103 -34 103 C-34 102.34 -34 101.68 -34 101 C-33.34 101 -32.68 101 -32 101 C-31.67 99.35 -31.34 97.7 -31 96 C-30.34 96 -29.68 96 -29 96 C-28.67 94.02 -28.34 92.04 -28 90 C-27.34 90 -26.68 90 -26 90 C-25.80664062 89.39671875 -25.61328125 88.7934375 -25.4140625 88.171875 C-25.15367187 87.37265625 -24.89328125 86.5734375 -24.625 85.75 C-24.24214844 84.56664062 -24.24214844 84.56664062 -23.8515625 83.359375 C-23.04681737 81.12971419 -22.09792207 79.09765599 -21 77 C-20.67 76.29875 -20.34 75.5975 -20 74.875 C-19 73 -19 73 -17 71 C-14.91765517 66.05443102 -13.54955703 61.27161868 -12.46484375 56.02734375 C-11.89872701 53.55831358 -10.98183302 51.33185342 -10 49 C-7.2735125 41.05379258 -7.2735125 41.05379258 -8 33 C-7.01 32.34 -6.02 31.68 -5 31 C-4.4140447 29.14838456 -4.4140447 29.14838456 -4.3125 27 C-4.24546875 26.19433594 -4.1784375 25.38867188 -4.109375 24.55859375 C-4.00216719 22.05069666 -4.01493046 19.57179321 -4.0625 17.0625 C-4.11880144 11.92298253 -3.53308815 6.92102369 -2 2 C-1.34 1.34 -0.68 0.68 0 0 Z " fill="#F3D5AB" transform="translate(399,207)"/>
<path d="M0 0 C0.99 0 1.98 0 3 0 C4.0064275 1.66279327 5.00585407 3.32983484 6 5 C6.680625 5.33 7.36125 5.66 8.0625 6 C10 7 10 7 10.9375 9.375 C12.66176259 13.63494286 15.71097811 15.42710138 19.8125 17.25 C20.534375 17.4975 21.25625 17.745 22 18 C22 18.99 22 19.98 22 21 C23.65 21.66 25.3 22.32 27 23 C27 23.66 27 24.32 27 25 C27.99 25.33 28.98 25.66 30 26 C30 26.66 30 27.32 30 28 C30.886875 28.268125 31.77375 28.53625 32.6875 28.8125 C35.80707281 29.93083742 38.3080828 31.077202 41 33 C41.33 33.99 41.66 34.98 42 36 C45.46934577 38.60200933 47.71775359 39.23147278 52 39 C52.99 39.495 52.99 39.495 54 40 C54.33 40.99 54.66 41.98 55 43 C58.69713063 45.61504361 62.40550735 46.92329127 66.875 47.5 C67.90625 47.665 68.9375 47.83 70 48 C70.25910156 48.63679688 70.51820312 49.27359375 70.78515625 49.9296875 C71.88596038 52.33035555 71.88596038 52.33035555 75.00390625 52.9765625 C76.17824219 53.19054687 77.35257812 53.40453125 78.5625 53.625 C80.71965971 54.02666172 82.87009085 54.47259393 85 55 C85.33 55.66 85.66 56.32 86 57 C86.86625 57.144375 87.7325 57.28875 88.625 57.4375 C91.76402396 57.96067066 94.12338827 58.91966277 96.9921875 60.23828125 C100.22215585 61.46365835 103.56559363 61.98561582 106.9609375 62.5703125 C109 63 109 63 110 64 C111.66608987 64.04384447 113.33380554 64.0396713 115 64 C115.99 64 116.98 64 118 64 C117.67 64.66 117.34 65.32 117 66 C118.299375 65.87625 119.59875 65.7525 120.9375 65.625 C121.66839844 65.55539062 122.39929688 65.48578125 123.15234375 65.4140625 C124.06693359 65.20910156 124.06693359 65.20910156 125 65 C125.495 64.01 125.495 64.01 126 63 C130.455 64.485 130.455 64.485 135 66 C135 66.99 135 67.98 135 69 C136.65 69 138.3 69 140 69 C140.33 68.34 140.66 67.68 141 67 C141.33 67.99 141.66 68.98 142 70 C133.23460264 70.30483141 125.05049211 69.47334268 116.4375 67.875 C115.21385742 67.65126709 113.99021484 67.42753418 112.72949219 67.19702148 C102.50405227 65.24768788 92.7781904 62.53412379 83 59 C82.27329102 58.74573242 81.54658203 58.49146484 80.79785156 58.22949219 C72.80437043 55.43230693 65.28798589 52.3542065 58 48 C56.12737158 46.99556593 54.25224544 45.99577837 52.375 45 C48.56946988 42.93292932 45.05819842 40.72688419 41.59375 38.13671875 C39.50592976 36.64761166 37.26142412 35.47213876 35.0234375 34.2265625 C28.39016232 30.20561963 22.39070762 25.56703918 17 20 C15.65421875 18.65421875 15.65421875 18.65421875 14.28125 17.28125 C11.52083333 14.52083333 8.76041667 11.76041667 6 9 C4.61748047 7.66388672 4.61748047 7.66388672 3.20703125 6.30078125 C1.06452293 4.06726373 0.33530979 3.01778811 0 0 Z " fill="#F4C298" transform="translate(50,330)"/>
<path d="M0 0 C0.66 0.33 1.32 0.66 2 1 C1.38125 1.99 1.38125 1.99 0.75 3 C-2.2457029 8.13549068 -4.89158366 12.7922945 -6 18.6875 C-6.59966278 21.86409205 -6.90094552 22.88293562 -9.0625 25.4375 C-11.61578407 28.8144241 -11.52817745 31.4868662 -11.79296875 35.625 C-12.1411964 39.61976252 -13.18528221 42.18528221 -16 45 C-17.69962603 49.30864606 -18.46927839 53.48123393 -19.0625 58.0625 C-19.68665737 62.8133177 -20.33518198 67.48846526 -21.5625 72.125 C-22.11361481 74.1660264 -22.11361481 74.1660264 -22 77 C-22.77777778 80.77777778 -22.77777778 80.77777778 -24 82 C-31.55417003 82.3777085 -41.1295933 82.43520335 -48 79 C-48.33 78.34 -48.66 77.68 -49 77 C-49.7425 76.9175 -50.485 76.835 -51.25 76.75 C-54.4535956 75.87629211 -55.91833181 74.49319012 -57.9637146 71.91326904 C-59.97098903 68.20728608 -59.48988561 64.32921677 -59.26953125 60.2265625 C-59.24026047 59.3028183 -59.21098969 58.3790741 -59.18083191 57.42733765 C-59.08226492 54.49175903 -58.94792307 51.55908633 -58.8125 48.625 C-58.73916734 46.62899188 -58.66817786 44.63289621 -58.59960938 42.63671875 C-58.42686208 37.75638138 -58.22203038 32.87833359 -58 28 C-57.67 28 -57.34 28 -57 28 C-57.00636475 29.25135742 -57.01272949 30.50271484 -57.01928711 31.79199219 C-57.03372163 36.43668653 -57.00240043 41.0801431 -56.95727539 45.72460938 C-56.94413889 47.73433217 -56.94339848 49.74417589 -56.95532227 51.75390625 C-56.97031764 54.64444331 -56.94068433 57.53161397 -56.90234375 60.421875 C-56.91659897 61.31992859 -56.93085419 62.21798218 -56.94554138 63.14324951 C-56.88810843 65.61997313 -56.77547048 67.64583819 -56 70 C-53.77437778 72.10960715 -51.91835284 72.80957785 -49 74 C-47.57107422 74.60908203 -47.57107422 74.60908203 -46.11328125 75.23046875 C-39.0512349 77.64358082 -32.45487871 78.7356426 -25 79 C-25.00902344 78.30261719 -25.01804688 77.60523438 -25.02734375 76.88671875 C-24.3737987 53.6148318 -15.28826999 29.05208463 -6.25 7.75 C-5.96833984 7.07557861 -5.68667969 6.40115723 -5.39648438 5.70629883 C-4.578125 3.859375 -4.578125 3.859375 -3 1 C-2.01 0.67 -1.02 0.34 0 0 Z " fill="#F4BAA1" transform="translate(219,223)"/>
<path d="M0 0 C0 3.33057572 -0.37280012 3.84595178 -2.3125 6.375 C-4.39542576 9.16400229 -6.24416713 11.9900008 -8 15 C-8.66 15.99 -9.32 16.98 -10 18 C-9.6878236 20.64632287 -9.6878236 20.64632287 -9 23 C-9.99 23.33 -10.98 23.66 -12 24 C-11.34 25.32 -10.68 26.64 -10 28 C-10.928125 27.896875 -11.85625 27.79375 -12.8125 27.6875 C-13.864375 27.790625 -14.91625 27.89375 -16 28 C-17.9354148 30.39056942 -17.9354148 30.39056942 -19 33 C-18.34 33 -17.68 33 -17 33 C-17 33.66 -17 34.32 -17 35 C-17.5775 35.185625 -18.155 35.37125 -18.75 35.5625 C-22.55040581 37.99053705 -24.44263814 41.85690439 -25.5546875 46.1328125 C-25.70164062 46.83148438 -25.84859375 47.53015625 -26 48.25 C-27 52 -27 52 -28.9375 53.4375 C-32.35519572 56.02666342 -32.88284531 59.98627057 -34 64 C-35.35221377 68.77251918 -36.83043857 73.28638702 -38.79296875 77.83984375 C-40.67827946 82.45133146 -41.09883714 85.9593058 -41 91 C-41.66 91.99 -42.32 92.98 -43 94 C-43 94.99 -43 95.98 -43 97 C-43.16242187 97.60714844 -43.32484375 98.21429688 -43.4921875 98.83984375 C-44.10881094 101.46286498 -44.13232727 103.86972709 -44.125 106.5625 C-44.12757812 107.51253906 -44.13015625 108.46257812 -44.1328125 109.44140625 C-44.10770994 112.1212438 -44.10770994 112.1212438 -43 115 C-44.65 116.32 -46.3 117.64 -48 119 C-50.03287976 85.49512982 -34.41525994 46.72508203 -15 20 C-14.19538654 18.85763481 -13.39212733 17.71431517 -12.58984375 16.5703125 C-11.70647227 15.31718416 -10.82235425 14.06458176 -9.9375 12.8125 C-9.52564453 12.22944092 -9.11378906 11.64638184 -8.68945312 11.0456543 C-5.95145602 7.21431425 -3.05273983 3.58601702 0 0 Z " fill="#B48DDF" transform="translate(49,68)"/>
<path d="M0 0 C34.83140317 1.05439529 66.5852241 9.88829492 97 27 C97.62535645 27.34514648 98.25071289 27.69029297 98.89501953 28.04589844 C106.37808435 32.17627832 106.37808435 32.17627832 109 34 C109 34.66 109 35.32 109 36 C109.78375 36.268125 110.5675 36.53625 111.375 36.8125 C114 38 114 38 116 41 C113.36 40.67 110.72 40.34 108 40 C108 39.01 108 38.02 108 37 C106.68 37.33 105.36 37.66 104 38 C103.67 36.35 103.34 34.7 103 33 C102.37351562 32.82984375 101.74703125 32.6596875 101.1015625 32.484375 C100.28429687 32.24203125 99.46703125 31.9996875 98.625 31.75 C97.81289063 31.51796875 97.00078125 31.2859375 96.1640625 31.046875 C93.49692772 29.75663651 93.25382982 28.5912483 92 26 C88.43793339 25.18129815 88.43793339 25.18129815 85 25 C84.505 23.515 84.505 23.515 84 22 C79.85906302 21.79029441 79.85906302 21.79029441 76 23 C75.505 20.03 75.505 20.03 75 17 C74.071875 17.226875 73.14375 17.45375 72.1875 17.6875 C70.6096875 17.8421875 70.6096875 17.8421875 69 18 C67.97895449 17.02149805 66.9793879 16.02019573 66 15 C62.95826106 14.83329727 62.95826106 14.83329727 60 15 C59.34 14.67 58.68 14.34 58 14 C58 13.34 58 12.68 58 12 C48.54029121 9.7997968 48.54029121 9.7997968 38.9375 8.4375 C35.46614881 8.05179431 33.17904434 7.27161774 30 6 C28.66018514 6.3062434 27.32488113 6.63451555 26 7 C25.34 6.34 24.68 5.68 24 5 C21 4.66666667 21 4.66666667 18 5 C17.34 5.66 16.68 6.32 16 7 C14.68 7 13.36 7 12 7 C12 6.01 12 5.02 12 4 C10.948125 4.0825 9.89625 4.165 8.8125 4.25 C4.39596964 3.96039145 3.23555956 2.83879837 0 0 Z " fill="#DF93C6" transform="translate(204,0)"/>
<path d="M0 0 C3.01439114 0.32044207 5.90506391 0.625 8.9375 0.625 C9.4325 2.11 9.4325 2.11 9.9375 3.625 C10.9275 3.625 11.9175 3.625 12.9375 3.625 C12.9375 2.965 12.9375 2.305 12.9375 1.625 C15.9075 1.625 18.8775 1.625 21.9375 1.625 C21.9375 3.935 21.9375 6.245 21.9375 8.625 C24.5775 8.625 27.2175 8.625 29.9375 8.625 C29.6075 9.945 29.2775 11.265 28.9375 12.625 C25.15316265 11.86067571 21.82897606 10.31720995 18.3125 8.75 C7.04745095 3.66885211 7.04745095 3.66885211 -5.0625 2.625 C-18.7407089 9.95332506 -29.00144129 23.55404299 -37.7578125 36.04296875 C-38.40363281 36.82607422 -38.40363281 36.82607422 -39.0625 37.625 C-39.7225 37.625 -40.3825 37.625 -41.0625 37.625 C-40.5675 34.655 -40.5675 34.655 -40.0625 31.625 C-39.4025 31.625 -38.7425 31.625 -38.0625 31.625 C-38.0625 30.965 -38.0625 30.305 -38.0625 29.625 C-36.7425 29.295 -35.4225 28.965 -34.0625 28.625 C-34.0625 26.975 -34.0625 25.325 -34.0625 23.625 C-33.0725 23.625 -32.0825 23.625 -31.0625 23.625 C-30.629375 22.7278125 -30.629375 22.7278125 -30.1875 21.8125 C-29.0625 19.625 -29.0625 19.625 -27.0625 16.625 C-26.67750109 14.96950469 -26.33456865 13.3027567 -26.0625 11.625 C-25.134375 11.521875 -24.20625 11.41875 -23.25 11.3125 C-20.03335535 10.6187139 -18.90234081 10.28254784 -17.0625 7.625 C-17.0625 6.635 -17.0625 5.645 -17.0625 4.625 C-15.39583333 4.625 -13.72916667 4.625 -12.0625 4.625 C-11.4025 3.635 -10.7425 2.645 -10.0625 1.625 C-6.66202202 -0.73327332 -4.02126013 -0.44846767 0 0 Z " fill="#E093C7" transform="translate(194.0625,95.375)"/>
<path d="M0 0 C-2.03365008 11.80713311 -4.49302973 23.29049412 -7.91503906 34.77685547 C-9.69796109 40.79623029 -11.15357903 46.76859044 -12 53 C-12.33 53 -12.66 53 -13 53 C-13.10349817 46.58311325 -12.74507544 40.37305598 -12 34 C-11.34 34 -10.68 34 -10 34 C-9.49356447 31.77228658 -8.9951038 29.54275924 -8.5 27.3125 C-8.2215625 26.07113281 -7.943125 24.82976562 -7.65625 23.55078125 C-7.10645874 20.57601782 -6.86204295 18.00631398 -7 15 C-7.66 14.67 -8.32 14.34 -9 14 C-8.67 13.34 -8.34 12.68 -8 12 C-10.0177767 13.74262534 -10.96215695 14.89458007 -11.875 17.4375 C-13.28225622 20.64291694 -15.2547358 21.90492995 -18 24 C-18 24.66 -18 25.32 -18 26 C-17.34 26 -16.68 26 -16 26 C-16.33 26.99 -16.66 27.98 -17 29 C-17.99 29 -18.98 29 -20 29 C-20.60332659 22.78433308 -19.18053848 18.67661754 -15.28833008 13.94018555 C-12.92097497 11.22898631 -10.50287165 8.58665319 -8 6 C-7.46165527 5.43087891 -6.92331055 4.86175781 -6.36865234 4.27539062 C-2.2448802 0 -2.2448802 0 0 0 Z " fill="#EC9BBD" transform="translate(184,131)"/>
<path d="M0 0 C1.33699892 4.3325003 0.32207053 7.78959202 -0.8125 12.0625 C-0.99103516 12.78244141 -1.16957031 13.50238281 -1.35351562 14.24414062 C-2.21907831 17.60952333 -3.05627129 20.08440693 -5 23 C-7.69438551 27.87983154 -9 33.3047454 -9 38.875 C-9 41 -9 41 -11 44 C-11 44.99 -11 45.98 -11 47 C-11.16242187 47.60714844 -11.32484375 48.21429688 -11.4921875 48.83984375 C-12.10881094 51.46286498 -12.13232727 53.86972709 -12.125 56.5625 C-12.12757812 57.51253906 -12.13015625 58.46257812 -12.1328125 59.44140625 C-12.10770994 62.1212438 -12.10770994 62.1212438 -11 65 C-12.65 66.32 -14.3 67.64 -16 69 C-17.43972306 45.27123113 -8.90868503 21.58642911 0 0 Z " fill="#BF8FD7" transform="translate(17,118)"/>
<path d="M0 0 C17.96681631 0.54388066 34.82905027 2.56161239 52 8 C52 8.99 52 9.98 52 11 C49.74981858 10.52168603 47.49986133 10.04231736 45.25 9.5625 C43.99703125 9.29566406 42.7440625 9.02882813 41.453125 8.75390625 C38.26216881 8.05723821 35.11670688 7.3489709 32 6.375 C29.96776077 5.84569925 29.96776077 5.84569925 27.875 6.5625 C27.25625 6.706875 26.6375 6.85125 26 7 C25.34 6.34 24.68 5.68 24 5 C21 4.66666667 21 4.66666667 18 5 C17.34 5.66 16.68 6.32 16 7 C14.68 7 13.36 7 12 7 C12 6.01 12 5.02 12 4 C10.948125 4.0825 9.89625 4.165 8.8125 4.25 C4.39596964 3.96039145 3.23555956 2.83879837 0 0 Z " fill="#BE8BDD" transform="translate(204,0)"/>
<path d="M0 0 C0.33 0 0.66 0 1 0 C0.56323493 8.36534415 -0.01548934 16.68572014 -0.9375 25.01171875 C-1.02279968 25.78637482 -1.10809937 26.56103088 -1.19598389 27.35916138 C-1.28309631 28.15007172 -1.37020874 28.94098206 -1.45996094 29.75585938 C-3.78169163 50.84464922 -4.78250602 71.79058735 -5 93 C-5.66 92.67 -6.32 92.34 -7 92 C-6.88238115 84.66752489 -6.75754993 77.33519808 -6.62768555 70.00292969 C-6.5843534 67.50816639 -6.54267709 65.01337377 -6.50268555 62.51855469 C-6.44494164 58.93415484 -6.38125865 55.3499024 -6.31640625 51.765625 C-6.29969376 50.64883362 -6.28298126 49.53204224 -6.26576233 48.38140869 C-6.24581711 47.34063171 -6.22587189 46.29985474 -6.20532227 45.22753906 C-6.18200584 43.85520111 -6.18200584 43.85520111 -6.15821838 42.45513916 C-6.01124397 40.1744773 -5.63722814 38.18869415 -5 36 C-5.66 36 -6.32 36 -7 36 C-6.67 35.505 -6.34 35.01 -6 34.5 C-4.56363642 30.90909106 -4.87148538 27.85543873 -5 24 C-4.67 24 -4.34 24 -4 24 C-3.87882812 23.02160156 -3.75765625 22.04320312 -3.6328125 21.03515625 C-2.73279307 13.9373169 -1.70876554 6.95711683 0 0 Z " fill="#F3BC91" transform="translate(263,200)"/>
<path d="M0 0 C1.35117416 0.0001133 1.35117416 0.0001133 2.72964478 0.00022888 C3.70364227 0.00539017 4.67763977 0.01055145 5.68115234 0.01586914 C6.67714447 0.01728409 7.6731366 0.01869904 8.6993103 0.02015686 C11.88860037 0.02576603 15.0778209 0.03832009 18.26708984 0.05102539 C20.425943 0.05603921 22.58479725 0.06060232 24.74365234 0.06469727 C30.04315534 0.07573844 35.34261763 0.09248552 40.64208984 0.11352539 C40.64208984 0.44352539 40.64208984 0.77352539 40.64208984 1.11352539 C40.01455811 1.15316406 39.38702637 1.19280273 38.74047852 1.23364258 C25.42067959 2.1120044 12.63609469 3.60291913 -0.35888672 6.65844727 C-4.66004721 7.6376074 -9.01071534 8.37108313 -13.35791016 9.11352539 C-11.06068915 7.37080601 -8.75924287 5.71441387 -6.35791016 4.11352539 C-6.35791016 3.12352539 -6.35791016 2.13352539 -6.35791016 1.11352539 C-4.00590956 -0.06247491 -2.62056615 -0.00732002 0 0 Z " fill="#F8EFFD" transform="translate(151.35791015625,-0.113525390625)"/>
<path d="M0 0 C-0.99 0.33 -1.98 0.66 -3 1 C-3.33 1.99 -3.66 2.98 -4 4 C-4.9590625 4.2165625 -4.9590625 4.2165625 -5.9375 4.4375 C-6.9584375 4.7159375 -6.9584375 4.7159375 -8 5 C-8.26941406 5.58265625 -8.53882813 6.1653125 -8.81640625 6.765625 C-10.38111584 9.71946621 -12.39424232 11.22863413 -15 13.3125 C-15.97839844 14.09496094 -16.95679688 14.87742187 -17.96484375 15.68359375 C-21.55686772 18.42499686 -25.23733005 20.99720743 -29.00390625 23.4921875 C-31.24822781 25.01529815 -31.24822781 25.01529815 -33 28 C-34.58190824 28.70681007 -36.1692651 29.40383116 -37.78125 30.0390625 C-42.35262515 32.01891864 -46.65475544 34.5720062 -51 37 C-51.33 36.34 -51.66 35.68 -52 35 C-51.13375 34.51789063 -50.2675 34.03578125 -49.375 33.5390625 C-48.26125 32.90742188 -47.1475 32.27578125 -46 31.625 C-44.88625 30.99851562 -43.7725 30.37203125 -42.625 29.7265625 C-41.75875 29.15679687 -40.8925 28.58703125 -40 28 C-40 27.34 -40 26.68 -40 26 C-38.9171875 25.9071875 -38.9171875 25.9071875 -37.8125 25.8125 C-34.7647514 25.17737996 -34.7647514 25.17737996 -32.4375 22.4375 C-31.633125 21.633125 -30.82875 20.82875 -30 20 C-28.68 20 -27.36 20 -26 20 C-25.76539063 19.41476562 -25.53078125 18.82953125 -25.2890625 18.2265625 C-23.70902767 15.49741143 -21.92435104 14.21215139 -19.375 12.375 C-17.88198574 11.29645027 -16.41350645 10.18083049 -15 9 C-15 8.34 -15 7.68 -15 7 C-14.030625 6.566875 -13.06125 6.13375 -12.0625 5.6875 C-8.72268235 4.2985139 -8.72268235 4.2985139 -8 1 C-5.04059045 -1.0409721 -3.36242374 -1.20086562 0 0 Z " fill="#F3DCB6" transform="translate(344,340)"/>
<path d="M0 0 C0.99 0 1.98 0 3 0 C3 3.63 3 7.26 3 11 C1.68 11.33 0.36 11.66 -1 12 C-1.06058594 13.07121094 -1.12117188 14.14242187 -1.18359375 15.24609375 C-1.26798537 16.64324391 -1.35263406 18.04037857 -1.4375 19.4375 C-1.47681641 20.14455078 -1.51613281 20.85160156 -1.55664062 21.58007812 C-1.88671875 26.88671875 -1.88671875 26.88671875 -3 28 C-3.0979057 29.49738124 -3.12974864 30.99942892 -3.125 32.5 C-3.12757813 33.3146875 -3.13015625 34.129375 -3.1328125 34.96875 C-3.2245178 36.99530377 -3.2245178 36.99530377 -2 38 C-1.44780383 42.69366742 -3.04303463 45.84144858 -5 50 C-5.33 50 -5.66 50 -6 50 C-6.19219258 39.86717988 -6.1895334 29.83882741 -5.125 19.75 C-5.04652832 18.98969482 -4.96805664 18.22938965 -4.88720703 17.44604492 C-4.31782892 12.49595252 -3.29535264 7.81130981 -2 3 C-1.34 3 -0.68 3 0 3 C0 2.01 0 1.02 0 0 Z " fill="#F2BA98" transform="translate(299,197)"/>
<path d="M0 0 C2.58074652 2.58074652 3.27175406 5.34392238 4.3125 8.75 C4.63299316 9.79607422 4.63299316 9.79607422 4.95996094 10.86328125 C9.38567168 25.72333192 12.75498225 40.4525098 13 56 C12.34 56 11.68 56 11 56 C10.67 56.99 10.34 57.98 10 59 C6.54888659 50.58791106 8.0764591 41.823114 9 33 C8.34 33 7.68 33 7 33 C6.34 27.39 5.68 21.78 5 16 C4.34 16 3.68 16 3 16 C2.49411853 14.08487728 1.99551609 12.16783078 1.5 10.25 C1.2215625 9.18265625 0.943125 8.1153125 0.65625 7.015625 C0 4 0 4 0 0 Z " fill="#F3BB8F" transform="translate(386,128)"/>
<path d="M0 0 C0.33 0 0.66 0 1 0 C1.33 12.21 1.66 24.42 2 37 C13.21286572 42.60643286 19.00457092 44.14351013 32 46 C32 33.46 32 20.92 32 8 C32.33 8 32.66 8 33 8 C33 20.87 33 33.74 33 47 C12.92592593 47 12.92592593 47 7 43 C3.535 41.02 3.535 41.02 0 39 C0 26.13 0 13.26 0 0 Z " fill="#F6D6B1" transform="translate(258,256)"/>
<path d="M0 0 C5.78406969 -0.07410115 11.56786371 -0.12857885 17.35229492 -0.16479492 C19.32044283 -0.17989082 21.28855706 -0.20036948 23.2565918 -0.22631836 C26.08390612 -0.26266649 28.9107761 -0.27971814 31.73828125 -0.29296875 C33.06029289 -0.31619453 33.06029289 -0.31619453 34.40901184 -0.33988953 C35.22963608 -0.34011612 36.05026031 -0.34034271 36.89575195 -0.34057617 C37.61745071 -0.34723801 38.33914948 -0.35389984 39.0827179 -0.36076355 C41.52978289 0.09968609 42.42495885 1.12700892 44 3 C43.34 4.32 42.68 5.64 42 7 C37.13540727 6.51354073 32.51164097 5.67692661 27.75 4.5625 C18.59766468 2.52864771 9.32811796 1.79767608 0 1 C0 0.67 0 0.34 0 0 Z " fill="#FBF5FA" transform="translate(212,0)"/>
<path d="M0 0 C20.79245283 1.79245283 20.79245283 1.79245283 24 5 C25.66608987 5.04384447 27.33380554 5.0396713 29 5 C29.99 5 30.98 5 32 5 C31.67 5.66 31.34 6.32 31 7 C32.299375 6.87625 33.59875 6.7525 34.9375 6.625 C36.03384766 6.52058594 36.03384766 6.52058594 37.15234375 6.4140625 C37.76207031 6.27742188 38.37179688 6.14078125 39 6 C39.33 5.34 39.66 4.68 40 4 C42.97 4.99 45.94 5.98 49 7 C49 7.99 49 8.98 49 10 C50.65 10 52.3 10 54 10 C54.33 9.34 54.66 8.68 55 8 C55.495 9.485 55.495 9.485 56 11 C47.16311824 11.31732989 38.92994348 10.43416574 30.25 8.8125 C28.42033691 8.47955933 28.42033691 8.47955933 26.55371094 8.13989258 C17.44102038 6.41931887 8.71349269 4.17961301 0 1 C0 0.67 0 0.34 0 0 Z " fill="#F3D0A7" transform="translate(136,389)"/>
<path d="M0 0 C3.26664138 11.11908458 -0.93297455 25.87002816 -3.375 36.875 C-3.57174316 37.7829834 -3.76848633 38.6909668 -3.97119141 39.62646484 C-5.24654677 45.05305634 -6.99167166 49.30188723 -10 54 C-10.625 52.125 -10.625 52.125 -11 50 C-10.34 49.34 -9.68 48.68 -9 48 C-8.2762117 45.21689661 -8.2762117 45.21689661 -7.8125 42.0625 C-7.63332031 41.00160156 -7.45414062 39.94070312 -7.26953125 38.84765625 C-6.79958148 35.92756512 -6.79958148 35.92756512 -8 33 C-7.01 32.34 -6.02 31.68 -5 31 C-4.4140447 29.14838456 -4.4140447 29.14838456 -4.3125 27 C-4.21195312 25.79150391 -4.21195312 25.79150391 -4.109375 24.55859375 C-4.00216719 22.05069666 -4.01493046 19.57179321 -4.0625 17.0625 C-4.11880144 11.92298253 -3.53308815 6.92102369 -2 2 C-1.34 1.34 -0.68 0.68 0 0 Z " fill="#F3CC9C" transform="translate(399,207)"/>
<path d="M0 0 C0.99 0.66 1.98 1.32 3 2 C-9.48788487 8.50370583 -21.904308 14.29750093 -35.6875 17.4375 C-36.45416992 17.61369873 -37.22083984 17.78989746 -38.01074219 17.97143555 C-41.70588983 18.7517696 -44.39318536 19.09568424 -48 18 C-43.9058483 16.08939587 -39.82048041 15.32495194 -35.40234375 14.5625 C-32.98926358 13.99748611 -31.16604746 13.18511203 -29 12 C-21.72058824 8.42647059 -21.72058824 8.42647059 -17 10 C-17 9.34 -17 8.68 -17 8 C-15.9275 7.731875 -14.855 7.46375 -13.75 7.1875 C-10.09572139 6.26363791 -10.09572139 6.26363791 -7.875 4.375 C-5.4721612 2.61291822 -3.91020075 2.75748327 -1 3 C-0.67 2.01 -0.34 1.02 0 0 Z " fill="#F4DAB2" transform="translate(288,376)"/>
<path d="M0 0 C0.33 0 0.66 0 1 0 C1.02465881 3.96930989 1.04284023 7.93859034 1.05493164 11.90795898 C1.05997057 13.25920386 1.06680177 14.61044326 1.07543945 15.96166992 C1.08752419 17.90020434 1.09269828 19.838778 1.09765625 21.77734375 C1.10289307 22.94515381 1.10812988 24.11296387 1.11352539 25.31616211 C1 28 1 28 0 29 C-0.15888092 31.28988781 -0.25138073 33.58443441 -0.31640625 35.87890625 C-0.3475779 36.90889992 -0.3475779 36.90889992 -0.37937927 37.95970154 C-0.44494143 40.16052935 -0.50379015 42.36147975 -0.5625 44.5625 C-0.60567892 46.05144514 -0.649293 47.54037773 -0.69335938 49.02929688 C-0.8006293 52.68606553 -0.90187772 56.34297318 -1 60 C-0.34 60 0.32 60 1 60 C1.33 62.31 1.66 64.62 2 67 C0.68 66.34 -0.64 65.68 -2 65 C-2.05028943 58.95753119 -2.08612946 52.91519016 -2.10986328 46.87255859 C-2.11978095 44.82663851 -2.13331922 42.78073204 -2.15087891 40.73486328 C-2.26548552 27.01577765 -1.6665305 13.62158525 0 0 Z " fill="#FEEFEB" transform="translate(164,228)"/>
<path d="M0 0 C12.06266514 3.3056342 24.3572624 7.31872584 35 14 C31.50581737 15.16472754 29.5736062 14.6082734 26 14 C25.01 14.495 25.01 14.495 24 15 C23.67 13.02 23.34 11.04 23 9 C22.071875 9.226875 21.14375 9.45375 20.1875 9.6875 C19.135625 9.790625 18.08375 9.89375 17 10 C15.97895449 9.02149805 14.9793879 8.02019573 14 7 C10.95826106 6.83329727 10.95826106 6.83329727 8 7 C7.34 6.67 6.68 6.34 6 6 C6 5.34 6 4.68 6 4 C3.03 3.505 3.03 3.505 0 3 C0 2.01 0 1.02 0 0 Z " fill="#D18FCE" transform="translate(256,8)"/>
<path d="M0 0 C1.09183594 -0.00257813 2.18367188 -0.00515625 3.30859375 -0.0078125 C6.47442524 0.12140511 9.45285545 0.53402683 12.5625 1.125 C4.55393094 5.6310034 -5.49122347 5.44199405 -14.4375 5.125 C-12.88704511 2.59531044 -12.02273755 1.31507715 -9.15234375 0.3828125 C-6.08526904 0.09155073 -3.08143422 -0.00725897 0 0 Z " fill="#F2DAAF" transform="translate(227.4375,393.875)"/>
<path d="M0 0 C1.61107914 4.02769785 0.47759396 7.05974943 -1 11 C-1.639375 11.61875 -2.27875 12.2375 -2.9375 12.875 C-5.17073873 15.17591263 -5.56285292 16.42096149 -6.4375 19.4375 C-8.23716224 25.3939908 -12.01036188 28.48877317 -17 32 C-15.33333333 28.66666667 -13.66666667 25.33333333 -12 22 C-11.34 22 -10.68 22 -10 22 C-9.89429688 21.27554687 -9.78859375 20.55109375 -9.6796875 19.8046875 C-8.9403917 16.75403013 -7.81565924 14.75771813 -6.125 12.125 C-3.66174498 8.16958088 -1.69601629 4.33426385 0 0 Z " fill="#FDF5E1" transform="translate(383,280)"/>
<path d="M0 0 C0.99 0 1.98 0 3 0 C1.35140463 5.77008381 -1.30479141 10.01418422 -5.1875 14.5625 C-7.10058036 17.13526325 -7.63996464 18.84969056 -8 22 C-9.65 22.33 -11.3 22.66 -13 23 C-9.88198605 14.81336621 -5.57316772 6.77817696 0 0 Z " fill="#F09EBC" transform="translate(151,171)"/>
<path d="M0 0 C0.33 0 0.66 0 1 0 C0.36026873 14.40498353 -1.32991648 28.6841006 -3 43 C-3.33 43 -3.66 43 -4 43 C-4.33 36.73 -4.66 30.46 -5 24 C-4.67 24 -4.34 24 -4 24 C-3.87882812 23.02160156 -3.75765625 22.04320312 -3.6328125 21.03515625 C-2.73279307 13.9373169 -1.70876554 6.95711683 0 0 Z " fill="#F2B2A0" transform="translate(263,200)"/>
<path d="M0 0 C1.20628008 2.33214148 2.1654738 4.49642139 3 7 C2.01 8.485 2.01 8.485 1 10 C0.71942321 13.10112786 0.71942321 13.10112786 0.8125 16.5 C0.81894531 17.6446875 0.82539062 18.789375 0.83203125 19.96875 C0.86915416 23.04622101 0.86915416 23.04622101 2 26 C0.35 27.32 -1.3 28.64 -3 30 C-3.61877873 19.80160987 -1.74126083 10.00188511 0 0 Z " fill="#CE91D1" transform="translate(4,157)"/>
<path d="M0 0 C0.99 0 1.98 0 3 0 C4.0064275 1.66279327 5.00585407 3.32983484 6 5 C6.680625 5.33 7.36125 5.66 8.0625 6 C10 7 10 7 10.9375 9.375 C12.67741603 13.67361608 16.24478649 15.49652432 20 18 C19.67 19.32 19.34 20.64 19 22 C9.33203125 12.33203125 9.33203125 12.33203125 7.62817383 10.62231445 C6.58898753 9.58686791 5.54261144 8.55855398 4.48706055 7.53979492 C1.98701502 5.11503308 0.39533095 3.55797855 0 0 Z " fill="#F2B4A2" transform="translate(50,330)"/>
<path d="M0 0 C0.33 0 0.66 0 1 0 C1.51373488 10.86454133 1.51373488 10.86454133 -2 16 C-2.83458277 18.96909145 -3.43860571 21.96847083 -4 25 C-5.32 25.33 -6.64 25.66 -8 26 C-5.42867609 17.30348988 -2.71587276 8.652148 0 0 Z " fill="#FEF6E2" transform="translate(393,250)"/>
<path d="M0 0 C2.68200107 2.68200107 3.3622833 5.70752653 4.4375 9.25 C4.65559326 9.95640625 4.87368652 10.6628125 5.09838867 11.390625 C7.14509828 18.18015408 8.66153534 25.03563106 10 32 C9.34 32 8.68 32 8 32 C7.49411853 30.08487728 6.99551609 28.16783078 6.5 26.25 C6.2215625 25.18265625 5.943125 24.1153125 5.65625 23.015625 C5 20 5 20 5 16 C4.34 16 3.68 16 3 16 C2.49411853 14.08487728 1.99551609 12.16783078 1.5 10.25 C1.2215625 9.18265625 0.943125 8.1153125 0.65625 7.015625 C0 4 0 4 0 0 Z " fill="#EFBAA4" transform="translate(386,128)"/>
<path d="M0 0 C1.07174763 3.65188082 0.76411467 6.26432828 0 10 C-0.66 9.01 -1.32 8.02 -2 7 C-1.67 6.01 -1.34 5.02 -1 4 C-1.66 4 -2.32 4 -3 4 C-3 4.99 -3 5.98 -3 7 C-5.3125 9 -5.3125 9 -8 11 C-8.7425 11.8353125 -8.7425 11.8353125 -9.5 12.6875 C-11.52392064 14.45843056 -13.37879014 14.64578245 -16 15 C-11.30217584 9.06590633 -6.01350104 4.57548992 0 0 Z " fill="#EFA9B7" transform="translate(280,128)"/>
<path d="M0 0 C1.32 0 2.64 0 4 0 C4 0.99 4 1.98 4 3 C3.34 3 2.68 3 2 3 C2.515625 3.53625 3.03125 4.0725 3.5625 4.625 C5.50281235 7.83073345 4.70951996 9.38144823 4 13 C4.2644354 15.34214207 4.58244638 17.68025766 5 20 C4.34 20.33 3.68 20.66 3 21 C1.18225815 13.90215087 -0.43230491 7.34918342 0 0 Z " fill="#EC92C1" transform="translate(3,229)"/>
<path d="M0 0 C0.66 0 1.32 0 2 0 C1.34 1.98 0.68 3.96 0 6 C0.66 6 1.32 6 2 6 C2.36024218 12.36427851 2.36024218 12.36427851 0.9375 14.875 C-2.00081858 16.58112046 -4.63812807 16.81989972 -8 17 C-8.99 16.34 -9.98 15.68 -11 15 C-8.36 15 -5.72 15 -3 15 C-2.95101562 14.25234375 -2.90203125 13.5046875 -2.8515625 12.734375 C-2.77679688 11.74953125 -2.70203125 10.7646875 -2.625 9.75 C-2.55539063 8.77546875 -2.48578125 7.8009375 -2.4140625 6.796875 C-2.01534751 4.10366811 -1.36492937 2.33036721 0 0 Z " fill="#F8A69B" transform="translate(101,288)"/>
<path d="M0 0 C2.97 0 5.94 0 9 0 C9 2.31 9 4.62 9 7 C11.64 7 14.28 7 17 7 C16.67 8.32 16.34 9.64 16 11 C11.78703697 10.32592592 8.57407888 8.22536987 5 6 C4.67 5.34 4.34 4.68 4 4 C1.97536745 3.34786708 1.97536745 3.34786708 0 3 C0 2.01 0 1.02 0 0 Z " fill="#EC89C2" transform="translate(207,97)"/>
<path d="M0 0 C0.66 0.33 1.32 0.66 2 1 C-2.97737284 6.26179414 -6.71095798 9.15243697 -14 10 C-14.33 10.99 -14.66 11.98 -15 13 C-16.98 13 -18.96 13 -21 13 C-17.57907511 10.00669073 -14.19376987 8.01424093 -10.12890625 6.0859375 C-7.15456321 4.56874968 -4.42354656 2.729939 -1.6640625 0.85546875 C-1.11492187 0.57316406 -0.56578125 0.29085938 0 0 Z " fill="#FDF5E1" transform="translate(307,368)"/>
<path d="M0 0 C1.20636873 3.61910619 0.72162208 5.47059748 0.00390625 9.19921875 C-0.22490234 10.40771484 -0.45371094 11.61621094 -0.68945312 12.86132812 C-0.93630859 14.12396484 -1.18316406 15.38660156 -1.4375 16.6875 C-1.68048828 17.96173828 -1.92347656 19.23597656 -2.17382812 20.54882812 C-2.77584621 23.70056985 -3.38483585 26.85080234 -4 30 C-4.33 30 -4.66 30 -5 30 C-5.05394705 27.39555652 -5.09364469 24.79223002 -5.125 22.1875 C-5.14175781 21.44951172 -5.15851563 20.71152344 -5.17578125 19.95117188 C-5.21074628 16.08753574 -5.19397555 14.29096332 -3 11 C-2.63661151 8.68339835 -2.49737882 6.39759253 -2.34375 4.05859375 C-2 2 -2 2 0 0 Z " fill="#FDEBE1" transform="translate(302,170)"/>
<path d="M0 0 C3.19975116 1.46837896 5.84834256 3.27839346 8.625 5.4375 C9.40101563 6.03433594 10.17703125 6.63117187 10.9765625 7.24609375 C13 9 13 9 15 12 C14.01 12.66 13.02 13.32 12 14 C9.88459533 12.0256223 8.21211801 10.46400815 7 7.8125 C6.14901165 5.82683138 6.14901165 5.82683138 4.0625 5.1875 C1.80257287 4.84313191 1.80257287 4.84313191 -1 6 C-0.67 4.02 -0.34 2.04 0 0 Z " fill="#EF95BE" transform="translate(321,42)"/>
<path d="M0 0 C6.69319802 0.42496495 12.64857872 1.89169941 19 4 C19 4.99 19 5.98 19 7 C16.74981858 6.52168603 14.49986133 6.04231736 12.25 5.5625 C10.99703125 5.29566406 9.7440625 5.02882813 8.453125 4.75390625 C7.31359375 4.50511719 6.1740625 4.25632812 5 4 C4.23171875 3.84402344 3.4634375 3.68804687 2.671875 3.52734375 C1 3 1 3 -1 1 C-0.67 0.67 -0.34 0.34 0 0 Z " fill="#C38BD6" transform="translate(237,4)"/>
<path d="M0 0 C0.45375 0.639375 0.9075 1.27875 1.375 1.9375 C2.83921726 4.09702406 2.83921726 4.09702406 5 5 C4.67 6.32 4.34 7.64 4 9 C3.34 9 2.68 9 2 9 C1.80664062 9.69867188 1.61328125 10.39734375 1.4140625 11.1171875 C1.15367187 12.02726563 0.89328125 12.93734375 0.625 13.875 C0.36976563 14.77992188 0.11453125 15.68484375 -0.1484375 16.6171875 C-1 19 -1 19 -3 21 C-2.68981396 18.4372008 -2.37693109 15.8747789 -2.0625 13.3125 C-1.97548828 12.59126953 -1.88847656 11.87003906 -1.79882812 11.12695312 C-1.33686195 7.37989416 -0.80832321 3.69207089 0 0 Z " fill="#F0B2B2" transform="translate(195,221)"/>
<path d="M0 0 C2.62676624 1.2672995 5.06502491 2.64804271 7.5 4.25 C12.7764379 7.59773996 18.38371538 10.27610196 24 13 C22 14 22 14 19.3984375 13.22265625 C18.40070313 12.83980469 17.40296875 12.45695312 16.375 12.0625 C14.87066406 11.49208984 14.87066406 11.49208984 13.3359375 10.91015625 C12.56507812 10.60980469 11.79421875 10.30945313 11 10 C11 9.34 11 8.68 11 8 C10.01 8 9.02 8 8 8 C8 7.34 8 6.68 8 6 C7.05125 5.938125 6.1025 5.87625 5.125 5.8125 C3.578125 5.4103125 3.578125 5.4103125 2 5 C0.625 2.4375 0.625 2.4375 0 0 Z " fill="#FDF0DD" transform="translate(88,366)"/>
<path d="M0 0 C0.99 0.495 0.99 0.495 2 1 C2 2.65 2 4.3 2 6 C2.99 6 3.98 6 5 6 C5.12117187 6.81984375 5.24234375 7.6396875 5.3671875 8.484375 C5.53476563 9.56203125 5.70234375 10.6396875 5.875 11.75 C6.11863281 13.35101563 6.11863281 13.35101563 6.3671875 14.984375 C6.93711766 17.70033846 7.72412824 19.57584366 9 22 C9.125 24.75 9.125 24.75 9 27 C6.73651097 23.60476645 5.36838764 20.10383003 3.9375 16.3125 C3.66873047 15.62994141 3.39996094 14.94738281 3.12304688 14.24414062 C1.3162135 9.47247841 0.46206811 5.08274926 0 0 Z " fill="#EE9ABA" transform="translate(7,250)"/>
<path d="M0 0 C1 2 1 2 0.4375 4.25 C-1.40237479 7.76976047 -3.71747513 10.71479728 -7 13 C-8.32 13 -9.64 13 -11 13 C-9.66342976 10.09663689 -8.15277429 7.7897189 -6.0625 5.375 C-5.55847656 4.78460938 -5.05445313 4.19421875 -4.53515625 3.5859375 C-3 2 -3 2 0 0 Z " fill="#F8F2F8" transform="translate(59,53)"/>
<path d="M0 0 C1.96459918 2.94689877 2.23098617 3.69577868 2.4375 7 C2.7599189 10.26338406 2.7599189 10.26338406 4.5625 13 C5.036875 13.33 5.51125 13.66 6 14 C4.99806563 17.79303725 4.18975773 20.71536341 2 24 C1.66148822 21.31306278 1.329064 18.62559711 1 15.9375 C0.90460937 15.18533203 0.80921875 14.43316406 0.7109375 13.65820312 C0.15428098 9.06578683 -0.09829028 4.6257865 0 0 Z " fill="#E18FC8" transform="translate(0,204)"/>
<path d="M0 0 C0.33 0 0.66 0 1 0 C1.08751413 3.87485635 1.14056435 7.74945643 1.1875 11.625 C1.21263672 12.71941406 1.23777344 13.81382812 1.26367188 14.94140625 C1.31690288 20.79681683 1.29983099 25.06324498 -2 30 C-3.21690861 26.42640217 -2.78915511 23.74264716 -2.125 20.0625 C-1.00508375 13.38840451 -0.41983919 6.75057226 0 0 Z " fill="#FEF1D9" transform="translate(399,211)"/>
<path d="M0 0 C0.33 0.66 0.66 1.32 1 2 C1.66 2 2.32 2 3 2 C1.28370787 20.1488764 1.28370787 20.1488764 -1 27 C-1.66 27 -2.32 27 -3 27 C-1.89184084 18.79962224 -0.38318475 10.92806125 2 3 C0.02 3.99 0.02 3.99 -2 5 C-2 4.01 -2 3.02 -2 2 C-1.34 2 -0.68 2 0 2 C0 1.34 0 0.68 0 0 Z " fill="#FDE6F5" transform="translate(182,128)"/>
<path d="M0 0 C0.96804074 3.10515305 0.98121797 5.3511896 0.44140625 8.546875 C0.30283203 9.39121094 0.16425781 10.23554688 0.02148438 11.10546875 C-0.20571289 12.41451172 -0.20571289 12.41451172 -0.4375 13.75 C-0.58509766 14.63816406 -0.73269531 15.52632812 -0.88476562 16.44140625 C-1.24935014 18.62891336 -1.62132066 20.81489642 -2 23 C-2.66 22.67 -3.32 22.34 -4 22 C-4.26088977 15.18787826 -4.04331041 8.55877415 -2 2 C-1.34 1.34 -0.68 0.68 0 0 Z " fill="#F5C48B" transform="translate(399,207)"/>
<path d="M0 0 C0 0.99 0 1.98 0 3 C1.65 3 3.3 3 5 3 C5.33 2.34 5.66 1.68 6 1 C6.33 1.99 6.66 2.98 7 4 C-1.2425317 4.26305952 -8.91191011 3.60614551 -17 2 C-17 1.67 -17 1.34 -17 1 C-15.10440036 0.83069605 -13.20850769 0.66467136 -11.3125 0.5 C-10.25675781 0.4071875 -9.20101562 0.314375 -8.11328125 0.21875 C-5.39363975 0.0276585 -2.72460144 -0.04043935 0 0 Z " fill="#F6D7AD" transform="translate(185,396)"/>
<path d="M0 0 C5.35810969 -0.16898112 10.19349172 0.43488578 15.4375 1.5 C16.16904297 1.64308594 16.90058594 1.78617187 17.65429688 1.93359375 C19.43735486 2.28321296 21.21885203 2.64077688 23 3 C23 3.33 23 3.66 23 4 C4.54963322 4.24970421 4.54963322 4.24970421 1.0625 1.4375 C0.711875 0.963125 0.36125 0.48875 0 0 Z " fill="#FDF6E2" transform="translate(157,396)"/>
<path d="M0 0 C0 0.66 0 1.32 0 2 C-2.49723452 2.67885987 -4.99696141 3.34317427 -7.5 4 C-8.19609375 4.19078125 -8.8921875 4.3815625 -9.609375 4.578125 C-14.5412919 5.85677012 -18.90580091 6.18357474 -24 6 C-20.08264588 3.68092636 -15.82668476 2.87506741 -11.4375 1.875 C-10.66986328 1.69324219 -9.90222656 1.51148438 -9.11132812 1.32421875 C-6.01539228 0.60624235 -3.18871791 0 0 0 Z " fill="#FDF1DD" transform="translate(256,392)"/>
<path d="M0 0 C1.27373068 4.17665175 0.98646471 8.11902021 0.83984375 12.44140625 C0.80053666 15.24424385 0.80053666 15.24424385 3 18 C2.625 20.1875 2.625 20.1875 2 22 C-1.31942809 18.96921783 -1.95532247 16.87865804 -2.1875 12.3125 C-2.14719152 7.96724583 -1.19068919 4.16741215 0 0 Z " fill="#FDE7E5" transform="translate(77,274)"/>
<path d="M0 0 C0.33 0 0.66 0 1 0 C0.25 6.625 0.25 6.625 -2 10 C-2.66 10 -3.32 10 -4 10 C-4.33 10.99 -4.66 11.98 -5 13 C-5.9765625 6.9453125 -5.9765625 6.9453125 -6 5 C-4 3 -4 3 -1 2 C-0.67 1.34 -0.34 0.68 0 0 Z " fill="#F5A3A1" transform="translate(202,215)"/>
<path d="M0 0 C0.33 0 0.66 0 1 0 C1.22354607 1.89409978 1.42819951 3.7904348 1.625 5.6875 C1.74101562 6.74324219 1.85703125 7.79898438 1.9765625 8.88671875 C2.00143349 12.1904156 1.38221458 14.03811161 0 17 C-0.68679942 19.32748694 -1.35761043 21.65986656 -2 24 C-2.33 24 -2.66 24 -3 24 C-3.125 16.25 -3.125 16.25 -2 14 C-1.61076473 11.63049479 -1.2619422 9.2542428 -0.9375 6.875 C-0.76089844 5.59367188 -0.58429688 4.31234375 -0.40234375 2.9921875 C-0.26957031 2.00476563 -0.13679688 1.01734375 0 0 Z " fill="#FCEAE3" transform="translate(266,192)"/>
<path d="M0 0 C2 3 2 3 1.8125 5.0625 C1 7 1 7 -2 9 C-2 8.34 -2 7.68 -2 7 C-3.65 6.67 -5.3 6.34 -7 6 C-7 5.34 -7 4.68 -7 4 C-6.34 4 -5.68 4 -5 4 C-5 3.34 -5 2.68 -5 2 C-3.35 1.34 -1.7 0.68 0 0 Z " fill="#A67DF3" transform="translate(94,32)"/>
<path d="M0 0 C7.78593716 1.61088355 15.37428218 3.76543688 23 6 C21.02 6.99 21.02 6.99 19 8 C18.67 7.34 18.34 6.68 18 6 C17.071875 6.0825 16.14375 6.165 15.1875 6.25 C9.77880268 6.29451603 4.93759299 4.00003767 0 2 C0 1.34 0 0.68 0 0 Z " fill="#FEF6E4" transform="translate(133,389)"/>
<path d="M0 0 C0.804375 0.8971875 0.804375 0.8971875 1.625 1.8125 C6.27104019 6.09174755 10.79078214 7.37907821 17 8 C17.33 9.32 17.66 10.64 18 12 C17.67 11.34 17.34 10.68 17 10 C15.11766144 9.63114361 13.21685262 9.35455296 11.3125 9.125 C6.12006835 8.3575846 3.01083704 7.3423642 -1 4 C-0.67 2.68 -0.34 1.36 0 0 Z " fill="#F4C188" transform="translate(103,370)"/>
<path d="M0 0 C0.33 0.66 0.66 1.32 1 2 C0.34 2 -0.32 2 -1 2 C-1.26167969 2.59296875 -1.52335937 3.1859375 -1.79296875 3.796875 C-3.74740497 7.36419549 -6.62055235 9.78087772 -10 12 C-12.9375 12.375 -12.9375 12.375 -15 12 C-11.99764638 8.82608332 -8.80246358 6.28747399 -5.25 3.75 C-4.26515625 3.04359375 -3.2803125 2.3371875 -2.265625 1.609375 C-1.51796875 1.07828125 -0.7703125 0.5471875 0 0 Z " fill="#FDF5E6" transform="translate(327,354)"/>
<path d="M0 0 C7.45937249 0.61142397 7.45937249 0.61142397 10 2.4375 C11 4 11 4 11 6 C12.65 6.33 14.3 6.66 16 7 C16.33 8.32 16.66 9.64 17 11 C14.525 10.01 14.525 10.01 12 9 C12 8.34 12 7.68 12 7 C11.319375 6.7525 10.63875 6.505 9.9375 6.25 C6.43134917 4.75802092 3.28379632 2.93164489 0 1 C0 0.67 0 0.34 0 0 Z " fill="#FCE4F7" transform="translate(301,27)"/>
<path d="M0 0 C-0.33 0.66 -0.66 1.32 -1 2 C0.9490625 1.814375 0.9490625 1.814375 2.9375 1.625 C3.66839844 1.55539062 4.39929688 1.48578125 5.15234375 1.4140625 C6.06693359 1.20910156 6.06693359 1.20910156 7 1 C7.33 0.34 7.66 -0.32 8 -1 C10.31 -0.34 12.62 0.32 15 1 C11.27675349 3.48216434 8.3677041 3.29625107 4.0625 3.25 C3.34642578 3.25773437 2.63035156 3.26546875 1.89257812 3.2734375 C-1.88969269 3.25941611 -4.79380678 3.10955794 -8 1 C-2.25 -1.125 -2.25 -1.125 0 0 Z " fill="#F6CC9A" transform="translate(168,394)"/>
<path d="M0 0 C0.33 0.66 0.66 1.32 1 2 C-0.00327431 4.4344156 -1.0600367 6.72223885 -2.25 9.0625 C-2.56324219 9.71283203 -2.87648438 10.36316406 -3.19921875 11.03320312 C-5.62821155 15.87607052 -5.62821155 15.87607052 -9 17 C-8.67 15.02 -8.34 13.04 -8 11 C-7.34 11 -6.68 11 -6 11 C-5.896875 10.401875 -5.79375 9.80375 -5.6875 9.1875 C-4.89505679 6.66608978 -3.88056492 5.80534232 -2 4 C-0.82425289 1.90010348 -0.82425289 1.90010348 0 0 Z " fill="#EF9CB8" transform="translate(105,212)"/>
<path d="M0 0 C2 3 2 3 1.875 4.875 C1 7 1 7 -0.875 9.3125 C-2.67655055 11.59093158 -3.57460232 13.12936497 -4.625 15.75 C-6 19 -6 19 -8 20 C-5.83836487 13.06001352 -3.1063786 6.56882431 0 0 Z " fill="#F0AFA8" transform="translate(226,201)"/>
<path d="M0 0 C0.99 0 1.98 0 3 0 C3 3.63 3 7.26 3 11 C2.01 11 1.02 11 0 11 C-1 10 -1 10 -1.125 6.625 C-1 3 -1 3 0 0 Z " fill="#FCAE8A" transform="translate(299,197)"/>
<path d="M0 0 C0.5534764 2.07553648 1 3.84365964 1 6 C-0.33333333 7.33333333 -1.66666667 8.66666667 -3 10 C-3.28875 10.639375 -3.5775 11.27875 -3.875 11.9375 C-5.59563022 15.09198874 -8.18253067 16.795024 -11 19 C-9.66749209 15.4124787 -8.169283 12.1635377 -6 9 C-5.34 9 -4.68 9 -4 9 C-3.71125 8.071875 -3.4225 7.14375 -3.125 6.1875 C-2 3 -2 3 0 0 Z " fill="#FCE3F4" transform="translate(147,143)"/>
<path d="M0 0 C0.99 0 1.98 0 3 0 C2.67 1.65 2.34 3.3 2 5 C1.34 5 0.68 5 0 5 C0.66 6.32 1.32 7.64 2 9 C-0.31 9 -2.62 9 -5 9 C-4.67 7.68 -4.34 6.36 -4 5 C-3.34 5 -2.68 5 -2 5 C-1.34 3.35 -0.68 1.7 0 0 Z " fill="#B480EA" transform="translate(37,87)"/>
<path d="M0 0 C0 0.99 0 1.98 0 3 C-1.58086048 3.36504603 -3.16483907 3.71660506 -4.75 4.0625 C-5.63171875 4.25972656 -6.5134375 4.45695312 -7.421875 4.66015625 C-9.98679028 4.99825872 -11.57091639 4.81158635 -14 4 C-10.23767262 -0.5543963 -5.55879521 -0.12927431 0 0 Z " fill="#F6D4A2" transform="translate(227,394)"/>
<path d="M0 0 C0.99 0.495 0.99 0.495 2 1 C1.97679687 1.77085937 1.95359375 2.54171875 1.9296875 3.3359375 C1.91164063 4.33882813 1.89359375 5.34171875 1.875 6.375 C1.85179687 7.37273437 1.82859375 8.37046875 1.8046875 9.3984375 C1.72783152 12.16262173 1.72783152 12.16262173 4 14 C3.8125 16.0625 3.8125 16.0625 3 18 C2.01 18.33 1.02 18.66 0 19 C0 12.73 0 6.46 0 0 Z " fill="#FBC687" transform="translate(292,285)"/>
<path d="M0 0 C0.33 0 0.66 0 1 0 C1.28977022 5.36074908 -0.71870653 7.76285752 -4.125 11.6875 C-4.66382813 12.31011719 -5.20265625 12.93273437 -5.7578125 13.57421875 C-6.16773438 14.04472656 -6.57765625 14.51523438 -7 15 C-7.66 14.67 -8.32 14.34 -9 14 C-7.52504318 11.66390677 -6.04531255 9.33109833 -4.5625 7 C-4.14162109 6.33226562 -3.72074219 5.66453125 -3.28710938 4.9765625 C-2.21811183 3.30037435 -1.11197395 1.64799163 0 0 Z " fill="#FDE4E8" transform="translate(239,155)"/>
<path d="M0 0 C3.62484999 -0.08681476 7.24943443 -0.14032721 10.875 -0.1875 C12.42380859 -0.22520508 12.42380859 -0.22520508 14.00390625 -0.26367188 C14.99003906 -0.27333984 15.97617188 -0.28300781 16.9921875 -0.29296875 C17.90339355 -0.3086792 18.81459961 -0.32438965 19.75341797 -0.34057617 C20.49479004 -0.22818604 21.23616211 -0.1157959 22 0 C22.66 0.99 23.32 1.98 24 3 C16.08 2.34 8.16 1.68 0 1 C0 0.67 0 0.34 0 0 Z " fill="#F9E1FD" transform="translate(212,0)"/>
<path d="M0 0 C5.99726352 0.65978357 11.04026899 1.7747718 16.58203125 4.1796875 C16.58203125 4.5096875 16.58203125 4.8396875 16.58203125 5.1796875 C13.20703125 5.3046875 13.20703125 5.3046875 9.58203125 5.1796875 C8.92203125 4.5196875 8.26203125 3.8596875 7.58203125 3.1796875 C4.45388611 2.93608677 4.45388611 2.93608677 0.95703125 3.0546875 C-0.82574219 3.08175781 -0.82574219 3.08175781 -2.64453125 3.109375 C-4.01738281 3.14417969 -4.01738281 3.14417969 -5.41796875 3.1796875 C-3.66384818 0.93021726 -2.90186558 0.21564752 0 0 Z " fill="#FDE3FA" transform="translate(191.41796875,96.8203125)"/>
<path d="M0 0 C4.07376031 1.61010527 6.76507069 4.53822271 9.75 7.625 C10.25660156 8.140625 10.76320313 8.65625 11.28515625 9.1875 C12.52803902 10.45383339 13.76465276 11.7263144 15 13 C14.01 13.33 13.02 13.66 12 14 C12 13.34 12 12.68 12 12 C11.34 12 10.68 12 10 12 C7.375 9.625 7.375 9.625 5 7 C5 6.34 5 5.68 5 5 C4.01 5 3.02 5 2 5 C1.34 3.35 0.68 1.7 0 0 Z " fill="#FDEFE2" transform="translate(54,338)"/>
<path d="M0 0 C1.44926837 4.45552099 0.1032744 6.86856813 -2 11 C-3.6875 12.9375 -3.6875 12.9375 -5 14 C-5.74737188 8.02102497 -3.3231898 4.67620279 0 0 Z " fill="#EE95BD" transform="translate(229,109)"/>
<path d="M0 0 C1.86707956 2.74570524 1.99611083 4.05347608 1.75 7.4375 C0.10204082 15.26530612 0.10204082 15.26530612 -4 18 C-3.47678132 15.12229728 -2.81807548 12.37463446 -2 9.5625 C-1.10439751 6.37191613 -0.47925998 3.27494319 0 0 Z " fill="#F8AE94" transform="translate(206,250)"/>
<path d="M0 0 C-1.46818668 3.10742423 -3.20025 5.90471739 -5.125 8.75 C-5.93324219 9.94882813 -5.93324219 9.94882813 -6.7578125 11.171875 C-7.16773438 11.77515625 -7.57765625 12.3784375 -8 13 C-9 10 -9 10 -8.328125 8.02734375 C-7.97234375 7.33769531 -7.6165625 6.64804688 -7.25 5.9375 C-6.90453125 5.24527344 -6.5590625 4.55304688 -6.203125 3.83984375 C-4.57926027 1.35659606 -3.05193205 0 0 0 Z " fill="#F4E6FE" transform="translate(41,78)"/>
<path d="M0 0 C0.33 0 0.66 0 1 0 C1.125 3.375 1.125 3.375 1 7 C0.34 7.66 -0.32 8.32 -1 9 C-2.93798263 11.77260299 -2.93798263 11.77260299 -4 14 C-4.66 14 -5.32 14 -6 14 C-4.50829734 9.0276578 -2.39542583 4.58154261 0 0 Z " fill="#FEEAEB" transform="translate(205,214)"/>
<path d="M0 0 C1 3 1 3 -0.25 5.625 C-2 8 -2 8 -5 9 C-5.73323796 11.01508358 -5.73323796 11.01508358 -6 13 C-6.99 13 -7.98 13 -9 13 C-6.09700957 8.59175527 -3.08418637 4.28359219 0 0 Z " fill="#FCE4F7" transform="translate(157,129)"/>
<path d="M0 0 C-2.23847252 3.35770877 -2.40958399 3.2145965 -6 4 C-6.66 4.66 -7.32 5.32 -8 6 C-8.33 5.34 -8.66 4.68 -9 4 C-8.67 3.34 -8.34 2.68 -8 2 C-9.98 2 -11.96 2 -14 2 C-14 1.67 -14 1.34 -14 1 C-9.32798795 -0.20568053 -4.78503708 -0.09382426 0 0 Z " fill="#AE7FF3" transform="translate(168,5)"/>
<path d="M0 0 C0.99 0.66 1.98 1.32 3 2 C2.690625 2.5775 2.38125 3.155 2.0625 3.75 C0.92256867 5.92954724 0.92256867 5.92954724 0.5625 8.1875 C0.376875 8.785625 0.19125 9.38375 0 10 C-0.99 10.33 -1.98 10.66 -3 11 C-2.53199289 6.94393835 -2.12046792 3.53411321 0 0 Z " fill="#F4A79F" transform="translate(308,158)"/>
<path d="M0 0 C6.46326465 -0.45356243 9.60931587 0.40621058 15 4 C14.34 4.66 13.68 5.32 13 6 C8.71 4.35 4.42 2.7 0 1 C0 0.67 0 0.34 0 0 Z " fill="#EFA7BC" transform="translate(301,100)"/>
<path d="M0 0 C0.99 0.33 1.98 0.66 3 1 C2.34 2.65 1.68 4.3 1 6 C0.34 6 -0.32 6 -1 6 C-1.66 7.65 -2.32 9.3 -3 11 C-3.66 10.01 -4.32 9.02 -5 8 C-3.35 5.36 -1.7 2.72 0 0 Z " fill="#FDF1F0" transform="translate(251,154)"/>
<path d="M0 0 C0.969375 0.165 1.93875 0.33 2.9375 0.5 C2.9375 0.83 2.9375 1.16 2.9375 1.5 C1.4215625 1.809375 1.4215625 1.809375 -0.125 2.125 C-4.71157657 3.39800901 -7.6998197 6.24974974 -11.0625 9.5 C-11.7225 9.17 -12.3825 8.84 -13.0625 8.5 C-4.62074616 -0.07574994 -4.62074616 -0.07574994 0 0 Z " fill="#FEE0EF" transform="translate(290.0625,96.5)"/>
<path d="M0 0 C0.66 0.33 1.32 0.66 2 1 C0.78934835 4.63195496 -0.53691126 5.42896192 -3.5625 7.6875 C-4.38878906 8.31011719 -5.21507812 8.93273437 -6.06640625 9.57421875 C-6.70449219 10.04472656 -7.34257812 10.51523437 -8 11 C-8.66 10.67 -9.32 10.34 -10 10 C-5.12149533 3.76635514 -5.12149533 3.76635514 -1 2 C-0.67 1.34 -0.34 0.68 0 0 Z " fill="#FEF6E5" transform="translate(341,341)"/>
<path d="M0 0 C0.33 0 0.66 0 1 0 C1.08114106 1.77007714 1.13925505 3.54122098 1.1875 5.3125 C1.22230469 6.29863281 1.25710937 7.28476562 1.29296875 8.30078125 C1 11 1 11 -0.51171875 12.85546875 C-1.00285156 13.23316406 -1.49398437 13.61085938 -2 14 C-3.25127906 10.45332822 -2.72285053 8.27746562 -1.5625 4.75 C-1.27503906 3.85796875 -0.98757812 2.9659375 -0.69140625 2.046875 C-0.46324219 1.37140625 -0.23507813 0.6959375 0 0 Z " fill="#EFB1AF" transform="translate(103,270)"/>
<path d="M0 0 C1.79378179 2.69067269 2.97313958 5.08578257 4.1875 8.0625 C4.55230469 8.94035156 4.91710937 9.81820313 5.29296875 10.72265625 C6 13 6 13 5 15 C1.5400423 12.32639632 0.93027761 9.15046933 0 5 C-0.125 2.0625 -0.125 2.0625 0 0 Z " fill="#FDE0EE" transform="translate(9,261)"/>
<path d="M0 0 C0.99 0.33 1.98 0.66 3 1 C2.071875 1.3403125 2.071875 1.3403125 1.125 1.6875 C-1.21499426 2.83106583 -1.21499426 2.83106583 -1.875 5.375 C-3.40780862 8.95155346 -5.71143209 10.06975362 -9 12 C-6.90670989 7.29009726 -3.71675786 3.53091997 0 0 Z " fill="#F2ABB9" transform="translate(263,144)"/>
<path d="M0 0 C4.16290121 3.40601008 5.42302283 8.80720549 6 14 C5.34 14.66 4.68 15.32 4 16 C3.32815382 13.89748139 2.66269032 11.79292237 2 9.6875 C1.443125 7.92986328 1.443125 7.92986328 0.875 6.13671875 C0 3 0 3 0 0 Z " fill="#FEF0E5" transform="translate(389,133)"/>
<path d="M0 0 C0 3 0 3 -1 5 C-0.34 5 0.32 5 1 5 C1 5.66 1 6.32 1 7 C0.4225 7.2475 -0.155 7.495 -0.75 7.75 C-3.3002997 9.16683317 -5.01785701 10.87627537 -7 13 C-7 12.01 -7 11.02 -7 10 C-6.34 10 -5.68 10 -5 10 C-4.731875 9.0925 -4.46375 8.185 -4.1875 7.25 C-3.10423706 4.28528037 -2.01640543 2.3830246 0 0 Z " fill="#B280E6" transform="translate(31,96)"/>
<path d="M0 0 C5.26053037 -0.31563182 8.44573816 0.33409063 13 3 C12.67 3.66 12.34 4.32 12 5 C10.68 5 9.36 5 8 5 C8 4.01 8 3.02 8 2 C5.69 2 3.38 2 1 2 C0.67 1.34 0.34 0.68 0 0 Z " fill="#BE80E7" transform="translate(208,2)"/>
<path d="M0 0 C0.33 0 0.66 0 1 0 C1 2.64 1 5.28 1 8 C1.66 8 2.32 8 3 8 C3.33 10.31 3.66 12.62 4 15 C2.68 14.34 1.36 13.68 0 13 C0 8.71 0 4.42 0 0 Z " fill="#FDF1E6" transform="translate(162,280)"/>
<path d="M0 0 C0 0.66 0 1.32 0 2 C-1.66666667 3.33333333 -3.33333333 4.66666667 -5 6 C-5 6.66 -5 7.32 -5 8 C-4.34 8 -3.68 8 -3 8 C-3.33 8.99 -3.66 9.98 -4 11 C-4.99 11 -5.98 11 -7 11 C-7.3125 8.3125 -7.3125 8.3125 -7 5 C-2.86956522 0 -2.86956522 0 0 0 Z " fill="#F78CBA" transform="translate(171,149)"/>
<path d="M0 0 C0.33 0 0.66 0 1 0 C1.35233161 5.37305699 1.35233161 5.37305699 1 8 C-1 10 -1 10 -3 11 C-3.66 10.67 -4.32 10.34 -5 10 C-3.35 6.7 -1.7 3.4 0 0 Z " fill="#F1B3B3" transform="translate(237,180)"/>
<path d="M0 0 C0.66 0.33 1.32 0.66 2 1 C0.35 4.63 -1.3 8.26 -3 12 C-3.33 12 -3.66 12 -4 12 C-4.19491883 7.80924525 -3.93330576 4.75920564 -2 1 C-1.34 0.67 -0.68 0.34 0 0 Z " fill="#FDECEF" transform="translate(118,229)"/>
<path d="M0 0 C0.33 0 0.66 0 1 0 C1.24900646 1.93505023 1.47356242 3.87325934 1.6875 5.8125 C1.87892578 7.43091797 1.87892578 7.43091797 2.07421875 9.08203125 C2 12 2 12 -1 15 C-0.67 10.05 -0.34 5.1 0 0 Z " fill="#FDEBDD" transform="translate(262,216)"/>
<path d="M0 0 C0.99 0 1.98 0 3 0 C3 3.75482645 2.88186002 4.9681144 1 8 C0.01 8.495 0.01 8.495 -1 9 C-1.125 2.25 -1.125 2.25 0 0 Z " fill="#FBAA94" transform="translate(301,186)"/>
<path d="M0 0 C0 0.66 0 1.32 0 2 C2.97 2.33 5.94 2.66 9 3 C9 3.99 9 4.98 9 6 C7.39402675 5.54803755 5.79027492 5.08817673 4.1875 4.625 C3.29417969 4.36976562 2.40085937 4.11453125 1.48046875 3.8515625 C-1 3 -1 3 -4 1 C-2 0 -2 0 0 0 Z " fill="#FBE5FC" transform="translate(265,8)"/>
<path d="M0 0 C0.99 0.495 0.99 0.495 2 1 C2.8125 4.375 2.8125 4.375 3 8 C2.01 8.99 1.02 9.98 0 11 C0 7.37 0 3.74 0 0 Z " fill="#FCB47E" transform="translate(294,232)"/>
<path d="M0 0 C0.66 0.33 1.32 0.66 2 1 C-0.10543228 3.94760519 -2.26807137 6.60956245 -5 9 C-5.99 9 -6.98 9 -8 9 C-8 8.34 -8 7.68 -8 7 C-6.25 5.2734375 -6.25 5.2734375 -4 3.375 C-3.2575 2.74335937 -2.515 2.11171875 -1.75 1.4609375 C-1.1725 0.97882812 -0.595 0.49671875 0 0 Z " fill="#A97EF6" transform="translate(65,54)"/>
<path d="M0 0 C0.66 0 1.32 0 2 0 C1.34 4.62 0.68 9.24 0 14 C-0.33 14 -0.66 14 -1 14 C-1.02694851 12.04174127 -1.04637218 10.08337774 -1.0625 8.125 C-1.07410156 7.03445313 -1.08570312 5.94390625 -1.09765625 4.8203125 C-1 2 -1 2 0 0 Z " fill="#FEECEB" transform="translate(99,277)"/>
<path d="M0 0 C0.99 0 1.98 0 3 0 C2.01 3.96 1.02 7.92 0 12 C-0.33 12 -0.66 12 -1 12 C-1.14285714 3.42857143 -1.14285714 3.42857143 0 0 Z " fill="#FDF0E5" transform="translate(201,256)"/>
<path d="M0 0 C1.77155654 0.11429397 3.54226229 0.24183037 5.3125 0.375 C6.79169922 0.47941406 6.79169922 0.47941406 8.30078125 0.5859375 C11 1 11 1 14 3 C14 3.66 14 4.32 14 5 C12.03964825 4.55037804 10.08175691 4.09001752 8.125 3.625 C7.03445313 3.36976562 5.94390625 3.11453125 4.8203125 2.8515625 C2 2 2 2 0 0 Z " fill="#F19FBD" transform="translate(286,95)"/>
<path d="M0 0 C-1.75864246 2.1793144 -2.69396 2.93686419 -5.48046875 3.51171875 C-6.82044922 3.59873047 -6.82044922 3.59873047 -8.1875 3.6875 C-9.08855469 3.75324219 -9.98960938 3.81898437 -10.91796875 3.88671875 C-11.60503906 3.92410156 -12.29210937 3.96148438 -13 4 C-10.56272708 2.37515139 -8.62713877 1.34310925 -5.9375 0.3125 C-5.24527344 0.04050781 -4.55304688 -0.23148438 -3.83984375 -0.51171875 C-2 -1 -2 -1 0 0 Z " fill="#AF91E2" transform="translate(135,12)"/>
<path d="M0 0 C1.62723299 0.45034123 3.25173664 0.91055354 4.875 1.375 C5.77992188 1.63023438 6.68484375 1.88546875 7.6171875 2.1484375 C10 3 10 3 12 5 C6.06 4.01 6.06 4.01 0 3 C0 2.01 0 1.02 0 0 Z " fill="#C793CC" transform="translate(256,8)"/>
<path d="M0 0 C0.68707555 2.49064888 1 4.37886292 1 7 C-0.375 8.6875 -0.375 8.6875 -2 10 C-2.66 10 -3.32 10 -4 10 C-3.52449439 8.51965236 -3.04448784 7.04074979 -2.5625 5.5625 C-2.29566406 4.73878906 -2.02882813 3.91507813 -1.75390625 3.06640625 C-1 1 -1 1 0 0 Z " fill="#FCE9EE" transform="translate(92,240)"/>
<path d="M0 0 C0.33 0 0.66 0 1 0 C1.33 2.64 1.66 5.28 2 8 C1.01 8.33 0.02 8.66 -1 9 C-1 11.31 -1 13.62 -1 16 C-1.33 16 -1.66 16 -2 16 C-2.20674944 10.21101581 -1.59162079 5.57067277 0 0 Z " fill="#F4C1AE" transform="translate(297,200)"/>
<path d="M0 0 C0.66 0.33 1.32 0.66 2 1 C1.67 2.32 1.34 3.64 1 5 C0.34 5 -0.32 5 -1 5 C-1 5.66 -1 6.32 -1 7 C-1.99 7.33 -2.98 7.66 -4 8 C-3.34 6.02 -2.68 4.04 -2 2 C-1.34 2 -0.68 2 0 2 C0 1.34 0 0.68 0 0 Z " fill="#F58EB8" transform="translate(158,162)"/>
<path d="M0 0 C0.33 0.66 0.66 1.32 1 2 C3.64 2 6.28 2 9 2 C8.67 3.32 8.34 4.64 8 6 C4.33118845 5.29445932 1.29549466 3.72264494 -2 2 C-1.34 1.34 -0.68 0.68 0 0 Z " fill="#E794BE" transform="translate(215,102)"/>
<path d="M0 0 C1.65 1.65 3.3 3.3 5 5 C4.01 5.66 3.02 6.32 2 7 C1.01 6.67 0.02 6.34 -1 6 C-0.67 4.02 -0.34 2.04 0 0 Z " fill="#F2A3B9" transform="translate(354,73)"/>
<path d="M0 0 C4.21912747 0.4794463 6.79663178 1.16625119 10 4 C6.93109813 5.53445094 4.29905734 4.54984289 1 4 C0.67 2.68 0.34 1.36 0 0 Z " fill="#F8B38F" transform="translate(170,299)"/>
<path d="M0 0 C4.455 0.99 4.455 0.99 9 2 C8.67 2.99 8.34 3.98 8 5 C4.33776842 4.50510384 2.33006074 3.94323463 0 1 C0 0.67 0 0.34 0 0 Z " fill="#F7A59F" transform="translate(80,299)"/>
<path d="M0 0 C0.66 0.33 1.32 0.66 2 1 C2 4.96 2 8.92 2 13 C1.34 12.34 0.68 11.68 0 11 C0.375 7.375 0.375 7.375 1 4 C0.34 4 -0.32 4 -1 4 C-0.67 2.68 -0.34 1.36 0 0 Z " fill="#F8B38E" transform="translate(257,232)"/>
<path d="M0 0 C2.5 2.3125 2.5 2.3125 5 5 C5 5.99 5 6.98 5 8 C4.01 7.67 3.02 7.34 2 7 C2 6.34 2 5.68 2 5 C1.34 5 0.68 5 0 5 C0 3.35 0 1.7 0 0 Z " fill="#FDECE6" transform="translate(42,323)"/>
<path d="M0 0 C4.35535069 1.16142685 6.64619703 2.07699505 9 6 C5.59687262 4.94124926 2.98646769 3.99097846 0 2 C0 1.34 0 0.68 0 0 Z " fill="#F2C692" transform="translate(258,293)"/>
<path d="M0 0 C0.33 0 0.66 0 1 0 C0.88490339 1.41750563 0.75746342 2.83401169 0.625 4.25 C0.55539063 5.03890625 0.48578125 5.8278125 0.4140625 6.640625 C-0.01507113 9.085877 -0.78600638 10.84836903 -2 13 C-2.05447047 11.58376784 -2.09300508 10.16691809 -2.125 8.75 C-2.14820313 7.96109375 -2.17140625 7.1721875 -2.1953125 6.359375 C-1.9828378 3.79268059 -1.28654105 2.2083933 0 0 Z " fill="#FFF3E4" transform="translate(197,275)"/>
<path d="M0 0 C1.1875 1.5 1.1875 1.5 2 4 C1.27101296 6.78824238 0.1843275 9.37665092 -1 12 C-2.45606519 7.47907032 -1.27032841 4.48351204 0 0 Z " fill="#FDF2EC" transform="translate(211,228)"/>
<path d="M0 0 C0.66 0 1.32 0 2 0 C1.01 3.3 0.02 6.6 -1 10 C-1.33 10 -1.66 10 -2 10 C-2.25 3.375 -2.25 3.375 0 0 Z " fill="#FDF1E6" transform="translate(218,214)"/>
<path d="M0 0 C0.66 0 1.32 0 2 0 C1.34 3.63 0.68 7.26 0 11 C-0.33 11 -0.66 11 -1 11 C-1.02688151 9.35425434 -1.04634123 7.70838587 -1.0625 6.0625 C-1.07410156 5.14597656 -1.08570313 4.22945312 -1.09765625 3.28515625 C-1 1 -1 1 0 0 Z " fill="#FC88BB" transform="translate(179,137)"/>
<path d="M0 0 C0.66 0 1.32 0 2 0 C1.5206753 4.31392226 0.2542015 6.16569547 -3 9 C-2.67 6.69 -2.34 4.38 -2 2 C-1.34 2 -0.68 2 0 2 C0 1.34 0 0.68 0 0 Z " fill="#ECA5B8" transform="translate(249,136)"/>
<path d="M0 0 C1.98 0.495 1.98 0.495 4 1 C3.54625 1.7425 3.0925 2.485 2.625 3.25 C1.32573985 5.44874794 0.14215318 7.71569364 -1 10 C-0.67 6.7 -0.34 3.4 0 0 Z " fill="#F5A4A4" transform="translate(199,208)"/>
<path d="M0 0 C0.99 0 1.98 0 3 0 C2.34 3.63 1.68 7.26 1 11 C0.67 11 0.34 11 0 11 C0 7.37 0 3.74 0 0 Z " fill="#FEEEF0" transform="translate(204,170)"/>
<path d="M0 0 C0.99 0 1.98 0 3 0 C2.67 1.65 2.34 3.3 2 5 C1.01 5.33 0.02 5.66 -1 6 C-1.042721 4.33388095 -1.04063832 2.66617115 -1 1 C-0.67 0.67 -0.34 0.34 0 0 Z " fill="#AF7DF5" transform="translate(37,87)"/>
<path d="M0 0 C1.32 0.33 2.64 0.66 4 1 C3.01 1.495 3.01 1.495 2 2 C1.27840576 3.64363134 0.60648579 5.31050386 0 7 C-0.66 5.68 -1.32 4.36 -2 3 C-1.34 2.01 -0.68 1.02 0 0 Z " fill="#F9FCF0" transform="translate(34,78)"/>
<path d="M0 0 C0.33 1.32 0.66 2.64 1 4 C-0.65 5.32 -2.3 6.64 -4 8 C-4 4.09161134 -2.49432124 2.88405893 0 0 Z " fill="#FCF0DE" transform="translate(359,320)"/>
<path d="M0 0 C0.66 0.33 1.32 0.66 2 1 C0.625 3.5 0.625 3.5 -1 6 C-1.66 6 -2.32 6 -3 6 C-3.33 6.99 -3.66 7.98 -4 9 C-4 7.68 -4 6.36 -4 5 C-3.34 5 -2.68 5 -2 5 C-2 3.68 -2 2.36 -2 1 C-1.34 0.67 -0.68 0.34 0 0 Z " fill="#EEACA9" transform="translate(201,219)"/>
<path d="M0 0 C1 3 1 3 -0.3125 6.625 C-2 10 -2 10 -4 11 C-3.52269162 9.5410574 -3.04308958 8.08286504 -2.5625 6.625 C-2.29566406 5.81289062 -2.02882812 5.00078125 -1.75390625 4.1640625 C-1 2 -1 2 0 0 Z " fill="#ECB7AE" transform="translate(222,210)"/>
<path d="M0 0 C-0.33 2.31 -0.66 4.62 -1 7 C-1.99 6.34 -2.98 5.68 -4 5 C-4 3.68 -4 2.36 -4 1 C-1 0 -1 0 0 0 Z " fill="#F6A69F" transform="translate(266,191)"/>
<path d="M0 0 C0.66 0 1.32 0 2 0 C2.33 0.99 2.66 1.98 3 3 C2.67 3.66 2.34 4.32 2 5 C1.34 5 0.68 5 0 5 C-0.33 5.66 -0.66 6.32 -1 7 C-1.625 5.1875 -1.625 5.1875 -2 3 C-1.34 2.01 -0.68 1.02 0 0 Z " fill="#F889C2" transform="translate(130,161)"/>
<path d="M0 0 C0.33 0.99 0.66 1.98 1 3 C-0.65 4.65 -2.3 6.3 -4 8 C-4.66 7.67 -5.32 7.34 -6 7 C-4.02 4.69 -2.04 2.38 0 0 Z " fill="#FCE5EF" transform="translate(276,106)"/>
<path d="M0 0 C0.99 0.99 1.98 1.98 3 3 C2.01 5.31 1.02 7.62 0 10 C-1.2380014 6.42355152 -0.74926071 3.66305234 0 0 Z " fill="#E6C6C5" transform="translate(193,232)"/>
<path d="M0 0 C1.37245106 2.74490212 0.93580311 4.12060581 0 7 C-2.0625 8.3125 -2.0625 8.3125 -4 9 C-2.80100302 5.9168649 -1.52299523 2.93720508 0 0 Z " fill="#FDDEEC" transform="translate(106,213)"/>
<path d="M0 0 C0.66 0.99 1.32 1.98 2 3 C1.01 3.33 0.02 3.66 -1 4 C-0.67 4.99 -0.34 5.98 0 7 C-1.32 7.33 -2.64 7.66 -4 8 C-2.87548273 5.0280615 -1.77706209 2.66559313 0 0 Z " fill="#FCE3F5" transform="translate(135,162)"/>
<path d="M0 0 C1.98 0.495 1.98 0.495 4 1 C2.02 3.97 2.02 3.97 0 7 C-0.93423645 3.98968256 -1.04449911 3.13349732 0 0 Z " fill="#FEECF8" transform="translate(153,162)"/>
<path d="M0 0 C3 1 3 1 4.25 2.8125 C5.11637742 5.33943414 4.88492145 6.52221994 4 9 C0 2.25 0 2.25 0 0 Z " fill="#FEE8E7" transform="translate(373,99)"/>
<path d="M0 0 C0 3 0 3 -1 5 C-0.67 5.99 -0.34 6.98 0 8 C-0.99 8.495 -0.99 8.495 -2 9 C-2.66 8.34 -3.32 7.68 -4 7 C-2.92598892 4.08482708 -2.22189824 2.22189824 0 0 Z " fill="#AC7EF5" transform="translate(56,63)"/>
<path d="M0 0 C0.66 0 1.32 0 2 0 C2 0.66 2 1.32 2 2 C1.34 2 0.68 2 0 2 C0.33 3.32 0.66 4.64 1 6 C-0.32 6 -1.64 6 -3 6 C-1.125 1.125 -1.125 1.125 0 0 Z " fill="#A788EC" transform="translate(87,34)"/>
<path d="M0 0 C-3.28463659 2.18975773 -6.20696275 2.99806563 -10 4 C-9.67 3.01 -9.34 2.02 -9 1 C-6.03421164 -0.16513114 -3.15436364 -0.08762121 0 0 Z " fill="#F5E5FE" transform="translate(136,10)"/>
<path d="M0 0 C0 0.99 0 1.98 0 3 C-2.64 3 -5.28 3 -8 3 C-5.36657694 0.36657694 -3.69534435 0 0 0 Z " fill="#B396E6" transform="translate(144,8)"/>
</svg>
