<?xml version="1.0" encoding="UTF-8"?>
<svg version="1.1" xmlns="http://www.w3.org/2000/svg" width="200" height="200">
<path d="M0 0 C66 0 132 0 200 0 C200 66 200 132 200 200 C134 200 68 200 0 200 C0 134 0 68 0 0 Z " fill="#FEFEFE" transform="translate(0,0)"/>
<path d="M0 0 C7.01539172 3.65451442 13.83136521 7.66181327 20.6171875 11.72265625 C26.53784369 15.25981757 32.52189293 18.68618225 38.5 22.125 C40.73577786 23.41649222 42.97145665 24.70815596 45.20703125 26 C49.02767025 28.20591964 52.85639565 30.39548882 56.69921875 32.5625 C67.1266325 38.48355012 75.75656493 43.9544594 80.25 55.5625 C81.18671213 63.29037508 80.34005857 68.63763558 75.71777344 75.12719727 C73.38148134 77.75848354 71.32412268 79.18819629 68.265625 80.90234375 C67.22905762 81.49088135 66.19249023 82.07941895 65.12451172 82.68579102 C64.01092285 83.30510498 62.89733398 83.92441895 61.75 84.5625 C60.57893303 85.22401765 59.40853249 85.8867163 58.23876953 86.55053711 C55.83405315 87.91458899 53.42705982 89.27448648 51.01855469 90.63183594 C45.77218305 93.59561845 40.57436548 96.64225002 35.375 99.6875 C33.4179986 100.82947824 31.46096723 101.97140513 29.50390625 103.11328125 C25.27806254 105.58225857 21.05786915 108.06066049 16.83984375 110.54296875 C15.74752441 111.18419678 14.65520508 111.8254248 13.52978516 112.48608398 C11.43531296 113.71577979 9.3424515 114.94822454 7.25146484 116.18383789 C6.30867676 116.73676514 5.36588867 117.28969238 4.39453125 117.859375 C3.56800049 118.34631836 2.74146973 118.83326172 1.88989258 119.33496094 C-3.95882328 122.4920367 -8.89375087 123.58462334 -15.5 122.625 C-22.55446291 119.90688257 -28.37709012 113.95458793 -31.67247009 107.23379517 C-35.17177171 97.74026633 -35.10167348 88.62488018 -35.06640625 78.6484375 C-35.07165307 76.82866094 -35.07793339 75.00888709 -35.08518982 73.18911743 C-35.09553944 69.39515279 -35.091109 65.60156454 -35.07641602 61.80761719 C-35.05919832 56.96801826 -35.08278871 52.12960341 -35.11790562 47.29013634 C-35.139954 43.53921787 -35.13842085 39.78857984 -35.1301403 36.03761673 C-35.12932559 34.25399091 -35.13609626 32.4703435 -35.15091133 30.68677902 C-35.28828001 11.16814207 -35.28828001 11.16814207 -28.0927887 3.03427124 C-19.20541152 -5.12035211 -10.15840225 -5.09817849 0 0 Z " fill="#050505" transform="translate(75.5,38.375)"/>
<path d="M0 0 C2.375 0.75 2.375 0.75 3.375 1.75 C3.47527795 4.14809149 3.51118676 6.51739498 3.50439453 8.91601562 C3.50614685 9.66558029 3.50789917 10.41514496 3.50970459 11.18742371 C3.5141232 13.67705569 3.5111851 16.16661723 3.5078125 18.65625 C3.50848554 20.37878432 3.50945556 22.10131855 3.51071167 23.82385254 C3.51218865 27.43872988 3.51003407 31.05358255 3.50537109 34.66845703 C3.4996738 39.31266493 3.5029528 43.95681504 3.50894356 48.60102081 C3.51254916 52.15936726 3.51141059 55.7176999 3.50881577 59.27604675 C3.50814649 60.98894762 3.50897493 62.70184972 3.51129532 64.41474915 C3.51382183 66.80452822 3.5099813 69.19421241 3.50439453 71.58398438 C3.50641876 72.29882492 3.50844299 73.01366547 3.51052856 73.75016785 C3.48926269 78.63573731 3.48926269 78.63573731 2.375 79.75 C-0.5625 79.9375 -0.5625 79.9375 -3.625 79.75 C-6.52273804 76.85226196 -5.88548584 74.74266349 -5.8996582 70.68579102 C-5.90476913 69.95880005 -5.90988007 69.23180908 -5.91514587 68.48278809 C-5.92907695 66.07307769 -5.92808247 63.66365219 -5.92578125 61.25390625 C-5.92966635 59.58243198 -5.93400064 57.91095869 -5.93876648 56.23948669 C-5.94623631 52.7331116 -5.94593199 49.22683717 -5.94067383 45.72045898 C-5.93487916 41.22318832 -5.95180621 36.72632948 -5.9750185 32.22912693 C-5.98973845 28.7761951 -5.99062991 25.32336284 -5.98750877 21.8704052 C-5.9880229 20.21217979 -5.99327768 18.55394894 -6.00332069 16.89575386 C-6.01563401 14.57809697 -6.00892477 12.26124713 -5.99731445 9.94360352 C-5.99794388 8.62393082 -5.9985733 7.30425812 -5.9992218 5.94459534 C-5.625 2.75 -5.625 2.75 -4.26579285 0.78477478 C-2.625 -0.25 -2.625 -0.25 0 0 Z " fill="#F4F4F4" transform="translate(76.625,58.25)"/>
<path d="M0 0 C3.0625 0.25 3.0625 0.25 6 1 C7.22170834 3.44341668 7.13336209 5.03803969 7.14526367 7.76928711 C7.15483345 9.2560923 7.15483345 9.2560923 7.16459656 10.77293396 C7.16570938 11.84688919 7.1668222 12.92084442 7.16796875 14.02734375 C7.17129715 15.12720108 7.17462555 16.22705841 7.17805481 17.36024475 C7.18312435 19.68962179 7.18546313 22.01900612 7.18530273 24.34838867 C7.18748881 27.91922932 7.20564335 31.48976095 7.22460938 35.06054688 C7.22754331 37.32031144 7.22952811 39.58007748 7.23046875 41.83984375 C7.23765427 42.91177475 7.24483978 43.98370575 7.25224304 45.08811951 C7.24916641 46.08247513 7.24608978 47.07683075 7.24291992 48.10131836 C7.24434494 48.97686874 7.24576996 49.85241913 7.24723816 50.75450134 C7 53 7 53 5 56 C1.875 56.1875 1.875 56.1875 -1 56 C-2.24576657 53.50846686 -2.1336297 51.818732 -2.14526367 49.03125 C-2.15164352 47.99677734 -2.15802338 46.96230469 -2.16459656 45.89648438 C-2.16570938 44.77564453 -2.1668222 43.65480469 -2.16796875 42.5 C-2.17296135 40.78006836 -2.17296135 40.78006836 -2.17805481 39.02539062 C-2.18312428 36.59766034 -2.18546313 34.16992307 -2.18530273 31.7421875 C-2.18749089 28.01550918 -2.20565125 24.28912596 -2.22460938 20.5625 C-2.22754287 18.20833435 -2.22952796 15.85416729 -2.23046875 13.5 C-2.23765427 12.37916016 -2.24483978 11.25832031 -2.25224304 10.10351562 C-2.24916641 9.06904297 -2.24608978 8.03457031 -2.24291992 6.96875 C-2.24434494 6.05544922 -2.24576996 5.14214844 -2.24723816 4.20117188 C-2 2 -2 2 0 0 Z " fill="#F6F6F6" transform="translate(58,70)"/>
<path d="M0 0 C2.40212156 3.60318233 2.25748287 5.28393815 2.265625 9.56640625 C2.26820312 10.85611328 2.27078125 12.14582031 2.2734375 13.47460938 C2.26924805 14.14516357 2.26505859 14.81571777 2.26074219 15.5065918 C2.2500197 17.55873055 2.26065635 19.60999748 2.2734375 21.66210938 C2.27085938 22.95052734 2.26828125 24.23894531 2.265625 25.56640625 C2.26336914 26.75177979 2.26111328 27.93715332 2.25878906 29.15844727 C2 32 2 32 0 34 C-3.0625 34.1875 -3.0625 34.1875 -6 34 C-7 33 -7 33 -7.11352539 29.94897461 C-7.11336634 28.60008729 -7.10767612 27.25119386 -7.09765625 25.90234375 C-7.0962413 25.19348526 -7.09482635 24.48462677 -7.09336853 23.75428772 C-7.08775443 21.48198288 -7.07519963 19.20977525 -7.0625 16.9375 C-7.05748681 15.40039204 -7.05292359 13.86328255 -7.04882812 12.32617188 C-7.03778042 8.55074358 -7.02050641 4.77538829 -7 1 C-4.46578263 -0.26710868 -2.80561762 -0.28056176 0 0 Z " fill="#F2F2F2" transform="translate(121,81)"/>
<path d="M0 0 C3.0625 0.25 3.0625 0.25 6 1 C7.5720124 4.14402481 7.18446744 7.48947397 7.1875 10.9375 C7.19974609 11.66646484 7.21199219 12.39542969 7.22460938 13.14648438 C7.23512685 16.9713391 7.17095624 18.74356564 5 22 C2.5 22.3125 2.5 22.3125 0 22 C-2.36568222 19.63431778 -2.25571704 19.14767774 -2.265625 15.9375 C-2.26820312 15.14085938 -2.27078125 14.34421875 -2.2734375 13.5234375 C-2.26570313 12.69070312 -2.25796875 11.85796875 -2.25 11 C-2.25773437 10.16726562 -2.26546875 9.33453125 -2.2734375 8.4765625 C-2.27085938 7.67992188 -2.26828125 6.88328125 -2.265625 6.0625 C-2.26336914 5.33160156 -2.26111328 4.60070312 -2.25878906 3.84765625 C-2 2 -2 2 0 0 Z " fill="#F5F5F5" transform="translate(130,87)"/>
<path d="M0 0 C2.375 0.8125 2.375 0.8125 3.375 2.8125 C3.49932618 5.65754568 3.5601641 8.46737152 3.5625 11.3125 C3.57474609 12.09753906 3.58699219 12.88257812 3.59960938 13.69140625 C3.60486254 15.73313726 3.4972018 17.77442251 3.375 19.8125 C1.375 21.8125 1.375 21.8125 -1.125 22.125 C-1.95 22.021875 -2.775 21.91875 -3.625 21.8125 C-6.11114181 18.08328729 -5.95670055 15.12878318 -5.9375 10.8125 C-5.95361328 10.08804688 -5.96972656 9.36359375 -5.98632812 8.6171875 C-5.99118165 3.35596844 -5.99118165 3.35596844 -4.26953125 0.80078125 C-2.625 -0.1875 -2.625 -0.1875 0 0 Z " fill="#F6F6F6" transform="translate(92.625,87.1875)"/>
<path d="M0 0 C4.55555556 0.55555556 4.55555556 0.55555556 6 2 C6.1875 4.9375 6.1875 4.9375 6 8 C4 10 4 10 1.5 10.3125 C0.2625 10.1578125 0.2625 10.1578125 -1 10 C-3 7 -3 7 -2.75 4.4375 C-2 2 -2 2 0 0 Z " fill="#EFEFEF" transform="translate(103,93)"/>
</svg>
